*
*
G04 PADS 9.5 Build Number: 522968 generated Gerber (RS-274-X) file*
G04 PC Version=2.1*
*
%IN "ESP32_WROOM_32D_5X5_V2-"*%
*
%MOIN*%
*
%FSLAX35Y35*%
*
*
*
*
G04 PC Standard Apertures*
*
*
G04 Thermal Relief Aperture macro.*
%AMTER*
1,1,$1,0,0*
1,0,$1-$2,0,0*
21,0,$3,$4,0,0,45*
21,0,$3,$4,0,0,135*
%
*
*
G04 Annular Aperture macro.*
%AMANN*
1,1,$1,0,0*
1,0,$2,0,0*
%
*
*
G04 Odd Aperture macro.*
%AMODD*
1,1,$1,0,0*
1,0,$1-0.005,0,0*
%
*
*
G04 PC Custom Aperture Macros*
*
*
*
*
*
*
G04 PC Aperture Table*
*
%ADD010C,0.001*%
%ADD044C,0.01*%
%ADD045C,0.02*%
%ADD046C,0.015*%
%ADD047C,0.012*%
%ADD051C,0.025*%
%ADD109C,0.005*%
%ADD120C,0.01575*%
%ADD121R,0.06693X0.03543*%
%ADD122R,0.03543X0.06693*%
%ADD166C,0.03*%
%ADD191R,0.1378X0.1378*%
*
*
*
*
G04 PC Circuitry*
G04 Layer Name ESP32_WROOM_32D_5X5_V2- - circuitry*
%LPD*%
*
G54D10*
G01X2064426Y1524213D02*
X2064383Y1524514D01*
X2064259Y1524762*
X2064057Y1524883*
X2063763Y1524925*
X2063549Y1524882*
X2063382Y1524840*
X2063219Y1524718*
X2063090Y1524503*
X2063003Y1524507*
X2062917Y1524678*
X2062796Y1524799*
X2062587Y1524883*
X2062379Y1524924*
X2062214Y1524883*
X2062004Y1524799*
X2061743Y1524538*
X2061743D02*
X2061658Y1524574D01*
Y1524881*
X2061356*
Y1522660*
X2061658*
Y1524083*
X2061660Y1524095*
X2061704Y1524273*
X2061714Y1524293*
X2061937Y1524561*
X2061962Y1524577*
X2062275Y1524667*
X2062300*
X2062479Y1524622*
X2062495Y1524615*
X2062629Y1524526*
X2062646Y1524507*
X2062735Y1524328*
X2062740Y1524306*
Y1522660*
X2063042*
Y1523949*
Y1523956*
X2063087Y1524268*
X2063097Y1524291*
X2063231Y1524470*
X2063241Y1524480*
X2063419Y1524614*
X2063439Y1524623*
X2063662Y1524668*
X2063682*
X2063905Y1524623*
X2063936Y1524604*
X2064069Y1524425*
X2064077Y1524411*
X2064122Y1524277*
X2064124Y1524261*
Y1522660*
X2064426*
Y1524213*
X2060676D02*
X2060633Y1524514D01*
X2060509Y1524762*
X2060307Y1524883*
X2060013Y1524925*
X2059799Y1524882*
X2059632Y1524840*
X2059469Y1524718*
X2059340Y1524503*
X2059253Y1524507*
X2059167Y1524678*
X2059046Y1524799*
X2058837Y1524883*
X2058629Y1524924*
X2058464Y1524883*
X2058254Y1524799*
X2057993Y1524538*
X2057993D02*
X2057908Y1524574D01*
Y1524881*
X2057606*
Y1522660*
X2057908*
Y1524083*
X2057910Y1524095*
X2057954Y1524273*
X2057964Y1524293*
X2058187Y1524561*
X2058212Y1524577*
X2058525Y1524667*
X2058550*
X2058729Y1524622*
X2058745Y1524615*
X2058879Y1524526*
X2058896Y1524507*
X2058985Y1524328*
X2058990Y1524306*
Y1522660*
X2059292*
Y1523949*
Y1523956*
X2059337Y1524268*
X2059347Y1524291*
X2059481Y1524470*
X2059491Y1524480*
X2059669Y1524614*
X2059689Y1524623*
X2059912Y1524668*
X2059932*
X2060155Y1524623*
X2060186Y1524604*
X2060319Y1524425*
X2060327Y1524411*
X2060372Y1524277*
X2060374Y1524261*
Y1522660*
X2060676*
Y1524213*
X2057015Y1524611D02*
X2056928Y1524916D01*
X2056753Y1525398*
X2056628Y1525565*
X2056464Y1525688*
X2056037Y1525773*
X2055741Y1525731*
X2055490Y1525605*
X2055323Y1525396*
X2055193Y1525094*
X2055106Y1524700*
X2055062Y1524170*
Y1523776*
X2055149Y1523426*
X2055236Y1523121*
X2055362Y1522912*
X2055657Y1522701*
X2056040Y1522616*
X2056336Y1522658*
X2056587Y1522783*
X2056754Y1522993*
X2056883Y1523295*
X2056971Y1523689*
X2057015Y1524174*
Y1524611*
X2056713Y1524529D02*
Y1523815D01*
Y1523807*
X2056668Y1523539*
Y1523537*
X2056623Y1523314*
X2056619Y1523301*
X2056530Y1523123*
X2056516Y1523106*
X2056293Y1522928*
X2056271Y1522918*
X2056048Y1522873*
X2056029*
X2055805Y1522918*
X2055784Y1522928*
X2055561Y1523106*
X2055547Y1523123*
X2055458Y1523301*
X2055454Y1523314*
X2055409Y1523537*
Y1523539*
X2055364Y1523807*
X2055363Y1523815*
Y1524529*
X2055364Y1524536*
X2055409Y1524849*
Y1524852*
X2055454Y1525075*
X2055458Y1525087*
X2055547Y1525266*
X2055561Y1525283*
X2055784Y1525461*
X2055805Y1525471*
X2056029Y1525516*
X2056047*
X2056314Y1525471*
X2056345Y1525453*
X2056524Y1525230*
X2056526Y1525227*
X2056616Y1525093*
X2056623Y1525075*
X2056668Y1524852*
Y1524849*
X2056713Y1524536*
Y1524529*
X2054515Y1523725D02*
X2054472Y1524109D01*
X2054261Y1524404*
X2053963Y1524617*
X2053625Y1524702*
X2053333Y1524660*
X2053075Y1524488*
X2052997Y1524529*
X2052998Y1524537*
X2053132Y1525385*
X2053181Y1525427*
X2054337*
Y1525729*
X2052910*
X2052615Y1524171*
X2052940Y1524135*
X2053146Y1524341*
X2053167Y1524354*
X2053480Y1524443*
X2053501Y1524445*
X2053813Y1524400*
X2053836Y1524391*
X2054015Y1524257*
X2054028Y1524242*
X2054162Y1524019*
X2054168Y1524001*
X2054213Y1523688*
Y1523674*
X2054168Y1523361*
X2054162Y1523343*
X2054028Y1523120*
X2054020Y1523110*
X2053842Y1522931*
X2053813Y1522917*
X2053501Y1522873*
X2053484*
X2053261Y1522918*
X2053248Y1522922*
X2053070Y1523011*
X2053047Y1523034*
X2052958Y1523212*
X2052955Y1523219*
X2052879Y1523448*
X2052574Y1523414*
X2052647Y1523122*
X2052858Y1522826*
X2053153Y1522658*
X2053493Y1522615*
X2053753Y1522659*
X2053964Y1522701*
X2054131Y1522826*
X2054302Y1522997*
X2054472Y1523295*
X2054515Y1523725*
X2051792Y1522961D02*
X2051490D01*
Y1522660*
X2051792*
Y1522961*
X2050765Y1523725D02*
X2050722Y1524109D01*
X2050511Y1524404*
X2050213Y1524617*
X2049875Y1524702*
X2049583Y1524660*
X2049325Y1524488*
X2049247Y1524529*
X2049248Y1524537*
X2049382Y1525385*
X2049431Y1525427*
X2050587*
Y1525729*
X2049160*
X2048865Y1524171*
X2049190Y1524135*
X2049396Y1524341*
X2049417Y1524354*
X2049730Y1524443*
X2049751Y1524445*
X2050063Y1524400*
X2050086Y1524391*
X2050265Y1524257*
X2050278Y1524242*
X2050412Y1524019*
X2050418Y1524001*
X2050463Y1523688*
Y1523674*
X2050418Y1523361*
X2050412Y1523343*
X2050278Y1523120*
X2050270Y1523110*
X2050092Y1522931*
X2050063Y1522917*
X2049751Y1522873*
X2049734*
X2049511Y1522918*
X2049498Y1522922*
X2049320Y1523011*
X2049297Y1523034*
X2049208Y1523212*
X2049205Y1523219*
X2049129Y1523448*
X2048824Y1523414*
X2048897Y1523122*
X2049108Y1522826*
X2049403Y1522658*
X2049743Y1522615*
X2050003Y1522659*
X2050214Y1522701*
X2050381Y1522826*
X2050552Y1522997*
X2050722Y1523295*
X2050765Y1523725*
X2048221Y1522961D02*
X2046708D01*
X2046669Y1523043*
X2046848Y1523266*
X2046857Y1523275*
X2047034Y1523408*
X2047300Y1523630*
X2047654Y1523939*
X2047874Y1524203*
X2048003Y1524375*
X2048089Y1524589*
X2048175Y1524934*
X2048133Y1525267*
X2047925Y1525517*
X2047627Y1525687*
X2047241Y1525773*
X2046858Y1525731*
X2046564Y1525563*
X2046352Y1525267*
X2046279Y1524974*
X2046579Y1524941*
X2046614Y1525119*
X2046623Y1525140*
X2046757Y1525318*
X2046767Y1525328*
X2046946Y1525462*
X2046968Y1525471*
X2047236Y1525516*
X2047254*
X2047477Y1525471*
X2047497Y1525462*
X2047676Y1525328*
X2047681Y1525323*
X2047815Y1525190*
X2047828Y1525164*
X2047873Y1524941*
Y1524921*
X2047828Y1524698*
X2047822Y1524682*
X2047688Y1524459*
X2047683Y1524452*
X2047416Y1524140*
X2047411Y1524135*
X2047008Y1523777*
X2046699Y1523512*
X2046350Y1523075*
X2046265Y1522864*
X2046231Y1522660*
X2048221*
Y1522961*
X2013745Y1580493D02*
X2013702Y1580794D01*
X2013578Y1581041*
X2013376Y1581163*
X2013082Y1581205*
X2012868Y1581162*
X2012701Y1581120*
X2012538Y1580998*
X2012409Y1580783*
X2012322Y1580786*
X2012236Y1580958*
X2012115Y1581079*
X2011906Y1581162*
X2011698Y1581204*
X2011534Y1581163*
X2011323Y1581079*
X2011062Y1580818*
X2010977Y1580853*
Y1581161*
X2010675*
Y1578939*
X2010977*
Y1580362*
X2010979Y1580375*
X2011023Y1580553*
X2011033Y1580573*
X2011256Y1580841*
X2011281Y1580857*
X2011594Y1580946*
X2011620Y1580947*
X2011798Y1580902*
X2011814Y1580895*
X2011948Y1580806*
X2011965Y1580787*
X2012054Y1580608*
X2012059Y1580586*
Y1578939*
X2012361*
Y1580228*
Y1580236*
X2012406Y1580548*
X2012416Y1580571*
X2012550Y1580750*
X2012560Y1580760*
X2012738Y1580893*
X2012758Y1580902*
X2012982Y1580947*
X2013001*
X2013224Y1580902*
X2013255Y1580883*
X2013388Y1580705*
X2013396Y1580691*
X2013441Y1580557*
X2013443Y1580541*
Y1578939*
X2013745*
Y1580493*
X2009995D02*
X2009952Y1580794D01*
X2009828Y1581041*
X2009626Y1581163*
X2009332Y1581205*
X2009118Y1581162*
X2008951Y1581120*
X2008788Y1580998*
X2008659Y1580783*
X2008572Y1580786*
X2008486Y1580958*
X2008365Y1581079*
X2008156Y1581162*
X2007948Y1581204*
X2007784Y1581163*
X2007573Y1581079*
X2007312Y1580818*
X2007227Y1580853*
Y1581161*
X2006925*
Y1578939*
X2007227*
Y1580362*
X2007229Y1580375*
X2007273Y1580553*
X2007283Y1580573*
X2007506Y1580841*
X2007531Y1580857*
X2007844Y1580946*
X2007870Y1580947*
X2008048Y1580902*
X2008064Y1580895*
X2008198Y1580806*
X2008215Y1580787*
X2008304Y1580608*
X2008309Y1580586*
Y1578939*
X2008611*
Y1580228*
Y1580236*
X2008656Y1580548*
X2008666Y1580571*
X2008800Y1580750*
X2008810Y1580760*
X2008988Y1580893*
X2009008Y1580902*
X2009232Y1580947*
X2009251*
X2009474Y1580902*
X2009505Y1580883*
X2009638Y1580705*
X2009646Y1580691*
X2009691Y1580557*
X2009693Y1580541*
Y1578939*
X2009995*
Y1580493*
X2006334Y1580891D02*
X2006247Y1581195D01*
X2006072Y1581678*
X2005947Y1581845*
X2005783Y1581967*
X2005356Y1582053*
X2005060Y1582010*
X2004809Y1581885*
X2004642Y1581676*
X2004512Y1581374*
X2004425Y1580980*
X2004381Y1580450*
Y1580056*
X2004468Y1579706*
X2004555Y1579400*
X2004681Y1579192*
X2004976Y1578980*
X2005359Y1578895*
X2005655Y1578938*
X2005906Y1579063*
X2006073Y1579272*
X2006202Y1579574*
X2006290Y1579968*
X2006334Y1580454*
Y1580891*
X2006032Y1580809D02*
Y1580095D01*
Y1580086*
X2005987Y1579818*
Y1579817*
X2005942Y1579594*
X2005938Y1579581*
X2005849Y1579403*
X2005835Y1579386*
X2005612Y1579207*
X2005590Y1579197*
X2005367Y1579153*
X2005348*
X2005124Y1579197*
X2005103Y1579207*
X2004880Y1579386*
X2004866Y1579403*
X2004777Y1579581*
X2004773Y1579594*
X2004728Y1579817*
Y1579818*
X2004683Y1580086*
X2004682Y1580095*
Y1580809*
X2004683Y1580816*
X2004728Y1581128*
Y1581131*
X2004773Y1581354*
X2004777Y1581367*
X2004866Y1581545*
X2004880Y1581562*
X2005103Y1581741*
X2005124Y1581751*
X2005348Y1581795*
X2005366Y1581796*
X2005633Y1581751*
X2005664Y1581733*
X2005843Y1581510*
X2005845Y1581506*
X2005935Y1581372*
X2005942Y1581354*
X2005987Y1581131*
Y1581128*
X2006032Y1580816*
Y1580809*
X2003834Y1580891D02*
X2003747Y1581195D01*
X2003572Y1581678*
X2003447Y1581845*
X2003283Y1581967*
X2002856Y1582053*
X2002560Y1582010*
X2002309Y1581885*
X2002142Y1581676*
X2002012Y1581374*
X2001925Y1580980*
X2001881Y1580450*
Y1580056*
X2001968Y1579706*
X2002055Y1579400*
X2002181Y1579192*
X2002476Y1578980*
X2002859Y1578895*
X2003155Y1578938*
X2003406Y1579063*
X2003573Y1579272*
X2003702Y1579574*
X2003790Y1579968*
X2003834Y1580454*
Y1580891*
X2003532Y1580809D02*
Y1580095D01*
Y1580086*
X2003487Y1579818*
Y1579817*
X2003442Y1579594*
X2003438Y1579581*
X2003349Y1579403*
X2003335Y1579386*
X2003112Y1579207*
X2003090Y1579197*
X2002867Y1579153*
X2002848*
X2002624Y1579197*
X2002603Y1579207*
X2002380Y1579386*
X2002366Y1579403*
X2002277Y1579581*
X2002273Y1579594*
X2002228Y1579817*
Y1579818*
X2002183Y1580086*
X2002182Y1580095*
Y1580809*
X2002183Y1580816*
X2002228Y1581128*
Y1581131*
X2002273Y1581354*
X2002277Y1581367*
X2002366Y1581545*
X2002380Y1581562*
X2002603Y1581741*
X2002624Y1581751*
X2002848Y1581795*
X2002866Y1581796*
X2003133Y1581751*
X2003164Y1581733*
X2003343Y1581510*
X2003345Y1581506*
X2003435Y1581372*
X2003442Y1581354*
X2003487Y1581131*
Y1581128*
X2003532Y1580816*
Y1580809*
X2001111Y1579241D02*
X2000809D01*
Y1578939*
X2001111*
Y1579241*
X2000083Y1579828D02*
X2000041Y1580081D01*
X1999958Y1580290*
X1999792Y1580455*
X1999531Y1580586*
X1999528Y1580673*
X1999746Y1580804*
X1999870Y1580928*
X1999953Y1581094*
X1999994Y1581258*
X1999952Y1581592*
X1999743Y1581843*
X1999492Y1582010*
X1999107Y1582053*
X1998723Y1582010*
X1998472Y1581843*
X1998262Y1581591*
X1998221Y1581301*
X1998262Y1581093*
X1998345Y1580928*
X1998469Y1580804*
X1998687Y1580673*
X1998677Y1580583*
X1998420Y1580497*
X1998258Y1580335*
X1998174Y1580082*
X1998132Y1579828*
X1998217Y1579443*
X1998386Y1579148*
X1998722Y1578938*
X1999107Y1578895*
X1999492Y1578938*
X1999829Y1579148*
X1999998Y1579443*
X2000083Y1579828*
X1999692Y1581243D02*
X1999647Y1581065D01*
X1999640Y1581049*
X1999551Y1580915*
X1999532Y1580898*
X1999353Y1580809*
X1999340Y1580804*
X1999117Y1580760*
X1999098*
X1998874Y1580804*
X1998862Y1580809*
X1998683Y1580898*
X1998664Y1580915*
X1998575Y1581049*
X1998567Y1581067*
X1998523Y1581290*
Y1581312*
X1998568Y1581491*
X1998575Y1581506*
X1998664Y1581640*
X1998683Y1581657*
X1998862Y1581746*
X1998874Y1581751*
X1999098Y1581795*
X1999117*
X1999340Y1581751*
X1999353Y1581746*
X1999532Y1581657*
X1999554Y1581635*
X1999643Y1581456*
X1999647Y1581446*
X1999692Y1581267*
Y1581243*
X1999782Y1579827D02*
Y1579818D01*
X1999737Y1579551*
X1999728Y1579529*
X1999594Y1579350*
X1999584Y1579340*
X1999405Y1579206*
X1999383Y1579197*
X1999116Y1579152*
X1999107*
X1998929*
X1998901Y1579160*
X1998770Y1579248*
X1998594Y1579336*
X1998575Y1579353*
X1998485Y1579486*
X1998478Y1579507*
X1998433Y1579820*
X1998432Y1579827*
X1998433Y1579836*
X1998478Y1580060*
X1998484Y1580076*
X1998618Y1580299*
X1998631Y1580313*
X1998810Y1580447*
X1998831Y1580456*
X1999099Y1580501*
X1999116*
X1999383Y1580456*
X1999405Y1580447*
X1999584Y1580313*
X1999597Y1580299*
X1999731Y1580076*
X1999737Y1580060*
X1999781Y1579836*
X1999782Y1579827*
X1997004Y1582053D02*
X1996814D01*
X1996695Y1581855*
X1996687Y1581845*
X1996464Y1581622*
X1996457Y1581615*
X1996189Y1581437*
X1996186Y1581435*
X1995898Y1581271*
Y1580979*
X1996268Y1581164*
X1996622Y1581429*
X1996702Y1581389*
Y1578939*
X1997004*
Y1582053*
X1995900Y1580980D02*
Y1581272D01*
X1996000Y1581030D02*
Y1581329D01*
X1996100Y1581080D02*
Y1581386D01*
X1996200Y1581130D02*
Y1581444D01*
X1996300Y1581188D02*
Y1581511D01*
X1996400Y1581263D02*
Y1581578D01*
X1996500Y1581338D02*
Y1581658D01*
X1996600Y1581413D02*
Y1581758D01*
X1996700Y1581403D02*
Y1581863D01*
X1996800Y1578939D02*
Y1582030D01*
X1996900Y1578939D02*
Y1582053D01*
X1997000Y1578939D02*
Y1582053D01*
X1998200Y1579520D02*
Y1580161D01*
X1998300Y1579298D02*
Y1580377D01*
Y1581018D02*
Y1581637D01*
X1998400Y1579139D02*
Y1580477D01*
Y1580873D02*
Y1581757D01*
X1998500Y1579077D02*
Y1579465D01*
Y1580102D02*
Y1580524D01*
Y1580785D02*
Y1581862D01*
X1998600Y1579014D02*
Y1579332D01*
Y1580269D02*
Y1580557D01*
Y1580725D02*
Y1581011D01*
Y1581544D02*
Y1581928D01*
X1998700Y1578952D02*
Y1579282D01*
Y1580365D02*
Y1580599D01*
Y1580661D02*
Y1580890D01*
Y1581665D02*
Y1581995D01*
X1998800Y1578929D02*
Y1579227D01*
Y1580440D02*
Y1580840D01*
Y1581715D02*
Y1582019D01*
X1998900Y1578918D02*
Y1579161D01*
Y1580468D02*
Y1580799D01*
Y1581756D02*
Y1582030D01*
X1999000Y1578907D02*
Y1579152D01*
Y1580484D02*
Y1580779D01*
Y1581776D02*
Y1582041D01*
X1999100Y1578896D02*
Y1579152D01*
Y1580501D02*
Y1580759D01*
Y1581796D02*
Y1582052D01*
X1999200Y1578905D02*
Y1579166D01*
Y1580487D02*
Y1580776D01*
Y1581779D02*
Y1582043D01*
X1999300Y1578916D02*
Y1579183D01*
Y1580470D02*
Y1580796D01*
Y1581759D02*
Y1582032D01*
X1999400Y1578927D02*
Y1579203D01*
Y1580450D02*
Y1580832D01*
Y1581723D02*
Y1582021D01*
X1999500Y1578942D02*
Y1579277D01*
Y1580376D02*
Y1580882D01*
Y1581673D02*
Y1582005D01*
X1999600Y1579005D02*
Y1579358D01*
Y1580293D02*
Y1580551D01*
Y1580716D02*
Y1580989D01*
Y1581543D02*
Y1581938D01*
X1999700Y1579067D02*
Y1579492D01*
Y1580127D02*
Y1580501D01*
Y1580776D02*
Y1581872D01*
X1999800Y1579130D02*
Y1580447D01*
Y1580858D02*
Y1581775D01*
X1999900Y1579272D02*
Y1580347D01*
Y1580988D02*
Y1581655D01*
X2000000Y1579453D02*
Y1580184D01*
X2000900Y1578939D02*
Y1579241D01*
X2001000Y1578939D02*
Y1579241D01*
X2001100Y1578939D02*
Y1579241D01*
X2001900Y1579978D02*
Y1580682D01*
X2002000Y1579594D02*
Y1581318D01*
X2002100Y1579326D02*
Y1581578D01*
X2002200Y1579178D02*
Y1579985D01*
Y1580936D02*
Y1581749D01*
X2002300Y1579106D02*
Y1579535D01*
Y1581413D02*
Y1581874D01*
X2002400Y1579035D02*
Y1579370D01*
Y1581578D02*
Y1581930D01*
X2002500Y1578975D02*
Y1579290D01*
Y1581658D02*
Y1581980D01*
X2002600Y1578953D02*
Y1579210D01*
Y1581738D02*
Y1582016D01*
X2002700Y1578931D02*
Y1579182D01*
Y1581766D02*
Y1582030D01*
X2002800Y1578909D02*
Y1579162D01*
Y1581786D02*
Y1582045D01*
X2002900Y1578901D02*
Y1579159D01*
Y1581790D02*
Y1582044D01*
X2003000Y1578915D02*
Y1579179D01*
Y1581773D02*
Y1582024D01*
X2003100Y1578930D02*
Y1579200D01*
Y1581757D02*
Y1582004D01*
X2003200Y1578960D02*
Y1579278D01*
Y1581688D02*
Y1581984D01*
X2003300Y1579010D02*
Y1579358D01*
Y1581563D02*
Y1581955D01*
X2003400Y1579060D02*
Y1579505D01*
Y1581424D02*
Y1581880D01*
X2003500Y1579181D02*
Y1579896D01*
Y1581039D02*
Y1581773D01*
X2003600Y1579335D02*
Y1581600D01*
X2003700Y1579569D02*
Y1581325D01*
X2003800Y1580078D02*
Y1581011D01*
X2004400Y1579978D02*
Y1580682D01*
X2004500Y1579594D02*
Y1581318D01*
X2004600Y1579326D02*
Y1581578D01*
X2004700Y1579178D02*
Y1579985D01*
Y1580936D02*
Y1581749D01*
X2004800Y1579106D02*
Y1579535D01*
Y1581413D02*
Y1581874D01*
X2004900Y1579035D02*
Y1579370D01*
Y1581578D02*
Y1581930D01*
X2005000Y1578975D02*
Y1579290D01*
Y1581658D02*
Y1581980D01*
X2005100Y1578953D02*
Y1579210D01*
Y1581738D02*
Y1582016D01*
X2005200Y1578931D02*
Y1579182D01*
Y1581766D02*
Y1582030D01*
X2005300Y1578909D02*
Y1579162D01*
Y1581786D02*
Y1582045D01*
X2005400Y1578901D02*
Y1579159D01*
Y1581790D02*
Y1582044D01*
X2005500Y1578915D02*
Y1579179D01*
Y1581773D02*
Y1582024D01*
X2005600Y1578930D02*
Y1579200D01*
Y1581757D02*
Y1582004D01*
X2005700Y1578960D02*
Y1579278D01*
Y1581688D02*
Y1581984D01*
X2005800Y1579010D02*
Y1579358D01*
Y1581563D02*
Y1581955D01*
X2005900Y1579060D02*
Y1579505D01*
Y1581424D02*
Y1581880D01*
X2006000Y1579181D02*
Y1579896D01*
Y1581039D02*
Y1581773D01*
X2006100Y1579335D02*
Y1581600D01*
X2006200Y1579569D02*
Y1581325D01*
X2006300Y1580078D02*
Y1581011D01*
X2007000Y1578939D02*
Y1581161D01*
X2007100Y1578939D02*
Y1581161D01*
X2007200Y1578939D02*
Y1581161D01*
X2007300Y1580593D02*
Y1580809D01*
X2007400Y1580713D02*
Y1580906D01*
X2007500Y1580833D02*
Y1581006D01*
X2007600Y1580877D02*
Y1581090D01*
X2007700Y1580905D02*
Y1581130D01*
X2007800Y1580934D02*
Y1581167D01*
X2007900Y1580939D02*
Y1581192D01*
X2008000Y1580914D02*
Y1581194D01*
X2008100Y1580871D02*
Y1581174D01*
X2008200Y1580804D02*
Y1581145D01*
X2008300Y1580616D02*
Y1581105D01*
X2008400Y1578939D02*
Y1581044D01*
X2008500Y1578939D02*
Y1580930D01*
X2008600Y1578939D02*
Y1580762D01*
X2008700Y1580617D02*
Y1580851D01*
X2008800Y1580750D02*
Y1581007D01*
X2008900Y1580827D02*
Y1581082D01*
X2009000Y1580900D02*
Y1581132D01*
X2009100Y1580921D02*
Y1581157D01*
X2009200Y1580941D02*
Y1581178D01*
X2009300Y1580937D02*
Y1581198D01*
X2009400Y1580917D02*
Y1581195D01*
X2009500Y1580889D02*
Y1581181D01*
X2009600Y1580756D02*
Y1581166D01*
X2009700Y1578939D02*
Y1581118D01*
X2009800Y1578939D02*
Y1581058D01*
X2009900Y1578939D02*
Y1580897D01*
X2010700Y1578939D02*
Y1581161D01*
X2010800Y1578939D02*
Y1581161D01*
X2010900Y1578939D02*
Y1581161D01*
X2011000Y1580460D02*
Y1580811D01*
X2011100Y1580653D02*
Y1580856D01*
X2011200Y1580773D02*
Y1580956D01*
X2011300Y1580862D02*
Y1581056D01*
X2011400Y1580891D02*
Y1581110D01*
X2011500Y1580919D02*
Y1581150D01*
X2011600Y1580948D02*
Y1581180D01*
X2011700Y1580926D02*
Y1581204D01*
X2011800Y1580901D02*
Y1581184D01*
X2011900Y1580838D02*
Y1581164D01*
X2012000Y1580716D02*
Y1581125D01*
X2012100Y1578939D02*
Y1581085D01*
X2012200Y1578939D02*
Y1580994D01*
X2012300Y1578939D02*
Y1580830D01*
X2012400Y1580505D02*
Y1580772D01*
X2012500Y1580683D02*
Y1580934D01*
X2012600Y1580790D02*
Y1581044D01*
X2012700Y1580865D02*
Y1581119D01*
X2012800Y1580911D02*
Y1581145D01*
X2012900Y1580931D02*
Y1581168D01*
X2013000Y1580947D02*
Y1581188D01*
X2013100Y1580927D02*
Y1581202D01*
X2013200Y1580907D02*
Y1581188D01*
X2013300Y1580823D02*
Y1581173D01*
X2013400Y1580678D02*
Y1581148D01*
X2013500Y1578939D02*
Y1581088D01*
X2013600Y1578939D02*
Y1580997D01*
X2013700Y1578939D02*
Y1580797D01*
X2046300Y1522660D02*
Y1522950D01*
Y1524972D02*
Y1525057D01*
X2046400Y1522660D02*
Y1523138D01*
Y1524961D02*
Y1525333D01*
X2046500Y1522660D02*
Y1523263D01*
Y1524950D02*
Y1525473D01*
X2046600Y1522660D02*
Y1523388D01*
Y1525048D02*
Y1525583D01*
X2046700Y1522660D02*
Y1522962D01*
Y1523081D02*
Y1523513D01*
Y1525242D02*
Y1525641D01*
X2046800Y1522660D02*
Y1522961D01*
Y1523206D02*
Y1523598D01*
Y1525353D02*
Y1525698D01*
X2046900Y1522660D02*
Y1522961D01*
Y1523307D02*
Y1523684D01*
Y1525428D02*
Y1525735D01*
X2047000Y1522660D02*
Y1522961D01*
Y1523382D02*
Y1523770D01*
Y1525477D02*
Y1525746D01*
X2047100Y1522660D02*
Y1522961D01*
Y1523463D02*
Y1523858D01*
Y1525493D02*
Y1525758D01*
X2047200Y1522660D02*
Y1522961D01*
Y1523546D02*
Y1523947D01*
Y1525510D02*
Y1525769D01*
X2047300Y1522660D02*
Y1522961D01*
Y1523629D02*
Y1524036D01*
Y1525506D02*
Y1525760D01*
X2047400Y1522660D02*
Y1522961D01*
Y1523717D02*
Y1524125D01*
Y1525486D02*
Y1525738D01*
X2047500Y1522660D02*
Y1522961D01*
Y1523804D02*
Y1524238D01*
Y1525460D02*
Y1525716D01*
X2047600Y1522660D02*
Y1522961D01*
Y1523892D02*
Y1524355D01*
Y1525385D02*
Y1525693D01*
X2047700Y1522660D02*
Y1522961D01*
Y1523994D02*
Y1524478D01*
Y1525304D02*
Y1525646D01*
X2047800Y1522660D02*
Y1522961D01*
Y1524114D02*
Y1524645D01*
Y1525204D02*
Y1525589D01*
X2047900Y1522660D02*
Y1522961D01*
Y1524238D02*
Y1525532D01*
X2048000Y1522660D02*
Y1522961D01*
Y1524371D02*
Y1525428D01*
X2048100Y1522660D02*
Y1522961D01*
Y1524634D02*
Y1525308D01*
X2048200Y1522660D02*
Y1522961D01*
X2048900Y1523118D02*
Y1523423D01*
Y1524167D02*
Y1524354D01*
X2049000Y1522978D02*
Y1523434D01*
Y1524156D02*
Y1524883D01*
X2049100Y1522838D02*
Y1523445D01*
Y1524145D02*
Y1525411D01*
X2049200Y1522774D02*
Y1523234D01*
Y1524145D02*
Y1525729D01*
X2049300Y1522717D02*
Y1523029D01*
Y1524245D02*
Y1524479D01*
Y1524867D02*
Y1525729D01*
X2049400Y1522659D02*
Y1522971D01*
Y1524345D02*
Y1524538D01*
Y1525416D02*
Y1525729D01*
X2049500Y1522646D02*
Y1522921D01*
Y1524378D02*
Y1524604D01*
Y1525427D02*
Y1525729D01*
X2049600Y1522633D02*
Y1522900D01*
Y1524406D02*
Y1524662D01*
Y1525427D02*
Y1525729D01*
X2049700Y1522621D02*
Y1522880D01*
Y1524435D02*
Y1524677D01*
Y1525427D02*
Y1525729D01*
X2049800Y1522625D02*
Y1522880D01*
Y1524438D02*
Y1524691D01*
Y1525427D02*
Y1525729D01*
X2049900Y1522642D02*
Y1522894D01*
Y1524423D02*
Y1524695D01*
Y1525427D02*
Y1525729D01*
X2050000Y1522658D02*
Y1522908D01*
Y1524409D02*
Y1524670D01*
Y1525427D02*
Y1525729D01*
X2050100Y1522678D02*
Y1522940D01*
Y1524380D02*
Y1524645D01*
Y1525427D02*
Y1525729D01*
X2050200Y1522698D02*
Y1523040D01*
Y1524305D02*
Y1524620D01*
Y1525427D02*
Y1525729D01*
X2050300Y1522766D02*
Y1523157D01*
Y1524205D02*
Y1524555D01*
Y1525427D02*
Y1525729D01*
X2050400Y1522845D02*
Y1523323D01*
Y1524039D02*
Y1524484D01*
Y1525427D02*
Y1525729D01*
X2050500Y1522945D02*
Y1524412D01*
Y1525427D02*
Y1525729D01*
X2050600Y1523082D02*
Y1524280D01*
X2050700Y1523257D02*
Y1524140D01*
X2051500Y1522660D02*
Y1522961D01*
X2051600Y1522660D02*
Y1522961D01*
X2051700Y1522660D02*
Y1522961D01*
X2052600Y1523310D02*
Y1523417D01*
X2052700Y1523048D02*
Y1523428D01*
Y1524162D02*
Y1524618D01*
X2052800Y1522908D02*
Y1523440D01*
Y1524151D02*
Y1525147D01*
X2052900Y1522802D02*
Y1523384D01*
Y1524140D02*
Y1525676D01*
X2053000Y1522745D02*
Y1523128D01*
Y1524195D02*
Y1524513D01*
Y1524550D02*
Y1525729D01*
X2053100Y1522688D02*
Y1522996D01*
Y1524295D02*
Y1524504D01*
Y1525184D02*
Y1525729D01*
X2053200Y1522652D02*
Y1522946D01*
Y1524363D02*
Y1524571D01*
Y1525427D02*
Y1525729D01*
X2053300Y1522640D02*
Y1522910D01*
Y1524392D02*
Y1524638D01*
Y1525427D02*
Y1525729D01*
X2053400Y1522627D02*
Y1522890D01*
Y1524421D02*
Y1524669D01*
Y1525427D02*
Y1525729D01*
X2053500Y1522617D02*
Y1522872D01*
Y1524445D02*
Y1524684D01*
Y1525427D02*
Y1525729D01*
X2053600Y1522633D02*
Y1522887D01*
Y1524431D02*
Y1524698D01*
Y1525427D02*
Y1525729D01*
X2053700Y1522650D02*
Y1522901D01*
Y1524416D02*
Y1524683D01*
Y1525427D02*
Y1525729D01*
X2053800Y1522668D02*
Y1522915D01*
Y1524402D02*
Y1524658D01*
Y1525427D02*
Y1525729D01*
X2053900Y1522688D02*
Y1522990D01*
Y1524343D02*
Y1524633D01*
Y1525427D02*
Y1525729D01*
X2054000Y1522728D02*
Y1523090D01*
Y1524268D02*
Y1524591D01*
Y1525427D02*
Y1525729D01*
X2054100Y1522803D02*
Y1523240D01*
Y1524122D02*
Y1524519D01*
Y1525427D02*
Y1525729D01*
X2054200Y1522895D02*
Y1523584D01*
Y1523778D02*
Y1524448D01*
Y1525427D02*
Y1525729D01*
X2054300Y1522995D02*
Y1524350D01*
Y1525427D02*
Y1525729D01*
X2054400Y1523169D02*
Y1524210D01*
X2054500Y1523577D02*
Y1523859D01*
X2055100Y1523623D02*
Y1524631D01*
X2055200Y1523248D02*
Y1525110D01*
X2055300Y1523015D02*
Y1525343D01*
X2055400Y1522885D02*
Y1523591D01*
Y1524789D02*
Y1525493D01*
X2055500Y1522813D02*
Y1523217D01*
Y1525171D02*
Y1525610D01*
X2055600Y1522742D02*
Y1523075D01*
Y1525314D02*
Y1525660D01*
X2055700Y1522691D02*
Y1522995D01*
Y1525394D02*
Y1525710D01*
X2055800Y1522669D02*
Y1522919D01*
Y1525470D02*
Y1525739D01*
X2055900Y1522647D02*
Y1522899D01*
Y1525490D02*
Y1525754D01*
X2056000Y1522625D02*
Y1522879D01*
Y1525510D02*
Y1525768D01*
X2056100Y1522624D02*
Y1522883D01*
Y1525507D02*
Y1525761D01*
X2056200Y1522639D02*
Y1522903D01*
Y1525490D02*
Y1525741D01*
X2056300Y1522653D02*
Y1522933D01*
Y1525474D02*
Y1525721D01*
X2056400Y1522690D02*
Y1523013D01*
Y1525385D02*
Y1525701D01*
X2056500Y1522740D02*
Y1523093D01*
Y1525260D02*
Y1525661D01*
X2056600Y1522800D02*
Y1523264D01*
Y1525116D02*
Y1525586D01*
X2056700Y1522925D02*
Y1523731D01*
Y1524626D02*
Y1525468D01*
X2056800Y1523100D02*
Y1525268D01*
X2056900Y1523369D02*
Y1524993D01*
X2057000Y1524008D02*
Y1524665D01*
X2057700Y1522660D02*
Y1524881D01*
X2057800Y1522660D02*
Y1524881D01*
X2057900Y1522660D02*
Y1524881D01*
X2058000Y1524336D02*
Y1524545D01*
X2058100Y1524456D02*
Y1524645D01*
X2058200Y1524572D02*
Y1524745D01*
X2058300Y1524602D02*
Y1524818D01*
X2058400Y1524631D02*
Y1524858D01*
X2058500Y1524660D02*
Y1524892D01*
X2058600Y1524655D02*
Y1524917D01*
X2058700Y1524630D02*
Y1524910D01*
X2058800Y1524579D02*
Y1524890D01*
X2058900Y1524498D02*
Y1524857D01*
X2059000Y1522660D02*
Y1524817D01*
X2059100Y1522660D02*
Y1524745D01*
X2059200Y1522660D02*
Y1524612D01*
X2059300Y1524009D02*
Y1524479D01*
X2059400Y1524363D02*
Y1524603D01*
X2059500Y1524487D02*
Y1524742D01*
X2059600Y1524562D02*
Y1524817D01*
X2059700Y1524625D02*
Y1524857D01*
X2059800Y1524645D02*
Y1524882D01*
X2059900Y1524665D02*
Y1524902D01*
X2060000Y1524654D02*
Y1524922D01*
X2060100Y1524634D02*
Y1524912D01*
X2060200Y1524585D02*
Y1524898D01*
X2060300Y1524451D02*
Y1524884D01*
X2060400Y1522660D02*
Y1524827D01*
X2060500Y1522660D02*
Y1524767D01*
X2060600Y1522660D02*
Y1524580D01*
X2061400Y1522660D02*
Y1524881D01*
X2061500Y1522660D02*
Y1524881D01*
X2061600Y1522660D02*
Y1524881D01*
X2061700Y1524257D02*
Y1524525D01*
X2061800Y1524396D02*
Y1524595D01*
X2061900Y1524516D02*
Y1524695D01*
X2062000Y1524588D02*
Y1524795D01*
X2062100Y1524617D02*
Y1524838D01*
X2062200Y1524645D02*
Y1524878D01*
X2062300Y1524667D02*
Y1524905D01*
X2062400Y1524642D02*
Y1524920D01*
X2062500Y1524612D02*
Y1524900D01*
X2062600Y1524545D02*
Y1524877D01*
X2062700Y1524398D02*
Y1524837D01*
X2062800Y1522660D02*
Y1524795D01*
X2062900Y1522660D02*
Y1524695D01*
X2063000Y1522660D02*
Y1524512D01*
X2063100Y1524296D02*
Y1524520D01*
X2063200Y1524429D02*
Y1524687D01*
X2063300Y1524525D02*
Y1524779D01*
X2063400Y1524600D02*
Y1524845D01*
X2063500Y1524635D02*
Y1524870D01*
X2063600Y1524655D02*
Y1524892D01*
X2063700Y1524664D02*
Y1524912D01*
X2063800Y1524644D02*
Y1524920D01*
X2063900Y1524624D02*
Y1524905D01*
X2064000Y1524518D02*
Y1524891D01*
X2064100Y1524342D02*
Y1524857D01*
X2064200Y1522660D02*
Y1524797D01*
X2064300Y1522660D02*
Y1524680D01*
X2064400Y1522660D02*
Y1524394D01*
*
G04 PC Custom Flashes*
G04 Layer Name ESP32_WROOM_32D_5X5_V2- - flashes*
%LPD*%
*
*
G04 PC Circuitry*
G04 Layer Name ESP32_WROOM_32D_5X5_V2- - circuitry*
%LPD*%
*
G54D10*
X1968504Y1574681D02*
X1968507D01*
X2039370D02*
X2039373D01*
X2039370Y1474288D02*
X2039373D01*
X2039370Y1574681D02*
X2039373D01*
G54D44*
X1968504D02*
X2039370D01*
Y1474288*
X1968504*
Y1574681*
G54D45*
X2008754Y1527303D03*
X1984254Y1538303D03*
Y1540803D03*
X1990754D03*
Y1538303D03*
G54D46*
X2008254Y1502053D03*
X1984004Y1515492D03*
X2011004Y1514353D03*
Y1518703D03*
G54D47*
X2000004Y1484053D03*
X1996754Y1485553D03*
X1998254Y1489053D03*
X2003254Y1487303D03*
X1995254Y1490553D03*
X2001504Y1487303D03*
X1995004D03*
X2006504Y1490553D03*
X2004754D03*
X1983054Y1503342D03*
X1986204D03*
X1991704Y1501703D03*
X1988004Y1503342D03*
X2001457Y1499617D03*
X2003004Y1500803D03*
X2004304Y1502103D03*
X1981479Y1504303D03*
X1983754Y1512553D03*
X1984629Y1504303D03*
X2011404Y1507503D03*
X2011624Y1505427D03*
X2015504Y1505303D03*
X2013754D03*
X2016254Y1510803D03*
X2014004Y1510603D03*
X2031754Y1504803D03*
X2031972Y1507680D03*
X2032066Y1510207D03*
X2031996Y1512500D03*
X1981504Y1523553D03*
X1979004Y1518803D03*
X1978504Y1520553D03*
X1980254Y1517553D03*
X1982254D03*
X1984254Y1522553D03*
X2013404Y1518503D03*
X2020004Y1519553D03*
X2018754Y1521303D03*
X2021004D03*
X2014104Y1514503D03*
X2015804D03*
X2019504Y1517303D03*
X2015204Y1519403D03*
X2017204D03*
X2032004Y1519553D03*
X2032020Y1514769D03*
X2032066Y1517202D03*
X1981004Y1526553D03*
X1979504Y1528053D03*
Y1525053D03*
X1980754Y1532053D03*
X1985254Y1532553D03*
X2013564Y1524417D03*
X2034704Y1531303D03*
X1992754Y1536053D03*
X1995754Y1543553D03*
X1996504Y1536203D03*
X1998754Y1542303D03*
G54D51*
X2005504Y1504803D02*
X2008254Y1502053D01*
X1984004Y1515492D02*
X1988004D01*
X2008004Y1518703D02*
X2011004D01*
X2008004Y1514353D02*
X2011004D01*
G54D109*
X1998254Y1489053D02*
X2005254D01*
X2006504Y1490303*
Y1490553*
X1995254D02*
X2004754D01*
X1995004Y1487303D02*
X2001504D01*
X2015504Y1505303D02*
Y1501803D01*
X2018504Y1498803*
X2029754*
X2033504Y1502553*
Y1528053*
X2035644Y1530193*
X2039370*
X2013754Y1505303D02*
Y1502053D01*
X2018254Y1497553*
X2030254*
X2034504Y1501803*
Y1524303*
X2035394Y1525193*
X2039370*
X1982754Y1542053D02*
X1991754D01*
Y1537053*
X1982754*
Y1542053*
X2006857Y1507553D02*
X2009254D01*
Y1501407*
X2008775Y1500928*
X2007607*
X2004754Y1503782*
Y1505450*
X2006857Y1507553*
X1982754Y1542002D02*
X1991754D01*
X1982754Y1541552D02*
X1991754D01*
X1982754Y1541102D02*
X1991754D01*
X1982754Y1540652D02*
X1991754D01*
X1982754Y1540202D02*
X1991754D01*
X1982754Y1539752D02*
X1991754D01*
X1982754Y1539302D02*
X1991754D01*
X1982754Y1538852D02*
X1991754D01*
X1982754Y1538402D02*
X1991754D01*
X1982754Y1537952D02*
X1991754D01*
X1982754Y1537502D02*
X1991754D01*
X2006531Y1507227D02*
X2009254D01*
X2006081Y1506777D02*
X2009254D01*
X2005631Y1506327D02*
X2009254D01*
X2005181Y1505877D02*
X2009254D01*
X2004754Y1505427D02*
X2009254D01*
X2004754Y1504977D02*
X2009254D01*
X2004754Y1504527D02*
X2009254D01*
X2004754Y1504077D02*
X2009254D01*
X2004909Y1503627D02*
X2009254D01*
X2005359Y1503177D02*
X2009254D01*
X2005809Y1502727D02*
X2009254D01*
X2006259Y1502277D02*
X2009254D01*
X2006709Y1501827D02*
X2009254D01*
X2007159Y1501377D02*
X2009224D01*
X2015354Y1510603D02*
G75*
G03X2015354I-1350J0D01*
G01X1982104Y1532053D02*
G03X1982104I-1350J0D01*
G01X2001354Y1484053D02*
G03X2001354I-1350J0D01*
G01X2038120Y1543013D02*
Y1549903D01*
G03X2037970Y1550053I-150J0*
G01X1969904*
G03X1969754Y1549903I-0J-150*
G01Y1542913*
G03X1969904Y1542763I150J0*
G01X1970834*
X1970953Y1542733D02*
G03X1970834Y1542763I-119J-220D01*
G01X1970953Y1542733D02*
G03X1971025Y1542715I72J132D01*
G01X1971850*
X1972600Y1541965D02*
G03X1971850Y1542715I-750J-0D01*
G01X1972600Y1541965D02*
Y1538421D01*
X1972291Y1537815D02*
G03X1972600Y1538421I-441J606D01*
G01X1972291Y1537815D02*
G03Y1537572I88J-122D01*
G01X1972600Y1536965D02*
G03X1972291Y1537572I-750J-0D01*
G01X1972600Y1536965D02*
Y1533421D01*
X1972291Y1532815D02*
G03X1972600Y1533421I-441J606D01*
G01X1972291Y1532815D02*
G03Y1532572I88J-122D01*
G01X1972600Y1531965D02*
G03X1972291Y1532572I-750J-0D01*
G01X1972600Y1531965D02*
Y1528421D01*
X1972291Y1527815D02*
G03X1972600Y1528421I-441J606D01*
G01X1972291Y1527815D02*
G03Y1527572I88J-122D01*
G01X1972600Y1526965D02*
G03X1972291Y1527572I-750J-0D01*
G01X1972600Y1526965D02*
Y1523421D01*
X1972291Y1522815D02*
G03X1972600Y1523421I-441J606D01*
G01X1972291Y1522815D02*
G03Y1522572I88J-122D01*
G01X1972600Y1521965D02*
G03X1972291Y1522572I-750J-0D01*
G01X1972600Y1521965D02*
Y1518421D01*
X1972291Y1517815D02*
G03X1972600Y1518421I-441J606D01*
G01X1972291Y1517815D02*
G03Y1517572I88J-122D01*
G01X1972600Y1516965D02*
G03X1972291Y1517572I-750J-0D01*
G01X1972600Y1516965D02*
Y1513421D01*
X1972291Y1512815D02*
G03X1972600Y1513421I-441J606D01*
G01X1972291Y1512815D02*
G03Y1512572I88J-122D01*
G01X1972600Y1511965D02*
G03X1972291Y1512572I-750J-0D01*
G01X1972600Y1511965D02*
Y1508421D01*
X1972291Y1507815D02*
G03X1972600Y1508421I-441J606D01*
G01X1972291Y1507815D02*
G03Y1507572I88J-122D01*
G01X1972600Y1506965D02*
G03X1972291Y1507572I-750J-0D01*
G01X1972600Y1506965D02*
Y1503421D01*
X1972291Y1502815D02*
G03X1972600Y1503421I-441J606D01*
G01X1972291Y1502815D02*
G03Y1502572I88J-122D01*
G01X1972600Y1501965D02*
G03X1972291Y1502572I-750J-0D01*
G01X1972600Y1501965D02*
Y1498421D01*
X1972291Y1497815D02*
G03X1972600Y1498421I-441J606D01*
G01X1972291Y1497815D02*
G03Y1497572I88J-122D01*
G01X1972600Y1496965D02*
G03X1972291Y1497572I-750J-0D01*
G01X1972600Y1496965D02*
Y1493421D01*
X1972291Y1492815D02*
G03X1972600Y1493421I-441J606D01*
G01X1972291Y1492815D02*
G03Y1492572I88J-122D01*
G01X1972600Y1491965D02*
G03X1972291Y1492572I-750J-0D01*
G01X1972600Y1491965D02*
Y1488421D01*
X1972291Y1487815D02*
G03X1972600Y1488421I-441J606D01*
G01X1972291Y1487815D02*
G03Y1487572I88J-122D01*
G01X1972600Y1486965D02*
G03X1972291Y1487572I-750J-0D01*
G01X1972600Y1486965D02*
Y1483421D01*
X1972291Y1482815D02*
G03X1972600Y1483421I-441J606D01*
G01X1972291Y1482815D02*
G03Y1482572I88J-122D01*
G01X1972600Y1481965D02*
G03X1972291Y1482572I-750J-0D01*
G01X1972600Y1481965D02*
Y1478421D01*
X1971850Y1477671D02*
G03X1972600Y1478421I0J750D01*
G01X1971850Y1477671D02*
X1969904D01*
G03X1969754Y1477521I-0J-150*
G01Y1475688*
G03X1969904Y1475538I150J-0*
G01X1983734*
G03X1983884Y1475688I-0J150*
G01Y1476413*
X1983928Y1476555D02*
G03X1983884Y1476413I206J-142D01*
G01X1983928Y1476555D02*
G03X1983954Y1476640I-124J85D01*
G01Y1477634*
X1984704Y1478384D02*
G03X1983954Y1477634I0J-750D01*
G01X1984704Y1478384D02*
X1988248D01*
X1988855Y1478074D02*
G03X1988248Y1478384I-607J-440D01*
G01X1988855Y1478074D02*
G03X1989097I121J88D01*
G01X1989704Y1478384D02*
G03X1989097Y1478074I0J-750D01*
G01X1989704Y1478384D02*
X1993248D01*
X1993855Y1478074D02*
G03X1993248Y1478384I-607J-440D01*
G01X1993855Y1478074D02*
G03X1994097I121J88D01*
G01X1994704Y1478384D02*
G03X1994097Y1478074I0J-750D01*
G01X1994704Y1478384D02*
X1998248D01*
X1998855Y1478074D02*
G03X1998248Y1478384I-607J-440D01*
G01X1998855Y1478074D02*
G03X1999097I121J88D01*
G01X1999704Y1478384D02*
G03X1999097Y1478074I0J-750D01*
G01X1999704Y1478384D02*
X2003248D01*
X2003855Y1478074D02*
G03X2003248Y1478384I-607J-440D01*
G01X2003855Y1478074D02*
G03X2004097I121J88D01*
G01X2004704Y1478384D02*
G03X2004097Y1478074I0J-750D01*
G01X2004704Y1478384D02*
X2008248D01*
X2008855Y1478074D02*
G03X2008248Y1478384I-607J-440D01*
G01X2008855Y1478074D02*
G03X2009097I121J88D01*
G01X2009704Y1478384D02*
G03X2009097Y1478074I0J-750D01*
G01X2009704Y1478384D02*
X2013248D01*
X2013855Y1478074D02*
G03X2013248Y1478384I-607J-440D01*
G01X2013855Y1478074D02*
G03X2014097I121J88D01*
G01X2014704Y1478384D02*
G03X2014097Y1478074I0J-750D01*
G01X2014704Y1478384D02*
X2018248D01*
X2018855Y1478074D02*
G03X2018248Y1478384I-607J-440D01*
G01X2018855Y1478074D02*
G03X2019097I121J88D01*
G01X2019704Y1478384D02*
G03X2019097Y1478074I0J-750D01*
G01X2019704Y1478384D02*
X2023248D01*
X2023855Y1478074D02*
G03X2023248Y1478384I-607J-440D01*
G01X2023855Y1478074D02*
G03X2024097I121J88D01*
G01X2024704Y1478384D02*
G03X2024097Y1478074I0J-750D01*
G01X2024704Y1478384D02*
X2028248D01*
X2028998Y1477634D02*
G03X2028248Y1478384I-750J-0D01*
G01X2028998Y1477634D02*
Y1476804D01*
G03X2029116Y1476658I150J0*
G01X2029314Y1476413D02*
G03X2029116Y1476658I-250J0D01*
G01X2029314Y1476413D02*
Y1475688D01*
G03X2029464Y1475538I150J-0*
G01X2037970*
G03X2038120Y1475688I-0J150*
G01Y1477521*
G03X2037970Y1477671I-150J0*
G01X2036037*
X2035287Y1478421D02*
G03X2036037Y1477671I750J0D01*
G01X2035287Y1478421D02*
Y1481965D01*
X2035591Y1482568D02*
G03X2035287Y1481965I446J-603D01*
G01X2035591Y1482568D02*
G03X2035589Y1482810I-89J120D01*
G01X2035273Y1483421D02*
G03X2035589Y1482810I750J0D01*
G01X2035273Y1483421D02*
Y1486965D01*
X2035583Y1487572D02*
G03X2035273Y1486965I440J-607D01*
G01X2035583Y1487572D02*
G03Y1487815I-88J121D01*
G01X2035273Y1488421D02*
G03X2035583Y1487815I750J0D01*
G01X2035273Y1488421D02*
Y1491965D01*
X2035583Y1492572D02*
G03X2035273Y1491965I440J-607D01*
G01X2035583Y1492572D02*
G03Y1492815I-88J121D01*
G01X2035273Y1493421D02*
G03X2035583Y1492815I750J0D01*
G01X2035273Y1493421D02*
Y1496965D01*
X2035583Y1497572D02*
G03X2035273Y1496965I440J-607D01*
G01X2035583Y1497572D02*
G03Y1497815I-88J121D01*
G01X2035273Y1498421D02*
G03X2035583Y1497815I750J0D01*
G01X2035273Y1498421D02*
Y1500796D01*
G03X2035017Y1500902I-150J0*
G01X2030961Y1496846*
X2030254Y1496553D02*
G03X2030961Y1496846I-0J1000D01*
G01X2030254Y1496553D02*
X2018254D01*
X2017547Y1496846D02*
G03X2018254Y1496553I707J707D01*
G01X2017547Y1496846D02*
X2013047Y1501346D01*
X2012754Y1502053D02*
G03X2013047Y1501346I1000J0D01*
G01X2012754Y1502053D02*
Y1504291D01*
X2012754D02*
G03X2012506Y1504405I-150J0D01*
G01X2010526Y1504642D02*
G03X2012506Y1504405I1098J785D01*
G01X2010526Y1504642D02*
G03X2010254Y1504554I-122J-88D01*
G01Y1501407*
X2009961Y1500700D02*
G03X2010254Y1501407I-707J707D01*
G01X2009961Y1500700D02*
X2009483Y1500221D01*
X2008775Y1499928D02*
G03X2009483Y1500221I0J1000D01*
G01X2008775Y1499928D02*
X2007607D01*
X2006900Y1500221D02*
G03X2007607Y1499928I707J707D01*
G01X2006900Y1500221D02*
X2005692Y1501430D01*
G03X2005457Y1501402I-106J-106*
G01X2004473Y1500764D02*
G03X2005457Y1501402I-169J1339D01*
G01X2004473Y1500764D02*
G03X2004343Y1500634I19J-149D01*
G01X2002932Y1499455D02*
G03X2004343Y1500634I72J1348D01*
G01X2002932Y1499455D02*
G03X2002777Y1499336I-8J-150D01*
G01X2001529Y1500965D02*
G03X2002777Y1499336I-72J-1348D01*
G01X2001529Y1500965D02*
G03X2001683Y1501084I8J150D01*
G01X2002835Y1502143D02*
G03X2001683Y1501084I169J-1340D01*
G01X2002835Y1502143D02*
G03X2002965Y1502273I-19J148D01*
G01X2002981Y1502373D02*
G03X2002965Y1502273I1323J-270D01*
G01X2002981Y1502373D02*
G03X2002834Y1502553I-147J30D01*
G01X1993031*
G03X1992898Y1502333I-0J-150*
G01X1990511Y1502336D02*
G03X1992898Y1502333I1193J-633D01*
G01X1990511Y1502336D02*
G03X1990387Y1502556I-132J70D01*
G01X1989429Y1502827D02*
G03X1990387Y1502556I1075J1976D01*
G01X1989429Y1502827D02*
G03X1989222Y1502760I-72J-132D01*
G01X1987194Y1502262D02*
G03X1989222Y1502760I810J1080D01*
G01X1987194Y1502262D02*
G03X1987014I-90J-120D01*
G01X1984941Y1502866D02*
G03X1987014Y1502262I1263J476D01*
G01X1984941Y1502866D02*
G03X1984783Y1502962I-141J-53D01*
G01X1984475D02*
G03X1984783I154J1341D01*
G01X1984475D02*
G03X1984317Y1502866I-17J-149D01*
G01X1981791D02*
G03X1984317I1263J476D01*
G01X1981791D02*
G03X1981633Y1502962I-141J-53D01*
G01X1982742Y1504779D02*
G03X1981633Y1502962I-1263J-476D01*
G01X1982742Y1504779D02*
G03X1982900Y1504683I141J53D01*
G01X1983208D02*
G03X1982900I-154J-1341D01*
G01X1983208D02*
G03X1983366Y1504779I17J149D01*
G01X1985892D02*
G03X1983366I-1263J-476D01*
G01X1985892D02*
G03X1986050Y1504683I141J53D01*
G01X1987014Y1504422D02*
G03X1986050Y1504683I-810J-1080D01*
G01X1987014Y1504422D02*
G03X1987194I90J120D01*
G01X1987339Y1504517D02*
G03X1987194Y1504422I665J-1175D01*
G01X1987339Y1504517D02*
G03X1987371Y1504754I-74J131D01*
G01X1986413Y1505712*
X1985754Y1507303D02*
G03X1986413Y1505712I2250J0D01*
G01X1985754Y1507303D02*
Y1513342D01*
G03X1985604Y1513492I-150J0*
G01X1985030*
G03X1984902Y1513263I-0J-150*
G01X1982895Y1513595D02*
G03X1984902Y1513263I859J-1042D01*
G01X1982895Y1513595D02*
G03X1982884Y1513835I-95J116D01*
G01X1982082Y1516045D02*
G03X1982884Y1513835I1922J-553D01*
G01X1982082Y1516045D02*
G03X1981969Y1516233I-144J42D01*
G01X1981354Y1516547D02*
G03X1981969Y1516233I900J1006D01*
G01X1981354Y1516547D02*
G03X1981154I-100J-112D01*
G01X1978920Y1517344D02*
G03X1981154Y1516547I1334J209D01*
G01X1978920Y1517344D02*
G03X1978795Y1517469I-148J-23D01*
G01X1977747Y1519296D02*
G03X1978795Y1517469I1257J-493D01*
G01X1977747Y1519296D02*
G03X1977697Y1519471I-140J55D01*
G01X1979761Y1520060D02*
G03X1977697Y1519471I-1257J493D01*
G01X1979761Y1520060D02*
G03X1979811Y1519885I140J-54D01*
G01X1980338Y1519012D02*
G03X1979811Y1519885I-1334J-209D01*
G01X1980338Y1519012D02*
G03X1980463Y1518887I148J23D01*
G01X1981154Y1518559D02*
G03X1980463Y1518887I-900J-1006D01*
G01X1981154Y1518559D02*
G03X1981354I100J112D01*
G01X1983602Y1517620D02*
G03X1981354Y1518559I-1348J-67D01*
G01X1983602Y1517620D02*
G03X1983770Y1517478I150J7D01*
G01X1984004Y1517492D02*
G03X1983770Y1517478I-0J-2000D01*
G01X1984004Y1517492D02*
X1985604D01*
G03X1985754Y1517642I-0J150*
G01Y1521899*
G03X1985469Y1521965I-150J0*
G01X1982915Y1522723D02*
G03X1985469Y1521965I1339J-170D01*
G01X1982915Y1522723D02*
G03X1982640Y1522823I-149J19D01*
G01X1980156Y1523631D02*
G03X1982640Y1522823I1348J-78D01*
G01X1980156Y1523631D02*
G03X1979956Y1523781I-150J9D01*
G01X1979497Y1526403D02*
G03X1979956Y1523781I7J-1350D01*
G01X1979497Y1526403D02*
G03Y1526703I-1J150D01*
G01X1980854Y1528053D02*
G03X1979497Y1526703I-1350J0D01*
G01X1980854Y1528053D02*
G03X1981004Y1527903I150J0D01*
G01Y1525203D02*
G03Y1527903I-0J1350D01*
G01Y1525203D02*
G03X1980854Y1525053I-0J-150D01*
G01X1980852Y1524975D02*
G03X1980854Y1525053I-1348J78D01*
G01X1980852Y1524975D02*
G03X1981052Y1524825I149J-8D01*
G01X1982843Y1523383D02*
G03X1981052Y1524825I-1339J170D01*
G01X1982843Y1523383D02*
G03X1983118Y1523283I149J-19D01*
G01X1985469Y1523142D02*
G03X1983118Y1523283I-1215J-589D01*
G01X1985469Y1523142D02*
G03X1985754Y1523207I135J65D01*
G01Y1531095*
G03X1985569Y1531240I-150J-0*
G01Y1533866D02*
G03Y1531240I-315J-1313D01*
G01Y1533866D02*
G03X1985754Y1534012I35J146D01*
G01Y1535903*
G03X1985604Y1536053I-150J0*
G01X1982754*
X1981754Y1537053D02*
G03X1982754Y1536053I1000J0D01*
G01X1981754Y1537053D02*
Y1542053D01*
X1982754Y1543053D02*
G03X1981754Y1542053I-0J-1000D01*
G01X1982754Y1543053D02*
X1991754D01*
X1992754Y1542053D02*
G03X1991754Y1543053I-1000J0D01*
G01X1992754Y1542053D02*
Y1537546D01*
G03X1992889Y1537396I150J-0*
G01X1991411Y1535918D02*
G03X1992889Y1537396I1343J135D01*
G01X1991411Y1535918D02*
G03X1991261Y1536053I-150J-15D01*
G01X1990404*
G03X1990254Y1535903I-0J-150*
G01Y1515492*
Y1508297*
G03X1990298Y1508191I150J0*
G01X1991392Y1507097*
G03X1991498Y1507053I106J106*
G01X2004881*
G03X2004987Y1507097I0J150*
G01X2005710Y1507820*
G03X2005754Y1507926I-106J106*
G01Y1514353*
Y1518703*
Y1526553*
X2006413Y1528144D02*
G03X2005754Y1526553I1591J-1591D01*
G01X2006413Y1528144D02*
X2007163Y1528894D01*
X2010345Y1525712D02*
G03X2007163Y1528894I-1591J1591D01*
G01X2010345Y1525712D02*
X2010298Y1525665D01*
G03X2010254Y1525559I106J-106*
G01Y1520853*
G03X2010404Y1520703I150J0*
G01X2011004*
Y1516703D02*
G03Y1520703I-0J2000D01*
G01Y1516703D02*
X2010404D01*
G03X2010254Y1516553I-0J-150*
G01Y1516503*
G03X2010404Y1516353I150J0*
G01X2011004*
Y1512353D02*
G03Y1516353I-0J2000D01*
G01Y1512353D02*
X2010404D01*
G03X2010254Y1512203I-0J-150*
G01Y1508621*
G03X2010504Y1508509I150J0*
G01X2012467Y1506671D02*
G03X2010504Y1508509I-1063J832D01*
G01X2012467Y1506671D02*
G03X2012489Y1506464I118J-92D01*
G01X2012638Y1506319D02*
G03X2012489Y1506464I-1014J-892D01*
G01X2012638Y1506319D02*
G03X2012851Y1506306I112J99D01*
G01X2014541Y1506400D02*
G03X2012851Y1506306I-787J-1097D01*
G01X2014541Y1506400D02*
G03X2014716I88J122D01*
G01X2016539Y1504436D02*
G03X2014716Y1506400I-1035J867D01*
G01X2016539Y1504436D02*
G03X2016504Y1504340I115J-96D01*
G01Y1502280*
X2016504D02*
G03X2016548Y1502173I150J-0D01*
G01X2018874Y1499847*
G03X2018980Y1499803I106J106*
G01X2029278*
G03X2029384Y1499847I-0J150*
G01X2032460Y1502923*
G03X2032504Y1503030I-106J107*
G01X2032504D02*
Y1528053D01*
X2032797Y1528760D02*
G03X2032504Y1528053I707J-707D01*
G01X2032797Y1528760D02*
X2034937Y1530900D01*
X2035191Y1531085D02*
G03X2034937Y1530900I453J-892D01*
G01X2035191Y1531085D02*
G03X2035273Y1531219I-68J134D01*
G01Y1531965*
X2035583Y1532572D02*
G03X2035273Y1531965I440J-607D01*
G01X2035583Y1532572D02*
G03Y1532815I-88J121D01*
G01X2035273Y1533421D02*
G03X2035583Y1532815I750J0D01*
G01X2035273Y1533421D02*
Y1536965D01*
X2035583Y1537572D02*
G03X2035273Y1536965I440J-607D01*
G01X2035583Y1537572D02*
G03Y1537815I-88J121D01*
G01X2035273Y1538421D02*
G03X2035583Y1537815I750J0D01*
G01X2035273Y1538421D02*
Y1541965D01*
X2036023Y1542715D02*
G03X2035273Y1541965I0J-750D01*
G01X2036023Y1542715D02*
X2036763D01*
G03X2036880Y1542770I0J150*
G01X2037074Y1542863D02*
G03X2036880Y1542770I-0J-250D01*
G01X2037074Y1542863D02*
X2037970D01*
G03X2038120Y1543013I-0J150*
G01X2015354Y1510603D02*
G03X2015354I-1350J0D01*
G01X1982104Y1532053D02*
G03X1982104I-1350J0D01*
G01X2001354Y1484053D02*
G03X2001354I-1350J0D01*
G01X2006903Y1489263D02*
G03X2005716Y1491650I-399J1290D01*
G01X2006903Y1489263D02*
G03X2006841Y1489226I44J-143D01*
G01X2005961Y1488346*
X2005254Y1488053D02*
G03X2005961Y1488346I-0J1000D01*
G01X2005254Y1488053D02*
X2004629D01*
G03X2004491Y1487843I-0J-150*
G01X2002466Y1486207D02*
G03X2004491Y1487843I788J1096D01*
G01X2002466Y1486207D02*
G03X2002291I-87J-122D01*
G01X2000637Y1486268D02*
G03X2002291Y1486207I867J1035D01*
G01X2000637Y1486268D02*
G03X2000541Y1486303I-96J-115D01*
G01X1998129*
G03X1997991Y1486093I-0J-150*
G01X1995427Y1485801D02*
G03X1997991Y1486093I1327J-248D01*
G01X1995427Y1485801D02*
G03X1995252Y1485976I-148J28D01*
G01X1995871Y1488338D02*
G03X1995252Y1485976I-867J-1035D01*
G01X1995871Y1488338D02*
G03X1995967Y1488303I96J115D01*
G01X1996879*
G03X1997017Y1488513I0J150*
G01X1996941Y1489368D02*
G03X1997017Y1488513I1313J-315D01*
G01X1996941Y1489368D02*
G03X1996795Y1489553I-146J35D01*
G01X1996217*
G03X1996121Y1489518I0J-150*
G01Y1491588D02*
G03Y1489518I-867J-1035D01*
G01Y1491588D02*
G03X1996217Y1491553I96J115D01*
G01X2003791*
G03X2003887Y1491588I-0J150*
G01X2005541Y1491650D02*
G03X2003887Y1491588I-787J-1097D01*
G01X2005541Y1491650D02*
G03X2005716I88J122D01*
G01X1969754Y1549492D02*
X2038120D01*
X1969754Y1549042D02*
X2038120D01*
X1969754Y1548592D02*
X2038120D01*
X1969754Y1548142D02*
X2038120D01*
X1969754Y1547692D02*
X2038120D01*
X1969754Y1547242D02*
X2038120D01*
X1969754Y1546792D02*
X2038120D01*
X1969754Y1546342D02*
X2038120D01*
X1969754Y1545892D02*
X2038120D01*
X1969754Y1545442D02*
X2038120D01*
X1969754Y1544992D02*
X2038120D01*
X1969754Y1544542D02*
X2038120D01*
X1969754Y1544092D02*
X2038120D01*
X1969754Y1543642D02*
X2038120D01*
X1969754Y1543192D02*
X2038120D01*
X2028998Y1477492D02*
X2038120D01*
X2028998Y1477042D02*
X2038120D01*
X2029239Y1476592D02*
X2038120D01*
X2029314Y1476142D02*
X2038120D01*
X2029314Y1475692D02*
X2038120D01*
X1969759Y1549942D02*
X2038115D01*
X1992479Y1542742D02*
X2036849D01*
X2031857Y1497742D02*
X2035637D01*
X1992754Y1537792D02*
X2035608D01*
X1972266Y1492792D02*
X2035608D01*
X1990254Y1532842D02*
X2035548D01*
X2004492Y1487842D02*
X2035548D01*
X2000692Y1482892D02*
X2035492D01*
X2028931Y1477942D02*
X2035461D01*
X1972429Y1482442D02*
X2035459D01*
X1990254Y1532392D02*
X2035407D01*
X2004601Y1487392D02*
X2035407D01*
X1993156Y1537342D02*
X2035375D01*
X1972499Y1492342D02*
X2035375D01*
X1992725Y1542292D02*
X2035349D01*
X2031407Y1497292D02*
X2035349D01*
X2032307Y1498192D02*
X2035309D01*
X1992754Y1538242D02*
X2035295D01*
X1972579Y1493242D02*
X2035295D01*
X1972600Y1478392D02*
X2035288D01*
X1972600Y1481992D02*
X2035288D01*
X1972600Y1481542D02*
X2035287D01*
X1972600Y1481092D02*
X2035287D01*
X1972600Y1480642D02*
X2035287D01*
X1972600Y1480192D02*
X2035287D01*
X1972600Y1479742D02*
X2035287D01*
X1972600Y1479292D02*
X2035287D01*
X1972600Y1478842D02*
X2035287D01*
X1990254Y1533292D02*
X2035285D01*
X2005902Y1488292D02*
X2035285D01*
X2001151Y1483342D02*
X2035278D01*
X1992754Y1541842D02*
X2035273D01*
X1992754Y1541392D02*
X2035273D01*
X1992754Y1540942D02*
X2035273D01*
X1992754Y1540492D02*
X2035273D01*
X1992754Y1540042D02*
X2035273D01*
X1992754Y1539592D02*
X2035273D01*
X1992754Y1539142D02*
X2035273D01*
X1992754Y1538692D02*
X2035273D01*
X1993812Y1536892D02*
X2035273D01*
X1994047Y1536442D02*
X2035273D01*
X1994103Y1535992D02*
X2035273D01*
X1994003Y1535542D02*
X2035273D01*
X1993702Y1535092D02*
X2035273D01*
X1990254Y1534642D02*
X2035273D01*
X1990254Y1534192D02*
X2035273D01*
X1990254Y1533742D02*
X2035273D01*
X1990254Y1531942D02*
X2035273D01*
X1990254Y1531492D02*
X2035273D01*
X2034557Y1500442D02*
X2035273D01*
X2034107Y1499992D02*
X2035273D01*
X2033657Y1499542D02*
X2035273D01*
X2033207Y1499092D02*
X2035273D01*
X2032757Y1498642D02*
X2035273D01*
X2030957Y1496842D02*
X2035273D01*
X1972600Y1496392D02*
X2035273D01*
X1972600Y1495942D02*
X2035273D01*
X1972600Y1495492D02*
X2035273D01*
X1972600Y1495042D02*
X2035273D01*
X1972600Y1494592D02*
X2035273D01*
X1972600Y1494142D02*
X2035273D01*
X1972600Y1493692D02*
X2035273D01*
X2006678Y1491892D02*
X2035273D01*
X2007520Y1491442D02*
X2035273D01*
X2007781Y1490992D02*
X2035273D01*
X2007854Y1490542D02*
X2035273D01*
X2007773Y1490092D02*
X2035273D01*
X2007500Y1489642D02*
X2035273D01*
X2006807Y1489192D02*
X2035273D01*
X2006357Y1488742D02*
X2035273D01*
X2004555Y1486942D02*
X2035273D01*
X2004333Y1486492D02*
X2035273D01*
X2003735Y1486042D02*
X2035273D01*
X1998103Y1485592D02*
X2035273D01*
X2000802Y1485142D02*
X2035273D01*
X2001193Y1484692D02*
X2035273D01*
X2001341Y1484242D02*
X2035273D01*
X2001328Y1483792D02*
X2035273D01*
X2035007Y1500892D02*
X2035239D01*
X1990254Y1531042D02*
X2035115D01*
X1990254Y1530592D02*
X2034628D01*
X1990254Y1530142D02*
X2034178D01*
X1990254Y1529692D02*
X2033728D01*
X2009896Y1529242D02*
X2033278D01*
X2010441Y1528792D02*
X2032828D01*
X2010750Y1528342D02*
X2032546D01*
X2010926Y1527892D02*
X2032504D01*
X2011000Y1527442D02*
X2032504D01*
X2010982Y1526992D02*
X2032504D01*
X2010871Y1526542D02*
X2032504D01*
X2010650Y1526092D02*
X2032504D01*
X2010279Y1525642D02*
X2032504D01*
X2010254Y1525192D02*
X2032504D01*
X2010254Y1524742D02*
X2032504D01*
X2010254Y1524292D02*
X2032504D01*
X2010254Y1523842D02*
X2032504D01*
X2010254Y1523392D02*
X2032504D01*
X2010254Y1522942D02*
X2032504D01*
X2010254Y1522492D02*
X2032504D01*
X2010254Y1522042D02*
X2032504D01*
X2010254Y1521592D02*
X2032504D01*
X2010254Y1521142D02*
X2032504D01*
X2011217Y1520692D02*
X2032504D01*
X2012282Y1520242D02*
X2032504D01*
X2012682Y1519792D02*
X2032504D01*
X2012899Y1519342D02*
X2032504D01*
X2012995Y1518892D02*
X2032504D01*
X2012987Y1518442D02*
X2032504D01*
X2012873Y1517992D02*
X2032504D01*
X2012632Y1517542D02*
X2032504D01*
X2012189Y1517092D02*
X2032504D01*
X2010283Y1516642D02*
X2032504D01*
X2011791Y1516192D02*
X2032504D01*
X2012443Y1515742D02*
X2032504D01*
X2012770Y1515292D02*
X2032504D01*
X2012943Y1514842D02*
X2032504D01*
X2013004Y1514392D02*
X2032504D01*
X2012961Y1513942D02*
X2032504D01*
X2012809Y1513492D02*
X2032504D01*
X2012514Y1513042D02*
X2032504D01*
X2011951Y1512592D02*
X2032504D01*
X2010254Y1512142D02*
X2032504D01*
X2014802Y1511692D02*
X2032504D01*
X2015193Y1511242D02*
X2032504D01*
X2015341Y1510792D02*
X2032504D01*
X2015328Y1510342D02*
X2032504D01*
X2015151Y1509892D02*
X2032504D01*
X2014692Y1509442D02*
X2032504D01*
X2010254Y1508992D02*
X2032504D01*
X2012266Y1508542D02*
X2032504D01*
X2012619Y1508092D02*
X2032504D01*
X2012747Y1507642D02*
X2032504D01*
X2012718Y1507192D02*
X2032504D01*
X2012519Y1506742D02*
X2032504D01*
X2016423Y1506292D02*
X2032504D01*
X2016742Y1505842D02*
X2032504D01*
X2016851Y1505392D02*
X2032504D01*
X2016805Y1504942D02*
X2032504D01*
X2016583Y1504492D02*
X2032504D01*
X2016504Y1504042D02*
X2032504D01*
X2016504Y1503592D02*
X2032504D01*
X2016504Y1503142D02*
X2032504D01*
X2016504Y1502692D02*
X2032228D01*
X2016509Y1502242D02*
X2031778D01*
X2016929Y1501792D02*
X2031328D01*
X2017379Y1501342D02*
X2030878D01*
X2017829Y1500892D02*
X2030428D01*
X2018279Y1500442D02*
X2029978D01*
X2018729Y1499992D02*
X2029528D01*
X1972600Y1496842D02*
X2017551D01*
X1972525Y1497292D02*
X2017101D01*
X1972237Y1497742D02*
X2016651D01*
X1972564Y1498192D02*
X2016201D01*
X2002390Y1498642D02*
X2015751D01*
X2002701Y1499092D02*
X2015301D01*
X2003485Y1499542D02*
X2014851D01*
X2009127Y1499992D02*
X2014401D01*
X2009703Y1500442D02*
X2013951D01*
X2010111Y1500892D02*
X2013501D01*
X2010254Y1509442D02*
X2013316D01*
X2010254Y1511692D02*
X2013206D01*
X2010252Y1501342D02*
X2013051D01*
X2010254Y1509892D02*
X2012857D01*
X2012669Y1506292D02*
X2012832D01*
X2010254Y1511242D02*
X2012815D01*
X2010254Y1501792D02*
X2012789D01*
X2010254Y1504042D02*
X2012754D01*
X2010254Y1503592D02*
X2012754D01*
X2010254Y1503142D02*
X2012754D01*
X2010254Y1502692D02*
X2012754D01*
X2010254Y1502242D02*
X2012754D01*
X2010254Y1510342D02*
X2012679D01*
X2010254Y1510792D02*
X2012667D01*
X2010254Y1504492D02*
X2010650D01*
X2010277Y1508542D02*
X2010542D01*
X1990254Y1529242D02*
X2007612D01*
X2004083Y1499992D02*
X2007256D01*
X1990254Y1528792D02*
X2007061D01*
X2004305Y1500442D02*
X2006680D01*
X1990254Y1528342D02*
X2006611D01*
X2004928Y1491892D02*
X2006329D01*
X2004900Y1500892D02*
X2006230D01*
X1990254Y1527892D02*
X2006195D01*
X1990254Y1527442D02*
X2005937D01*
X1990254Y1526992D02*
X2005797D01*
X2005419Y1501342D02*
X2005780D01*
X1990254Y1526542D02*
X2005754D01*
X1990254Y1526092D02*
X2005754D01*
X1990254Y1525642D02*
X2005754D01*
X1990254Y1525192D02*
X2005754D01*
X1990254Y1524742D02*
X2005754D01*
X1990254Y1524292D02*
X2005754D01*
X1990254Y1523842D02*
X2005754D01*
X1990254Y1523392D02*
X2005754D01*
X1990254Y1522942D02*
X2005754D01*
X1990254Y1522492D02*
X2005754D01*
X1990254Y1522042D02*
X2005754D01*
X1990254Y1521592D02*
X2005754D01*
X1990254Y1521142D02*
X2005754D01*
X1990254Y1520692D02*
X2005754D01*
X1990254Y1520242D02*
X2005754D01*
X1990254Y1519792D02*
X2005754D01*
X1990254Y1519342D02*
X2005754D01*
X1990254Y1518892D02*
X2005754D01*
X1990254Y1518442D02*
X2005754D01*
X1990254Y1517992D02*
X2005754D01*
X1990254Y1517542D02*
X2005754D01*
X1990254Y1517092D02*
X2005754D01*
X1990254Y1516642D02*
X2005754D01*
X1990254Y1516192D02*
X2005754D01*
X1990254Y1515742D02*
X2005754D01*
X1990254Y1515292D02*
X2005754D01*
X1990254Y1514842D02*
X2005754D01*
X1990254Y1514392D02*
X2005754D01*
X1990254Y1513942D02*
X2005754D01*
X1990254Y1513492D02*
X2005754D01*
X1990254Y1513042D02*
X2005754D01*
X1990254Y1512592D02*
X2005754D01*
X1990254Y1512142D02*
X2005754D01*
X1990254Y1511692D02*
X2005754D01*
X1990254Y1511242D02*
X2005754D01*
X1990254Y1510792D02*
X2005754D01*
X1990254Y1510342D02*
X2005754D01*
X1990254Y1509892D02*
X2005754D01*
X1990254Y1509442D02*
X2005754D01*
X1990254Y1508992D02*
X2005754D01*
X1990254Y1508542D02*
X2005754D01*
X1990397Y1508092D02*
X2005754D01*
X1990847Y1507642D02*
X2005532D01*
X1991297Y1507192D02*
X2005082D01*
X1995428Y1491892D02*
X2004579D01*
X1992942Y1502242D02*
X2002957D01*
X2001985Y1486042D02*
X2002773D01*
X1993051Y1501792D02*
X2002085D01*
X1993005Y1501342D02*
X2001766D01*
X1998012Y1486042D02*
X2001023D01*
X1992783Y1500892D02*
X2001012D01*
X1972600Y1498642D02*
X2000523D01*
X1992185Y1500442D02*
X2000388D01*
X1972600Y1499092D02*
X2000213D01*
X1972600Y1499992D02*
X2000160D01*
X1972600Y1499542D02*
X2000109D01*
X1972381Y1482892D02*
X1999316D01*
X1998040Y1485142D02*
X1999206D01*
X1972596Y1483342D02*
X1998857D01*
X1997794Y1484692D02*
X1998815D01*
X1972600Y1483792D02*
X1998679D01*
X1997075Y1484242D02*
X1998667D01*
X1972600Y1488742D02*
X1996940D01*
X1972600Y1489192D02*
X1996911D01*
X1972600Y1484242D02*
X1996433D01*
X1972600Y1484692D02*
X1995714D01*
X1972600Y1485142D02*
X1995468D01*
X1972600Y1485592D02*
X1995404D01*
X1972600Y1491892D02*
X1995079D01*
X1972600Y1486042D02*
X1994523D01*
X1972600Y1489642D02*
X1994258D01*
X1972600Y1491442D02*
X1994238D01*
X1972589Y1488292D02*
X1994085D01*
X1972600Y1490092D02*
X1993985D01*
X1972600Y1490992D02*
X1993977D01*
X1972600Y1486492D02*
X1993925D01*
X1972600Y1490542D02*
X1993904D01*
X1972326Y1487842D02*
X1993766D01*
X1972600Y1486942D02*
X1993703D01*
X1972467Y1487392D02*
X1993657D01*
X1990254Y1535092D02*
X1991806D01*
X1990254Y1535542D02*
X1991504D01*
X1990283Y1535992D02*
X1991382D01*
X1972600Y1500442D02*
X1991223D01*
X1972600Y1500892D02*
X1990625D01*
X1988786Y1502242D02*
X1990466D01*
X1972600Y1501342D02*
X1990403D01*
X1972600Y1501792D02*
X1990357D01*
X1989187Y1502692D02*
X1989726D01*
X1986912Y1504492D02*
X1987296D01*
X1986986Y1502242D02*
X1987222D01*
X1985818Y1504942D02*
X1987183D01*
X1985427Y1505392D02*
X1986733D01*
X1972600Y1505842D02*
X1986293D01*
X1972600Y1506292D02*
X1985994D01*
X1972600Y1506742D02*
X1985825D01*
X1972565Y1507192D02*
X1985757D01*
X1972600Y1535542D02*
X1985754D01*
X1972600Y1535092D02*
X1985754D01*
X1972600Y1534642D02*
X1985754D01*
X1972600Y1534192D02*
X1985754D01*
X1981648Y1531042D02*
X1985754D01*
X1972600Y1530592D02*
X1985754D01*
X1972600Y1530142D02*
X1985754D01*
X1972600Y1529692D02*
X1985754D01*
X1980144Y1529242D02*
X1985754D01*
X1980634Y1528792D02*
X1985754D01*
X1980823Y1528342D02*
X1985754D01*
X1981178Y1527892D02*
X1985754D01*
X1982020Y1527442D02*
X1985754D01*
X1982281Y1526992D02*
X1985754D01*
X1982354Y1526542D02*
X1985754D01*
X1982273Y1526092D02*
X1985754D01*
X1982000Y1525642D02*
X1985754D01*
X1980947Y1525192D02*
X1985754D01*
X1982144Y1524742D02*
X1985754D01*
X1982634Y1524292D02*
X1985754D01*
X1984656Y1523842D02*
X1985754D01*
X1985312Y1523392D02*
X1985754D01*
X1985202Y1521592D02*
X1985754D01*
X1979719Y1521142D02*
X1985754D01*
X1979847Y1520692D02*
X1985754D01*
X1979818Y1520242D02*
X1985754D01*
X1979923Y1519792D02*
X1985754D01*
X1980242Y1519342D02*
X1985754D01*
X1982428Y1518892D02*
X1985754D01*
X1983270Y1518442D02*
X1985754D01*
X1983531Y1517992D02*
X1985754D01*
X1985012Y1513042D02*
X1985754D01*
X1985103Y1512592D02*
X1985754D01*
X1985040Y1512142D02*
X1985754D01*
X1984794Y1511692D02*
X1985754D01*
X1984075Y1511242D02*
X1985754D01*
X1972600Y1510792D02*
X1985754D01*
X1972600Y1510342D02*
X1985754D01*
X1972600Y1509892D02*
X1985754D01*
X1972600Y1509442D02*
X1985754D01*
X1972600Y1508992D02*
X1985754D01*
X1972600Y1508542D02*
X1985754D01*
X1972524Y1508092D02*
X1985754D01*
X1972238Y1507642D02*
X1985754D01*
X1972600Y1535992D02*
X1985725D01*
X1983629Y1517542D02*
X1985715D01*
X1985557Y1522042D02*
X1985650D01*
X1985020Y1513492D02*
X1985613D01*
X1983836Y1502242D02*
X1985422D01*
X1984237Y1502692D02*
X1985021D01*
X1972600Y1533742D02*
X1984614D01*
X1981982Y1531492D02*
X1984420D01*
X1981291Y1533292D02*
X1984124D01*
X1982099Y1531942D02*
X1984050D01*
X1972427Y1477942D02*
X1984021D01*
X1969754Y1477492D02*
X1983954D01*
X1969754Y1477042D02*
X1983954D01*
X1969754Y1476592D02*
X1983946D01*
X1981850Y1532842D02*
X1983935D01*
X1982061Y1532392D02*
X1983914D01*
X1969754Y1476142D02*
X1983884D01*
X1969754Y1475692D02*
X1983884D01*
X1982823Y1523842D02*
X1983852D01*
X1982277Y1505392D02*
X1983831D01*
X1982668Y1504942D02*
X1983440D01*
X1972600Y1511242D02*
X1983433D01*
X1979366Y1521592D02*
X1983306D01*
X1982844Y1523392D02*
X1983196D01*
X1972596Y1522042D02*
X1983004D01*
X1982338Y1522492D02*
X1982905D01*
X1972600Y1513492D02*
X1982784D01*
X1972600Y1513942D02*
X1982740D01*
X1972600Y1511692D02*
X1982714D01*
X1972497Y1513042D02*
X1982495D01*
X1972579Y1512142D02*
X1982468D01*
X1972269Y1512592D02*
X1982404D01*
X1972600Y1514392D02*
X1982334D01*
X1972547Y1502242D02*
X1982272D01*
X1972600Y1514842D02*
X1982113D01*
X1980442Y1518892D02*
X1982079D01*
X1972600Y1516192D02*
X1982045D01*
X1970935Y1542742D02*
X1982029D01*
X1972600Y1515742D02*
X1982020D01*
X1972600Y1515292D02*
X1982014D01*
X1972600Y1536442D02*
X1981963D01*
X1972229Y1502692D02*
X1981871D01*
X1972525Y1542292D02*
X1981783D01*
X1972600Y1536892D02*
X1981767D01*
X1972600Y1541842D02*
X1981754D01*
X1972600Y1541392D02*
X1981754D01*
X1972600Y1540942D02*
X1981754D01*
X1972600Y1540492D02*
X1981754D01*
X1972600Y1540042D02*
X1981754D01*
X1972600Y1539592D02*
X1981754D01*
X1972600Y1539142D02*
X1981754D01*
X1972600Y1538692D02*
X1981754D01*
X1972579Y1538242D02*
X1981754D01*
X1972266Y1537792D02*
X1981754D01*
X1972499Y1537342D02*
X1981754D01*
X1972546Y1503142D02*
X1980791D01*
X1972600Y1505392D02*
X1980681D01*
X1972384Y1522492D02*
X1980670D01*
X1972600Y1503592D02*
X1980332D01*
X1972427Y1522942D02*
X1980300D01*
X1972600Y1504942D02*
X1980290D01*
X1972589Y1533292D02*
X1980217D01*
X1972600Y1523392D02*
X1980164D01*
X1972600Y1504042D02*
X1980154D01*
X1972600Y1504492D02*
X1980142D01*
X1972600Y1531042D02*
X1979860D01*
X1972326Y1532842D02*
X1979658D01*
X1972600Y1526542D02*
X1979646D01*
X1972600Y1531492D02*
X1979526D01*
X1972467Y1532392D02*
X1979447D01*
X1972600Y1531942D02*
X1979409D01*
X1972600Y1516642D02*
X1979258D01*
X1972590Y1517092D02*
X1978985D01*
X1972600Y1523842D02*
X1978908D01*
X1972600Y1529242D02*
X1978864D01*
X1972600Y1526992D02*
X1978670D01*
X1972600Y1526092D02*
X1978642D01*
X1972330Y1517542D02*
X1978523D01*
X1972600Y1524292D02*
X1978389D01*
X1972600Y1528792D02*
X1978374D01*
X1972429Y1527442D02*
X1978300D01*
X1972600Y1525642D02*
X1978289D01*
X1972600Y1524742D02*
X1978190D01*
X1972596Y1528342D02*
X1978185D01*
X1972381Y1527892D02*
X1978164D01*
X1972600Y1525192D02*
X1978161D01*
X1972465Y1517992D02*
X1977925D01*
X1972600Y1519342D02*
X1977757D01*
X1972600Y1518442D02*
X1977703D01*
X1972600Y1518892D02*
X1977657D01*
X1972600Y1521592D02*
X1977642D01*
X1972600Y1519792D02*
X1977389D01*
X1972600Y1521142D02*
X1977289D01*
X1972600Y1520242D02*
X1977190D01*
X1972600Y1520692D02*
X1977161D01*
X1968504Y1580764D02*
X1992357D01*
X1968504D02*
X1973504Y1581764D01*
Y1579764*
X1968504Y1580764*
X2039370D02*
X2015516D01*
X2039370D02*
X2034370Y1579764D01*
Y1581764*
X2039370Y1580764*
X1968504Y1576681D02*
Y1582764D01*
X2039370Y1576681D02*
Y1582764D01*
X2055243Y1474288D02*
Y1519610D01*
Y1474288D02*
X2054243Y1479288D01*
X2056243*
X2055243Y1474288*
Y1574681D02*
Y1529360D01*
Y1574681D02*
X2056243Y1569681D01*
X2054243*
X2055243Y1574681*
X2041370Y1474288D02*
X2057243D01*
X2041370Y1574681D02*
X2057243D01*
G54D120*
X1970459Y1476146D03*
X1977004Y1481803D03*
X1977662Y1476208D03*
X1974880D03*
X1973754Y1482053D03*
Y1479303D03*
X1976254Y1479053D03*
X1978754D03*
X1983004Y1481303D03*
X1975254Y1484053D03*
X1984504Y1479303D03*
X1986004Y1481303D03*
X1988254Y1479303D03*
X1993004Y1479803D03*
X1990754Y1481053D03*
X1995004Y1483803D03*
Y1481303D03*
X2003504Y1479803D03*
X2009004Y1479303D03*
X2013004Y1480803D03*
X2006504Y1481803D03*
X2015754Y1480803D03*
X2017754Y1479303D03*
X2031754Y1476303D03*
X2026754Y1481803D03*
X2031754Y1482053D03*
X2033254Y1478303D03*
X2030254D03*
X2024504Y1483303D03*
X2029254D03*
X2037254Y1476303D03*
X2034004Y1483303D03*
X2034754Y1476303D03*
X1973717Y1492931D03*
X1975504Y1489803D03*
X1973754Y1487803D03*
X1980304Y1491503D03*
Y1486503D03*
X2006754Y1486553D03*
X2021504Y1491803D03*
X2021754Y1488303D03*
X2028004Y1486803D03*
X2023754D03*
X2030004Y1488303D03*
X2027504Y1491803D03*
X2024742Y1491786D03*
X2032004Y1486803D03*
X2030797Y1491849D03*
X2025754Y1488303D03*
X2034504Y1491803D03*
X2034104Y1488403D03*
X1973404Y1497603D03*
X1980304Y1496503D03*
X2018504Y1501553D03*
X2021004Y1500553D03*
X2020754Y1503053D03*
X2017754Y1504053D03*
X2023404Y1502903D03*
X2031004Y1502553D03*
X2029004Y1500803D03*
X2026504D03*
X2023754Y1500553D03*
X2033804Y1497203D03*
X1980254Y1511803D03*
X1977754Y1507553D03*
X1979504Y1509303D03*
X1992000Y1511777D03*
Y1508777D03*
X2001000Y1511777D03*
Y1508777D03*
X1995000Y1511777D03*
X1998000Y1508777D03*
X1995000D03*
X1998000Y1511777D03*
X2004000Y1508777D03*
Y1511777D03*
X2022254Y1505153D03*
X2018004Y1508303D03*
X2019504Y1510303D03*
X2017754Y1512053D03*
X2019304Y1506103D03*
X2024754Y1505153D03*
X1992004Y1517803D03*
Y1520803D03*
Y1514803D03*
X2001004D03*
X1998004D03*
X2001004Y1520803D03*
Y1517803D03*
X1998004D03*
X1995004Y1514803D03*
X1998004Y1520803D03*
X1995004D03*
Y1517803D03*
X2004004Y1514803D03*
Y1520803D03*
Y1517803D03*
X2030254Y1521053D03*
X2027004D03*
X2028754Y1519053D03*
X1973254Y1527303D03*
X1975754Y1533803D03*
X2003254D03*
Y1531303D03*
X2010254Y1529803D03*
X2013004Y1532053D03*
X2008004Y1532803D03*
X2010504Y1532303D03*
X2021004Y1530303D03*
X2022754Y1524803D03*
X2023004Y1532053D03*
X2016504Y1532553D03*
X2020004Y1532803D03*
X2018004Y1530303D03*
X2015004D03*
X2025254Y1534053D03*
X2031254Y1533803D03*
X2029004Y1531803D03*
X2026504Y1529303D03*
X2025504Y1525303D03*
X2031904Y1524403D03*
X2028204Y1524503D03*
X2031704Y1528103D03*
X2030104Y1526203D03*
X1973254Y1534553D03*
X1973504Y1543303D03*
X1978254Y1535053D03*
X1981004Y1534553D03*
X1983504Y1543803D03*
X1983754Y1535303D03*
X1988504Y1543803D03*
X1991004D03*
X1986004D03*
X2003004Y1538803D03*
Y1536303D03*
X2000504Y1543803D03*
X2003004D03*
X2012254Y1536053D03*
X2012504Y1538553D03*
X2010004Y1538053D03*
X2012254Y1541053D03*
X2009504Y1540803D03*
X2008004Y1536303D03*
X2010004Y1534803D03*
X2005504Y1543553D03*
X2003754Y1541303D03*
X2021004Y1537053D03*
X2021754Y1534553D03*
X2023504Y1539053D03*
X2023254Y1541553D03*
X2018254Y1538553D03*
X2019004Y1535303D03*
X2020754Y1539553D03*
X2016504Y1536053D03*
X2015254Y1538303D03*
X2014254Y1534303D03*
X2020504Y1542803D03*
X2018004Y1541553D03*
X2015004Y1541053D03*
X2027504Y1535803D03*
X2023754Y1536303D03*
X2026254Y1538303D03*
X2028504Y1540053D03*
X2026004Y1541303D03*
X2028504Y1542703D03*
X2033504Y1535303D03*
X2032254Y1541053D03*
X2031004Y1543303D03*
X2025504Y1544053D03*
X2030754Y1538803D03*
X2034504Y1537803D03*
X2034254Y1542553D03*
X1971504Y1548803D03*
X1973504Y1546303D03*
X1974254Y1548803D03*
X1977254D03*
X1980604D03*
X1980754Y1545303D03*
X1982504Y1547053D03*
X1977504Y1544553D03*
X1978754Y1546803D03*
X1976004Y1546553D03*
X1987504Y1546303D03*
X1984604Y1548803D03*
X1988204D03*
X1991604D03*
X1990004Y1546553D03*
X1985004Y1546303D03*
X1992504D03*
X1997254Y1548803D03*
X2000254D03*
X2003504D03*
X1998004Y1545053D03*
X1994504Y1548803D03*
X2003004Y1546303D03*
X2000254D03*
X1995254Y1546053D03*
X2008754Y1547303D03*
X2010754Y1548803D03*
X2013254Y1548053D03*
X2013004Y1545553D03*
X2010504D03*
X2007504Y1545053D03*
X2006754Y1548803D03*
X2005504Y1546553D03*
X2022504Y1544303D03*
X2015754Y1548803D03*
X2019504Y1549053D03*
X2017754Y1547303D03*
X2015754Y1545803D03*
X2030004Y1548803D03*
X2027004D03*
X2024254D03*
Y1546303D03*
X2030004Y1545803D03*
X2032754Y1548803D03*
X2033004Y1544803D03*
X2027004Y1546303D03*
X2036254Y1548803D03*
X2034504Y1547053D03*
G54D121*
X2039370Y1545193D03*
X1968504Y1530193D03*
X2039370D03*
X1968504Y1525193D03*
X2039370D03*
X1968504Y1520193D03*
X2039370D03*
X1968504Y1515193D03*
X2039370D03*
X1968504Y1510193D03*
X2039370D03*
X1968504Y1505193D03*
X2039370D03*
X1968504Y1500193D03*
Y1545193D03*
X2039370Y1500193D03*
X1968504Y1495193D03*
X2039370D03*
X1968504Y1490193D03*
X2039370D03*
X1968504Y1485193D03*
X2039370D03*
X1968504Y1480193D03*
X2039384D03*
X1968504Y1540193D03*
X2039370D03*
X1968504Y1535193D03*
X2039370D03*
G54D122*
X1996476Y1474287D03*
X2001476D03*
X2006476D03*
X1981476D03*
X2011476D03*
X2016476D03*
X2021476D03*
X2026476D03*
X1986476D03*
X1991476D03*
G54D166*
X2005504Y1504803D02*
X2006004D01*
X2008004Y1506803*
Y1514353*
X1988004Y1515492D02*
Y1507303D01*
X1990504Y1504803*
X2005504*
X2008004Y1518703D02*
Y1526553D01*
X2008754Y1527303*
X2008004Y1514353D02*
Y1518703D01*
X1988004Y1538803D02*
Y1515492D01*
G54D191*
X1998012Y1514803D03*
G74*
X0Y0D02*
M02*
