*
*
G04 PADS 9.5 Build Number: 522968 generated Gerber (RS-274-X) file*
G04 PC Version=2.1*
*
%IN "ESP32_WROOM_32D_5X5_V2-"*%
*
%MOIN*%
*
%FSLAX35Y35*%
*
*
*
*
G04 PC Standard Apertures*
*
*
G04 Thermal Relief Aperture macro.*
%AMTER*
1,1,$1,0,0*
1,0,$1-$2,0,0*
21,0,$3,$4,0,0,45*
21,0,$3,$4,0,0,135*
%
*
*
G04 Annular Aperture macro.*
%AMANN*
1,1,$1,0,0*
1,0,$2,0,0*
%
*
*
G04 Odd Aperture macro.*
%AMODD*
1,1,$1,0,0*
1,0,$1-0.005,0,0*
%
*
*
G04 PC Custom Aperture Macros*
*
*
*
*
*
*
G04 PC Aperture Table*
*
%ADD010C,0.001*%
%ADD044C,0.01*%
%ADD109C,0.005*%
*
*
*
*
G04 PC Circuitry*
G04 Layer Name ESP32_WROOM_32D_5X5_V2- - circuitry*
%LPD*%
*
G54D10*
G01X2064426Y1524213D02*
X2064383Y1524514D01*
X2064259Y1524762*
X2064057Y1524883*
X2063763Y1524925*
X2063549Y1524882*
X2063382Y1524840*
X2063219Y1524718*
X2063090Y1524503*
X2063003Y1524507*
X2062917Y1524678*
X2062796Y1524799*
X2062587Y1524883*
X2062379Y1524924*
X2062214Y1524883*
X2062004Y1524799*
X2061743Y1524538*
X2061743D02*
X2061658Y1524574D01*
Y1524881*
X2061356*
Y1522660*
X2061658*
Y1524083*
X2061660Y1524095*
X2061704Y1524273*
X2061714Y1524293*
X2061937Y1524561*
X2061962Y1524577*
X2062275Y1524667*
X2062300*
X2062479Y1524622*
X2062495Y1524615*
X2062629Y1524526*
X2062646Y1524507*
X2062735Y1524328*
X2062740Y1524306*
Y1522660*
X2063042*
Y1523949*
Y1523956*
X2063087Y1524268*
X2063097Y1524291*
X2063231Y1524470*
X2063241Y1524480*
X2063419Y1524614*
X2063439Y1524623*
X2063662Y1524668*
X2063682*
X2063905Y1524623*
X2063936Y1524604*
X2064069Y1524425*
X2064077Y1524411*
X2064122Y1524277*
X2064124Y1524261*
Y1522660*
X2064426*
Y1524213*
X2060676D02*
X2060633Y1524514D01*
X2060509Y1524762*
X2060307Y1524883*
X2060013Y1524925*
X2059799Y1524882*
X2059632Y1524840*
X2059469Y1524718*
X2059340Y1524503*
X2059253Y1524507*
X2059167Y1524678*
X2059046Y1524799*
X2058837Y1524883*
X2058629Y1524924*
X2058464Y1524883*
X2058254Y1524799*
X2057993Y1524538*
X2057993D02*
X2057908Y1524574D01*
Y1524881*
X2057606*
Y1522660*
X2057908*
Y1524083*
X2057910Y1524095*
X2057954Y1524273*
X2057964Y1524293*
X2058187Y1524561*
X2058212Y1524577*
X2058525Y1524667*
X2058550*
X2058729Y1524622*
X2058745Y1524615*
X2058879Y1524526*
X2058896Y1524507*
X2058985Y1524328*
X2058990Y1524306*
Y1522660*
X2059292*
Y1523949*
Y1523956*
X2059337Y1524268*
X2059347Y1524291*
X2059481Y1524470*
X2059491Y1524480*
X2059669Y1524614*
X2059689Y1524623*
X2059912Y1524668*
X2059932*
X2060155Y1524623*
X2060186Y1524604*
X2060319Y1524425*
X2060327Y1524411*
X2060372Y1524277*
X2060374Y1524261*
Y1522660*
X2060676*
Y1524213*
X2057015Y1524611D02*
X2056928Y1524916D01*
X2056753Y1525398*
X2056628Y1525565*
X2056464Y1525688*
X2056037Y1525773*
X2055741Y1525731*
X2055490Y1525605*
X2055323Y1525396*
X2055193Y1525094*
X2055106Y1524700*
X2055062Y1524170*
Y1523776*
X2055149Y1523426*
X2055236Y1523121*
X2055362Y1522912*
X2055657Y1522701*
X2056040Y1522616*
X2056336Y1522658*
X2056587Y1522783*
X2056754Y1522993*
X2056883Y1523295*
X2056971Y1523689*
X2057015Y1524174*
Y1524611*
X2056713Y1524529D02*
Y1523815D01*
Y1523807*
X2056668Y1523539*
Y1523537*
X2056623Y1523314*
X2056619Y1523301*
X2056530Y1523123*
X2056516Y1523106*
X2056293Y1522928*
X2056271Y1522918*
X2056048Y1522873*
X2056029*
X2055805Y1522918*
X2055784Y1522928*
X2055561Y1523106*
X2055547Y1523123*
X2055458Y1523301*
X2055454Y1523314*
X2055409Y1523537*
Y1523539*
X2055364Y1523807*
X2055363Y1523815*
Y1524529*
X2055364Y1524536*
X2055409Y1524849*
Y1524852*
X2055454Y1525075*
X2055458Y1525087*
X2055547Y1525266*
X2055561Y1525283*
X2055784Y1525461*
X2055805Y1525471*
X2056029Y1525516*
X2056047*
X2056314Y1525471*
X2056345Y1525453*
X2056524Y1525230*
X2056526Y1525227*
X2056616Y1525093*
X2056623Y1525075*
X2056668Y1524852*
Y1524849*
X2056713Y1524536*
Y1524529*
X2054515Y1523725D02*
X2054472Y1524109D01*
X2054261Y1524404*
X2053963Y1524617*
X2053625Y1524702*
X2053333Y1524660*
X2053075Y1524488*
X2052997Y1524529*
X2052998Y1524537*
X2053132Y1525385*
X2053181Y1525427*
X2054337*
Y1525729*
X2052910*
X2052615Y1524171*
X2052940Y1524135*
X2053146Y1524341*
X2053167Y1524354*
X2053480Y1524443*
X2053501Y1524445*
X2053813Y1524400*
X2053836Y1524391*
X2054015Y1524257*
X2054028Y1524242*
X2054162Y1524019*
X2054168Y1524001*
X2054213Y1523688*
Y1523674*
X2054168Y1523361*
X2054162Y1523343*
X2054028Y1523120*
X2054020Y1523110*
X2053842Y1522931*
X2053813Y1522917*
X2053501Y1522873*
X2053484*
X2053261Y1522918*
X2053248Y1522922*
X2053070Y1523011*
X2053047Y1523034*
X2052958Y1523212*
X2052955Y1523219*
X2052879Y1523448*
X2052574Y1523414*
X2052647Y1523122*
X2052858Y1522826*
X2053153Y1522658*
X2053493Y1522615*
X2053753Y1522659*
X2053964Y1522701*
X2054131Y1522826*
X2054302Y1522997*
X2054472Y1523295*
X2054515Y1523725*
X2051792Y1522961D02*
X2051490D01*
Y1522660*
X2051792*
Y1522961*
X2050765Y1523725D02*
X2050722Y1524109D01*
X2050511Y1524404*
X2050213Y1524617*
X2049875Y1524702*
X2049583Y1524660*
X2049325Y1524488*
X2049247Y1524529*
X2049248Y1524537*
X2049382Y1525385*
X2049431Y1525427*
X2050587*
Y1525729*
X2049160*
X2048865Y1524171*
X2049190Y1524135*
X2049396Y1524341*
X2049417Y1524354*
X2049730Y1524443*
X2049751Y1524445*
X2050063Y1524400*
X2050086Y1524391*
X2050265Y1524257*
X2050278Y1524242*
X2050412Y1524019*
X2050418Y1524001*
X2050463Y1523688*
Y1523674*
X2050418Y1523361*
X2050412Y1523343*
X2050278Y1523120*
X2050270Y1523110*
X2050092Y1522931*
X2050063Y1522917*
X2049751Y1522873*
X2049734*
X2049511Y1522918*
X2049498Y1522922*
X2049320Y1523011*
X2049297Y1523034*
X2049208Y1523212*
X2049205Y1523219*
X2049129Y1523448*
X2048824Y1523414*
X2048897Y1523122*
X2049108Y1522826*
X2049403Y1522658*
X2049743Y1522615*
X2050003Y1522659*
X2050214Y1522701*
X2050381Y1522826*
X2050552Y1522997*
X2050722Y1523295*
X2050765Y1523725*
X2048221Y1522961D02*
X2046708D01*
X2046669Y1523043*
X2046848Y1523266*
X2046857Y1523275*
X2047034Y1523408*
X2047300Y1523630*
X2047654Y1523939*
X2047874Y1524203*
X2048003Y1524375*
X2048089Y1524589*
X2048175Y1524934*
X2048133Y1525267*
X2047925Y1525517*
X2047627Y1525687*
X2047241Y1525773*
X2046858Y1525731*
X2046564Y1525563*
X2046352Y1525267*
X2046279Y1524974*
X2046579Y1524941*
X2046614Y1525119*
X2046623Y1525140*
X2046757Y1525318*
X2046767Y1525328*
X2046946Y1525462*
X2046968Y1525471*
X2047236Y1525516*
X2047254*
X2047477Y1525471*
X2047497Y1525462*
X2047676Y1525328*
X2047681Y1525323*
X2047815Y1525190*
X2047828Y1525164*
X2047873Y1524941*
Y1524921*
X2047828Y1524698*
X2047822Y1524682*
X2047688Y1524459*
X2047683Y1524452*
X2047416Y1524140*
X2047411Y1524135*
X2047008Y1523777*
X2046699Y1523512*
X2046350Y1523075*
X2046265Y1522864*
X2046231Y1522660*
X2048221*
Y1522961*
X2013745Y1580493D02*
X2013702Y1580794D01*
X2013578Y1581041*
X2013376Y1581163*
X2013082Y1581205*
X2012868Y1581162*
X2012701Y1581120*
X2012538Y1580998*
X2012409Y1580783*
X2012322Y1580786*
X2012236Y1580958*
X2012115Y1581079*
X2011906Y1581162*
X2011698Y1581204*
X2011534Y1581163*
X2011323Y1581079*
X2011062Y1580818*
X2010977Y1580853*
Y1581161*
X2010675*
Y1578939*
X2010977*
Y1580362*
X2010979Y1580375*
X2011023Y1580553*
X2011033Y1580573*
X2011256Y1580841*
X2011281Y1580857*
X2011594Y1580946*
X2011620Y1580947*
X2011798Y1580902*
X2011814Y1580895*
X2011948Y1580806*
X2011965Y1580787*
X2012054Y1580608*
X2012059Y1580586*
Y1578939*
X2012361*
Y1580228*
Y1580236*
X2012406Y1580548*
X2012416Y1580571*
X2012550Y1580750*
X2012560Y1580760*
X2012738Y1580893*
X2012758Y1580902*
X2012982Y1580947*
X2013001*
X2013224Y1580902*
X2013255Y1580883*
X2013388Y1580705*
X2013396Y1580691*
X2013441Y1580557*
X2013443Y1580541*
Y1578939*
X2013745*
Y1580493*
X2009995D02*
X2009952Y1580794D01*
X2009828Y1581041*
X2009626Y1581163*
X2009332Y1581205*
X2009118Y1581162*
X2008951Y1581120*
X2008788Y1580998*
X2008659Y1580783*
X2008572Y1580786*
X2008486Y1580958*
X2008365Y1581079*
X2008156Y1581162*
X2007948Y1581204*
X2007784Y1581163*
X2007573Y1581079*
X2007312Y1580818*
X2007227Y1580853*
Y1581161*
X2006925*
Y1578939*
X2007227*
Y1580362*
X2007229Y1580375*
X2007273Y1580553*
X2007283Y1580573*
X2007506Y1580841*
X2007531Y1580857*
X2007844Y1580946*
X2007870Y1580947*
X2008048Y1580902*
X2008064Y1580895*
X2008198Y1580806*
X2008215Y1580787*
X2008304Y1580608*
X2008309Y1580586*
Y1578939*
X2008611*
Y1580228*
Y1580236*
X2008656Y1580548*
X2008666Y1580571*
X2008800Y1580750*
X2008810Y1580760*
X2008988Y1580893*
X2009008Y1580902*
X2009232Y1580947*
X2009251*
X2009474Y1580902*
X2009505Y1580883*
X2009638Y1580705*
X2009646Y1580691*
X2009691Y1580557*
X2009693Y1580541*
Y1578939*
X2009995*
Y1580493*
X2006334Y1580891D02*
X2006247Y1581195D01*
X2006072Y1581678*
X2005947Y1581845*
X2005783Y1581967*
X2005356Y1582053*
X2005060Y1582010*
X2004809Y1581885*
X2004642Y1581676*
X2004512Y1581374*
X2004425Y1580980*
X2004381Y1580450*
Y1580056*
X2004468Y1579706*
X2004555Y1579400*
X2004681Y1579192*
X2004976Y1578980*
X2005359Y1578895*
X2005655Y1578938*
X2005906Y1579063*
X2006073Y1579272*
X2006202Y1579574*
X2006290Y1579968*
X2006334Y1580454*
Y1580891*
X2006032Y1580809D02*
Y1580095D01*
Y1580086*
X2005987Y1579818*
Y1579817*
X2005942Y1579594*
X2005938Y1579581*
X2005849Y1579403*
X2005835Y1579386*
X2005612Y1579207*
X2005590Y1579197*
X2005367Y1579153*
X2005348*
X2005124Y1579197*
X2005103Y1579207*
X2004880Y1579386*
X2004866Y1579403*
X2004777Y1579581*
X2004773Y1579594*
X2004728Y1579817*
Y1579818*
X2004683Y1580086*
X2004682Y1580095*
Y1580809*
X2004683Y1580816*
X2004728Y1581128*
Y1581131*
X2004773Y1581354*
X2004777Y1581367*
X2004866Y1581545*
X2004880Y1581562*
X2005103Y1581741*
X2005124Y1581751*
X2005348Y1581795*
X2005366Y1581796*
X2005633Y1581751*
X2005664Y1581733*
X2005843Y1581510*
X2005845Y1581506*
X2005935Y1581372*
X2005942Y1581354*
X2005987Y1581131*
Y1581128*
X2006032Y1580816*
Y1580809*
X2003834Y1580891D02*
X2003747Y1581195D01*
X2003572Y1581678*
X2003447Y1581845*
X2003283Y1581967*
X2002856Y1582053*
X2002560Y1582010*
X2002309Y1581885*
X2002142Y1581676*
X2002012Y1581374*
X2001925Y1580980*
X2001881Y1580450*
Y1580056*
X2001968Y1579706*
X2002055Y1579400*
X2002181Y1579192*
X2002476Y1578980*
X2002859Y1578895*
X2003155Y1578938*
X2003406Y1579063*
X2003573Y1579272*
X2003702Y1579574*
X2003790Y1579968*
X2003834Y1580454*
Y1580891*
X2003532Y1580809D02*
Y1580095D01*
Y1580086*
X2003487Y1579818*
Y1579817*
X2003442Y1579594*
X2003438Y1579581*
X2003349Y1579403*
X2003335Y1579386*
X2003112Y1579207*
X2003090Y1579197*
X2002867Y1579153*
X2002848*
X2002624Y1579197*
X2002603Y1579207*
X2002380Y1579386*
X2002366Y1579403*
X2002277Y1579581*
X2002273Y1579594*
X2002228Y1579817*
Y1579818*
X2002183Y1580086*
X2002182Y1580095*
Y1580809*
X2002183Y1580816*
X2002228Y1581128*
Y1581131*
X2002273Y1581354*
X2002277Y1581367*
X2002366Y1581545*
X2002380Y1581562*
X2002603Y1581741*
X2002624Y1581751*
X2002848Y1581795*
X2002866Y1581796*
X2003133Y1581751*
X2003164Y1581733*
X2003343Y1581510*
X2003345Y1581506*
X2003435Y1581372*
X2003442Y1581354*
X2003487Y1581131*
Y1581128*
X2003532Y1580816*
Y1580809*
X2001111Y1579241D02*
X2000809D01*
Y1578939*
X2001111*
Y1579241*
X2000083Y1579828D02*
X2000041Y1580081D01*
X1999958Y1580290*
X1999792Y1580455*
X1999531Y1580586*
X1999528Y1580673*
X1999746Y1580804*
X1999870Y1580928*
X1999953Y1581094*
X1999994Y1581258*
X1999952Y1581592*
X1999743Y1581843*
X1999492Y1582010*
X1999107Y1582053*
X1998723Y1582010*
X1998472Y1581843*
X1998262Y1581591*
X1998221Y1581301*
X1998262Y1581093*
X1998345Y1580928*
X1998469Y1580804*
X1998687Y1580673*
X1998677Y1580583*
X1998420Y1580497*
X1998258Y1580335*
X1998174Y1580082*
X1998132Y1579828*
X1998217Y1579443*
X1998386Y1579148*
X1998722Y1578938*
X1999107Y1578895*
X1999492Y1578938*
X1999829Y1579148*
X1999998Y1579443*
X2000083Y1579828*
X1999692Y1581243D02*
X1999647Y1581065D01*
X1999640Y1581049*
X1999551Y1580915*
X1999532Y1580898*
X1999353Y1580809*
X1999340Y1580804*
X1999117Y1580760*
X1999098*
X1998874Y1580804*
X1998862Y1580809*
X1998683Y1580898*
X1998664Y1580915*
X1998575Y1581049*
X1998567Y1581067*
X1998523Y1581290*
Y1581312*
X1998568Y1581491*
X1998575Y1581506*
X1998664Y1581640*
X1998683Y1581657*
X1998862Y1581746*
X1998874Y1581751*
X1999098Y1581795*
X1999117*
X1999340Y1581751*
X1999353Y1581746*
X1999532Y1581657*
X1999554Y1581635*
X1999643Y1581456*
X1999647Y1581446*
X1999692Y1581267*
Y1581243*
X1999782Y1579827D02*
Y1579818D01*
X1999737Y1579551*
X1999728Y1579529*
X1999594Y1579350*
X1999584Y1579340*
X1999405Y1579206*
X1999383Y1579197*
X1999116Y1579152*
X1999107*
X1998929*
X1998901Y1579160*
X1998770Y1579248*
X1998594Y1579336*
X1998575Y1579353*
X1998485Y1579486*
X1998478Y1579507*
X1998433Y1579820*
X1998432Y1579827*
X1998433Y1579836*
X1998478Y1580060*
X1998484Y1580076*
X1998618Y1580299*
X1998631Y1580313*
X1998810Y1580447*
X1998831Y1580456*
X1999099Y1580501*
X1999116*
X1999383Y1580456*
X1999405Y1580447*
X1999584Y1580313*
X1999597Y1580299*
X1999731Y1580076*
X1999737Y1580060*
X1999781Y1579836*
X1999782Y1579827*
X1997004Y1582053D02*
X1996814D01*
X1996695Y1581855*
X1996687Y1581845*
X1996464Y1581622*
X1996457Y1581615*
X1996189Y1581437*
X1996186Y1581435*
X1995898Y1581271*
Y1580979*
X1996268Y1581164*
X1996622Y1581429*
X1996702Y1581389*
Y1578939*
X1997004*
Y1582053*
X1995900Y1580980D02*
Y1581272D01*
X1996000Y1581030D02*
Y1581329D01*
X1996100Y1581080D02*
Y1581386D01*
X1996200Y1581130D02*
Y1581444D01*
X1996300Y1581188D02*
Y1581511D01*
X1996400Y1581263D02*
Y1581578D01*
X1996500Y1581338D02*
Y1581658D01*
X1996600Y1581413D02*
Y1581758D01*
X1996700Y1581403D02*
Y1581863D01*
X1996800Y1578939D02*
Y1582030D01*
X1996900Y1578939D02*
Y1582053D01*
X1997000Y1578939D02*
Y1582053D01*
X1998200Y1579520D02*
Y1580161D01*
X1998300Y1579298D02*
Y1580377D01*
Y1581018D02*
Y1581637D01*
X1998400Y1579139D02*
Y1580477D01*
Y1580873D02*
Y1581757D01*
X1998500Y1579077D02*
Y1579465D01*
Y1580102D02*
Y1580524D01*
Y1580785D02*
Y1581862D01*
X1998600Y1579014D02*
Y1579332D01*
Y1580269D02*
Y1580557D01*
Y1580725D02*
Y1581011D01*
Y1581544D02*
Y1581928D01*
X1998700Y1578952D02*
Y1579282D01*
Y1580365D02*
Y1580599D01*
Y1580661D02*
Y1580890D01*
Y1581665D02*
Y1581995D01*
X1998800Y1578929D02*
Y1579227D01*
Y1580440D02*
Y1580840D01*
Y1581715D02*
Y1582019D01*
X1998900Y1578918D02*
Y1579161D01*
Y1580468D02*
Y1580799D01*
Y1581756D02*
Y1582030D01*
X1999000Y1578907D02*
Y1579152D01*
Y1580484D02*
Y1580779D01*
Y1581776D02*
Y1582041D01*
X1999100Y1578896D02*
Y1579152D01*
Y1580501D02*
Y1580759D01*
Y1581796D02*
Y1582052D01*
X1999200Y1578905D02*
Y1579166D01*
Y1580487D02*
Y1580776D01*
Y1581779D02*
Y1582043D01*
X1999300Y1578916D02*
Y1579183D01*
Y1580470D02*
Y1580796D01*
Y1581759D02*
Y1582032D01*
X1999400Y1578927D02*
Y1579203D01*
Y1580450D02*
Y1580832D01*
Y1581723D02*
Y1582021D01*
X1999500Y1578942D02*
Y1579277D01*
Y1580376D02*
Y1580882D01*
Y1581673D02*
Y1582005D01*
X1999600Y1579005D02*
Y1579358D01*
Y1580293D02*
Y1580551D01*
Y1580716D02*
Y1580989D01*
Y1581543D02*
Y1581938D01*
X1999700Y1579067D02*
Y1579492D01*
Y1580127D02*
Y1580501D01*
Y1580776D02*
Y1581872D01*
X1999800Y1579130D02*
Y1580447D01*
Y1580858D02*
Y1581775D01*
X1999900Y1579272D02*
Y1580347D01*
Y1580988D02*
Y1581655D01*
X2000000Y1579453D02*
Y1580184D01*
X2000900Y1578939D02*
Y1579241D01*
X2001000Y1578939D02*
Y1579241D01*
X2001100Y1578939D02*
Y1579241D01*
X2001900Y1579978D02*
Y1580682D01*
X2002000Y1579594D02*
Y1581318D01*
X2002100Y1579326D02*
Y1581578D01*
X2002200Y1579178D02*
Y1579985D01*
Y1580936D02*
Y1581749D01*
X2002300Y1579106D02*
Y1579535D01*
Y1581413D02*
Y1581874D01*
X2002400Y1579035D02*
Y1579370D01*
Y1581578D02*
Y1581930D01*
X2002500Y1578975D02*
Y1579290D01*
Y1581658D02*
Y1581980D01*
X2002600Y1578953D02*
Y1579210D01*
Y1581738D02*
Y1582016D01*
X2002700Y1578931D02*
Y1579182D01*
Y1581766D02*
Y1582030D01*
X2002800Y1578909D02*
Y1579162D01*
Y1581786D02*
Y1582045D01*
X2002900Y1578901D02*
Y1579159D01*
Y1581790D02*
Y1582044D01*
X2003000Y1578915D02*
Y1579179D01*
Y1581773D02*
Y1582024D01*
X2003100Y1578930D02*
Y1579200D01*
Y1581757D02*
Y1582004D01*
X2003200Y1578960D02*
Y1579278D01*
Y1581688D02*
Y1581984D01*
X2003300Y1579010D02*
Y1579358D01*
Y1581563D02*
Y1581955D01*
X2003400Y1579060D02*
Y1579505D01*
Y1581424D02*
Y1581880D01*
X2003500Y1579181D02*
Y1579896D01*
Y1581039D02*
Y1581773D01*
X2003600Y1579335D02*
Y1581600D01*
X2003700Y1579569D02*
Y1581325D01*
X2003800Y1580078D02*
Y1581011D01*
X2004400Y1579978D02*
Y1580682D01*
X2004500Y1579594D02*
Y1581318D01*
X2004600Y1579326D02*
Y1581578D01*
X2004700Y1579178D02*
Y1579985D01*
Y1580936D02*
Y1581749D01*
X2004800Y1579106D02*
Y1579535D01*
Y1581413D02*
Y1581874D01*
X2004900Y1579035D02*
Y1579370D01*
Y1581578D02*
Y1581930D01*
X2005000Y1578975D02*
Y1579290D01*
Y1581658D02*
Y1581980D01*
X2005100Y1578953D02*
Y1579210D01*
Y1581738D02*
Y1582016D01*
X2005200Y1578931D02*
Y1579182D01*
Y1581766D02*
Y1582030D01*
X2005300Y1578909D02*
Y1579162D01*
Y1581786D02*
Y1582045D01*
X2005400Y1578901D02*
Y1579159D01*
Y1581790D02*
Y1582044D01*
X2005500Y1578915D02*
Y1579179D01*
Y1581773D02*
Y1582024D01*
X2005600Y1578930D02*
Y1579200D01*
Y1581757D02*
Y1582004D01*
X2005700Y1578960D02*
Y1579278D01*
Y1581688D02*
Y1581984D01*
X2005800Y1579010D02*
Y1579358D01*
Y1581563D02*
Y1581955D01*
X2005900Y1579060D02*
Y1579505D01*
Y1581424D02*
Y1581880D01*
X2006000Y1579181D02*
Y1579896D01*
Y1581039D02*
Y1581773D01*
X2006100Y1579335D02*
Y1581600D01*
X2006200Y1579569D02*
Y1581325D01*
X2006300Y1580078D02*
Y1581011D01*
X2007000Y1578939D02*
Y1581161D01*
X2007100Y1578939D02*
Y1581161D01*
X2007200Y1578939D02*
Y1581161D01*
X2007300Y1580593D02*
Y1580809D01*
X2007400Y1580713D02*
Y1580906D01*
X2007500Y1580833D02*
Y1581006D01*
X2007600Y1580877D02*
Y1581090D01*
X2007700Y1580905D02*
Y1581130D01*
X2007800Y1580934D02*
Y1581167D01*
X2007900Y1580939D02*
Y1581192D01*
X2008000Y1580914D02*
Y1581194D01*
X2008100Y1580871D02*
Y1581174D01*
X2008200Y1580804D02*
Y1581145D01*
X2008300Y1580616D02*
Y1581105D01*
X2008400Y1578939D02*
Y1581044D01*
X2008500Y1578939D02*
Y1580930D01*
X2008600Y1578939D02*
Y1580762D01*
X2008700Y1580617D02*
Y1580851D01*
X2008800Y1580750D02*
Y1581007D01*
X2008900Y1580827D02*
Y1581082D01*
X2009000Y1580900D02*
Y1581132D01*
X2009100Y1580921D02*
Y1581157D01*
X2009200Y1580941D02*
Y1581178D01*
X2009300Y1580937D02*
Y1581198D01*
X2009400Y1580917D02*
Y1581195D01*
X2009500Y1580889D02*
Y1581181D01*
X2009600Y1580756D02*
Y1581166D01*
X2009700Y1578939D02*
Y1581118D01*
X2009800Y1578939D02*
Y1581058D01*
X2009900Y1578939D02*
Y1580897D01*
X2010700Y1578939D02*
Y1581161D01*
X2010800Y1578939D02*
Y1581161D01*
X2010900Y1578939D02*
Y1581161D01*
X2011000Y1580460D02*
Y1580811D01*
X2011100Y1580653D02*
Y1580856D01*
X2011200Y1580773D02*
Y1580956D01*
X2011300Y1580862D02*
Y1581056D01*
X2011400Y1580891D02*
Y1581110D01*
X2011500Y1580919D02*
Y1581150D01*
X2011600Y1580948D02*
Y1581180D01*
X2011700Y1580926D02*
Y1581204D01*
X2011800Y1580901D02*
Y1581184D01*
X2011900Y1580838D02*
Y1581164D01*
X2012000Y1580716D02*
Y1581125D01*
X2012100Y1578939D02*
Y1581085D01*
X2012200Y1578939D02*
Y1580994D01*
X2012300Y1578939D02*
Y1580830D01*
X2012400Y1580505D02*
Y1580772D01*
X2012500Y1580683D02*
Y1580934D01*
X2012600Y1580790D02*
Y1581044D01*
X2012700Y1580865D02*
Y1581119D01*
X2012800Y1580911D02*
Y1581145D01*
X2012900Y1580931D02*
Y1581168D01*
X2013000Y1580947D02*
Y1581188D01*
X2013100Y1580927D02*
Y1581202D01*
X2013200Y1580907D02*
Y1581188D01*
X2013300Y1580823D02*
Y1581173D01*
X2013400Y1580678D02*
Y1581148D01*
X2013500Y1578939D02*
Y1581088D01*
X2013600Y1578939D02*
Y1580997D01*
X2013700Y1578939D02*
Y1580797D01*
X2046300Y1522660D02*
Y1522950D01*
Y1524972D02*
Y1525057D01*
X2046400Y1522660D02*
Y1523138D01*
Y1524961D02*
Y1525333D01*
X2046500Y1522660D02*
Y1523263D01*
Y1524950D02*
Y1525473D01*
X2046600Y1522660D02*
Y1523388D01*
Y1525048D02*
Y1525583D01*
X2046700Y1522660D02*
Y1522962D01*
Y1523081D02*
Y1523513D01*
Y1525242D02*
Y1525641D01*
X2046800Y1522660D02*
Y1522961D01*
Y1523206D02*
Y1523598D01*
Y1525353D02*
Y1525698D01*
X2046900Y1522660D02*
Y1522961D01*
Y1523307D02*
Y1523684D01*
Y1525428D02*
Y1525735D01*
X2047000Y1522660D02*
Y1522961D01*
Y1523382D02*
Y1523770D01*
Y1525477D02*
Y1525746D01*
X2047100Y1522660D02*
Y1522961D01*
Y1523463D02*
Y1523858D01*
Y1525493D02*
Y1525758D01*
X2047200Y1522660D02*
Y1522961D01*
Y1523546D02*
Y1523947D01*
Y1525510D02*
Y1525769D01*
X2047300Y1522660D02*
Y1522961D01*
Y1523629D02*
Y1524036D01*
Y1525506D02*
Y1525760D01*
X2047400Y1522660D02*
Y1522961D01*
Y1523717D02*
Y1524125D01*
Y1525486D02*
Y1525738D01*
X2047500Y1522660D02*
Y1522961D01*
Y1523804D02*
Y1524238D01*
Y1525460D02*
Y1525716D01*
X2047600Y1522660D02*
Y1522961D01*
Y1523892D02*
Y1524355D01*
Y1525385D02*
Y1525693D01*
X2047700Y1522660D02*
Y1522961D01*
Y1523994D02*
Y1524478D01*
Y1525304D02*
Y1525646D01*
X2047800Y1522660D02*
Y1522961D01*
Y1524114D02*
Y1524645D01*
Y1525204D02*
Y1525589D01*
X2047900Y1522660D02*
Y1522961D01*
Y1524238D02*
Y1525532D01*
X2048000Y1522660D02*
Y1522961D01*
Y1524371D02*
Y1525428D01*
X2048100Y1522660D02*
Y1522961D01*
Y1524634D02*
Y1525308D01*
X2048200Y1522660D02*
Y1522961D01*
X2048900Y1523118D02*
Y1523423D01*
Y1524167D02*
Y1524354D01*
X2049000Y1522978D02*
Y1523434D01*
Y1524156D02*
Y1524883D01*
X2049100Y1522838D02*
Y1523445D01*
Y1524145D02*
Y1525411D01*
X2049200Y1522774D02*
Y1523234D01*
Y1524145D02*
Y1525729D01*
X2049300Y1522717D02*
Y1523029D01*
Y1524245D02*
Y1524479D01*
Y1524867D02*
Y1525729D01*
X2049400Y1522659D02*
Y1522971D01*
Y1524345D02*
Y1524538D01*
Y1525416D02*
Y1525729D01*
X2049500Y1522646D02*
Y1522921D01*
Y1524378D02*
Y1524604D01*
Y1525427D02*
Y1525729D01*
X2049600Y1522633D02*
Y1522900D01*
Y1524406D02*
Y1524662D01*
Y1525427D02*
Y1525729D01*
X2049700Y1522621D02*
Y1522880D01*
Y1524435D02*
Y1524677D01*
Y1525427D02*
Y1525729D01*
X2049800Y1522625D02*
Y1522880D01*
Y1524438D02*
Y1524691D01*
Y1525427D02*
Y1525729D01*
X2049900Y1522642D02*
Y1522894D01*
Y1524423D02*
Y1524695D01*
Y1525427D02*
Y1525729D01*
X2050000Y1522658D02*
Y1522908D01*
Y1524409D02*
Y1524670D01*
Y1525427D02*
Y1525729D01*
X2050100Y1522678D02*
Y1522940D01*
Y1524380D02*
Y1524645D01*
Y1525427D02*
Y1525729D01*
X2050200Y1522698D02*
Y1523040D01*
Y1524305D02*
Y1524620D01*
Y1525427D02*
Y1525729D01*
X2050300Y1522766D02*
Y1523157D01*
Y1524205D02*
Y1524555D01*
Y1525427D02*
Y1525729D01*
X2050400Y1522845D02*
Y1523323D01*
Y1524039D02*
Y1524484D01*
Y1525427D02*
Y1525729D01*
X2050500Y1522945D02*
Y1524412D01*
Y1525427D02*
Y1525729D01*
X2050600Y1523082D02*
Y1524280D01*
X2050700Y1523257D02*
Y1524140D01*
X2051500Y1522660D02*
Y1522961D01*
X2051600Y1522660D02*
Y1522961D01*
X2051700Y1522660D02*
Y1522961D01*
X2052600Y1523310D02*
Y1523417D01*
X2052700Y1523048D02*
Y1523428D01*
Y1524162D02*
Y1524618D01*
X2052800Y1522908D02*
Y1523440D01*
Y1524151D02*
Y1525147D01*
X2052900Y1522802D02*
Y1523384D01*
Y1524140D02*
Y1525676D01*
X2053000Y1522745D02*
Y1523128D01*
Y1524195D02*
Y1524513D01*
Y1524550D02*
Y1525729D01*
X2053100Y1522688D02*
Y1522996D01*
Y1524295D02*
Y1524504D01*
Y1525184D02*
Y1525729D01*
X2053200Y1522652D02*
Y1522946D01*
Y1524363D02*
Y1524571D01*
Y1525427D02*
Y1525729D01*
X2053300Y1522640D02*
Y1522910D01*
Y1524392D02*
Y1524638D01*
Y1525427D02*
Y1525729D01*
X2053400Y1522627D02*
Y1522890D01*
Y1524421D02*
Y1524669D01*
Y1525427D02*
Y1525729D01*
X2053500Y1522617D02*
Y1522872D01*
Y1524445D02*
Y1524684D01*
Y1525427D02*
Y1525729D01*
X2053600Y1522633D02*
Y1522887D01*
Y1524431D02*
Y1524698D01*
Y1525427D02*
Y1525729D01*
X2053700Y1522650D02*
Y1522901D01*
Y1524416D02*
Y1524683D01*
Y1525427D02*
Y1525729D01*
X2053800Y1522668D02*
Y1522915D01*
Y1524402D02*
Y1524658D01*
Y1525427D02*
Y1525729D01*
X2053900Y1522688D02*
Y1522990D01*
Y1524343D02*
Y1524633D01*
Y1525427D02*
Y1525729D01*
X2054000Y1522728D02*
Y1523090D01*
Y1524268D02*
Y1524591D01*
Y1525427D02*
Y1525729D01*
X2054100Y1522803D02*
Y1523240D01*
Y1524122D02*
Y1524519D01*
Y1525427D02*
Y1525729D01*
X2054200Y1522895D02*
Y1523584D01*
Y1523778D02*
Y1524448D01*
Y1525427D02*
Y1525729D01*
X2054300Y1522995D02*
Y1524350D01*
Y1525427D02*
Y1525729D01*
X2054400Y1523169D02*
Y1524210D01*
X2054500Y1523577D02*
Y1523859D01*
X2055100Y1523623D02*
Y1524631D01*
X2055200Y1523248D02*
Y1525110D01*
X2055300Y1523015D02*
Y1525343D01*
X2055400Y1522885D02*
Y1523591D01*
Y1524789D02*
Y1525493D01*
X2055500Y1522813D02*
Y1523217D01*
Y1525171D02*
Y1525610D01*
X2055600Y1522742D02*
Y1523075D01*
Y1525314D02*
Y1525660D01*
X2055700Y1522691D02*
Y1522995D01*
Y1525394D02*
Y1525710D01*
X2055800Y1522669D02*
Y1522919D01*
Y1525470D02*
Y1525739D01*
X2055900Y1522647D02*
Y1522899D01*
Y1525490D02*
Y1525754D01*
X2056000Y1522625D02*
Y1522879D01*
Y1525510D02*
Y1525768D01*
X2056100Y1522624D02*
Y1522883D01*
Y1525507D02*
Y1525761D01*
X2056200Y1522639D02*
Y1522903D01*
Y1525490D02*
Y1525741D01*
X2056300Y1522653D02*
Y1522933D01*
Y1525474D02*
Y1525721D01*
X2056400Y1522690D02*
Y1523013D01*
Y1525385D02*
Y1525701D01*
X2056500Y1522740D02*
Y1523093D01*
Y1525260D02*
Y1525661D01*
X2056600Y1522800D02*
Y1523264D01*
Y1525116D02*
Y1525586D01*
X2056700Y1522925D02*
Y1523731D01*
Y1524626D02*
Y1525468D01*
X2056800Y1523100D02*
Y1525268D01*
X2056900Y1523369D02*
Y1524993D01*
X2057000Y1524008D02*
Y1524665D01*
X2057700Y1522660D02*
Y1524881D01*
X2057800Y1522660D02*
Y1524881D01*
X2057900Y1522660D02*
Y1524881D01*
X2058000Y1524336D02*
Y1524545D01*
X2058100Y1524456D02*
Y1524645D01*
X2058200Y1524572D02*
Y1524745D01*
X2058300Y1524602D02*
Y1524818D01*
X2058400Y1524631D02*
Y1524858D01*
X2058500Y1524660D02*
Y1524892D01*
X2058600Y1524655D02*
Y1524917D01*
X2058700Y1524630D02*
Y1524910D01*
X2058800Y1524579D02*
Y1524890D01*
X2058900Y1524498D02*
Y1524857D01*
X2059000Y1522660D02*
Y1524817D01*
X2059100Y1522660D02*
Y1524745D01*
X2059200Y1522660D02*
Y1524612D01*
X2059300Y1524009D02*
Y1524479D01*
X2059400Y1524363D02*
Y1524603D01*
X2059500Y1524487D02*
Y1524742D01*
X2059600Y1524562D02*
Y1524817D01*
X2059700Y1524625D02*
Y1524857D01*
X2059800Y1524645D02*
Y1524882D01*
X2059900Y1524665D02*
Y1524902D01*
X2060000Y1524654D02*
Y1524922D01*
X2060100Y1524634D02*
Y1524912D01*
X2060200Y1524585D02*
Y1524898D01*
X2060300Y1524451D02*
Y1524884D01*
X2060400Y1522660D02*
Y1524827D01*
X2060500Y1522660D02*
Y1524767D01*
X2060600Y1522660D02*
Y1524580D01*
X2061400Y1522660D02*
Y1524881D01*
X2061500Y1522660D02*
Y1524881D01*
X2061600Y1522660D02*
Y1524881D01*
X2061700Y1524257D02*
Y1524525D01*
X2061800Y1524396D02*
Y1524595D01*
X2061900Y1524516D02*
Y1524695D01*
X2062000Y1524588D02*
Y1524795D01*
X2062100Y1524617D02*
Y1524838D01*
X2062200Y1524645D02*
Y1524878D01*
X2062300Y1524667D02*
Y1524905D01*
X2062400Y1524642D02*
Y1524920D01*
X2062500Y1524612D02*
Y1524900D01*
X2062600Y1524545D02*
Y1524877D01*
X2062700Y1524398D02*
Y1524837D01*
X2062800Y1522660D02*
Y1524795D01*
X2062900Y1522660D02*
Y1524695D01*
X2063000Y1522660D02*
Y1524512D01*
X2063100Y1524296D02*
Y1524520D01*
X2063200Y1524429D02*
Y1524687D01*
X2063300Y1524525D02*
Y1524779D01*
X2063400Y1524600D02*
Y1524845D01*
X2063500Y1524635D02*
Y1524870D01*
X2063600Y1524655D02*
Y1524892D01*
X2063700Y1524664D02*
Y1524912D01*
X2063800Y1524644D02*
Y1524920D01*
X2063900Y1524624D02*
Y1524905D01*
X2064000Y1524518D02*
Y1524891D01*
X2064100Y1524342D02*
Y1524857D01*
X2064200Y1522660D02*
Y1524797D01*
X2064300Y1522660D02*
Y1524680D01*
X2064400Y1522660D02*
Y1524394D01*
*
G04 PC Custom Flashes*
G04 Layer Name ESP32_WROOM_32D_5X5_V2- - flashes*
%LPD*%
*
*
G04 PC Circuitry*
G04 Layer Name ESP32_WROOM_32D_5X5_V2- - circuitry*
%LPD*%
*
G54D10*
X1968504Y1574681D02*
X1968507D01*
X2039370D02*
X2039373D01*
X2039370Y1474288D02*
X2039373D01*
X2039370Y1574681D02*
X2039373D01*
G54D44*
X2035370Y1541193D02*
X2043370Y1549193D01*
X2035370D02*
X2043370Y1541193D01*
X1964504Y1526193D02*
X1972504Y1534193D01*
X1964504D02*
X1972504Y1526193D01*
X1992476Y1470287D02*
X2000476Y1478287D01*
X1992476D02*
X2000476Y1470287D01*
X2035370Y1526193D02*
X2043370Y1534193D01*
X2035370D02*
X2043370Y1526193D01*
X1964504Y1521193D02*
X1972504Y1529193D01*
X1964504D02*
X1972504Y1521193D01*
X1997476Y1470287D02*
X2005476Y1478287D01*
X1997476D02*
X2005476Y1470287D01*
X2035370Y1521193D02*
X2043370Y1529193D01*
X2035370D02*
X2043370Y1521193D01*
X1964504Y1516193D02*
X1972504Y1524193D01*
X1964504D02*
X1972504Y1516193D01*
X2002476Y1470287D02*
X2010476Y1478287D01*
X2002476D02*
X2010476Y1470287D01*
X2035370Y1516193D02*
X2043370Y1524193D01*
X2035370D02*
X2043370Y1516193D01*
X1964504Y1511193D02*
X1972504Y1519193D01*
X1964504D02*
X1972504Y1511193D01*
X1977476Y1470287D02*
X1985476Y1478287D01*
X1977476D02*
X1985476Y1470287D01*
X2007476D02*
X2015476Y1478287D01*
X2007476D02*
X2015476Y1470287D01*
X2035370Y1511193D02*
X2043370D01*
X2035370Y1519193*
X2043370*
X2035370Y1511193*
X1964504Y1506193D02*
X1972504Y1514193D01*
X1964504D02*
X1972504Y1506193D01*
X2012476Y1470287D02*
X2020476Y1478287D01*
X2012476D02*
X2020476Y1470287D01*
X2035370Y1506193D02*
X2043370Y1514193D01*
X2035370D02*
X2043370Y1506193D01*
X1964504Y1501193D02*
X1972504Y1509193D01*
X1964504D02*
X1972504Y1501193D01*
X2017476Y1470287D02*
X2025476Y1478287D01*
X2017476D02*
X2025476Y1470287D01*
X2035370Y1501193D02*
X2043370Y1509193D01*
X2035370D02*
X2043370Y1501193D01*
X1964504Y1496193D02*
X1972504Y1504193D01*
X1964504D02*
X1972504Y1496193D01*
X2022476Y1470287D02*
X2030476Y1478287D01*
X2022476D02*
X2030476Y1470287D01*
X1964504Y1541193D02*
X1972504Y1549193D01*
X1964504D02*
X1972504Y1541193D01*
X2035370Y1496193D02*
X2043370Y1504193D01*
X2035370D02*
X2043370Y1496193D01*
X1964504Y1491193D02*
X1972504Y1499193D01*
X1964504D02*
X1972504Y1491193D01*
X2035370D02*
X2043370Y1499193D01*
X2035370D02*
X2043370Y1491193D01*
X1964504Y1486193D02*
X1972504Y1494193D01*
X1964504D02*
X1972504Y1486193D01*
X2035370D02*
X2043370Y1494193D01*
X2035370D02*
X2043370Y1486193D01*
X1964504Y1481193D02*
X1972504Y1489193D01*
X1964504D02*
X1972504Y1481193D01*
X2035370D02*
X2043370Y1489193D01*
X2035370D02*
X2043370Y1481193D01*
X1964504Y1476193D02*
X1972504Y1484193D01*
X1964504D02*
X1972504Y1476193D01*
X2035384D02*
X2043384Y1484193D01*
X2035384D02*
X2043384Y1476193D01*
X1964504Y1536193D02*
X1972504D01*
X1964504Y1544193*
X1972504*
X1964504Y1536193*
X1982476Y1470287D02*
X1990476Y1478287D01*
X1982476D02*
X1990476Y1470287D01*
X2035370Y1536193D02*
X2043370Y1544193D01*
X2035370D02*
X2043370Y1536193D01*
X1964504Y1531193D02*
X1972504Y1539193D01*
X1964504D02*
X1972504Y1531193D01*
X1987476Y1470287D02*
X1995476Y1478287D01*
X1987476D02*
X1995476Y1470287D01*
X2035370Y1531193D02*
X2043370Y1539193D01*
X2035370D02*
X2043370Y1531193D01*
X1966459Y1476146D02*
X1974459D01*
X1970459Y1472146D02*
Y1480146D01*
X1973004Y1481803D02*
X1981004D01*
X1977004Y1477803D02*
Y1485803D01*
X1973662Y1476208D02*
X1981662D01*
X1977662Y1472208D02*
Y1480208D01*
X1970880Y1476208D02*
X1978880D01*
X1974880Y1472208D02*
Y1480208D01*
X1969754Y1482053D02*
X1977754D01*
X1973754Y1478053D02*
Y1486053D01*
X1969754Y1479303D02*
X1977754D01*
X1973754Y1475303D02*
Y1483303D01*
X1972254Y1479053D02*
X1980254D01*
X1976254Y1475053D02*
Y1483053D01*
X1974754Y1479053D02*
X1982754D01*
X1978754Y1475053D02*
Y1483053D01*
X1979004Y1481303D02*
X1987004D01*
X1983004Y1477303D02*
Y1485303D01*
X1971254Y1484053D02*
X1979254D01*
X1975254Y1480053D02*
Y1488053D01*
X1980504Y1479303D02*
X1988504D01*
X1984504Y1475303D02*
Y1483303D01*
X1982004Y1481303D02*
X1990004D01*
X1986004Y1477303D02*
Y1485303D01*
X1984254Y1479303D02*
X1992254D01*
X1988254Y1475303D02*
Y1483303D01*
X1989004Y1479803D02*
X1997004D01*
X1993004Y1475803D02*
Y1483803D01*
X1986754Y1481053D02*
X1994754D01*
X1990754Y1477053D02*
Y1485053D01*
X1991004Y1483803D02*
X1999004D01*
X1995004Y1479803D02*
Y1487803D01*
X1991004Y1481303D02*
X1999004D01*
X1995004Y1477303D02*
Y1485303D01*
X1999504Y1479803D02*
X2007504D01*
X2003504Y1475803D02*
Y1483803D01*
X1996004Y1480053D02*
X2004004D01*
Y1488053*
X1996004*
Y1480053*
X2000004Y1484053D02*
Y1488053D01*
X2005004Y1479303D02*
X2013004D01*
X2009004Y1475303D02*
Y1483303D01*
Y1480803D02*
X2017004D01*
X2013004Y1476803D02*
Y1484803D01*
X2002504Y1481803D02*
X2010504D01*
X2006504Y1477803D02*
Y1485803D01*
X2011754Y1480803D02*
X2019754D01*
X2015754Y1476803D02*
Y1484803D01*
X2013754Y1479303D02*
X2021754D01*
X2017754Y1475303D02*
Y1483303D01*
X2027754Y1476303D02*
X2035754D01*
X2031754Y1472303D02*
Y1480303D01*
X2022754Y1481803D02*
X2030754D01*
X2026754Y1477803D02*
Y1485803D01*
X2027754Y1482053D02*
X2035754D01*
X2031754Y1478053D02*
Y1486053D01*
X2029254Y1478303D02*
X2037254D01*
X2033254Y1474303D02*
Y1482303D01*
X2026254Y1478303D02*
X2034254D01*
X2030254Y1474303D02*
Y1482303D01*
X2020504Y1483303D02*
X2028504D01*
X2024504Y1479303D02*
Y1487303D01*
X2025254Y1483303D02*
X2033254D01*
X2029254Y1479303D02*
Y1487303D01*
X2033254Y1476303D02*
X2041254D01*
X2037254Y1472303D02*
Y1480303D01*
X2030004Y1483303D02*
X2038004D01*
X2034004Y1479303D02*
Y1487303D01*
X2030754Y1476303D02*
X2038754D01*
X2034754Y1472303D02*
Y1480303D01*
X1969717Y1492931D02*
X1977717D01*
X1973717Y1488931D02*
Y1496931D01*
X1971504Y1489803D02*
X1979504D01*
X1975504Y1485803D02*
Y1493803D01*
X1969754Y1487803D02*
X1977754D01*
X1973754Y1483803D02*
Y1491803D01*
X1976304Y1491503D02*
X1984304D01*
X1980304Y1487503D02*
Y1495503D01*
X1976304Y1486503D02*
X1984304D01*
X1980304Y1482503D02*
Y1490503D01*
X1992754Y1481553D02*
X2000754D01*
Y1489553*
X1992754*
Y1481553*
X1996754Y1485553D02*
Y1489553D01*
X1994254Y1485053D02*
X2002254D01*
Y1493053*
X1994254*
Y1485053*
X1998254Y1489053D02*
Y1493053D01*
X1999254Y1483303D02*
X2007254D01*
Y1491303*
X1999254*
Y1483303*
X2003254Y1487303D02*
Y1491303D01*
X1991254Y1486553D02*
X1999254D01*
Y1494553*
X1991254*
Y1486553*
X1995254Y1490553D02*
Y1494553D01*
X1997504Y1483303D02*
X2005504D01*
Y1491303*
X1997504*
Y1483303*
X2001504Y1487303D02*
Y1491303D01*
X1991004Y1483303D02*
X1999004D01*
Y1491303*
X1991004*
Y1483303*
X1995004Y1487303D02*
Y1491303D01*
X2002754Y1486553D02*
X2010754D01*
X2006754Y1482553D02*
Y1490553D01*
X2002504Y1486553D02*
X2010504D01*
Y1494553*
X2002504*
Y1486553*
X2006504Y1490553D02*
Y1494553D01*
X2000754Y1486553D02*
X2008754D01*
Y1494553*
X2000754*
Y1486553*
X2004754Y1490553D02*
Y1494553D01*
X2017504Y1491803D02*
X2025504D01*
X2021504Y1487803D02*
Y1495803D01*
X2017754Y1488303D02*
X2025754D01*
X2021754Y1484303D02*
Y1492303D01*
X2024004Y1486803D02*
X2032004D01*
X2028004Y1482803D02*
Y1490803D01*
X2019754Y1486803D02*
X2027754D01*
X2023754Y1482803D02*
Y1490803D01*
X2026004Y1488303D02*
X2034004D01*
X2030004Y1484303D02*
Y1492303D01*
X2023504Y1491803D02*
X2031504D01*
X2027504Y1487803D02*
Y1495803D01*
X2020742Y1491786D02*
X2028742D01*
X2024742Y1487786D02*
Y1495786D01*
X2028004Y1486803D02*
X2036004D01*
X2032004Y1482803D02*
Y1490803D01*
X2026797Y1491849D02*
X2034797D01*
X2030797Y1487849D02*
Y1495849D01*
X2021754Y1488303D02*
X2029754D01*
X2025754Y1484303D02*
Y1492303D01*
X2030504Y1491803D02*
X2038504D01*
X2034504Y1487803D02*
Y1495803D01*
X2030104Y1488403D02*
X2038104D01*
X2034104Y1484403D02*
Y1492403D01*
X1969404Y1497603D02*
X1977404D01*
X1973404Y1493603D02*
Y1501603D01*
X1976304Y1496503D02*
X1984304D01*
X1980304Y1492503D02*
Y1500503D01*
X1979054Y1499342D02*
X1987054D01*
Y1507342*
X1979054*
Y1499342*
X1983054Y1503342D02*
Y1507342D01*
X1982204Y1499342D02*
X1990204D01*
Y1507342*
X1982204*
Y1499342*
X1986204Y1503342D02*
Y1507342D01*
X1987704Y1497703D02*
X1995704D01*
Y1505703*
X1987704*
Y1497703*
X1991704Y1501703D02*
Y1505703D01*
X1984004Y1499342D02*
X1992004D01*
Y1507342*
X1984004*
Y1499342*
X1988004Y1503342D02*
Y1507342D01*
X1997457Y1495617D02*
X2005457D01*
Y1503617*
X1997457*
Y1495617*
X2001457Y1499617D02*
Y1503617D01*
X1999004Y1496803D02*
X2007004D01*
Y1504803*
X1999004*
Y1496803*
X2003004Y1500803D02*
Y1504803D01*
X2008254Y1498053D02*
X2012254Y1502053D01*
X2008254Y1506053*
X2004254Y1502053*
X2008254Y1498053*
Y1502053D02*
Y1506053D01*
X2000304Y1498103D02*
X2008304D01*
Y1506103*
X2000304*
Y1498103*
X2004304Y1502103D02*
Y1506103D01*
X2014504Y1501553D02*
X2022504D01*
X2018504Y1497553D02*
Y1505553D01*
X2017004Y1500553D02*
X2025004D01*
X2021004Y1496553D02*
Y1504553D01*
X2016754Y1503053D02*
X2024754D01*
X2020754Y1499053D02*
Y1507053D01*
X2013754Y1504053D02*
X2021754D01*
X2017754Y1500053D02*
Y1508053D01*
X2019404Y1502903D02*
X2027404D01*
X2023404Y1498903D02*
Y1506903D01*
X2027004Y1502553D02*
X2035004D01*
X2031004Y1498553D02*
Y1506553D01*
X2025004Y1500803D02*
X2033004D01*
X2029004Y1496803D02*
Y1504803D01*
X2022504Y1500803D02*
X2030504D01*
X2026504Y1496803D02*
Y1504803D01*
X2019754Y1500553D02*
X2027754D01*
X2023754Y1496553D02*
Y1504553D01*
X2029804Y1497203D02*
X2037804D01*
X2033804Y1493203D02*
Y1501203D01*
X1976254Y1511803D02*
X1984254D01*
X1980254Y1507803D02*
Y1515803D01*
X1973754Y1507553D02*
X1981754D01*
X1977754Y1503553D02*
Y1511553D01*
X1975504Y1509303D02*
X1983504D01*
X1979504Y1505303D02*
Y1513303D01*
X1977479Y1500303D02*
X1985479D01*
Y1508303*
X1977479*
Y1500303*
X1981479Y1504303D02*
Y1508303D01*
X1988000Y1511777D02*
X1996000D01*
X1992000Y1507777D02*
Y1515777D01*
X1988000Y1508777D02*
X1996000D01*
X1992000Y1504777D02*
Y1512777D01*
X1979754Y1508553D02*
X1987754D01*
Y1516553*
X1979754*
Y1508553*
X1983754Y1512553D02*
Y1516553D01*
X1980629Y1500303D02*
X1988629D01*
Y1508303*
X1980629*
Y1500303*
X1984629Y1504303D02*
Y1508303D01*
X1997000Y1511777D02*
X2005000D01*
X2001000Y1507777D02*
Y1515777D01*
X1997000Y1508777D02*
X2005000D01*
X2001000Y1504777D02*
Y1512777D01*
X1991000Y1511777D02*
X1999000D01*
X1995000Y1507777D02*
Y1515777D01*
X1994000Y1508777D02*
X2002000D01*
X1998000Y1504777D02*
Y1512777D01*
X1991000Y1508777D02*
X1999000D01*
X1995000Y1504777D02*
Y1512777D01*
X1994000Y1511777D02*
X2002000D01*
X1998000Y1507777D02*
Y1515777D01*
X2000000Y1508777D02*
X2008000D01*
X2004000Y1504777D02*
Y1512777D01*
X2000000Y1511777D02*
X2008000D01*
X2004000Y1507777D02*
Y1515777D01*
X2007404Y1503503D02*
X2015404D01*
Y1511503*
X2007404*
Y1503503*
X2011404Y1507503D02*
Y1511503D01*
X2007624Y1501427D02*
X2015624D01*
Y1509427*
X2007624*
Y1501427*
X2011624Y1505427D02*
Y1509427D01*
X2011504Y1501303D02*
X2019504D01*
Y1509303*
X2011504*
Y1501303*
X2015504Y1505303D02*
Y1509303D01*
X2009754Y1501303D02*
X2017754D01*
Y1509303*
X2009754*
Y1501303*
X2013754Y1505303D02*
Y1509303D01*
X2012254Y1506803D02*
X2020254D01*
Y1514803*
X2012254*
Y1506803*
X2016254Y1510803D02*
Y1514803D01*
X2018254Y1505153D02*
X2026254D01*
X2022254Y1501153D02*
Y1509153D01*
X2014004Y1508303D02*
X2022004D01*
X2018004Y1504303D02*
Y1512303D01*
X2015504Y1510303D02*
X2023504D01*
X2019504Y1506303D02*
Y1514303D01*
X2013754Y1512053D02*
X2021754D01*
X2017754Y1508053D02*
Y1516053D01*
X2015304Y1506103D02*
X2023304D01*
X2019304Y1502103D02*
Y1510103D01*
X2010004Y1506603D02*
X2018004D01*
Y1514603*
X2010004*
Y1506603*
X2014004Y1510603D02*
Y1514603D01*
X2020754Y1505153D02*
X2028754D01*
X2024754Y1501153D02*
Y1509153D01*
X2027754Y1500803D02*
X2035754D01*
Y1508803*
X2027754*
Y1500803*
X2031754Y1504803D02*
Y1508803D01*
X2027972Y1503680D02*
X2035972D01*
Y1511680*
X2027972*
Y1503680*
X2031972Y1507680D02*
Y1511680D01*
X2028066Y1506207D02*
X2036066D01*
Y1514207*
X2028066*
Y1506207*
X2032066Y1510207D02*
Y1514207D01*
X2027996Y1508500D02*
X2035996D01*
Y1516500*
X2027996*
Y1508500*
X2031996Y1512500D02*
Y1516500D01*
X1977504Y1519553D02*
X1985504D01*
Y1527553*
X1977504*
Y1519553*
X1981504Y1523553D02*
Y1527553D01*
X1975004Y1514803D02*
X1983004D01*
Y1522803*
X1975004*
Y1514803*
X1979004Y1518803D02*
Y1522803D01*
X1974504Y1516553D02*
X1982504D01*
Y1524553*
X1974504*
Y1516553*
X1978504Y1520553D02*
Y1524553D01*
X1976254Y1513553D02*
X1984254D01*
Y1521553*
X1976254*
Y1513553*
X1980254Y1517553D02*
Y1521553D01*
X1978254Y1513553D02*
X1986254D01*
Y1521553*
X1978254*
Y1513553*
X1982254Y1517553D02*
Y1521553D01*
X1984004Y1511492D02*
X1988004Y1515492D01*
X1984004Y1519492*
X1980004Y1515492*
X1984004Y1511492*
Y1515492D02*
Y1519492D01*
X1988004Y1517803D02*
X1996004D01*
X1992004Y1513803D02*
Y1521803D01*
X1988004Y1520803D02*
X1996004D01*
X1992004Y1516803D02*
Y1524803D01*
X1988004Y1514803D02*
X1996004D01*
X1992004Y1510803D02*
Y1518803D01*
X1980254Y1518553D02*
X1988254D01*
Y1526553*
X1980254*
Y1518553*
X1984254Y1522553D02*
Y1526553D01*
X1997004Y1514803D02*
X2005004D01*
X2001004Y1510803D02*
Y1518803D01*
X1994004Y1514803D02*
X2002004D01*
X1998004Y1510803D02*
Y1518803D01*
X1997004Y1520803D02*
X2005004D01*
X2001004Y1516803D02*
Y1524803D01*
X1997004Y1517803D02*
X2005004D01*
X2001004Y1513803D02*
Y1521803D01*
X1994004Y1517803D02*
X2002004D01*
X1998004Y1513803D02*
Y1521803D01*
X1991004Y1514803D02*
X1999004D01*
X1995004Y1510803D02*
Y1518803D01*
X1994004Y1520803D02*
X2002004D01*
X1998004Y1516803D02*
Y1524803D01*
X1991004Y1520803D02*
X1999004D01*
X1995004Y1516803D02*
Y1524803D01*
X1991004Y1517803D02*
X1999004D01*
X1995004Y1513803D02*
Y1521803D01*
X2000004Y1514803D02*
X2008004D01*
X2004004Y1510803D02*
Y1518803D01*
X2011004Y1510353D02*
X2015004Y1514353D01*
X2011004Y1518353*
X2007004Y1514353*
X2011004Y1510353*
Y1514353D02*
Y1518353D01*
Y1514703D02*
X2015004Y1518703D01*
X2011004Y1522703*
X2007004Y1518703*
X2011004Y1514703*
Y1518703D02*
Y1522703D01*
X2000004Y1520803D02*
X2008004D01*
X2004004Y1516803D02*
Y1524803D01*
X2000004Y1517803D02*
X2008004D01*
X2004004Y1513803D02*
Y1521803D01*
X2009404Y1514503D02*
X2017404D01*
Y1522503*
X2009404*
Y1514503*
X2013404Y1518503D02*
Y1522503D01*
X2016004Y1515553D02*
X2024004D01*
Y1523553*
X2016004*
Y1515553*
X2020004Y1519553D02*
Y1523553D01*
X2014754Y1517303D02*
X2022754D01*
Y1525303*
X2014754*
Y1517303*
X2018754Y1521303D02*
Y1525303D01*
X2017004Y1517303D02*
X2025004D01*
Y1525303*
X2017004*
Y1517303*
X2021004Y1521303D02*
Y1525303D01*
X2010104Y1510503D02*
X2018104D01*
Y1518503*
X2010104*
Y1510503*
X2014104Y1514503D02*
Y1518503D01*
X2011804Y1510503D02*
X2019804D01*
Y1518503*
X2011804*
Y1510503*
X2015804Y1514503D02*
Y1518503D01*
X2015504Y1513303D02*
X2023504D01*
Y1521303*
X2015504*
Y1513303*
X2019504Y1517303D02*
Y1521303D01*
X2011204Y1515403D02*
X2019204D01*
Y1523403*
X2011204*
Y1515403*
X2015204Y1519403D02*
Y1523403D01*
X2013204Y1515403D02*
X2021204D01*
Y1523403*
X2013204*
Y1515403*
X2017204Y1519403D02*
Y1523403D01*
X2026254Y1521053D02*
X2034254D01*
X2030254Y1517053D02*
Y1525053D01*
X2023004Y1521053D02*
X2031004D01*
X2027004Y1517053D02*
Y1525053D01*
X2028004Y1515553D02*
X2036004D01*
Y1523553*
X2028004*
Y1515553*
X2032004Y1519553D02*
Y1523553D01*
X2024754Y1519053D02*
X2032754D01*
X2028754Y1515053D02*
Y1523053D01*
X2028020Y1510769D02*
X2036020D01*
Y1518769*
X2028020*
Y1510769*
X2032020Y1514769D02*
Y1518769D01*
X2028066Y1513202D02*
X2036066D01*
Y1521202*
X2028066*
Y1513202*
X2032066Y1517202D02*
Y1521202D01*
X1969254Y1527303D02*
X1977254D01*
X1973254Y1523303D02*
Y1531303D01*
X1971754Y1533803D02*
X1979754D01*
X1975754Y1529803D02*
Y1537803D01*
X1977004Y1522553D02*
X1985004D01*
Y1530553*
X1977004*
Y1522553*
X1981004Y1526553D02*
Y1530553D01*
X1975504Y1524053D02*
X1983504D01*
Y1532053*
X1975504*
Y1524053*
X1979504Y1528053D02*
Y1532053D01*
X1975504Y1521053D02*
X1983504D01*
Y1529053*
X1975504*
Y1521053*
X1979504Y1525053D02*
Y1529053D01*
X1976754Y1528053D02*
X1984754D01*
Y1536053*
X1976754*
Y1528053*
X1980754Y1532053D02*
Y1536053D01*
X1981254Y1528553D02*
X1989254D01*
Y1536553*
X1981254*
Y1528553*
X1985254Y1532553D02*
Y1536553D01*
X1999254Y1533803D02*
X2007254D01*
X2003254Y1529803D02*
Y1537803D01*
X1999254Y1531303D02*
X2007254D01*
X2003254Y1527303D02*
Y1535303D01*
X2004754Y1523303D02*
X2012754Y1531303D01*
Y1523303*
X2004754Y1531303*
Y1523303*
X2009564Y1520417D02*
X2017564D01*
Y1528417*
X2009564*
Y1520417*
X2013564Y1524417D02*
Y1528417D01*
X2006254Y1529803D02*
X2014254D01*
X2010254Y1525803D02*
Y1533803D01*
X2009004Y1532053D02*
X2017004D01*
X2013004Y1528053D02*
Y1536053D01*
X2004004Y1532803D02*
X2012004D01*
X2008004Y1528803D02*
Y1536803D01*
X2006504Y1532303D02*
X2014504D01*
X2010504Y1528303D02*
Y1536303D01*
X2017004Y1530303D02*
X2025004D01*
X2021004Y1526303D02*
Y1534303D01*
X2018754Y1524803D02*
X2026754D01*
X2022754Y1520803D02*
Y1528803D01*
X2019004Y1532053D02*
X2027004D01*
X2023004Y1528053D02*
Y1536053D01*
X2012504Y1532553D02*
X2020504D01*
X2016504Y1528553D02*
Y1536553D01*
X2016004Y1532803D02*
X2024004D01*
X2020004Y1528803D02*
Y1536803D01*
X2014004Y1530303D02*
X2022004D01*
X2018004Y1526303D02*
Y1534303D01*
X2011004Y1530303D02*
X2019004D01*
X2015004Y1526303D02*
Y1534303D01*
X2021254Y1534053D02*
X2029254D01*
X2025254Y1530053D02*
Y1538053D01*
X2027254Y1533803D02*
X2035254D01*
X2031254Y1529803D02*
Y1537803D01*
X2025004Y1531803D02*
X2033004D01*
X2029004Y1527803D02*
Y1535803D01*
X2022504Y1529303D02*
X2030504D01*
X2026504Y1525303D02*
Y1533303D01*
X2021504Y1525303D02*
X2029504D01*
X2025504Y1521303D02*
Y1529303D01*
X2027904Y1524403D02*
X2035904D01*
X2031904Y1520403D02*
Y1528403D01*
X2024204Y1524503D02*
X2032204D01*
X2028204Y1520503D02*
Y1528503D01*
X2027704Y1528103D02*
X2035704D01*
X2031704Y1524103D02*
Y1532103D01*
X2026104Y1526203D02*
X2034104D01*
X2030104Y1522203D02*
Y1530203D01*
X2030704Y1527303D02*
X2038704D01*
Y1535303*
X2030704*
Y1527303*
X2034704Y1531303D02*
Y1535303D01*
X1969254Y1534553D02*
X1977254D01*
X1973254Y1530553D02*
Y1538553D01*
X1969504Y1543303D02*
X1977504D01*
X1973504Y1539303D02*
Y1547303D01*
X1974254Y1535053D02*
X1982254D01*
X1978254Y1531053D02*
Y1539053D01*
X1977004Y1534553D02*
X1985004D01*
X1981004Y1530553D02*
Y1538553D01*
X1979504Y1543803D02*
X1987504D01*
X1983504Y1539803D02*
Y1547803D01*
X1980254Y1534303D02*
X1988254Y1542303D01*
Y1534303*
X1980254Y1542303*
Y1534303*
Y1536803D02*
X1988254Y1544803D01*
Y1536803*
X1980254Y1544803*
Y1536803*
X1986754D02*
X1994754Y1544803D01*
Y1536803*
X1986754Y1544803*
Y1536803*
Y1534303D02*
X1994754Y1542303D01*
Y1534303*
X1986754Y1542303*
Y1534303*
X1979754Y1535303D02*
X1987754D01*
X1983754Y1531303D02*
Y1539303D01*
X1984504Y1543803D02*
X1992504D01*
X1988504Y1539803D02*
Y1547803D01*
X1987004Y1543803D02*
X1995004D01*
X1991004Y1539803D02*
Y1547803D01*
X1982004Y1543803D02*
X1990004D01*
X1986004Y1539803D02*
Y1547803D01*
X1988754Y1532053D02*
X1996754D01*
Y1540053*
X1988754*
Y1532053*
X1992754Y1536053D02*
Y1540053D01*
X1999004Y1538803D02*
X2007004D01*
X2003004Y1534803D02*
Y1542803D01*
X1999004Y1536303D02*
X2007004D01*
X2003004Y1532303D02*
Y1540303D01*
X1991754Y1539553D02*
X1999754D01*
Y1547553*
X1991754*
Y1539553*
X1995754Y1543553D02*
Y1547553D01*
X1996504Y1543803D02*
X2004504D01*
X2000504Y1539803D02*
Y1547803D01*
X1999004Y1543803D02*
X2007004D01*
X2003004Y1539803D02*
Y1547803D01*
X1992504Y1532203D02*
X2000504D01*
Y1540203*
X1992504*
Y1532203*
X1996504Y1536203D02*
Y1540203D01*
X1994754Y1538303D02*
X2002754D01*
Y1546303*
X1994754*
Y1538303*
X1998754Y1542303D02*
Y1546303D01*
X2008254Y1536053D02*
X2016254D01*
X2012254Y1532053D02*
Y1540053D01*
X2008504Y1538553D02*
X2016504D01*
X2012504Y1534553D02*
Y1542553D01*
X2006004Y1538053D02*
X2014004D01*
X2010004Y1534053D02*
Y1542053D01*
X2008254Y1541053D02*
X2016254D01*
X2012254Y1537053D02*
Y1545053D01*
X2005504Y1540803D02*
X2013504D01*
X2009504Y1536803D02*
Y1544803D01*
X2004004Y1536303D02*
X2012004D01*
X2008004Y1532303D02*
Y1540303D01*
X2006004Y1534803D02*
X2014004D01*
X2010004Y1530803D02*
Y1538803D01*
X2001504Y1543553D02*
X2009504D01*
X2005504Y1539553D02*
Y1547553D01*
X1999754Y1541303D02*
X2007754D01*
X2003754Y1537303D02*
Y1545303D01*
X2017004Y1537053D02*
X2025004D01*
X2021004Y1533053D02*
Y1541053D01*
X2017754Y1534553D02*
X2025754D01*
X2021754Y1530553D02*
Y1538553D01*
X2019504Y1539053D02*
X2027504D01*
X2023504Y1535053D02*
Y1543053D01*
X2019254Y1541553D02*
X2027254D01*
X2023254Y1537553D02*
Y1545553D01*
X2014254Y1538553D02*
X2022254D01*
X2018254Y1534553D02*
Y1542553D01*
X2015004Y1535303D02*
X2023004D01*
X2019004Y1531303D02*
Y1539303D01*
X2016754Y1539553D02*
X2024754D01*
X2020754Y1535553D02*
Y1543553D01*
X2012504Y1536053D02*
X2020504D01*
X2016504Y1532053D02*
Y1540053D01*
X2011254Y1538303D02*
X2019254D01*
X2015254Y1534303D02*
Y1542303D01*
X2010254Y1534303D02*
X2018254D01*
X2014254Y1530303D02*
Y1538303D01*
X2016504Y1542803D02*
X2024504D01*
X2020504Y1538803D02*
Y1546803D01*
X2014004Y1541553D02*
X2022004D01*
X2018004Y1537553D02*
Y1545553D01*
X2011004Y1541053D02*
X2019004D01*
X2015004Y1537053D02*
Y1545053D01*
X2023504Y1535803D02*
X2031504D01*
X2027504Y1531803D02*
Y1539803D01*
X2019754Y1536303D02*
X2027754D01*
X2023754Y1532303D02*
Y1540303D01*
X2022254Y1538303D02*
X2030254D01*
X2026254Y1534303D02*
Y1542303D01*
X2024504Y1540053D02*
X2032504D01*
X2028504Y1536053D02*
Y1544053D01*
X2022004Y1541303D02*
X2030004D01*
X2026004Y1537303D02*
Y1545303D01*
X2024504Y1542703D02*
X2032504D01*
X2028504Y1538703D02*
Y1546703D01*
X2029504Y1535303D02*
X2037504D01*
X2033504Y1531303D02*
Y1539303D01*
X2028254Y1541053D02*
X2036254D01*
X2032254Y1537053D02*
Y1545053D01*
X2027004Y1543303D02*
X2035004D01*
X2031004Y1539303D02*
Y1547303D01*
X2021504Y1544053D02*
X2029504D01*
X2025504Y1540053D02*
Y1548053D01*
X2026754Y1538803D02*
X2034754D01*
X2030754Y1534803D02*
Y1542803D01*
X2030504Y1537803D02*
X2038504D01*
X2034504Y1533803D02*
Y1541803D01*
X2030254Y1542553D02*
X2038254D01*
X2034254Y1538553D02*
Y1546553D01*
X1967504Y1548803D02*
X1975504D01*
X1971504Y1544803D02*
Y1552803D01*
X1969504Y1546303D02*
X1977504D01*
X1973504Y1542303D02*
Y1550303D01*
X1970254Y1548803D02*
X1978254D01*
X1974254Y1544803D02*
Y1552803D01*
X1973254Y1548803D02*
X1981254D01*
X1977254Y1544803D02*
Y1552803D01*
X1976604Y1548803D02*
X1984604D01*
X1980604Y1544803D02*
Y1552803D01*
X1976754Y1545303D02*
X1984754D01*
X1980754Y1541303D02*
Y1549303D01*
X1978504Y1547053D02*
X1986504D01*
X1982504Y1543053D02*
Y1551053D01*
X1973504Y1544553D02*
X1981504D01*
X1977504Y1540553D02*
Y1548553D01*
X1974754Y1546803D02*
X1982754D01*
X1978754Y1542803D02*
Y1550803D01*
X1972004Y1546553D02*
X1980004D01*
X1976004Y1542553D02*
Y1550553D01*
X1983504Y1546303D02*
X1991504D01*
X1987504Y1542303D02*
Y1550303D01*
X1980604Y1548803D02*
X1988604D01*
X1984604Y1544803D02*
Y1552803D01*
X1984204Y1548803D02*
X1992204D01*
X1988204Y1544803D02*
Y1552803D01*
X1987604Y1548803D02*
X1995604D01*
X1991604Y1544803D02*
Y1552803D01*
X1986004Y1546553D02*
X1994004D01*
X1990004Y1542553D02*
Y1550553D01*
X1981004Y1546303D02*
X1989004D01*
X1985004Y1542303D02*
Y1550303D01*
X1988504Y1546303D02*
X1996504D01*
X1992504Y1542303D02*
Y1550303D01*
X1993254Y1548803D02*
X2001254D01*
X1997254Y1544803D02*
Y1552803D01*
X1996254Y1548803D02*
X2004254D01*
X2000254Y1544803D02*
Y1552803D01*
X1999504Y1548803D02*
X2007504D01*
X2003504Y1544803D02*
Y1552803D01*
X1994004Y1545053D02*
X2002004D01*
X1998004Y1541053D02*
Y1549053D01*
X1990504Y1548803D02*
X1998504D01*
X1994504Y1544803D02*
Y1552803D01*
X1999004Y1546303D02*
X2007004D01*
X2003004Y1542303D02*
Y1550303D01*
X1996254Y1546303D02*
X2004254D01*
X2000254Y1542303D02*
Y1550303D01*
X1991254Y1546053D02*
X1999254D01*
X1995254Y1542053D02*
Y1550053D01*
X2004754Y1547303D02*
X2012754D01*
X2008754Y1543303D02*
Y1551303D01*
X2006754Y1548803D02*
X2014754D01*
X2010754Y1544803D02*
Y1552803D01*
X2009254Y1548053D02*
X2017254D01*
X2013254Y1544053D02*
Y1552053D01*
X2009004Y1545553D02*
X2017004D01*
X2013004Y1541553D02*
Y1549553D01*
X2006504Y1545553D02*
X2014504D01*
X2010504Y1541553D02*
Y1549553D01*
X2003504Y1545053D02*
X2011504D01*
X2007504Y1541053D02*
Y1549053D01*
X2002754Y1548803D02*
X2010754D01*
X2006754Y1544803D02*
Y1552803D01*
X2001504Y1546553D02*
X2009504D01*
X2005504Y1542553D02*
Y1550553D01*
X2018504Y1544303D02*
X2026504D01*
X2022504Y1540303D02*
Y1548303D01*
X2011754Y1548803D02*
X2019754D01*
X2015754Y1544803D02*
Y1552803D01*
X2015504Y1549053D02*
X2023504D01*
X2019504Y1545053D02*
Y1553053D01*
X2013754Y1547303D02*
X2021754D01*
X2017754Y1543303D02*
Y1551303D01*
X2011754Y1545803D02*
X2019754D01*
X2015754Y1541803D02*
Y1549803D01*
X2026004Y1548803D02*
X2034004D01*
X2030004Y1544803D02*
Y1552803D01*
X2023004Y1548803D02*
X2031004D01*
X2027004Y1544803D02*
Y1552803D01*
X2020254Y1548803D02*
X2028254D01*
X2024254Y1544803D02*
Y1552803D01*
X2020254Y1546303D02*
X2028254D01*
X2024254Y1542303D02*
Y1550303D01*
X2026004Y1545803D02*
X2034004D01*
X2030004Y1541803D02*
Y1549803D01*
X2028754Y1548803D02*
X2036754D01*
X2032754Y1544803D02*
Y1552803D01*
X2029004Y1544803D02*
X2037004D01*
X2033004Y1540803D02*
Y1548803D01*
X2023004Y1546303D02*
X2031004D01*
X2027004Y1542303D02*
Y1550303D01*
X2032254Y1548803D02*
X2040254D01*
X2036254Y1544803D02*
Y1552803D01*
X2030504Y1547053D02*
X2038504D01*
X2034504Y1543053D02*
Y1551053D01*
X1968504Y1574681D02*
X2039370D01*
Y1474288*
X1968504*
Y1574681*
X2218504Y1742803D02*
X2476504D01*
X2218504Y1718803D02*
X2476504D01*
X2218504Y1694803D02*
X2476504D01*
X2218504Y1670803D02*
X2476504D01*
X2218504Y1646803D02*
X2476504D01*
X2218504Y1622803D02*
X2476504D01*
X2218504Y1598803D02*
X2476504D01*
X2218504Y1574803D02*
X2476504D01*
X2218504Y1742803D02*
Y1574803D01*
X2302504Y1742803D02*
Y1574803D01*
X2338504Y1742803D02*
Y1574803D01*
X2374504Y1742803D02*
Y1574803D01*
X2428504Y1742803D02*
Y1574803D01*
X2476504Y1742803D02*
Y1574803D01*
X2445186Y1732678D02*
Y1724803D01*
X2443277Y1732678D02*
X2447095D01*
X2451186D02*
X2450640Y1732303D01*
X2450095Y1731553*
X2449822Y1730803*
X2449549Y1729678*
Y1727803*
X2449822Y1726678*
X2450095Y1725928*
X2450640Y1725178*
X2451186Y1724803*
X2452277*
X2452822Y1725178*
X2453368Y1725928*
X2453640Y1726678*
X2453913Y1727803*
Y1729678*
X2453640Y1730803*
X2453368Y1731553*
X2452822Y1732303*
X2452277Y1732678*
X2451186*
X2456368D02*
Y1724803D01*
X2459640*
X2226140Y1708678D02*
X2225322Y1708303D01*
X2224777Y1707178*
X2224504Y1705303*
Y1704178*
X2224777Y1702303*
X2225322Y1701178*
X2226140Y1700803*
X2226686*
X2227504Y1701178*
X2228049Y1702303*
X2228322Y1704178*
Y1705303*
X2228049Y1707178*
X2227504Y1708303*
X2226686Y1708678*
X2226140*
X2231049Y1701553D02*
X2230777Y1701178D01*
X2231049Y1700803*
X2231322Y1701178*
X2231049Y1701553*
X2234049Y1706803D02*
Y1707178D01*
X2234322Y1707928*
X2234595Y1708303*
X2235140Y1708678*
X2236231*
X2236777Y1708303*
X2237049Y1707928*
X2237322Y1707178*
Y1706428*
X2237049Y1705678*
X2236504Y1704553*
X2233777Y1700803*
X2237595*
X2243595Y1708678D02*
X2240868D01*
X2240595Y1705303*
X2240868Y1705678*
X2241686Y1706053*
X2242504*
X2243322Y1705678*
X2243868Y1704928*
X2244140Y1703803*
X2243868Y1703053*
X2243595Y1701928*
X2243049Y1701178*
X2242231Y1700803*
X2241413*
X2240595Y1701178*
X2240322Y1701553*
X2240049Y1702303*
X2311549Y1706803D02*
Y1707178D01*
X2311822Y1707928*
X2312095Y1708303*
X2312640Y1708678*
X2313731*
X2314277Y1708303*
X2314549Y1707928*
X2314822Y1707178*
Y1706428*
X2314549Y1705678*
X2314004Y1704553*
X2311277Y1700803*
X2315095*
X2317822Y1706803D02*
Y1707178D01*
X2318095Y1707928*
X2318368Y1708303*
X2318913Y1708678*
X2320004*
X2320549Y1708303*
X2320822Y1707928*
X2321095Y1707178*
Y1706428*
X2320822Y1705678*
X2320277Y1704553*
X2317549Y1700803*
X2321368*
X2325458Y1708678D02*
X2324640Y1708303D01*
X2324095Y1707178*
X2323822Y1705303*
Y1704178*
X2324095Y1702303*
X2324640Y1701178*
X2325458Y1700803*
X2326004*
X2326822Y1701178*
X2327368Y1702303*
X2327640Y1704178*
Y1705303*
X2327368Y1707178*
X2326822Y1708303*
X2326004Y1708678*
X2325458*
X2350504Y1706803D02*
X2362504D01*
X2356504Y1700803D02*
Y1712803D01*
X2383140Y1708678D02*
X2385322Y1704928D01*
Y1700803*
X2387504Y1708678D02*
X2385322Y1704928D01*
X2389958Y1708678D02*
Y1700803D01*
Y1708678D02*
X2393504D01*
X2389958Y1704928D02*
X2392140D01*
X2389958Y1700803D02*
X2393504D01*
X2399777Y1707553D02*
X2399231Y1708303D01*
X2398413Y1708678*
X2397322*
X2396504Y1708303*
X2395958Y1707553*
Y1706803*
X2396231Y1706053*
X2396504Y1705678*
X2397049Y1705303*
X2398686Y1704553*
X2399231Y1704178*
X2399504Y1703803*
X2399777Y1703053*
Y1701928*
X2399231Y1701178*
X2398413Y1700803*
X2397322*
X2396504Y1701178*
X2395958Y1701928*
X2436322Y1707553D02*
Y1700803D01*
X2433868Y1704178D02*
X2438777D01*
X2446140Y1710178D02*
X2441231Y1698178D01*
X2448595Y1704178D02*
X2453504D01*
X2457595Y1708678D02*
X2456777Y1708303D01*
X2456231Y1707178*
X2455958Y1705303*
Y1704178*
X2456231Y1702303*
X2456777Y1701178*
X2457595Y1700803*
X2458140*
X2458958Y1701178*
X2459504Y1702303*
X2459777Y1704178*
Y1705303*
X2459504Y1707178*
X2458958Y1708303*
X2458140Y1708678*
X2457595*
X2462504Y1701553D02*
X2462231Y1701178D01*
X2462504Y1700803*
X2462777Y1701178*
X2462504Y1701553*
X2466868Y1708678D02*
X2466049Y1708303D01*
X2465504Y1707178*
X2465231Y1705303*
Y1704178*
X2465504Y1702303*
X2466049Y1701178*
X2466868Y1700803*
X2467413*
X2468231Y1701178*
X2468777Y1702303*
X2469049Y1704178*
Y1705303*
X2468777Y1707178*
X2468231Y1708303*
X2467413Y1708678*
X2466868*
X2226140Y1684678D02*
X2225322Y1684303D01*
X2224777Y1683178*
X2224504Y1681303*
Y1680178*
X2224777Y1678303*
X2225322Y1677178*
X2226140Y1676803*
X2226686*
X2227504Y1677178*
X2228049Y1678303*
X2228322Y1680178*
Y1681303*
X2228049Y1683178*
X2227504Y1684303*
X2226686Y1684678*
X2226140*
X2231049Y1677553D02*
X2230777Y1677178D01*
X2231049Y1676803*
X2231322Y1677178*
X2231049Y1677553*
X2237322Y1684678D02*
X2234595D01*
X2234322Y1681303*
X2234595Y1681678*
X2235413Y1682053*
X2236231*
X2237049Y1681678*
X2237595Y1680928*
X2237868Y1679803*
X2237595Y1679053*
X2237322Y1677928*
X2236777Y1677178*
X2235958Y1676803*
X2235140*
X2234322Y1677178*
X2234049Y1677553*
X2233777Y1678303*
X2243868Y1684678D02*
X2241140D01*
X2240868Y1681303*
X2241140Y1681678*
X2241958Y1682053*
X2242777*
X2243595Y1681678*
X2244140Y1680928*
X2244413Y1679803*
X2244140Y1679053*
X2243868Y1677928*
X2243322Y1677178*
X2242504Y1676803*
X2241686*
X2240868Y1677178*
X2240595Y1677553*
X2240322Y1678303*
X2315095Y1684678D02*
X2318095D01*
X2316458Y1681678*
X2317277*
X2317822Y1681303*
X2318095Y1680928*
X2318368Y1679803*
Y1679053*
X2318095Y1677928*
X2317549Y1677178*
X2316731Y1676803*
X2315913*
X2315095Y1677178*
X2314822Y1677553*
X2314549Y1678303*
X2324095Y1683553D02*
X2323822Y1684303D01*
X2323004Y1684678*
X2322458*
X2321640Y1684303*
X2321095Y1683178*
X2320822Y1681303*
Y1679428*
X2321095Y1677928*
X2321640Y1677178*
X2322458Y1676803*
X2322731*
X2323549Y1677178*
X2324095Y1677928*
X2324368Y1679053*
Y1679428*
X2324095Y1680553*
X2323549Y1681303*
X2322731Y1681678*
X2322458*
X2321640Y1681303*
X2321095Y1680553*
X2320822Y1679428*
X2350504Y1676803D02*
X2362504Y1688803D01*
X2350504D02*
X2362504Y1676803D01*
X2383140Y1684678D02*
X2385322Y1680928D01*
Y1676803*
X2387504Y1684678D02*
X2385322Y1680928D01*
X2389958Y1684678D02*
Y1676803D01*
Y1684678D02*
X2393504D01*
X2389958Y1680928D02*
X2392140D01*
X2389958Y1676803D02*
X2393504D01*
X2399777Y1683553D02*
X2399231Y1684303D01*
X2398413Y1684678*
X2397322*
X2396504Y1684303*
X2395958Y1683553*
Y1682803*
X2396231Y1682053*
X2396504Y1681678*
X2397049Y1681303*
X2398686Y1680553*
X2399231Y1680178*
X2399504Y1679803*
X2399777Y1679053*
Y1677928*
X2399231Y1677178*
X2398413Y1676803*
X2397322*
X2396504Y1677178*
X2395958Y1677928*
X2440958Y1683553D02*
Y1676803D01*
X2438504Y1680178D02*
X2443413D01*
X2450777Y1686178D02*
X2445868Y1674178D01*
X2453231Y1680178D02*
X2458140D01*
X2461140Y1684678D02*
X2464140D01*
X2462504Y1681678*
X2463322*
X2463868Y1681303*
X2464140Y1680928*
X2464413Y1679803*
Y1679053*
X2464140Y1677928*
X2463595Y1677178*
X2462777Y1676803*
X2461958*
X2461140Y1677178*
X2460868Y1677553*
X2460595Y1678303*
X2226140Y1660678D02*
X2225322Y1660303D01*
X2224777Y1659178*
X2224504Y1657303*
Y1656178*
X2224777Y1654303*
X2225322Y1653178*
X2226140Y1652803*
X2226686*
X2227504Y1653178*
X2228049Y1654303*
X2228322Y1656178*
Y1657303*
X2228049Y1659178*
X2227504Y1660303*
X2226686Y1660678*
X2226140*
X2231049Y1653553D02*
X2230777Y1653178D01*
X2231049Y1652803*
X2231322Y1653178*
X2231049Y1653553*
X2233777Y1659178D02*
X2234322Y1659553D01*
X2235140Y1660678*
Y1652803*
X2241413Y1660678D02*
X2238686Y1652803D01*
X2237595Y1660678D02*
X2241413D01*
X2247686D02*
X2244958Y1652803D01*
X2243868Y1660678D02*
X2247686D01*
X2251504D02*
X2250686Y1660303D01*
X2250413Y1659553*
Y1658803*
X2250686Y1658053*
X2251231Y1657678*
X2252322Y1657303*
X2253140Y1656928*
X2253686Y1656178*
X2253958Y1655428*
Y1654303*
X2253686Y1653553*
X2253413Y1653178*
X2252595Y1652803*
X2251504*
X2250686Y1653178*
X2250413Y1653553*
X2250140Y1654303*
Y1655428*
X2250413Y1656178*
X2250958Y1656928*
X2251777Y1657303*
X2252868Y1657678*
X2253413Y1658053*
X2253686Y1658803*
Y1659553*
X2253413Y1660303*
X2252595Y1660678*
X2251504*
X2317822D02*
X2315095D01*
X2314822Y1657303*
X2315095Y1657678*
X2315913Y1658053*
X2316731*
X2317549Y1657678*
X2318095Y1656928*
X2318368Y1655803*
X2318095Y1655053*
X2317822Y1653928*
X2317277Y1653178*
X2316458Y1652803*
X2315640*
X2314822Y1653178*
X2314549Y1653553*
X2314277Y1654303*
X2322186Y1660678D02*
X2321368Y1660303D01*
X2321095Y1659553*
Y1658803*
X2321368Y1658053*
X2321913Y1657678*
X2323004Y1657303*
X2323822Y1656928*
X2324368Y1656178*
X2324640Y1655428*
Y1654303*
X2324368Y1653553*
X2324095Y1653178*
X2323277Y1652803*
X2322186*
X2321368Y1653178*
X2321095Y1653553*
X2320822Y1654303*
Y1655428*
X2321095Y1656178*
X2321640Y1656928*
X2322458Y1657303*
X2323549Y1657678*
X2324095Y1658053*
X2324368Y1658803*
Y1659553*
X2324095Y1660303*
X2323277Y1660678*
X2322186*
X2350504Y1652803D02*
X2362504D01*
Y1664803*
X2350504*
Y1652803*
X2356504Y1658803D02*
Y1664803D01*
X2383140Y1660678D02*
X2385322Y1656928D01*
Y1652803*
X2387504Y1660678D02*
X2385322Y1656928D01*
X2389958Y1660678D02*
Y1652803D01*
Y1660678D02*
X2393504D01*
X2389958Y1656928D02*
X2392140D01*
X2389958Y1652803D02*
X2393504D01*
X2399777Y1659553D02*
X2399231Y1660303D01*
X2398413Y1660678*
X2397322*
X2396504Y1660303*
X2395958Y1659553*
Y1658803*
X2396231Y1658053*
X2396504Y1657678*
X2397049Y1657303*
X2398686Y1656553*
X2399231Y1656178*
X2399504Y1655803*
X2399777Y1655053*
Y1653928*
X2399231Y1653178*
X2398413Y1652803*
X2397322*
X2396504Y1653178*
X2395958Y1653928*
X2440958Y1659553D02*
Y1652803D01*
X2438504Y1656178D02*
X2443413D01*
X2450777Y1662178D02*
X2445868Y1650178D01*
X2453231Y1656178D02*
X2458140D01*
X2461140Y1660678D02*
X2464140D01*
X2462504Y1657678*
X2463322*
X2463868Y1657303*
X2464140Y1656928*
X2464413Y1655803*
Y1655053*
X2464140Y1653928*
X2463595Y1653178*
X2462777Y1652803*
X2461958*
X2461140Y1653178*
X2460868Y1653553*
X2460595Y1654303*
X2226140Y1636678D02*
X2225322Y1636303D01*
X2224777Y1635178*
X2224504Y1633303*
Y1632178*
X2224777Y1630303*
X2225322Y1629178*
X2226140Y1628803*
X2226686*
X2227504Y1629178*
X2228049Y1630303*
X2228322Y1632178*
Y1633303*
X2228049Y1635178*
X2227504Y1636303*
X2226686Y1636678*
X2226140*
X2231049Y1629553D02*
X2230777Y1629178D01*
X2231049Y1628803*
X2231322Y1629178*
X2231049Y1629553*
X2234049Y1634803D02*
Y1635178D01*
X2234322Y1635928*
X2234595Y1636303*
X2235140Y1636678*
X2236231*
X2236777Y1636303*
X2237049Y1635928*
X2237322Y1635178*
Y1634428*
X2237049Y1633678*
X2236504Y1632553*
X2233777Y1628803*
X2237595*
X2241686Y1636678D02*
X2240868Y1636303D01*
X2240322Y1635178*
X2240049Y1633303*
Y1632178*
X2240322Y1630303*
X2240868Y1629178*
X2241686Y1628803*
X2242231*
X2243049Y1629178*
X2243595Y1630303*
X2243868Y1632178*
Y1633303*
X2243595Y1635178*
X2243049Y1636303*
X2242231Y1636678*
X2241686*
X2246868D02*
X2249868D01*
X2248231Y1633678*
X2249049*
X2249595Y1633303*
X2249868Y1632928*
X2250140Y1631803*
Y1631053*
X2249868Y1629928*
X2249322Y1629178*
X2248504Y1628803*
X2247686*
X2246868Y1629178*
X2246595Y1629553*
X2246322Y1630303*
X2252868Y1634803D02*
Y1635178D01*
X2253140Y1635928*
X2253413Y1636303*
X2253958Y1636678*
X2255049*
X2255595Y1636303*
X2255868Y1635928*
X2256140Y1635178*
Y1634428*
X2255868Y1633678*
X2255322Y1632553*
X2252595Y1628803*
X2256413*
X2320140Y1636678D02*
X2317413Y1631428D01*
X2321504*
X2320140Y1636678D02*
Y1628803D01*
X2356504D02*
X2362504Y1634803D01*
X2356504Y1640803*
X2350504Y1634803*
X2356504Y1628803*
Y1634803D02*
Y1640803D01*
X2383140Y1636678D02*
X2385322Y1632928D01*
Y1628803*
X2387504Y1636678D02*
X2385322Y1632928D01*
X2389958Y1636678D02*
Y1628803D01*
Y1636678D02*
X2393504D01*
X2389958Y1632928D02*
X2392140D01*
X2389958Y1628803D02*
X2393504D01*
X2399777Y1635553D02*
X2399231Y1636303D01*
X2398413Y1636678*
X2397322*
X2396504Y1636303*
X2395958Y1635553*
Y1634803*
X2396231Y1634053*
X2396504Y1633678*
X2397049Y1633303*
X2398686Y1632553*
X2399231Y1632178*
X2399504Y1631803*
X2399777Y1631053*
Y1629928*
X2399231Y1629178*
X2398413Y1628803*
X2397322*
X2396504Y1629178*
X2395958Y1629928*
X2440958Y1635553D02*
Y1628803D01*
X2438504Y1632178D02*
X2443413D01*
X2450777Y1638178D02*
X2445868Y1626178D01*
X2453231Y1632178D02*
X2458140D01*
X2461140Y1636678D02*
X2464140D01*
X2462504Y1633678*
X2463322*
X2463868Y1633303*
X2464140Y1632928*
X2464413Y1631803*
Y1631053*
X2464140Y1629928*
X2463595Y1629178*
X2462777Y1628803*
X2461958*
X2461140Y1629178*
X2460868Y1629553*
X2460595Y1630303*
X2226140Y1612678D02*
X2225322Y1612303D01*
X2224777Y1611178*
X2224504Y1609303*
Y1608178*
X2224777Y1606303*
X2225322Y1605178*
X2226140Y1604803*
X2226686*
X2227504Y1605178*
X2228049Y1606303*
X2228322Y1608178*
Y1609303*
X2228049Y1611178*
X2227504Y1612303*
X2226686Y1612678*
X2226140*
X2231049Y1605553D02*
X2230777Y1605178D01*
X2231049Y1604803*
X2231322Y1605178*
X2231049Y1605553*
X2237595Y1612678D02*
X2234868Y1604803D01*
X2233777Y1612678D02*
X2237595D01*
X2317822Y1610803D02*
Y1611178D01*
X2318095Y1611928*
X2318368Y1612303*
X2318913Y1612678*
X2320004*
X2320549Y1612303*
X2320822Y1611928*
X2321095Y1611178*
Y1610428*
X2320822Y1609678*
X2320277Y1608553*
X2317549Y1604803*
X2321368*
X2350504D02*
X2362504D01*
X2350504Y1616803*
X2362504*
X2350504Y1604803*
X2383140Y1612678D02*
X2385322Y1608928D01*
Y1604803*
X2387504Y1612678D02*
X2385322Y1608928D01*
X2389958Y1612678D02*
Y1604803D01*
Y1612678D02*
X2393504D01*
X2389958Y1608928D02*
X2392140D01*
X2389958Y1604803D02*
X2393504D01*
X2399777Y1611553D02*
X2399231Y1612303D01*
X2398413Y1612678*
X2397322*
X2396504Y1612303*
X2395958Y1611553*
Y1610803*
X2396231Y1610053*
X2396504Y1609678*
X2397049Y1609303*
X2398686Y1608553*
X2399231Y1608178*
X2399504Y1607803*
X2399777Y1607053*
Y1605928*
X2399231Y1605178*
X2398413Y1604803*
X2397322*
X2396504Y1605178*
X2395958Y1605928*
X2440958Y1611553D02*
Y1604803D01*
X2438504Y1608178D02*
X2443413D01*
X2450777Y1614178D02*
X2445868Y1602178D01*
X2453231Y1608178D02*
X2458140D01*
X2461140Y1612678D02*
X2464140D01*
X2462504Y1609678*
X2463322*
X2463868Y1609303*
X2464140Y1608928*
X2464413Y1607803*
Y1607053*
X2464140Y1605928*
X2463595Y1605178*
X2462777Y1604803*
X2461958*
X2461140Y1605178*
X2460868Y1605553*
X2460595Y1606303*
X2226140Y1588678D02*
X2225322Y1588303D01*
X2224777Y1587178*
X2224504Y1585303*
Y1584178*
X2224777Y1582303*
X2225322Y1581178*
X2226140Y1580803*
X2226686*
X2227504Y1581178*
X2228049Y1582303*
X2228322Y1584178*
Y1585303*
X2228049Y1587178*
X2227504Y1588303*
X2226686Y1588678*
X2226140*
X2231049Y1581553D02*
X2230777Y1581178D01*
X2231049Y1580803*
X2231322Y1581178*
X2231049Y1581553*
X2234049Y1586803D02*
Y1587178D01*
X2234322Y1587928*
X2234595Y1588303*
X2235140Y1588678*
X2236231*
X2236777Y1588303*
X2237049Y1587928*
X2237322Y1587178*
Y1586428*
X2237049Y1585678*
X2236504Y1584553*
X2233777Y1580803*
X2237595*
X2243595Y1588678D02*
X2240868D01*
X2240595Y1585303*
X2240868Y1585678*
X2241686Y1586053*
X2242504*
X2243322Y1585678*
X2243868Y1584928*
X2244140Y1583803*
X2243868Y1583053*
X2243595Y1581928*
X2243049Y1581178*
X2242231Y1580803*
X2241413*
X2240595Y1581178*
X2240322Y1581553*
X2240049Y1582303*
X2249322Y1588678D02*
X2246595Y1583428D01*
X2250686*
X2249322Y1588678D02*
Y1580803D01*
X2320958Y1588678D02*
X2318231D01*
X2317958Y1585303*
X2318231Y1585678*
X2319049Y1586053*
X2319868*
X2320686Y1585678*
X2321231Y1584928*
X2321504Y1583803*
X2321231Y1583053*
X2320958Y1581928*
X2320413Y1581178*
X2319595Y1580803*
X2318777*
X2317958Y1581178*
X2317686Y1581553*
X2317413Y1582303*
X2350504Y1580803D02*
X2362504Y1592803D01*
Y1580803*
X2350504Y1592803*
Y1580803*
X2383140Y1588678D02*
X2385322Y1584928D01*
Y1580803*
X2387504Y1588678D02*
X2385322Y1584928D01*
X2389958Y1588678D02*
Y1580803D01*
Y1588678D02*
X2393504D01*
X2389958Y1584928D02*
X2392140D01*
X2389958Y1580803D02*
X2393504D01*
X2399777Y1587553D02*
X2399231Y1588303D01*
X2398413Y1588678*
X2397322*
X2396504Y1588303*
X2395958Y1587553*
Y1586803*
X2396231Y1586053*
X2396504Y1585678*
X2397049Y1585303*
X2398686Y1584553*
X2399231Y1584178*
X2399504Y1583803*
X2399777Y1583053*
Y1581928*
X2399231Y1581178*
X2398413Y1580803*
X2397322*
X2396504Y1581178*
X2395958Y1581928*
X2440958Y1587553D02*
Y1580803D01*
X2438504Y1584178D02*
X2443413D01*
X2450777Y1590178D02*
X2445868Y1578178D01*
X2453231Y1584178D02*
X2458140D01*
X2461140Y1588678D02*
X2464140D01*
X2462504Y1585678*
X2463322*
X2463868Y1585303*
X2464140Y1584928*
X2464413Y1583803*
Y1583053*
X2464140Y1581928*
X2463595Y1581178*
X2462777Y1580803*
X2461958*
X2461140Y1581178*
X2460868Y1581553*
X2460595Y1582303*
G54D109*
X1968504Y1580764D02*
X1992357D01*
X1968504D02*
X1973504Y1581764D01*
Y1579764*
X1968504Y1580764*
X2039370D02*
X2015516D01*
X2039370D02*
X2034370Y1579764D01*
Y1581764*
X2039370Y1580764*
X1968504Y1576681D02*
Y1582764D01*
X2039370Y1576681D02*
Y1582764D01*
X2055243Y1474288D02*
Y1519610D01*
Y1474288D02*
X2054243Y1479288D01*
X2056243*
X2055243Y1474288*
Y1574681D02*
Y1529360D01*
Y1574681D02*
X2056243Y1569681D01*
X2054243*
X2055243Y1574681*
X2041370Y1474288D02*
X2057243D01*
X2041370Y1574681D02*
X2057243D01*
X0Y0D02*
M02*
