%
T1C.007F0S0
X19917Y15017
X19862Y150334
X198305Y150334
X1988Y150334
X198148Y15043
X198463Y15043
X198375Y151255
X198025Y151755
X198225Y151755
X1979Y15188
X19785Y152055
X198425Y152255
X19815Y152355
X19795Y152505
X1981Y152655
X19795Y152805
X198075Y153205
X198525Y153255
X199275Y153605
X199575Y154355
X199875Y15423
X19965Y15362
X201356Y152442
X20152Y15194
X20172Y15194
X20134Y15185
X20141Y15145
X20158Y15145
X201625Y15108
X2014Y15106
X20114Y15075
X201162Y150543
X201375Y15053
X20155Y15053
X20043Y15021
X2003Y15008
X200146Y149962
X199525Y149055
X200475Y149055
X20065Y149055
X199825Y148905
X1995Y14873
X200325Y14873
X20015Y14873
X199675Y148555
X2Y148405
X203175Y15048
X203197Y150768
X203207Y151021
X2032Y15125
X203202Y151477
X203207Y15172
X20195Y15173
X202Y151955
X2032Y151955
X201875Y15213
X2021Y15213
X20347Y15313
T2C.008F0S0
X200825Y150205
X2011Y151435
X1984Y151549
X2011Y15187
T3C.00984F0S0
X197046Y147615
X197766Y147621
X197488Y147621
X197625Y147905
X197875Y147905
X197375Y14793
X19845Y14793
X198825Y14793
X1993Y14798
X199075Y148105
X1986Y14813
X1983Y14813
X1977Y14818
X197375Y148205
X197525Y148405
X19803Y14865
X197375Y14878
X19755Y14898
X19803Y14915
X197372Y149293
X19803Y14965
X19734Y14976
X197775Y150755
X1992Y150878
X19795Y15093
X1992Y151178
X198025Y15118
X1992Y15148
X1992Y15178
X1992Y15208
X197325Y15273
X197575Y15338
X197325Y153455
X1981Y153455
X197825Y153505
X198375Y15353
X19735Y15433
X19835Y15438
X19885Y15438
X1991Y15438
X1986Y15438
X19775Y154455
X198075Y15453
X19735Y15463
X19875Y15463
X1985Y15463
X19925Y15463
X1976Y154655
X199Y154655
X197875Y15468
X19825Y154705
X197725Y15488
X19846Y15488
X19882Y15488
X19916Y15488
X19715Y15488
X19806Y15488
X197425Y15488
X199725Y15488
X200025Y15488
X20035Y15488
X19945Y15488
X201075Y15488
X200675Y15488
X201575Y15488
X201325Y154805
X200875Y15473
X201775Y15473
X20055Y154655
X2003Y15463
X200025Y15463
X199525Y154605
X201575Y15458
X2013Y154555
X20105Y154555
X1998Y154505
X20075Y154505
X20005Y15438
X2003Y15438
X20055Y154355
X2018Y154155
X200375Y15413
X201225Y154105
X2015Y154105
X20095Y15408
X2003Y15388
X20125Y153855
X201825Y153855
X201525Y15383
X201Y153805
X2003Y15363
X2008Y15363
X201225Y153605
X20165Y153605
X201Y15348
X201425Y15343
X200325Y15338
X2008Y15328
X20165Y153255
X20105Y15323
X2013Y153205
X200325Y15313
X2015Y15303
X2018Y15303
X201025Y15298
X2004Y15208
X1998Y15208
X2001Y15208
X1995Y15208
X1995Y15178
X2004Y15178
X1998Y15178
X2001Y15178
X2001Y15148
X1998Y15148
X2004Y15148
X1995Y15148
X201775Y151205
X2001Y151178
X1995Y151178
X2004Y151178
X1998Y151178
X2001Y150878
X1998Y150878
X2004Y150878
X1995Y150878
X2018Y15083
X201775Y150405
X200675Y148655
X1995Y14838
X20065Y14818
X1995Y14813
X201575Y14808
X2013Y14808
X20035Y14798
X201775Y14793
X2009Y14793
X203725Y14763
X203175Y14763
X203475Y14763
X203025Y14783
X203325Y14783
X202675Y14818
X203175Y148205
X2034Y14833
X202925Y14833
X20245Y14833
X2028Y14868
X202375Y14868
X2032Y14868
X203Y14883
X202575Y14883
X202175Y14883
X20341Y14884
X202474Y149179
X20275Y14918
X20345Y14918
X20215Y14918
X20308Y149185
X20338Y14972
X202375Y150055
X2021Y150055
X20265Y15008
X2029Y15008
X20185Y150155
X2031Y150255
X20234Y15029
X202075Y150305
X202475Y150515
X202225Y150515
X20193Y15061
X20195Y15103
X202875Y151905
X203025Y152105
X2027Y152105
X20319Y15244
X20282Y15245
X202275Y15248
X20255Y15253
X20301Y15262
X20317Y15281
X20265Y15293
X2021Y15303
X2029Y15318
X2023Y153205
X202Y15328
X203125Y15338
X202525Y153405
X202175Y153455
X2019Y15353
X20335Y15353
X20275Y15358
X202375Y15363
X2021Y153705
X20345Y15378
X202625Y15383
X203075Y15388
X20235Y153905
X202075Y153955
X20285Y154005
X203225Y154105
X2026Y15413
X202325Y154155
X203425Y154255
X20285Y15427
X20205Y15428
X2031Y15433
X20255Y154405
X20225Y15443
X2033Y15448
X203Y15458
X202425Y15463
X2027Y15463
X20345Y154705
X203Y15488
X203275Y15488
X202425Y15488
X203625Y15488
X2027Y15488
X20195Y154905
T4C.01F095S3
X198425Y15383
X199075Y15383
X199075Y15408
X198425Y15408
X200875Y15273
T5C.02165F197S55
X198148Y147429
X198648Y147429
X199148Y147429
X19685Y148019
X19685Y148519
X19685Y149019
X19685Y149519
X19685Y150019
X19685Y150519
X19685Y151019
X19685Y151519
X19685Y152019
X19685Y152519
X19685Y153019
X19685Y153519
X19685Y154519
X199648Y147429
X200648Y147429
X201148Y147429
X200148Y147429
X201648Y147429
X202148Y147429
X202648Y147429
X203938Y148019
X203937Y148519
X203937Y149019
X203937Y149519
X203937Y150019
X203937Y150519
X203937Y151019
X203937Y152019
X203937Y152519
X203937Y153019
X203937Y153519
X203937Y154019
X203937Y154519
T6C.02756F197S55
X203937Y151519
X19685Y154019
M30
