*
*
G04 PADS 9.5 Build Number: 522968 generated Gerber (RS-274-X) file*
G04 PC Version=2.1*
*
%IN "ESP32_WROOM_32D_5X5_V2-"*%
*
%MOIN*%
*
%FSLAX35Y35*%
*
*
*
*
G04 PC Standard Apertures*
*
*
G04 Thermal Relief Aperture macro.*
%AMTER*
1,1,$1,0,0*
1,0,$1-$2,0,0*
21,0,$3,$4,0,0,45*
21,0,$3,$4,0,0,135*
%
*
*
G04 Annular Aperture macro.*
%AMANN*
1,1,$1,0,0*
1,0,$2,0,0*
%
*
*
G04 Odd Aperture macro.*
%AMODD*
1,1,$1,0,0*
1,0,$1-0.005,0,0*
%
*
*
G04 PC Custom Aperture Macros*
*
*
*
*
*
*
G04 PC Aperture Table*
*
%ADD010C,0.001*%
%ADD044C,0.01*%
%ADD045C,0.02*%
%ADD046C,0.015*%
%ADD047C,0.012*%
%ADD109C,0.005*%
%ADD115R,0.03543X0.03543*%
%ADD120C,0.01575*%
*
*
*
*
G04 PC Circuitry*
G04 Layer Name ESP32_WROOM_32D_5X5_V2- - circuitry*
%LPD*%
*
G54D10*
G01X2064426Y1524213D02*
X2064383Y1524514D01*
X2064259Y1524762*
X2064057Y1524883*
X2063763Y1524925*
X2063549Y1524882*
X2063382Y1524840*
X2063219Y1524718*
X2063090Y1524503*
X2063003Y1524507*
X2062917Y1524678*
X2062796Y1524799*
X2062587Y1524883*
X2062379Y1524924*
X2062214Y1524883*
X2062004Y1524799*
X2061743Y1524538*
X2061743D02*
X2061658Y1524574D01*
Y1524881*
X2061356*
Y1522660*
X2061658*
Y1524083*
X2061660Y1524095*
X2061704Y1524273*
X2061714Y1524293*
X2061937Y1524561*
X2061962Y1524577*
X2062275Y1524667*
X2062300*
X2062479Y1524622*
X2062495Y1524615*
X2062629Y1524526*
X2062646Y1524507*
X2062735Y1524328*
X2062740Y1524306*
Y1522660*
X2063042*
Y1523949*
Y1523956*
X2063087Y1524268*
X2063097Y1524291*
X2063231Y1524470*
X2063241Y1524480*
X2063419Y1524614*
X2063439Y1524623*
X2063662Y1524668*
X2063682*
X2063905Y1524623*
X2063936Y1524604*
X2064069Y1524425*
X2064077Y1524411*
X2064122Y1524277*
X2064124Y1524261*
Y1522660*
X2064426*
Y1524213*
X2060676D02*
X2060633Y1524514D01*
X2060509Y1524762*
X2060307Y1524883*
X2060013Y1524925*
X2059799Y1524882*
X2059632Y1524840*
X2059469Y1524718*
X2059340Y1524503*
X2059253Y1524507*
X2059167Y1524678*
X2059046Y1524799*
X2058837Y1524883*
X2058629Y1524924*
X2058464Y1524883*
X2058254Y1524799*
X2057993Y1524538*
X2057993D02*
X2057908Y1524574D01*
Y1524881*
X2057606*
Y1522660*
X2057908*
Y1524083*
X2057910Y1524095*
X2057954Y1524273*
X2057964Y1524293*
X2058187Y1524561*
X2058212Y1524577*
X2058525Y1524667*
X2058550*
X2058729Y1524622*
X2058745Y1524615*
X2058879Y1524526*
X2058896Y1524507*
X2058985Y1524328*
X2058990Y1524306*
Y1522660*
X2059292*
Y1523949*
Y1523956*
X2059337Y1524268*
X2059347Y1524291*
X2059481Y1524470*
X2059491Y1524480*
X2059669Y1524614*
X2059689Y1524623*
X2059912Y1524668*
X2059932*
X2060155Y1524623*
X2060186Y1524604*
X2060319Y1524425*
X2060327Y1524411*
X2060372Y1524277*
X2060374Y1524261*
Y1522660*
X2060676*
Y1524213*
X2057015Y1524611D02*
X2056928Y1524916D01*
X2056753Y1525398*
X2056628Y1525565*
X2056464Y1525688*
X2056037Y1525773*
X2055741Y1525731*
X2055490Y1525605*
X2055323Y1525396*
X2055193Y1525094*
X2055106Y1524700*
X2055062Y1524170*
Y1523776*
X2055149Y1523426*
X2055236Y1523121*
X2055362Y1522912*
X2055657Y1522701*
X2056040Y1522616*
X2056336Y1522658*
X2056587Y1522783*
X2056754Y1522993*
X2056883Y1523295*
X2056971Y1523689*
X2057015Y1524174*
Y1524611*
X2056713Y1524529D02*
Y1523815D01*
Y1523807*
X2056668Y1523539*
Y1523537*
X2056623Y1523314*
X2056619Y1523301*
X2056530Y1523123*
X2056516Y1523106*
X2056293Y1522928*
X2056271Y1522918*
X2056048Y1522873*
X2056029*
X2055805Y1522918*
X2055784Y1522928*
X2055561Y1523106*
X2055547Y1523123*
X2055458Y1523301*
X2055454Y1523314*
X2055409Y1523537*
Y1523539*
X2055364Y1523807*
X2055363Y1523815*
Y1524529*
X2055364Y1524536*
X2055409Y1524849*
Y1524852*
X2055454Y1525075*
X2055458Y1525087*
X2055547Y1525266*
X2055561Y1525283*
X2055784Y1525461*
X2055805Y1525471*
X2056029Y1525516*
X2056047*
X2056314Y1525471*
X2056345Y1525453*
X2056524Y1525230*
X2056526Y1525227*
X2056616Y1525093*
X2056623Y1525075*
X2056668Y1524852*
Y1524849*
X2056713Y1524536*
Y1524529*
X2054515Y1523725D02*
X2054472Y1524109D01*
X2054261Y1524404*
X2053963Y1524617*
X2053625Y1524702*
X2053333Y1524660*
X2053075Y1524488*
X2052997Y1524529*
X2052998Y1524537*
X2053132Y1525385*
X2053181Y1525427*
X2054337*
Y1525729*
X2052910*
X2052615Y1524171*
X2052940Y1524135*
X2053146Y1524341*
X2053167Y1524354*
X2053480Y1524443*
X2053501Y1524445*
X2053813Y1524400*
X2053836Y1524391*
X2054015Y1524257*
X2054028Y1524242*
X2054162Y1524019*
X2054168Y1524001*
X2054213Y1523688*
Y1523674*
X2054168Y1523361*
X2054162Y1523343*
X2054028Y1523120*
X2054020Y1523110*
X2053842Y1522931*
X2053813Y1522917*
X2053501Y1522873*
X2053484*
X2053261Y1522918*
X2053248Y1522922*
X2053070Y1523011*
X2053047Y1523034*
X2052958Y1523212*
X2052955Y1523219*
X2052879Y1523448*
X2052574Y1523414*
X2052647Y1523122*
X2052858Y1522826*
X2053153Y1522658*
X2053493Y1522615*
X2053753Y1522659*
X2053964Y1522701*
X2054131Y1522826*
X2054302Y1522997*
X2054472Y1523295*
X2054515Y1523725*
X2051792Y1522961D02*
X2051490D01*
Y1522660*
X2051792*
Y1522961*
X2050765Y1523725D02*
X2050722Y1524109D01*
X2050511Y1524404*
X2050213Y1524617*
X2049875Y1524702*
X2049583Y1524660*
X2049325Y1524488*
X2049247Y1524529*
X2049248Y1524537*
X2049382Y1525385*
X2049431Y1525427*
X2050587*
Y1525729*
X2049160*
X2048865Y1524171*
X2049190Y1524135*
X2049396Y1524341*
X2049417Y1524354*
X2049730Y1524443*
X2049751Y1524445*
X2050063Y1524400*
X2050086Y1524391*
X2050265Y1524257*
X2050278Y1524242*
X2050412Y1524019*
X2050418Y1524001*
X2050463Y1523688*
Y1523674*
X2050418Y1523361*
X2050412Y1523343*
X2050278Y1523120*
X2050270Y1523110*
X2050092Y1522931*
X2050063Y1522917*
X2049751Y1522873*
X2049734*
X2049511Y1522918*
X2049498Y1522922*
X2049320Y1523011*
X2049297Y1523034*
X2049208Y1523212*
X2049205Y1523219*
X2049129Y1523448*
X2048824Y1523414*
X2048897Y1523122*
X2049108Y1522826*
X2049403Y1522658*
X2049743Y1522615*
X2050003Y1522659*
X2050214Y1522701*
X2050381Y1522826*
X2050552Y1522997*
X2050722Y1523295*
X2050765Y1523725*
X2048221Y1522961D02*
X2046708D01*
X2046669Y1523043*
X2046848Y1523266*
X2046857Y1523275*
X2047034Y1523408*
X2047300Y1523630*
X2047654Y1523939*
X2047874Y1524203*
X2048003Y1524375*
X2048089Y1524589*
X2048175Y1524934*
X2048133Y1525267*
X2047925Y1525517*
X2047627Y1525687*
X2047241Y1525773*
X2046858Y1525731*
X2046564Y1525563*
X2046352Y1525267*
X2046279Y1524974*
X2046579Y1524941*
X2046614Y1525119*
X2046623Y1525140*
X2046757Y1525318*
X2046767Y1525328*
X2046946Y1525462*
X2046968Y1525471*
X2047236Y1525516*
X2047254*
X2047477Y1525471*
X2047497Y1525462*
X2047676Y1525328*
X2047681Y1525323*
X2047815Y1525190*
X2047828Y1525164*
X2047873Y1524941*
Y1524921*
X2047828Y1524698*
X2047822Y1524682*
X2047688Y1524459*
X2047683Y1524452*
X2047416Y1524140*
X2047411Y1524135*
X2047008Y1523777*
X2046699Y1523512*
X2046350Y1523075*
X2046265Y1522864*
X2046231Y1522660*
X2048221*
Y1522961*
X2013745Y1580493D02*
X2013702Y1580794D01*
X2013578Y1581041*
X2013376Y1581163*
X2013082Y1581205*
X2012868Y1581162*
X2012701Y1581120*
X2012538Y1580998*
X2012409Y1580783*
X2012322Y1580786*
X2012236Y1580958*
X2012115Y1581079*
X2011906Y1581162*
X2011698Y1581204*
X2011534Y1581163*
X2011323Y1581079*
X2011062Y1580818*
X2010977Y1580853*
Y1581161*
X2010675*
Y1578939*
X2010977*
Y1580362*
X2010979Y1580375*
X2011023Y1580553*
X2011033Y1580573*
X2011256Y1580841*
X2011281Y1580857*
X2011594Y1580946*
X2011620Y1580947*
X2011798Y1580902*
X2011814Y1580895*
X2011948Y1580806*
X2011965Y1580787*
X2012054Y1580608*
X2012059Y1580586*
Y1578939*
X2012361*
Y1580228*
Y1580236*
X2012406Y1580548*
X2012416Y1580571*
X2012550Y1580750*
X2012560Y1580760*
X2012738Y1580893*
X2012758Y1580902*
X2012982Y1580947*
X2013001*
X2013224Y1580902*
X2013255Y1580883*
X2013388Y1580705*
X2013396Y1580691*
X2013441Y1580557*
X2013443Y1580541*
Y1578939*
X2013745*
Y1580493*
X2009995D02*
X2009952Y1580794D01*
X2009828Y1581041*
X2009626Y1581163*
X2009332Y1581205*
X2009118Y1581162*
X2008951Y1581120*
X2008788Y1580998*
X2008659Y1580783*
X2008572Y1580786*
X2008486Y1580958*
X2008365Y1581079*
X2008156Y1581162*
X2007948Y1581204*
X2007784Y1581163*
X2007573Y1581079*
X2007312Y1580818*
X2007227Y1580853*
Y1581161*
X2006925*
Y1578939*
X2007227*
Y1580362*
X2007229Y1580375*
X2007273Y1580553*
X2007283Y1580573*
X2007506Y1580841*
X2007531Y1580857*
X2007844Y1580946*
X2007870Y1580947*
X2008048Y1580902*
X2008064Y1580895*
X2008198Y1580806*
X2008215Y1580787*
X2008304Y1580608*
X2008309Y1580586*
Y1578939*
X2008611*
Y1580228*
Y1580236*
X2008656Y1580548*
X2008666Y1580571*
X2008800Y1580750*
X2008810Y1580760*
X2008988Y1580893*
X2009008Y1580902*
X2009232Y1580947*
X2009251*
X2009474Y1580902*
X2009505Y1580883*
X2009638Y1580705*
X2009646Y1580691*
X2009691Y1580557*
X2009693Y1580541*
Y1578939*
X2009995*
Y1580493*
X2006334Y1580891D02*
X2006247Y1581195D01*
X2006072Y1581678*
X2005947Y1581845*
X2005783Y1581967*
X2005356Y1582053*
X2005060Y1582010*
X2004809Y1581885*
X2004642Y1581676*
X2004512Y1581374*
X2004425Y1580980*
X2004381Y1580450*
Y1580056*
X2004468Y1579706*
X2004555Y1579400*
X2004681Y1579192*
X2004976Y1578980*
X2005359Y1578895*
X2005655Y1578938*
X2005906Y1579063*
X2006073Y1579272*
X2006202Y1579574*
X2006290Y1579968*
X2006334Y1580454*
Y1580891*
X2006032Y1580809D02*
Y1580095D01*
Y1580086*
X2005987Y1579818*
Y1579817*
X2005942Y1579594*
X2005938Y1579581*
X2005849Y1579403*
X2005835Y1579386*
X2005612Y1579207*
X2005590Y1579197*
X2005367Y1579153*
X2005348*
X2005124Y1579197*
X2005103Y1579207*
X2004880Y1579386*
X2004866Y1579403*
X2004777Y1579581*
X2004773Y1579594*
X2004728Y1579817*
Y1579818*
X2004683Y1580086*
X2004682Y1580095*
Y1580809*
X2004683Y1580816*
X2004728Y1581128*
Y1581131*
X2004773Y1581354*
X2004777Y1581367*
X2004866Y1581545*
X2004880Y1581562*
X2005103Y1581741*
X2005124Y1581751*
X2005348Y1581795*
X2005366Y1581796*
X2005633Y1581751*
X2005664Y1581733*
X2005843Y1581510*
X2005845Y1581506*
X2005935Y1581372*
X2005942Y1581354*
X2005987Y1581131*
Y1581128*
X2006032Y1580816*
Y1580809*
X2003834Y1580891D02*
X2003747Y1581195D01*
X2003572Y1581678*
X2003447Y1581845*
X2003283Y1581967*
X2002856Y1582053*
X2002560Y1582010*
X2002309Y1581885*
X2002142Y1581676*
X2002012Y1581374*
X2001925Y1580980*
X2001881Y1580450*
Y1580056*
X2001968Y1579706*
X2002055Y1579400*
X2002181Y1579192*
X2002476Y1578980*
X2002859Y1578895*
X2003155Y1578938*
X2003406Y1579063*
X2003573Y1579272*
X2003702Y1579574*
X2003790Y1579968*
X2003834Y1580454*
Y1580891*
X2003532Y1580809D02*
Y1580095D01*
Y1580086*
X2003487Y1579818*
Y1579817*
X2003442Y1579594*
X2003438Y1579581*
X2003349Y1579403*
X2003335Y1579386*
X2003112Y1579207*
X2003090Y1579197*
X2002867Y1579153*
X2002848*
X2002624Y1579197*
X2002603Y1579207*
X2002380Y1579386*
X2002366Y1579403*
X2002277Y1579581*
X2002273Y1579594*
X2002228Y1579817*
Y1579818*
X2002183Y1580086*
X2002182Y1580095*
Y1580809*
X2002183Y1580816*
X2002228Y1581128*
Y1581131*
X2002273Y1581354*
X2002277Y1581367*
X2002366Y1581545*
X2002380Y1581562*
X2002603Y1581741*
X2002624Y1581751*
X2002848Y1581795*
X2002866Y1581796*
X2003133Y1581751*
X2003164Y1581733*
X2003343Y1581510*
X2003345Y1581506*
X2003435Y1581372*
X2003442Y1581354*
X2003487Y1581131*
Y1581128*
X2003532Y1580816*
Y1580809*
X2001111Y1579241D02*
X2000809D01*
Y1578939*
X2001111*
Y1579241*
X2000083Y1579828D02*
X2000041Y1580081D01*
X1999958Y1580290*
X1999792Y1580455*
X1999531Y1580586*
X1999528Y1580673*
X1999746Y1580804*
X1999870Y1580928*
X1999953Y1581094*
X1999994Y1581258*
X1999952Y1581592*
X1999743Y1581843*
X1999492Y1582010*
X1999107Y1582053*
X1998723Y1582010*
X1998472Y1581843*
X1998262Y1581591*
X1998221Y1581301*
X1998262Y1581093*
X1998345Y1580928*
X1998469Y1580804*
X1998687Y1580673*
X1998677Y1580583*
X1998420Y1580497*
X1998258Y1580335*
X1998174Y1580082*
X1998132Y1579828*
X1998217Y1579443*
X1998386Y1579148*
X1998722Y1578938*
X1999107Y1578895*
X1999492Y1578938*
X1999829Y1579148*
X1999998Y1579443*
X2000083Y1579828*
X1999692Y1581243D02*
X1999647Y1581065D01*
X1999640Y1581049*
X1999551Y1580915*
X1999532Y1580898*
X1999353Y1580809*
X1999340Y1580804*
X1999117Y1580760*
X1999098*
X1998874Y1580804*
X1998862Y1580809*
X1998683Y1580898*
X1998664Y1580915*
X1998575Y1581049*
X1998567Y1581067*
X1998523Y1581290*
Y1581312*
X1998568Y1581491*
X1998575Y1581506*
X1998664Y1581640*
X1998683Y1581657*
X1998862Y1581746*
X1998874Y1581751*
X1999098Y1581795*
X1999117*
X1999340Y1581751*
X1999353Y1581746*
X1999532Y1581657*
X1999554Y1581635*
X1999643Y1581456*
X1999647Y1581446*
X1999692Y1581267*
Y1581243*
X1999782Y1579827D02*
Y1579818D01*
X1999737Y1579551*
X1999728Y1579529*
X1999594Y1579350*
X1999584Y1579340*
X1999405Y1579206*
X1999383Y1579197*
X1999116Y1579152*
X1999107*
X1998929*
X1998901Y1579160*
X1998770Y1579248*
X1998594Y1579336*
X1998575Y1579353*
X1998485Y1579486*
X1998478Y1579507*
X1998433Y1579820*
X1998432Y1579827*
X1998433Y1579836*
X1998478Y1580060*
X1998484Y1580076*
X1998618Y1580299*
X1998631Y1580313*
X1998810Y1580447*
X1998831Y1580456*
X1999099Y1580501*
X1999116*
X1999383Y1580456*
X1999405Y1580447*
X1999584Y1580313*
X1999597Y1580299*
X1999731Y1580076*
X1999737Y1580060*
X1999781Y1579836*
X1999782Y1579827*
X1997004Y1582053D02*
X1996814D01*
X1996695Y1581855*
X1996687Y1581845*
X1996464Y1581622*
X1996457Y1581615*
X1996189Y1581437*
X1996186Y1581435*
X1995898Y1581271*
Y1580979*
X1996268Y1581164*
X1996622Y1581429*
X1996702Y1581389*
Y1578939*
X1997004*
Y1582053*
X1995900Y1580980D02*
Y1581272D01*
X1996000Y1581030D02*
Y1581329D01*
X1996100Y1581080D02*
Y1581386D01*
X1996200Y1581130D02*
Y1581444D01*
X1996300Y1581188D02*
Y1581511D01*
X1996400Y1581263D02*
Y1581578D01*
X1996500Y1581338D02*
Y1581658D01*
X1996600Y1581413D02*
Y1581758D01*
X1996700Y1581403D02*
Y1581863D01*
X1996800Y1578939D02*
Y1582030D01*
X1996900Y1578939D02*
Y1582053D01*
X1997000Y1578939D02*
Y1582053D01*
X1998200Y1579520D02*
Y1580161D01*
X1998300Y1579298D02*
Y1580377D01*
Y1581018D02*
Y1581637D01*
X1998400Y1579139D02*
Y1580477D01*
Y1580873D02*
Y1581757D01*
X1998500Y1579077D02*
Y1579465D01*
Y1580102D02*
Y1580524D01*
Y1580785D02*
Y1581862D01*
X1998600Y1579014D02*
Y1579332D01*
Y1580269D02*
Y1580557D01*
Y1580725D02*
Y1581011D01*
Y1581544D02*
Y1581928D01*
X1998700Y1578952D02*
Y1579282D01*
Y1580365D02*
Y1580599D01*
Y1580661D02*
Y1580890D01*
Y1581665D02*
Y1581995D01*
X1998800Y1578929D02*
Y1579227D01*
Y1580440D02*
Y1580840D01*
Y1581715D02*
Y1582019D01*
X1998900Y1578918D02*
Y1579161D01*
Y1580468D02*
Y1580799D01*
Y1581756D02*
Y1582030D01*
X1999000Y1578907D02*
Y1579152D01*
Y1580484D02*
Y1580779D01*
Y1581776D02*
Y1582041D01*
X1999100Y1578896D02*
Y1579152D01*
Y1580501D02*
Y1580759D01*
Y1581796D02*
Y1582052D01*
X1999200Y1578905D02*
Y1579166D01*
Y1580487D02*
Y1580776D01*
Y1581779D02*
Y1582043D01*
X1999300Y1578916D02*
Y1579183D01*
Y1580470D02*
Y1580796D01*
Y1581759D02*
Y1582032D01*
X1999400Y1578927D02*
Y1579203D01*
Y1580450D02*
Y1580832D01*
Y1581723D02*
Y1582021D01*
X1999500Y1578942D02*
Y1579277D01*
Y1580376D02*
Y1580882D01*
Y1581673D02*
Y1582005D01*
X1999600Y1579005D02*
Y1579358D01*
Y1580293D02*
Y1580551D01*
Y1580716D02*
Y1580989D01*
Y1581543D02*
Y1581938D01*
X1999700Y1579067D02*
Y1579492D01*
Y1580127D02*
Y1580501D01*
Y1580776D02*
Y1581872D01*
X1999800Y1579130D02*
Y1580447D01*
Y1580858D02*
Y1581775D01*
X1999900Y1579272D02*
Y1580347D01*
Y1580988D02*
Y1581655D01*
X2000000Y1579453D02*
Y1580184D01*
X2000900Y1578939D02*
Y1579241D01*
X2001000Y1578939D02*
Y1579241D01*
X2001100Y1578939D02*
Y1579241D01*
X2001900Y1579978D02*
Y1580682D01*
X2002000Y1579594D02*
Y1581318D01*
X2002100Y1579326D02*
Y1581578D01*
X2002200Y1579178D02*
Y1579985D01*
Y1580936D02*
Y1581749D01*
X2002300Y1579106D02*
Y1579535D01*
Y1581413D02*
Y1581874D01*
X2002400Y1579035D02*
Y1579370D01*
Y1581578D02*
Y1581930D01*
X2002500Y1578975D02*
Y1579290D01*
Y1581658D02*
Y1581980D01*
X2002600Y1578953D02*
Y1579210D01*
Y1581738D02*
Y1582016D01*
X2002700Y1578931D02*
Y1579182D01*
Y1581766D02*
Y1582030D01*
X2002800Y1578909D02*
Y1579162D01*
Y1581786D02*
Y1582045D01*
X2002900Y1578901D02*
Y1579159D01*
Y1581790D02*
Y1582044D01*
X2003000Y1578915D02*
Y1579179D01*
Y1581773D02*
Y1582024D01*
X2003100Y1578930D02*
Y1579200D01*
Y1581757D02*
Y1582004D01*
X2003200Y1578960D02*
Y1579278D01*
Y1581688D02*
Y1581984D01*
X2003300Y1579010D02*
Y1579358D01*
Y1581563D02*
Y1581955D01*
X2003400Y1579060D02*
Y1579505D01*
Y1581424D02*
Y1581880D01*
X2003500Y1579181D02*
Y1579896D01*
Y1581039D02*
Y1581773D01*
X2003600Y1579335D02*
Y1581600D01*
X2003700Y1579569D02*
Y1581325D01*
X2003800Y1580078D02*
Y1581011D01*
X2004400Y1579978D02*
Y1580682D01*
X2004500Y1579594D02*
Y1581318D01*
X2004600Y1579326D02*
Y1581578D01*
X2004700Y1579178D02*
Y1579985D01*
Y1580936D02*
Y1581749D01*
X2004800Y1579106D02*
Y1579535D01*
Y1581413D02*
Y1581874D01*
X2004900Y1579035D02*
Y1579370D01*
Y1581578D02*
Y1581930D01*
X2005000Y1578975D02*
Y1579290D01*
Y1581658D02*
Y1581980D01*
X2005100Y1578953D02*
Y1579210D01*
Y1581738D02*
Y1582016D01*
X2005200Y1578931D02*
Y1579182D01*
Y1581766D02*
Y1582030D01*
X2005300Y1578909D02*
Y1579162D01*
Y1581786D02*
Y1582045D01*
X2005400Y1578901D02*
Y1579159D01*
Y1581790D02*
Y1582044D01*
X2005500Y1578915D02*
Y1579179D01*
Y1581773D02*
Y1582024D01*
X2005600Y1578930D02*
Y1579200D01*
Y1581757D02*
Y1582004D01*
X2005700Y1578960D02*
Y1579278D01*
Y1581688D02*
Y1581984D01*
X2005800Y1579010D02*
Y1579358D01*
Y1581563D02*
Y1581955D01*
X2005900Y1579060D02*
Y1579505D01*
Y1581424D02*
Y1581880D01*
X2006000Y1579181D02*
Y1579896D01*
Y1581039D02*
Y1581773D01*
X2006100Y1579335D02*
Y1581600D01*
X2006200Y1579569D02*
Y1581325D01*
X2006300Y1580078D02*
Y1581011D01*
X2007000Y1578939D02*
Y1581161D01*
X2007100Y1578939D02*
Y1581161D01*
X2007200Y1578939D02*
Y1581161D01*
X2007300Y1580593D02*
Y1580809D01*
X2007400Y1580713D02*
Y1580906D01*
X2007500Y1580833D02*
Y1581006D01*
X2007600Y1580877D02*
Y1581090D01*
X2007700Y1580905D02*
Y1581130D01*
X2007800Y1580934D02*
Y1581167D01*
X2007900Y1580939D02*
Y1581192D01*
X2008000Y1580914D02*
Y1581194D01*
X2008100Y1580871D02*
Y1581174D01*
X2008200Y1580804D02*
Y1581145D01*
X2008300Y1580616D02*
Y1581105D01*
X2008400Y1578939D02*
Y1581044D01*
X2008500Y1578939D02*
Y1580930D01*
X2008600Y1578939D02*
Y1580762D01*
X2008700Y1580617D02*
Y1580851D01*
X2008800Y1580750D02*
Y1581007D01*
X2008900Y1580827D02*
Y1581082D01*
X2009000Y1580900D02*
Y1581132D01*
X2009100Y1580921D02*
Y1581157D01*
X2009200Y1580941D02*
Y1581178D01*
X2009300Y1580937D02*
Y1581198D01*
X2009400Y1580917D02*
Y1581195D01*
X2009500Y1580889D02*
Y1581181D01*
X2009600Y1580756D02*
Y1581166D01*
X2009700Y1578939D02*
Y1581118D01*
X2009800Y1578939D02*
Y1581058D01*
X2009900Y1578939D02*
Y1580897D01*
X2010700Y1578939D02*
Y1581161D01*
X2010800Y1578939D02*
Y1581161D01*
X2010900Y1578939D02*
Y1581161D01*
X2011000Y1580460D02*
Y1580811D01*
X2011100Y1580653D02*
Y1580856D01*
X2011200Y1580773D02*
Y1580956D01*
X2011300Y1580862D02*
Y1581056D01*
X2011400Y1580891D02*
Y1581110D01*
X2011500Y1580919D02*
Y1581150D01*
X2011600Y1580948D02*
Y1581180D01*
X2011700Y1580926D02*
Y1581204D01*
X2011800Y1580901D02*
Y1581184D01*
X2011900Y1580838D02*
Y1581164D01*
X2012000Y1580716D02*
Y1581125D01*
X2012100Y1578939D02*
Y1581085D01*
X2012200Y1578939D02*
Y1580994D01*
X2012300Y1578939D02*
Y1580830D01*
X2012400Y1580505D02*
Y1580772D01*
X2012500Y1580683D02*
Y1580934D01*
X2012600Y1580790D02*
Y1581044D01*
X2012700Y1580865D02*
Y1581119D01*
X2012800Y1580911D02*
Y1581145D01*
X2012900Y1580931D02*
Y1581168D01*
X2013000Y1580947D02*
Y1581188D01*
X2013100Y1580927D02*
Y1581202D01*
X2013200Y1580907D02*
Y1581188D01*
X2013300Y1580823D02*
Y1581173D01*
X2013400Y1580678D02*
Y1581148D01*
X2013500Y1578939D02*
Y1581088D01*
X2013600Y1578939D02*
Y1580997D01*
X2013700Y1578939D02*
Y1580797D01*
X2046300Y1522660D02*
Y1522950D01*
Y1524972D02*
Y1525057D01*
X2046400Y1522660D02*
Y1523138D01*
Y1524961D02*
Y1525333D01*
X2046500Y1522660D02*
Y1523263D01*
Y1524950D02*
Y1525473D01*
X2046600Y1522660D02*
Y1523388D01*
Y1525048D02*
Y1525583D01*
X2046700Y1522660D02*
Y1522962D01*
Y1523081D02*
Y1523513D01*
Y1525242D02*
Y1525641D01*
X2046800Y1522660D02*
Y1522961D01*
Y1523206D02*
Y1523598D01*
Y1525353D02*
Y1525698D01*
X2046900Y1522660D02*
Y1522961D01*
Y1523307D02*
Y1523684D01*
Y1525428D02*
Y1525735D01*
X2047000Y1522660D02*
Y1522961D01*
Y1523382D02*
Y1523770D01*
Y1525477D02*
Y1525746D01*
X2047100Y1522660D02*
Y1522961D01*
Y1523463D02*
Y1523858D01*
Y1525493D02*
Y1525758D01*
X2047200Y1522660D02*
Y1522961D01*
Y1523546D02*
Y1523947D01*
Y1525510D02*
Y1525769D01*
X2047300Y1522660D02*
Y1522961D01*
Y1523629D02*
Y1524036D01*
Y1525506D02*
Y1525760D01*
X2047400Y1522660D02*
Y1522961D01*
Y1523717D02*
Y1524125D01*
Y1525486D02*
Y1525738D01*
X2047500Y1522660D02*
Y1522961D01*
Y1523804D02*
Y1524238D01*
Y1525460D02*
Y1525716D01*
X2047600Y1522660D02*
Y1522961D01*
Y1523892D02*
Y1524355D01*
Y1525385D02*
Y1525693D01*
X2047700Y1522660D02*
Y1522961D01*
Y1523994D02*
Y1524478D01*
Y1525304D02*
Y1525646D01*
X2047800Y1522660D02*
Y1522961D01*
Y1524114D02*
Y1524645D01*
Y1525204D02*
Y1525589D01*
X2047900Y1522660D02*
Y1522961D01*
Y1524238D02*
Y1525532D01*
X2048000Y1522660D02*
Y1522961D01*
Y1524371D02*
Y1525428D01*
X2048100Y1522660D02*
Y1522961D01*
Y1524634D02*
Y1525308D01*
X2048200Y1522660D02*
Y1522961D01*
X2048900Y1523118D02*
Y1523423D01*
Y1524167D02*
Y1524354D01*
X2049000Y1522978D02*
Y1523434D01*
Y1524156D02*
Y1524883D01*
X2049100Y1522838D02*
Y1523445D01*
Y1524145D02*
Y1525411D01*
X2049200Y1522774D02*
Y1523234D01*
Y1524145D02*
Y1525729D01*
X2049300Y1522717D02*
Y1523029D01*
Y1524245D02*
Y1524479D01*
Y1524867D02*
Y1525729D01*
X2049400Y1522659D02*
Y1522971D01*
Y1524345D02*
Y1524538D01*
Y1525416D02*
Y1525729D01*
X2049500Y1522646D02*
Y1522921D01*
Y1524378D02*
Y1524604D01*
Y1525427D02*
Y1525729D01*
X2049600Y1522633D02*
Y1522900D01*
Y1524406D02*
Y1524662D01*
Y1525427D02*
Y1525729D01*
X2049700Y1522621D02*
Y1522880D01*
Y1524435D02*
Y1524677D01*
Y1525427D02*
Y1525729D01*
X2049800Y1522625D02*
Y1522880D01*
Y1524438D02*
Y1524691D01*
Y1525427D02*
Y1525729D01*
X2049900Y1522642D02*
Y1522894D01*
Y1524423D02*
Y1524695D01*
Y1525427D02*
Y1525729D01*
X2050000Y1522658D02*
Y1522908D01*
Y1524409D02*
Y1524670D01*
Y1525427D02*
Y1525729D01*
X2050100Y1522678D02*
Y1522940D01*
Y1524380D02*
Y1524645D01*
Y1525427D02*
Y1525729D01*
X2050200Y1522698D02*
Y1523040D01*
Y1524305D02*
Y1524620D01*
Y1525427D02*
Y1525729D01*
X2050300Y1522766D02*
Y1523157D01*
Y1524205D02*
Y1524555D01*
Y1525427D02*
Y1525729D01*
X2050400Y1522845D02*
Y1523323D01*
Y1524039D02*
Y1524484D01*
Y1525427D02*
Y1525729D01*
X2050500Y1522945D02*
Y1524412D01*
Y1525427D02*
Y1525729D01*
X2050600Y1523082D02*
Y1524280D01*
X2050700Y1523257D02*
Y1524140D01*
X2051500Y1522660D02*
Y1522961D01*
X2051600Y1522660D02*
Y1522961D01*
X2051700Y1522660D02*
Y1522961D01*
X2052600Y1523310D02*
Y1523417D01*
X2052700Y1523048D02*
Y1523428D01*
Y1524162D02*
Y1524618D01*
X2052800Y1522908D02*
Y1523440D01*
Y1524151D02*
Y1525147D01*
X2052900Y1522802D02*
Y1523384D01*
Y1524140D02*
Y1525676D01*
X2053000Y1522745D02*
Y1523128D01*
Y1524195D02*
Y1524513D01*
Y1524550D02*
Y1525729D01*
X2053100Y1522688D02*
Y1522996D01*
Y1524295D02*
Y1524504D01*
Y1525184D02*
Y1525729D01*
X2053200Y1522652D02*
Y1522946D01*
Y1524363D02*
Y1524571D01*
Y1525427D02*
Y1525729D01*
X2053300Y1522640D02*
Y1522910D01*
Y1524392D02*
Y1524638D01*
Y1525427D02*
Y1525729D01*
X2053400Y1522627D02*
Y1522890D01*
Y1524421D02*
Y1524669D01*
Y1525427D02*
Y1525729D01*
X2053500Y1522617D02*
Y1522872D01*
Y1524445D02*
Y1524684D01*
Y1525427D02*
Y1525729D01*
X2053600Y1522633D02*
Y1522887D01*
Y1524431D02*
Y1524698D01*
Y1525427D02*
Y1525729D01*
X2053700Y1522650D02*
Y1522901D01*
Y1524416D02*
Y1524683D01*
Y1525427D02*
Y1525729D01*
X2053800Y1522668D02*
Y1522915D01*
Y1524402D02*
Y1524658D01*
Y1525427D02*
Y1525729D01*
X2053900Y1522688D02*
Y1522990D01*
Y1524343D02*
Y1524633D01*
Y1525427D02*
Y1525729D01*
X2054000Y1522728D02*
Y1523090D01*
Y1524268D02*
Y1524591D01*
Y1525427D02*
Y1525729D01*
X2054100Y1522803D02*
Y1523240D01*
Y1524122D02*
Y1524519D01*
Y1525427D02*
Y1525729D01*
X2054200Y1522895D02*
Y1523584D01*
Y1523778D02*
Y1524448D01*
Y1525427D02*
Y1525729D01*
X2054300Y1522995D02*
Y1524350D01*
Y1525427D02*
Y1525729D01*
X2054400Y1523169D02*
Y1524210D01*
X2054500Y1523577D02*
Y1523859D01*
X2055100Y1523623D02*
Y1524631D01*
X2055200Y1523248D02*
Y1525110D01*
X2055300Y1523015D02*
Y1525343D01*
X2055400Y1522885D02*
Y1523591D01*
Y1524789D02*
Y1525493D01*
X2055500Y1522813D02*
Y1523217D01*
Y1525171D02*
Y1525610D01*
X2055600Y1522742D02*
Y1523075D01*
Y1525314D02*
Y1525660D01*
X2055700Y1522691D02*
Y1522995D01*
Y1525394D02*
Y1525710D01*
X2055800Y1522669D02*
Y1522919D01*
Y1525470D02*
Y1525739D01*
X2055900Y1522647D02*
Y1522899D01*
Y1525490D02*
Y1525754D01*
X2056000Y1522625D02*
Y1522879D01*
Y1525510D02*
Y1525768D01*
X2056100Y1522624D02*
Y1522883D01*
Y1525507D02*
Y1525761D01*
X2056200Y1522639D02*
Y1522903D01*
Y1525490D02*
Y1525741D01*
X2056300Y1522653D02*
Y1522933D01*
Y1525474D02*
Y1525721D01*
X2056400Y1522690D02*
Y1523013D01*
Y1525385D02*
Y1525701D01*
X2056500Y1522740D02*
Y1523093D01*
Y1525260D02*
Y1525661D01*
X2056600Y1522800D02*
Y1523264D01*
Y1525116D02*
Y1525586D01*
X2056700Y1522925D02*
Y1523731D01*
Y1524626D02*
Y1525468D01*
X2056800Y1523100D02*
Y1525268D01*
X2056900Y1523369D02*
Y1524993D01*
X2057000Y1524008D02*
Y1524665D01*
X2057700Y1522660D02*
Y1524881D01*
X2057800Y1522660D02*
Y1524881D01*
X2057900Y1522660D02*
Y1524881D01*
X2058000Y1524336D02*
Y1524545D01*
X2058100Y1524456D02*
Y1524645D01*
X2058200Y1524572D02*
Y1524745D01*
X2058300Y1524602D02*
Y1524818D01*
X2058400Y1524631D02*
Y1524858D01*
X2058500Y1524660D02*
Y1524892D01*
X2058600Y1524655D02*
Y1524917D01*
X2058700Y1524630D02*
Y1524910D01*
X2058800Y1524579D02*
Y1524890D01*
X2058900Y1524498D02*
Y1524857D01*
X2059000Y1522660D02*
Y1524817D01*
X2059100Y1522660D02*
Y1524745D01*
X2059200Y1522660D02*
Y1524612D01*
X2059300Y1524009D02*
Y1524479D01*
X2059400Y1524363D02*
Y1524603D01*
X2059500Y1524487D02*
Y1524742D01*
X2059600Y1524562D02*
Y1524817D01*
X2059700Y1524625D02*
Y1524857D01*
X2059800Y1524645D02*
Y1524882D01*
X2059900Y1524665D02*
Y1524902D01*
X2060000Y1524654D02*
Y1524922D01*
X2060100Y1524634D02*
Y1524912D01*
X2060200Y1524585D02*
Y1524898D01*
X2060300Y1524451D02*
Y1524884D01*
X2060400Y1522660D02*
Y1524827D01*
X2060500Y1522660D02*
Y1524767D01*
X2060600Y1522660D02*
Y1524580D01*
X2061400Y1522660D02*
Y1524881D01*
X2061500Y1522660D02*
Y1524881D01*
X2061600Y1522660D02*
Y1524881D01*
X2061700Y1524257D02*
Y1524525D01*
X2061800Y1524396D02*
Y1524595D01*
X2061900Y1524516D02*
Y1524695D01*
X2062000Y1524588D02*
Y1524795D01*
X2062100Y1524617D02*
Y1524838D01*
X2062200Y1524645D02*
Y1524878D01*
X2062300Y1524667D02*
Y1524905D01*
X2062400Y1524642D02*
Y1524920D01*
X2062500Y1524612D02*
Y1524900D01*
X2062600Y1524545D02*
Y1524877D01*
X2062700Y1524398D02*
Y1524837D01*
X2062800Y1522660D02*
Y1524795D01*
X2062900Y1522660D02*
Y1524695D01*
X2063000Y1522660D02*
Y1524512D01*
X2063100Y1524296D02*
Y1524520D01*
X2063200Y1524429D02*
Y1524687D01*
X2063300Y1524525D02*
Y1524779D01*
X2063400Y1524600D02*
Y1524845D01*
X2063500Y1524635D02*
Y1524870D01*
X2063600Y1524655D02*
Y1524892D01*
X2063700Y1524664D02*
Y1524912D01*
X2063800Y1524644D02*
Y1524920D01*
X2063900Y1524624D02*
Y1524905D01*
X2064000Y1524518D02*
Y1524891D01*
X2064100Y1524342D02*
Y1524857D01*
X2064200Y1522660D02*
Y1524797D01*
X2064300Y1522660D02*
Y1524680D01*
X2064400Y1522660D02*
Y1524394D01*
*
G04 PC Custom Flashes*
G04 Layer Name ESP32_WROOM_32D_5X5_V2- - flashes*
%LPD*%
*
*
G04 PC Circuitry*
G04 Layer Name ESP32_WROOM_32D_5X5_V2- - circuitry*
%LPD*%
*
G54D10*
X1968504Y1574681D02*
X1968507D01*
X2039370D02*
X2039373D01*
X2039370Y1474288D02*
X2039373D01*
X2039370Y1574681D02*
X2039373D01*
G54D44*
X1968504D02*
X2039370D01*
Y1474288*
X1968504*
Y1574681*
G54D45*
X2008754Y1527303D03*
X1984254Y1538303D03*
Y1540803D03*
X1990754D03*
Y1538303D03*
G54D46*
X2008254Y1502053D03*
X1984004Y1515492D03*
X2011004Y1514353D03*
Y1518703D03*
G54D47*
X2000004Y1484053D03*
X1996754Y1485553D03*
X1998254Y1489053D03*
X2003254Y1487303D03*
X1995254Y1490553D03*
X2001504Y1487303D03*
X1995004D03*
X2006504Y1490553D03*
X2004754D03*
X1983054Y1503342D03*
X1986204D03*
X1991704Y1501703D03*
X1988004Y1503342D03*
X2001457Y1499617D03*
X2003004Y1500803D03*
X2004304Y1502103D03*
X1981479Y1504303D03*
X1983754Y1512553D03*
X1984629Y1504303D03*
X2011404Y1507503D03*
X2011624Y1505427D03*
X2015504Y1505303D03*
X2013754D03*
X2016254Y1510803D03*
X2014004Y1510603D03*
X2031754Y1504803D03*
X2031972Y1507680D03*
X2032066Y1510207D03*
X2031996Y1512500D03*
X1981504Y1523553D03*
X1979004Y1518803D03*
X1978504Y1520553D03*
X1980254Y1517553D03*
X1982254D03*
X1984254Y1522553D03*
X2013404Y1518503D03*
X2020004Y1519553D03*
X2018754Y1521303D03*
X2021004D03*
X2014104Y1514503D03*
X2015804D03*
X2019504Y1517303D03*
X2015204Y1519403D03*
X2017204D03*
X2032004Y1519553D03*
X2032020Y1514769D03*
X2032066Y1517202D03*
X1981004Y1526553D03*
X1979504Y1528053D03*
Y1525053D03*
X1980754Y1532053D03*
X1985254Y1532553D03*
X2013564Y1524417D03*
X2034704Y1531303D03*
X1992754Y1536053D03*
X1995754Y1543553D03*
X1996504Y1536203D03*
X1998754Y1542303D03*
G54D109*
X1968504Y1480193D02*
X1977393Y1489082D01*
Y1504192*
X1982254Y1509053*
Y1517553*
X1991476Y1474287D02*
X1996754Y1479565D01*
Y1485553*
X2000004Y1484053D02*
Y1475759D01*
X2001476Y1474287*
X1996476D02*
X1998254Y1476065D01*
Y1489053*
X1968504Y1485193D02*
X1976126Y1492815D01*
Y1508653*
X1978504Y1511031*
Y1515803*
X1980254Y1517553*
X1968504Y1490193D02*
X1974951Y1496640D01*
Y1509289*
X1977504Y1511842*
Y1517303*
X1979004Y1518803*
X2003254Y1487303D02*
Y1482509D01*
X2011476Y1474287*
X2001504Y1487303D02*
Y1479259D01*
X2006476Y1474287*
X2004754Y1490553D02*
Y1486009D01*
X2016476Y1474287*
X1968504Y1495193D02*
X1973715Y1500404D01*
Y1509924*
X1976504Y1512713*
Y1518553*
X1978504Y1520553*
X1968504Y1500193D02*
X1972478Y1504167D01*
Y1510637*
X1975504Y1513663*
Y1519553*
X1978004Y1522053*
X1983754*
X1984254Y1522553*
X1978723Y1504022D02*
X1983754Y1509053D01*
Y1512553*
X1978723Y1504022D02*
Y1482040D01*
X1986476Y1474287*
X1983054Y1503342D02*
Y1501938D01*
X1991532Y1493460*
X2009847*
X2026476Y1476831*
Y1474287*
X1986204Y1503342D02*
Y1502372D01*
X1992742Y1495834*
X2010473*
X2021114Y1485193*
X2039370*
X1991704Y1501703D02*
X1995289Y1498118D01*
X2011189*
X2015684Y1493623*
X2037800*
X2039370Y1495193*
X1988004Y1503342D02*
Y1502384D01*
X1993393Y1496995*
X2010812*
X2017614Y1490193*
X2039370*
X2001457Y1499617D02*
X2001809Y1499265D01*
X2011542*
X2015638Y1495169*
X2034346*
X2039370Y1500193*
X2003004Y1500803D02*
X2003349Y1500458D01*
X2011849*
X2015500Y1496807*
X2030984*
X2039370Y1505193*
X2004304Y1502103D02*
X2006098Y1503897D01*
Y1521525*
X2013126Y1528553*
X2022754*
X2034394Y1540193*
X2039370*
X1968504Y1505193D02*
X1971241Y1507930D01*
Y1511131*
X1974504Y1514394*
Y1520053*
X1978004Y1523553*
X1981504*
X1968504Y1510193D02*
X1973504Y1515193D01*
Y1520553*
X1978004Y1525053*
X1979504*
X1981479Y1504303D02*
Y1501821D01*
X1991046Y1492254*
X2009553*
X2021476Y1480331*
Y1474287*
X1984629Y1504303D02*
Y1502136D01*
X1992099Y1494666*
X2010141*
X2024614Y1480193*
X2039384*
X2008776Y1513255D02*
Y1519844D01*
X2011695Y1522763*
X2036800*
X2039370Y1520193*
X2008776Y1513255D02*
X2011428Y1510603D01*
X2014004*
X2011624Y1505427D02*
Y1502433D01*
X2015859Y1498198*
X2030031*
X2034956Y1503123*
Y1505698*
X2039370Y1510193D02*
X2034915Y1505739D01*
X2034956Y1505698*
X1968504Y1515193D02*
X1972504Y1519193D01*
Y1521053*
X1978004Y1526553*
X1981004*
X1968504Y1520193D02*
X1976364Y1528053D01*
X1979504*
X2007300Y1520532D02*
X2014071Y1527303D01*
X2028504*
X2036394Y1535193*
X2039370*
X2007300Y1520532D02*
Y1511607D01*
X2011404Y1507503*
X1968504Y1525193D02*
X1972864Y1529553D01*
X1982254*
X1985254Y1532553*
X1968504Y1530193D02*
X1968864Y1530553D01*
X1981254*
X1984754Y1534053*
X1990754*
X1992754Y1536053*
X1968504Y1535193D02*
X1971644Y1532053D01*
X1980754*
X2038120Y1475688D02*
Y1477521D01*
G75*
G03X2037970Y1477671I-150J0D01*
G01X2037612*
X2037127Y1477850D02*
G03X2037612Y1477671I485J571D01*
G01X2037127Y1477850D02*
G03X2037046Y1477885I-97J-114D01*
G01X2036824Y1478133D02*
G03X2037046Y1477885I250J0D01*
G01X2036824Y1478133D02*
Y1479043D01*
G03X2036674Y1479193I-150J0*
G01X2025890*
G03X2025784Y1478937I0J-150*
G01X2027183Y1477538*
X2027470Y1476942D02*
G03X2027183Y1477538I-994J-111D01*
G01X2027470Y1476942D02*
G03X2027619Y1476809I149J17D01*
G01X2028248*
X2028657Y1476687D02*
G03X2028248Y1476809I-409J-628D01*
G01X2028657Y1476687D02*
G03X2028738Y1476663I81J126D01*
G01X2029064*
X2029314Y1476413D02*
G03X2029064Y1476663I-250J0D01*
G01X2029314Y1476413D02*
Y1475688D01*
G03X2029464Y1475538I150J-0*
G01X2037970*
G03X2038120Y1475688I-0J150*
G01X2036824Y1481343D02*
Y1484043D01*
G03X2036674Y1484193I-150J0*
G01X2022390*
G03X2022284Y1483937I0J-150*
G01X2024984Y1481237*
G03X2025090Y1481193I106J106*
G01X2036674*
G03X2036824Y1481343I-0J150*
G01X2007178Y1476809D02*
G03X2007284Y1477065I-0J150D01*
G01X2002760Y1481589*
G03X2002504Y1481483I-106J-106*
G01Y1479736*
X2002504D02*
G03X2002548Y1479629I150J-0D01*
G01X2005325Y1476853*
G03X2005431Y1476809I106J106*
G01X2007178*
X2012178D02*
G03X2012284Y1477065I-0J150D01*
G01X2004510Y1484839*
G03X2004254Y1484733I-106J-106*
G01Y1482986*
X2004254D02*
G03X2004298Y1482879I150J-0D01*
G01X2010325Y1476853*
G03X2010431Y1476809I106J106*
G01X2012178*
X2020476Y1476959D02*
Y1479855D01*
G03X2020432Y1479961I-150J-0*
G01X2009183Y1491210*
G03X2009077Y1491254I-106J-106*
G01X2007899*
G03X2007760Y1491049I0J-150*
G01X2005964Y1489316D02*
G03X2007760Y1491049I540J1237D01*
G01X2005964Y1489316D02*
G03X2005754Y1489178I-60J-138D01*
G01Y1486486*
X2005754D02*
G03X2005798Y1486379I150J-0D01*
G01X2015325Y1476853*
G03X2015431Y1476809I106J106*
G01X2018248*
X2018657Y1476687D02*
G03X2018248Y1476809I-409J-628D01*
G01X2018657Y1476687D02*
G03X2018738Y1476663I81J126D01*
G01X2019213*
G03X2019295Y1476687I0J150*
G01X2019704Y1476809D02*
G03X2019295Y1476687I0J-750D01*
G01X2019704Y1476809D02*
X2020326D01*
G03X2020476Y1476959I-0J150*
G01X2036824Y1486343D02*
Y1489043D01*
G03X2036674Y1489193I-150J0*
G01X2018890*
G03X2018784Y1488937I0J-150*
G01X2021484Y1486237*
G03X2021590Y1486193I106J106*
G01X2036674*
G03X2036824Y1486343I-0J150*
G01Y1491343D02*
Y1492473D01*
G03X2036674Y1492623I-150J0*
G01X2016960*
G03X2016854Y1492367I0J-150*
G01X2017984Y1491237*
G03X2018090Y1491193I106J106*
G01X2036674*
G03X2036824Y1491343I-0J150*
G01Y1499124D02*
Y1500871D01*
G03X2036568Y1500977I-150J-0*
G01X2032016Y1496425*
G03X2032122Y1496169I106J-106*
G01X2033870*
G03X2033976Y1496213I-0J150*
G01X2036780Y1499017*
G03X2036824Y1499124I-106J107*
G01Y1509124D02*
Y1521263D01*
G03X2036780Y1521369I-150J-0*
G01X2036430Y1521719*
G03X2036324Y1521763I-106J-106*
G01X2012171*
G03X2012065Y1521719I0J-150*
G01X2010803Y1520456*
G03X2010917Y1520201I106J-106*
G01X2010024Y1517568D02*
G03X2010917Y1520201I980J1135D01*
G01X2010024Y1517567D02*
G03X2009776Y1517454I-98J-113D01*
G01Y1515602*
G03X2010024Y1515489I150J0*
G01X2010958Y1512854D02*
G03X2010024Y1515489I46J1499D01*
G01X2010958Y1512854D02*
G03X2010847Y1512598I-4J-150D01*
G01X2011798Y1511647*
G03X2011904Y1511603I106J106*
G01X2013041*
G03X2013137Y1511638I-0J150*
G01Y1509568D02*
G03Y1511638I867J1035D01*
G01Y1509568D02*
G03X2013041Y1509603I-96J-115D01*
G01X2011428*
X2011053Y1509676D02*
G03X2011428Y1509603I375J927D01*
G01X2011053Y1509676D02*
G03X2010890Y1509431I-57J-139D01*
G01X2011430Y1508891*
G03X2011523Y1508848I106J106*
G01X2012467Y1506671D02*
G03X2011523Y1508848I-1063J832D01*
G01X2012467Y1506671D02*
G03X2012489Y1506464I118J-92D01*
G01X2012638Y1506319D02*
G03X2012489Y1506464I-1014J-892D01*
G01X2012638Y1506319D02*
G03X2012851Y1506306I112J99D01*
G01X2014541Y1506400D02*
G03X2012851Y1506306I-787J-1097D01*
G01X2014541Y1506400D02*
G03X2014716I88J122D01*
G01Y1504207D02*
G03Y1506400I788J1096D01*
G01Y1504207D02*
G03X2014541I-87J-122D01*
G01X2012872Y1504281D02*
G03X2014541Y1504207I882J1022D01*
G01X2012872Y1504281D02*
G03X2012624Y1504167I-98J-114D01*
G01X2012624D02*
Y1502910D01*
X2012624D02*
G03X2012668Y1502803I150J-0D01*
G01X2016229Y1499242*
G03X2016335Y1499198I106J106*
G01X2029555*
G03X2029661Y1499242I-0J150*
G01X2033912Y1503493*
G03X2033956Y1503600I-106J107*
G01X2033956D02*
Y1505436D01*
G03X2033951Y1505476I-150J0*
G01X2034208Y1506446D02*
G03X2033951Y1505476I707J-707D01*
G01X2034208Y1506446D02*
X2036780Y1509017D01*
G03X2036824Y1509124I-106J107*
G01Y1523913D02*
Y1533847D01*
G03X2036568Y1533953I-150J-0*
G01X2029211Y1526596*
X2028504Y1526303D02*
G03X2029211Y1526596I-0J1000D01*
G01X2028504Y1526303D02*
X2014547D01*
G03X2014441Y1526259I0J-150*
G01X2012201Y1524019*
G03X2012307Y1523763I106J-106*
G01X2036674*
G03X2036824Y1523913I-0J150*
G01Y1536343D02*
Y1539043D01*
G03X2036674Y1539193I-150J0*
G01X2034870*
G03X2034764Y1539149I0J-150*
G01X2024174Y1528559*
G03X2024280Y1528303I106J-106*
G01X2028028*
G03X2028134Y1528347I-0J150*
G01X2035687Y1535900*
X2036394Y1536193D02*
G03X2035687Y1535900I-0J-1000D01*
G01X2036394Y1536193D02*
X2036674D01*
G03X2036824Y1536343I-0J150*
G01X2003754Y1488762D02*
Y1489590D01*
G03X2003719Y1489686I-150J0*
G01X2003498Y1491049D02*
G03X2003719Y1489686I1256J-496D01*
G01X2003498Y1491049D02*
G03X2003359Y1491254I-139J55D01*
G01X1996649*
G03X1996510Y1491049I0J-150*
G01X1993998D02*
G03X1996510I1256J-496D01*
G01X1993998D02*
G03X1993859Y1491254I-139J55D01*
G01X1991046*
X1990339Y1491547D02*
G03X1991046Y1491254I707J707D01*
G01X1990339Y1491547D02*
X1980772Y1501114D01*
X1980479Y1501821D02*
G03X1980772Y1501114I1000J0D01*
G01X1980479Y1501821D02*
Y1503340D01*
G03X1980444Y1503436I-150J0*
G01X1980222Y1503810D02*
G03X1980444Y1503436I1257J493D01*
G01X1980222Y1503810D02*
G03X1979976Y1503861I-139J-55D01*
G01X1979767Y1503652*
G03X1979723Y1503546I106J-106*
G01Y1482517*
X1979723D02*
G03X1979767Y1482410I150J-0D01*
G01X1985325Y1476853*
G03X1985431Y1476809I106J106*
G01X1988248*
X1988657Y1476687D02*
G03X1988248Y1476809I-409J-628D01*
G01X1988657Y1476687D02*
G03X1988738Y1476663I81J126D01*
G01X1989213*
G03X1989295Y1476687I0J150*
G01X1989704Y1476809D02*
G03X1989295Y1476687I0J-750D01*
G01X1989704Y1476809D02*
X1992521D01*
G03X1992627Y1476853I0J150*
G01X1995710Y1479935*
G03X1995754Y1480042I-106J107*
G01X1995754D02*
Y1484590D01*
G03X1995719Y1484686I-150J0*
G01X1995427Y1485801D02*
G03X1995719Y1484686I1327J-248D01*
G01X1995427Y1485801D02*
G03X1995252Y1485976I-148J28D01*
G01X1996331Y1487055D02*
G03X1995252Y1485976I-1327J248D01*
G01X1996331Y1487055D02*
G03X1996506Y1486880I147J-27D01*
G01X1997069Y1486866D02*
G03X1996506Y1486880I-315J-1313D01*
G01X1997069Y1486866D02*
G03X1997254Y1487012I35J146D01*
G01Y1488090*
G03X1997219Y1488186I-150J0*
G01X1999289D02*
G03X1997219I-1035J867D01*
G01X1999289D02*
G03X1999254Y1488090I115J-96D01*
G01Y1485428*
G03X1999464Y1485290I150J-0*
G01X2000319Y1485366D02*
G03X1999464Y1485290I-315J-1313D01*
G01X2000319Y1485366D02*
G03X2000504Y1485512I35J146D01*
G01Y1486340*
G03X2000469Y1486436I-150J0*
G01X2002291Y1488400D02*
G03X2000469Y1486436I-787J-1097D01*
G01X2002291Y1488400D02*
G03X2002466I88J122D01*
G01X2003569Y1488616D02*
G03X2002466Y1488400I-315J-1313D01*
G01X2003569Y1488616D02*
G03X2003754Y1488762I35J146D01*
G01X2038120Y1543013D02*
Y1549903D01*
G03X2037970Y1550053I-150J0*
G01X1969904*
G03X1969754Y1549903I-0J-150*
G01Y1542913*
G03X1969904Y1542763I150J0*
G01X1970834*
X1971084Y1542513D02*
G03X1970834Y1542763I-250J0D01*
G01X1971084Y1542513D02*
Y1534090D01*
X1971084D02*
G03X1971128Y1533983I150J-0D01*
G01X1972014Y1533097*
G03X1972120Y1533053I106J106*
G01X1979791*
G03X1979887Y1533088I-0J150*
G01X1981862Y1532825D02*
G03X1979887Y1533088I-1108J-772D01*
G01X1981862Y1532825D02*
G03X1982091Y1532804I123J85D01*
G01X1984047Y1534760*
X1984754Y1535053D02*
G03X1984047Y1534760I-0J-1000D01*
G01X1984754Y1535053D02*
X1990278D01*
G03X1990384Y1535097I-0J150*
G01X1991366Y1536079*
G03X1991409Y1536172I-106J106*
G01X1991462Y1536445D02*
G03X1991409Y1536172I1292J-392D01*
G01X1991462Y1536445D02*
G03X1991274Y1536632I-143J44D01*
G01X1989436Y1539454D02*
G03X1991274Y1536632I1318J-1151D01*
G01X1989436Y1539454D02*
G03Y1539652I-113J99D01*
G01X1992072D02*
G03X1989436I-1318J1151D01*
G01X1992072D02*
G03Y1539454I113J-99D01*
G01X1992352Y1537591D02*
G03X1992072Y1539454I-1598J712D01*
G01X1992352Y1537591D02*
G03X1992516Y1537382I137J-61D01*
G01X1992873Y1534708D02*
G03X1992516Y1537382I-119J1345D01*
G01X1992873Y1534708D02*
G03X1992780Y1534665I13J-149D01*
G01X1991461Y1533346*
X1990754Y1533053D02*
G03X1991461Y1533346I-0J1000D01*
G01X1990754Y1533053D02*
X1986713D01*
G03X1986567Y1532868I-0J-150*
G01X1985373Y1531208D02*
G03X1986567Y1532868I-119J1345D01*
G01X1985373Y1531208D02*
G03X1985280Y1531165I13J-149D01*
G01X1982961Y1528846*
X1982254Y1528553D02*
G03X1982961Y1528846I-0J1000D01*
G01X1982254Y1528553D02*
X1980963D01*
G03X1980817Y1528368I-0J-150*
G01X1980854Y1528053D02*
G03X1980817Y1528368I-1350J0D01*
G01X1980854Y1528053D02*
G03X1981004Y1527903I150J0D01*
G01Y1525203D02*
G03Y1527903I-0J1350D01*
G01Y1525203D02*
G03X1980854Y1525053I-0J-150D01*
G01X1980852Y1524975D02*
G03X1980854Y1525053I-1348J78D01*
G01X1980852Y1524975D02*
G03X1981052Y1524825I149J-8D01*
G01X1982843Y1523383D02*
G03X1981052Y1524825I-1339J170D01*
G01X1982843Y1523383D02*
G03X1983118Y1523283I149J-19D01*
G01X1984318Y1521205D02*
G03X1983118Y1523283I-64J1348D01*
G01X1984318Y1521205D02*
G03X1984250Y1521185I7J-150D01*
G01X1983754Y1521053D02*
G03X1984250Y1521185I-0J1000D01*
G01X1983754Y1521053D02*
X1979963D01*
G03X1979817Y1520868I-0J-150*
G01X1979761Y1520060D02*
G03X1979817Y1520868I-1257J493D01*
G01X1979761Y1520060D02*
G03X1979811Y1519885I140J-54D01*
G01X1980338Y1519012D02*
G03X1979811Y1519885I-1334J-209D01*
G01X1980338Y1519012D02*
G03X1980463Y1518887I148J23D01*
G01X1981154Y1518559D02*
G03X1980463Y1518887I-900J-1006D01*
G01X1981154Y1518559D02*
G03X1981354I100J112D01*
G01X1983544Y1517156D02*
G03X1981354Y1518559I-1290J397D01*
G01X1983544Y1517156D02*
G03X1983716Y1516964I143J-44D01*
G01X1984384Y1514041D02*
G03X1983716Y1516964I-380J1451D01*
G01X1984384Y1514041D02*
G03X1984355Y1513762I38J-145D01*
G01X1984789Y1511686D02*
G03X1984355Y1513762I-1035J867D01*
G01X1984789Y1511686D02*
G03X1984754Y1511590I115J-96D01*
G01Y1509053*
X1984461Y1508346D02*
G03X1984754Y1509053I-707J707D01*
G01X1984461Y1508346D02*
X1981921Y1505806D01*
G03X1981972Y1505560I106J-106*
G01X1982742Y1504779D02*
G03X1981972Y1505560I-1263J-476D01*
G01X1982742Y1504779D02*
G03X1982900Y1504683I141J53D01*
G01X1983208D02*
G03X1982900I-154J-1341D01*
G01X1983208D02*
G03X1983366Y1504779I17J149D01*
G01X1985892D02*
G03X1983366I-1263J-476D01*
G01X1985892D02*
G03X1986050Y1504683I141J53D01*
G01X1987014Y1504422D02*
G03X1986050Y1504683I-810J-1080D01*
G01X1987014Y1504422D02*
G03X1987194I90J120D01*
G01X1989211Y1502737D02*
G03X1987194Y1504422I-1207J605D01*
G01X1989211Y1502737D02*
G03X1989239Y1502564I134J-67D01*
G01X1990101Y1501701*
G03X1990357Y1501797I107J106*
G01X1993049Y1501822D02*
G03X1990357Y1501797I-1345J-119D01*
G01X1993049Y1501822D02*
G03X1993092Y1501729I149J13D01*
G01X1995659Y1499162*
G03X1995765Y1499118I106J106*
G01X1999998*
G03X2000144Y1499303I0J150*
G01X2001529Y1500965D02*
G03X2000144Y1499303I-72J-1348D01*
G01X2001529Y1500965D02*
G03X2001683Y1501084I8J150D01*
G01X2002835Y1502143D02*
G03X2001683Y1501084I169J-1340D01*
G01X2002835Y1502143D02*
G03X2002965Y1502273I-19J148D01*
G01X2004185Y1503448D02*
G03X2002965Y1502273I119J-1345D01*
G01X2004185Y1503448D02*
G03X2004278Y1503491I-13J149D01*
G01X2005054Y1504267*
G03X2005098Y1504374I-106J107*
G01X2005098D02*
Y1521525D01*
X2005391Y1522232D02*
G03X2005098Y1521525I707J-707D01*
G01X2005391Y1522232D02*
X2008492Y1525333D01*
G03X2008415Y1525586I-106J106*
G01X2010471Y1527642D02*
G03X2008415Y1525586I-1717J-339D01*
G01X2010471Y1527642D02*
G03X2010724Y1527565I147J29D01*
G01X2012419Y1529260*
X2013126Y1529553D02*
G03X2012419Y1529260I-0J-1000D01*
G01X2013126Y1529553D02*
X2022278D01*
G03X2022384Y1529597I-0J150*
G01X2033687Y1540900*
X2034394Y1541193D02*
G03X2033687Y1540900I-0J-1000D01*
G01X2034394Y1541193D02*
X2036674D01*
G03X2036824Y1541343I-0J150*
G01Y1542613*
X2037074Y1542863D02*
G03X2036824Y1542613I-0J-250D01*
G01X2037074Y1542863D02*
X2037970D01*
G03X2038120Y1543013I-0J150*
G01X1981254Y1509530D02*
Y1516317D01*
G03X1981019Y1516441I-150J0*
G01X1980373Y1516208D02*
G03X1981019Y1516441I-119J1345D01*
G01X1980373Y1516208D02*
G03X1980280Y1516165I13J-149D01*
G01X1979548Y1515433*
G03X1979504Y1515327I106J-106*
G01Y1511031*
X1979211Y1510324D02*
G03X1979504Y1511031I-707J707D01*
G01X1979211Y1510324D02*
X1977170Y1508283D01*
G03X1977126Y1508177I106J-106*
G01Y1505702*
G03X1977382Y1505595I150J-0*
G01X1981210Y1509423*
G03X1981254Y1509530I-106J107*
G01X1976393Y1489559D02*
Y1491306D01*
G03X1976137Y1491412I-150J-0*
G01X1971128Y1486403*
G03X1971084Y1486297I106J-106*
G01Y1484550*
G03X1971340Y1484443I150J-0*
G01X1976349Y1489452*
G03X1976393Y1489559I-106J107*
G01X1975126Y1493292D02*
Y1495039D01*
G03X1974870Y1495145I-150J-0*
G01X1971128Y1491403*
G03X1971084Y1491297I106J-106*
G01Y1489550*
G03X1971340Y1489443I150J-0*
G01X1975082Y1493185*
G03X1975126Y1493292I-106J107*
G01X1973951Y1497117D02*
Y1498864D01*
G03X1973695Y1498970I-150J-0*
G01X1971128Y1496403*
G03X1971084Y1496297I106J-106*
G01Y1494550*
G03X1971340Y1494443I150J-0*
G01X1973907Y1497010*
G03X1973951Y1497117I-106J107*
G01X1975194Y1528297D02*
G03X1975088Y1528553I-106J106D01*
G01X1973340*
G03X1973234Y1528509I0J-150*
G01X1971128Y1526403*
G03X1971084Y1526297I106J-106*
G01Y1524550*
G03X1971340Y1524443I150J-0*
G01X1975194Y1528297*
X1983449Y1475538D02*
G03X1983555Y1475794I0J150D01*
G01X1978016Y1481333*
X1977723Y1482040D02*
G03X1978016Y1481333I1000J0D01*
G01X1977723Y1482040D02*
Y1487636D01*
G03X1977467Y1487742I-150J-0*
G01X1971128Y1481403*
G03X1971084Y1481297I106J-106*
G01Y1478033*
X1970834Y1477783D02*
G03X1971084Y1478033I-0J250D01*
G01X1970834Y1477783D02*
X1970710D01*
G03X1970637Y1477765I-0J-150*
G01X1970276Y1477671D02*
G03X1970637Y1477765I-0J750D01*
G01X1970276Y1477671D02*
X1969904D01*
G03X1969754Y1477521I-0J-150*
G01Y1475688*
G03X1969904Y1475538I150J-0*
G01X1983449*
X1985572Y1539652D02*
G03X1982936I-1318J1151D01*
G01X1985572D02*
G03Y1539454I113J-99D01*
G01X1982936D02*
G03X1985572I1318J-1151D01*
G01X1982936D02*
G03Y1539652I-113J99D01*
G01X1969754Y1475692D02*
X1983599D01*
X1969754Y1476142D02*
X1983207D01*
X1969754Y1476592D02*
X1982757D01*
X1969754Y1477042D02*
X1982307D01*
X1969754Y1477492D02*
X1981857D01*
X1971067Y1477942D02*
X1981407D01*
X1971084Y1478392D02*
X1980957D01*
X1971084Y1478842D02*
X1980507D01*
X1971084Y1479292D02*
X1980057D01*
X1971084Y1479742D02*
X1979607D01*
X1971084Y1480192D02*
X1979157D01*
X1971084Y1480642D02*
X1978707D01*
X1971084Y1481092D02*
X1978257D01*
X1971267Y1481542D02*
X1977856D01*
X1971717Y1481992D02*
X1977724D01*
X1977117Y1487392D02*
X1977723D01*
X1976667Y1486942D02*
X1977723D01*
X1976217Y1486492D02*
X1977723D01*
X1975767Y1486042D02*
X1977723D01*
X1975317Y1485592D02*
X1977723D01*
X1974867Y1485142D02*
X1977723D01*
X1974417Y1484692D02*
X1977723D01*
X1973967Y1484242D02*
X1977723D01*
X1973517Y1483792D02*
X1977723D01*
X1973067Y1483342D02*
X1977723D01*
X1972617Y1482892D02*
X1977723D01*
X1972167Y1482442D02*
X1977723D01*
X1973067Y1528342D02*
X1975224D01*
X1972617Y1527892D02*
X1974788D01*
X1972167Y1527442D02*
X1974338D01*
X1971717Y1526992D02*
X1973888D01*
X1971267Y1526542D02*
X1973438D01*
X1971084Y1526092D02*
X1972988D01*
X1971084Y1525642D02*
X1972538D01*
X1971084Y1525192D02*
X1972088D01*
X1971084Y1524742D02*
X1971638D01*
X1973367Y1498642D02*
X1973951D01*
X1972917Y1498192D02*
X1973951D01*
X1972467Y1497742D02*
X1973951D01*
X1972017Y1497292D02*
X1973951D01*
X1971567Y1496842D02*
X1973738D01*
X1971118Y1496392D02*
X1973288D01*
X1971084Y1495942D02*
X1972838D01*
X1971084Y1495492D02*
X1972388D01*
X1971084Y1495042D02*
X1971938D01*
X1971084Y1494592D02*
X1971488D01*
X1974317D02*
X1975126D01*
X1973867Y1494142D02*
X1975126D01*
X1973417Y1493692D02*
X1975126D01*
X1974767Y1495042D02*
X1975126D01*
X1972967Y1493242D02*
X1975117D01*
X1972517Y1492792D02*
X1974688D01*
X1972067Y1492342D02*
X1974238D01*
X1971617Y1491892D02*
X1973788D01*
X1971167Y1491442D02*
X1973338D01*
X1971084Y1490992D02*
X1972888D01*
X1971084Y1490542D02*
X1972438D01*
X1971084Y1490092D02*
X1971988D01*
X1971084Y1489642D02*
X1971538D01*
X1975717Y1490992D02*
X1976393D01*
X1975267Y1490542D02*
X1976393D01*
X1974817Y1490092D02*
X1976393D01*
X1974367Y1489642D02*
X1976393D01*
X1976180Y1491442D02*
X1976306D01*
X1973917Y1489192D02*
X1976088D01*
X1973467Y1488742D02*
X1975638D01*
X1973017Y1488292D02*
X1975188D01*
X1972567Y1487842D02*
X1974738D01*
X1972117Y1487392D02*
X1974288D01*
X1971667Y1486942D02*
X1973838D01*
X1971217Y1486492D02*
X1973388D01*
X1971084Y1486042D02*
X1972938D01*
X1971084Y1485592D02*
X1972488D01*
X1971084Y1485142D02*
X1972038D01*
X1971084Y1484692D02*
X1971588D01*
X1980317Y1516192D02*
X1981254D01*
X1979857Y1515742D02*
X1981254D01*
X1979504Y1515292D02*
X1981254D01*
X1979504Y1514842D02*
X1981254D01*
X1979504Y1514392D02*
X1981254D01*
X1979504Y1513942D02*
X1981254D01*
X1979504Y1513492D02*
X1981254D01*
X1979504Y1513042D02*
X1981254D01*
X1979504Y1512592D02*
X1981254D01*
X1979504Y1512142D02*
X1981254D01*
X1979504Y1511692D02*
X1981254D01*
X1979504Y1511242D02*
X1981254D01*
X1979475Y1510792D02*
X1981254D01*
X1979228Y1510342D02*
X1981254D01*
X1978779Y1509892D02*
X1981254D01*
X1978329Y1509442D02*
X1981226D01*
X1977879Y1508992D02*
X1980778D01*
X1977429Y1508542D02*
X1980328D01*
X1977126Y1508092D02*
X1979878D01*
X1977126Y1507642D02*
X1979428D01*
X1977126Y1507192D02*
X1978978D01*
X1977126Y1506742D02*
X1978528D01*
X1977126Y1506292D02*
X1978078D01*
X1977126Y1505842D02*
X1977628D01*
X1969754Y1549492D02*
X2038120D01*
X1969754Y1549042D02*
X2038120D01*
X1969754Y1548592D02*
X2038120D01*
X1969754Y1548142D02*
X2038120D01*
X1969754Y1547692D02*
X2038120D01*
X1969754Y1547242D02*
X2038120D01*
X1969754Y1546792D02*
X2038120D01*
X1969754Y1546342D02*
X2038120D01*
X1969754Y1545892D02*
X2038120D01*
X1969754Y1545442D02*
X2038120D01*
X1969754Y1544992D02*
X2038120D01*
X1969754Y1544542D02*
X2038120D01*
X1969754Y1544092D02*
X2038120D01*
X1969754Y1543642D02*
X2038120D01*
X1969754Y1543192D02*
X2038120D01*
X1969759Y1549942D02*
X2038115D01*
X1970935Y1542742D02*
X2036860D01*
X1991674Y1542292D02*
X2036824D01*
X1992162Y1541842D02*
X2036824D01*
X1992402Y1541392D02*
X2036824D01*
X1992498Y1540942D02*
X2033731D01*
X1992476Y1540492D02*
X2033278D01*
X1992330Y1540042D02*
X2032828D01*
X1992040Y1539592D02*
X2032378D01*
X1992290Y1539142D02*
X2031928D01*
X1992460Y1538692D02*
X2031478D01*
X1992503Y1538242D02*
X2031028D01*
X1992428Y1537792D02*
X2030578D01*
X1993156Y1537342D02*
X2030128D01*
X1993812Y1536892D02*
X2029678D01*
X1994047Y1536442D02*
X2029228D01*
X1994103Y1535992D02*
X2028778D01*
X1994003Y1535542D02*
X2028328D01*
X1993702Y1535092D02*
X2027878D01*
X1992757Y1534642D02*
X2027428D01*
X1992307Y1534192D02*
X2026978D01*
X1991857Y1533742D02*
X2026528D01*
X1991402Y1533292D02*
X2026078D01*
X1986573Y1532842D02*
X2025628D01*
X1986594Y1532392D02*
X2025178D01*
X1986458Y1531942D02*
X2024728D01*
X1986088Y1531492D02*
X2024278D01*
X1985157Y1531042D02*
X2023828D01*
X1984707Y1530592D02*
X2023378D01*
X1984257Y1530142D02*
X2022928D01*
X1983807Y1529692D02*
X2022478D01*
X1983357Y1529242D02*
X2012400D01*
X2009674Y1528792D02*
X2011950D01*
X2010162Y1528342D02*
X2011500D01*
X2010402Y1527892D02*
X2011050D01*
X1980947Y1525192D02*
X2008350D01*
X1982000Y1525642D02*
X2008204D01*
X1982144Y1524742D02*
X2007900D01*
X1982902Y1528792D02*
X2007834D01*
X1982273Y1526092D02*
X2007491D01*
X1982634Y1524292D02*
X2007450D01*
X1980823Y1528342D02*
X2007345D01*
X1982354Y1526542D02*
X2007178D01*
X1981178Y1527892D02*
X2007106D01*
X1982281Y1526992D02*
X2007032D01*
X1982020Y1527442D02*
X2007009D01*
X1984656Y1523842D02*
X2007000D01*
X1985312Y1523392D02*
X2006550D01*
X1985547Y1522942D02*
X2006100D01*
X1985603Y1522492D02*
X2005650D01*
X1985503Y1522042D02*
X2005242D01*
X1985202Y1521592D02*
X2005100D01*
X1984166Y1521142D02*
X2005098D01*
X1979847Y1520692D02*
X2005098D01*
X1979818Y1520242D02*
X2005098D01*
X1979923Y1519792D02*
X2005098D01*
X1980242Y1519342D02*
X2005098D01*
X1982428Y1518892D02*
X2005098D01*
X1983270Y1518442D02*
X2005098D01*
X1983531Y1517992D02*
X2005098D01*
X1983604Y1517542D02*
X2005098D01*
X1983539Y1517092D02*
X2005098D01*
X1984967Y1516642D02*
X2005098D01*
X1985331Y1516192D02*
X2005098D01*
X1985483Y1515742D02*
X2005098D01*
X1985491Y1515292D02*
X2005098D01*
X1985356Y1514842D02*
X2005098D01*
X1985023Y1514392D02*
X2005098D01*
X1984279Y1513942D02*
X2005098D01*
X1984724Y1513492D02*
X2005098D01*
X1985012Y1513042D02*
X2005098D01*
X1985103Y1512592D02*
X2005098D01*
X1985040Y1512142D02*
X2005098D01*
X1984794Y1511692D02*
X2005098D01*
X1984754Y1511242D02*
X2005098D01*
X1984754Y1510792D02*
X2005098D01*
X1984754Y1510342D02*
X2005098D01*
X1984754Y1509892D02*
X2005098D01*
X1984754Y1509442D02*
X2005098D01*
X1984752Y1508992D02*
X2005098D01*
X1984613Y1508542D02*
X2005098D01*
X1984207Y1508092D02*
X2005098D01*
X1983757Y1507642D02*
X2005098D01*
X1983307Y1507192D02*
X2005098D01*
X1982857Y1506742D02*
X2005098D01*
X1982407Y1506292D02*
X2005098D01*
X1981957Y1505842D02*
X2005098D01*
X1985427Y1505392D02*
X2005098D01*
X1985818Y1504942D02*
X2005098D01*
X1988712Y1504492D02*
X2005098D01*
X1989158Y1504042D02*
X2004828D01*
X1989331Y1503592D02*
X2004378D01*
X1989339Y1503142D02*
X2003442D01*
X1992623Y1502692D02*
X2003089D01*
X1992942Y1502242D02*
X2002957D01*
X1993055Y1501792D02*
X2002085D01*
X1993479Y1501342D02*
X2001766D01*
X1993929Y1500892D02*
X2001012D01*
X1994379Y1500442D02*
X2000388D01*
X1994829Y1499992D02*
X2000160D01*
X1995279Y1499542D02*
X2000109D01*
X1971084Y1536442D02*
X1991461D01*
X1971084Y1535992D02*
X1991278D01*
X1971084Y1535542D02*
X1990828D01*
X1989196Y1502692D02*
X1990785D01*
X1989560Y1502242D02*
X1990466D01*
X1971084Y1535092D02*
X1990378D01*
X1990010Y1501792D02*
X1990357D01*
X1985174Y1542292D02*
X1989834D01*
X1985289Y1536892D02*
X1989719D01*
X1985540Y1539592D02*
X1989468D01*
X1985662Y1541842D02*
X1989345D01*
X1985716Y1537342D02*
X1989292D01*
X1985790Y1539142D02*
X1989218D01*
X1985830Y1540042D02*
X1989178D01*
X1985902Y1541392D02*
X1989106D01*
X1985928Y1537792D02*
X1989080D01*
X1985960Y1538692D02*
X1989048D01*
X1985976Y1540492D02*
X1989032D01*
X1985998Y1540942D02*
X1989009D01*
X1986003Y1538242D02*
X1989005D01*
X1986912Y1504492D02*
X1987296D01*
X1971084Y1534642D02*
X1983928D01*
X1982823Y1523842D02*
X1983852D01*
X1982277Y1505392D02*
X1983831D01*
X1971084Y1534192D02*
X1983478D01*
X1982668Y1504942D02*
X1983440D01*
X1971084Y1542292D02*
X1983334D01*
X1971084Y1536892D02*
X1983219D01*
X1982844Y1523392D02*
X1983196D01*
X1971369Y1533742D02*
X1983028D01*
X1971084Y1539592D02*
X1982968D01*
X1971084Y1541842D02*
X1982845D01*
X1971084Y1537342D02*
X1982792D01*
X1971084Y1539142D02*
X1982718D01*
X1971084Y1540042D02*
X1982678D01*
X1971084Y1541392D02*
X1982606D01*
X1971084Y1537792D02*
X1982580D01*
X1981291Y1533292D02*
X1982578D01*
X1971084Y1538692D02*
X1982548D01*
X1971084Y1540492D02*
X1982532D01*
X1971084Y1540942D02*
X1982509D01*
X1971084Y1538242D02*
X1982505D01*
X1981850Y1532842D02*
X1982128D01*
X1980442Y1518892D02*
X1982079D01*
X1971819Y1533292D02*
X1980217D01*
X1999597Y1489192D02*
X2003754D01*
X1999568Y1488742D02*
X2003753D01*
X1999469Y1489642D02*
X2003745D01*
X1999116Y1490092D02*
X2003485D01*
X1996531Y1490992D02*
X2003477D01*
X1996604Y1490542D02*
X2003404D01*
X1999369Y1488292D02*
X2000585D01*
X1999254Y1486042D02*
X2000504D01*
X1999254Y1485592D02*
X2000504D01*
X1999254Y1486492D02*
X2000425D01*
X1999254Y1487842D02*
X2000266D01*
X1999254Y1486942D02*
X2000203D01*
X1999254Y1487392D02*
X2000157D01*
X1996523Y1490092D02*
X1997392D01*
X1996242Y1487842D02*
X1997254D01*
X1996351Y1487392D02*
X1997254D01*
X1996355Y1486942D02*
X1997237D01*
X1995923Y1488292D02*
X1997139D01*
X1996250Y1489642D02*
X1997039D01*
X1979723Y1488742D02*
X1996940D01*
X1979723Y1489192D02*
X1996911D01*
X1979723Y1484242D02*
X1995754D01*
X1979723Y1483792D02*
X1995754D01*
X1979723Y1483342D02*
X1995754D01*
X1979723Y1482892D02*
X1995754D01*
X1979743Y1482442D02*
X1995754D01*
X1980185Y1481992D02*
X1995754D01*
X1980635Y1481542D02*
X1995754D01*
X1981085Y1481092D02*
X1995754D01*
X1981535Y1480642D02*
X1995754D01*
X1981985Y1480192D02*
X1995754D01*
X1979723Y1484692D02*
X1995714D01*
X1982435Y1479742D02*
X1995516D01*
X1979723Y1485142D02*
X1995468D01*
X1979723Y1485592D02*
X1995404D01*
X1982885Y1479292D02*
X1995066D01*
X1983335Y1478842D02*
X1994616D01*
X1979723Y1486042D02*
X1994523D01*
X1979723Y1489642D02*
X1994258D01*
X1983785Y1478392D02*
X1994166D01*
X1979723Y1488292D02*
X1994085D01*
X1979723Y1490092D02*
X1993985D01*
X1979723Y1490992D02*
X1993977D01*
X1979723Y1486492D02*
X1993925D01*
X1979723Y1490542D02*
X1993904D01*
X1979723Y1487842D02*
X1993766D01*
X1984235Y1477942D02*
X1993716D01*
X1979723Y1486942D02*
X1993703D01*
X1979723Y1487392D02*
X1993657D01*
X1984685Y1477492D02*
X1993266D01*
X1985135Y1477042D02*
X1992816D01*
X1979723Y1491442D02*
X1990463D01*
X1979723Y1491892D02*
X1989994D01*
X1979723Y1492342D02*
X1989544D01*
X1979723Y1492792D02*
X1989094D01*
X1979723Y1493242D02*
X1988644D01*
X1979723Y1493692D02*
X1988194D01*
X1979723Y1494142D02*
X1987744D01*
X1979723Y1494592D02*
X1987294D01*
X1979723Y1495042D02*
X1986844D01*
X1979723Y1495492D02*
X1986394D01*
X1979723Y1495942D02*
X1985944D01*
X1979723Y1496392D02*
X1985494D01*
X1979723Y1496842D02*
X1985044D01*
X1979723Y1497292D02*
X1984594D01*
X1979723Y1497742D02*
X1984144D01*
X1979723Y1498192D02*
X1983694D01*
X1979723Y1498642D02*
X1983244D01*
X1979723Y1499092D02*
X1982794D01*
X1979723Y1499542D02*
X1982344D01*
X1979723Y1499992D02*
X1981894D01*
X1979723Y1500442D02*
X1981444D01*
X1979723Y1500892D02*
X1980994D01*
X1979723Y1501342D02*
X1980601D01*
X1979723Y1501792D02*
X1980479D01*
X1979723Y1503142D02*
X1980479D01*
X1979723Y1502692D02*
X1980479D01*
X1979723Y1502242D02*
X1980479D01*
X1979730Y1503592D02*
X1980332D01*
X2034307Y1538692D02*
X2036824D01*
X2033857Y1538242D02*
X2036824D01*
X2033407Y1537792D02*
X2036824D01*
X2032957Y1537342D02*
X2036824D01*
X2032507Y1536892D02*
X2036824D01*
X2032057Y1536442D02*
X2036824D01*
X2034757Y1539142D02*
X2036787D01*
X2031607Y1535992D02*
X2035792D01*
X2031157Y1535542D02*
X2035328D01*
X2030707Y1535092D02*
X2034878D01*
X2030257Y1534642D02*
X2034428D01*
X2029807Y1534192D02*
X2033978D01*
X2029357Y1533742D02*
X2033528D01*
X2028907Y1533292D02*
X2033078D01*
X2028457Y1532842D02*
X2032628D01*
X2028007Y1532392D02*
X2032178D01*
X2027557Y1531942D02*
X2031728D01*
X2027107Y1531492D02*
X2031278D01*
X2026657Y1531042D02*
X2030828D01*
X2026207Y1530592D02*
X2030378D01*
X2025757Y1530142D02*
X2029928D01*
X2025307Y1529692D02*
X2029478D01*
X2024857Y1529242D02*
X2029028D01*
X2024407Y1528792D02*
X2028578D01*
X2024180Y1528342D02*
X2028128D01*
X2036357Y1533742D02*
X2036824D01*
X2035907Y1533292D02*
X2036824D01*
X2035457Y1532842D02*
X2036824D01*
X2035007Y1532392D02*
X2036824D01*
X2034557Y1531942D02*
X2036824D01*
X2034107Y1531492D02*
X2036824D01*
X2033657Y1531042D02*
X2036824D01*
X2033207Y1530592D02*
X2036824D01*
X2032757Y1530142D02*
X2036824D01*
X2032307Y1529692D02*
X2036824D01*
X2031857Y1529242D02*
X2036824D01*
X2031407Y1528792D02*
X2036824D01*
X2030957Y1528342D02*
X2036824D01*
X2030507Y1527892D02*
X2036824D01*
X2030057Y1527442D02*
X2036824D01*
X2029607Y1526992D02*
X2036824D01*
X2029152Y1526542D02*
X2036824D01*
X2014274Y1526092D02*
X2036824D01*
X2013824Y1525642D02*
X2036824D01*
X2013374Y1525192D02*
X2036824D01*
X2012924Y1524742D02*
X2036824D01*
X2012474Y1524292D02*
X2036824D01*
X2012175Y1523842D02*
X2036806D01*
X2011488Y1521142D02*
X2036824D01*
X2011038Y1520692D02*
X2036824D01*
X2010805Y1520242D02*
X2036824D01*
X2012036Y1519792D02*
X2036824D01*
X2012361Y1519342D02*
X2036824D01*
X2012492Y1518892D02*
X2036824D01*
X2012481Y1518442D02*
X2036824D01*
X2012325Y1517992D02*
X2036824D01*
X2011953Y1517542D02*
X2036824D01*
X2009776Y1517092D02*
X2036824D01*
X2009776Y1516642D02*
X2036824D01*
X2009776Y1516192D02*
X2036824D01*
X2011571Y1515742D02*
X2036824D01*
X2012174Y1515292D02*
X2036824D01*
X2012422Y1514842D02*
X2036824D01*
X2012503Y1514392D02*
X2036824D01*
X2012446Y1513942D02*
X2036824D01*
X2012232Y1513492D02*
X2036824D01*
X2011732Y1513042D02*
X2036824D01*
X2010853Y1512592D02*
X2036824D01*
X2011303Y1512142D02*
X2036824D01*
X2014802Y1511692D02*
X2036824D01*
X2015193Y1511242D02*
X2036824D01*
X2015341Y1510792D02*
X2036824D01*
X2015328Y1510342D02*
X2036824D01*
X2015151Y1509892D02*
X2036824D01*
X2014692Y1509442D02*
X2036824D01*
X2011329Y1508992D02*
X2036754D01*
X2011938Y1521592D02*
X2036557D01*
X2012266Y1508542D02*
X2036304D01*
X2012619Y1508092D02*
X2035854D01*
X2012747Y1507642D02*
X2035404D01*
X2012718Y1507192D02*
X2034954D01*
X2012519Y1506742D02*
X2034504D01*
X2016423Y1506292D02*
X2034082D01*
X2016851Y1505392D02*
X2033956D01*
X2016805Y1504942D02*
X2033956D01*
X2016583Y1504492D02*
X2033956D01*
X2015985Y1504042D02*
X2033956D01*
X2012624Y1503592D02*
X2033956D01*
X2016742Y1505842D02*
X2033921D01*
X2012624Y1503142D02*
X2033560D01*
X2012779Y1502692D02*
X2033110D01*
X2013229Y1502242D02*
X2032660D01*
X2013679Y1501792D02*
X2032210D01*
X2014129Y1501342D02*
X2031760D01*
X2014579Y1500892D02*
X2031310D01*
X2015029Y1500442D02*
X2030860D01*
X2015479Y1499992D02*
X2030410D01*
X2015929Y1499542D02*
X2029960D01*
X2014235Y1504042D02*
X2015023D01*
X2010880Y1509442D02*
X2013316D01*
X2012624Y1504042D02*
X2013273D01*
X2011753Y1511692D02*
X2013206D01*
X2012669Y1506292D02*
X2012832D01*
X2009776Y1515742D02*
X2010437D01*
X2009804Y1517542D02*
X2010055D01*
X2036033Y1500442D02*
X2036824D01*
X2035583Y1499992D02*
X2036824D01*
X2035133Y1499542D02*
X2036824D01*
X2036483Y1500892D02*
X2036822D01*
X2034683Y1499092D02*
X2036821D01*
X2034233Y1498642D02*
X2036404D01*
X2033783Y1498192D02*
X2035954D01*
X2033333Y1497742D02*
X2035504D01*
X2032883Y1497292D02*
X2035054D01*
X2032433Y1496842D02*
X2034604D01*
X2031991Y1496392D02*
X2034154D01*
X2016879Y1492342D02*
X2036824D01*
X2017329Y1491892D02*
X2036824D01*
X2017779Y1491442D02*
X2036824D01*
X2018979Y1488742D02*
X2036824D01*
X2019429Y1488292D02*
X2036824D01*
X2019879Y1487842D02*
X2036824D01*
X2020329Y1487392D02*
X2036824D01*
X2020779Y1486942D02*
X2036824D01*
X2021229Y1486492D02*
X2036824D01*
X2018871Y1489192D02*
X2036694D01*
X2012435Y1479742D02*
X2020476D01*
X2012885Y1479292D02*
X2020476D01*
X2013335Y1478842D02*
X2020476D01*
X2013785Y1478392D02*
X2020476D01*
X2014235Y1477942D02*
X2020476D01*
X2014685Y1477492D02*
X2020476D01*
X2015135Y1477042D02*
X2020476D01*
X2011985Y1480192D02*
X2020201D01*
X2011535Y1480642D02*
X2019751D01*
X2011085Y1481092D02*
X2019301D01*
X2010635Y1481542D02*
X2018851D01*
X2010185Y1481992D02*
X2018401D01*
X2009735Y1482442D02*
X2017951D01*
X2009285Y1482892D02*
X2017501D01*
X2008835Y1483342D02*
X2017051D01*
X2008385Y1483792D02*
X2016601D01*
X2007935Y1484242D02*
X2016151D01*
X2007485Y1484692D02*
X2015701D01*
X2007035Y1485142D02*
X2015251D01*
X2006585Y1485592D02*
X2014801D01*
X2006135Y1486042D02*
X2014351D01*
X2005754Y1486492D02*
X2013901D01*
X2005754Y1486942D02*
X2013451D01*
X2005754Y1487392D02*
X2013001D01*
X2005754Y1487842D02*
X2012551D01*
X2005754Y1488292D02*
X2012101D01*
X2005754Y1488742D02*
X2011651D01*
X2005755Y1489192D02*
X2011201D01*
X2007500Y1489642D02*
X2010751D01*
X2007773Y1490092D02*
X2010301D01*
X2007854Y1490542D02*
X2009851D01*
X2007781Y1490992D02*
X2009401D01*
X2010135Y1477042D02*
X2012303D01*
X2009685Y1477492D02*
X2011857D01*
X2009235Y1477942D02*
X2011407D01*
X2008785Y1478392D02*
X2010957D01*
X2008335Y1478842D02*
X2010507D01*
X2007885Y1479292D02*
X2010057D01*
X2007435Y1479742D02*
X2009607D01*
X2006985Y1480192D02*
X2009157D01*
X2006535Y1480642D02*
X2008707D01*
X2006085Y1481092D02*
X2008257D01*
X2005635Y1481542D02*
X2007807D01*
X2005185Y1481992D02*
X2007357D01*
X2004735Y1482442D02*
X2006907D01*
X2004287Y1482892D02*
X2006457D01*
X2004254Y1483342D02*
X2006007D01*
X2004254Y1483792D02*
X2005557D01*
X2004254Y1484242D02*
X2005107D01*
X2004254Y1484692D02*
X2004657D01*
X2005135Y1477042D02*
X2007303D01*
X2004685Y1477492D02*
X2006857D01*
X2004235Y1477942D02*
X2006407D01*
X2003785Y1478392D02*
X2005957D01*
X2003335Y1478842D02*
X2005507D01*
X2002885Y1479292D02*
X2005057D01*
X2002504Y1479742D02*
X2004607D01*
X2002504Y1480192D02*
X2004157D01*
X2002504Y1480642D02*
X2003707D01*
X2002504Y1481092D02*
X2003257D01*
X2002516Y1481542D02*
X2002807D01*
X2022429Y1483792D02*
X2036824D01*
X2022879Y1483342D02*
X2036824D01*
X2023329Y1482892D02*
X2036824D01*
X2023779Y1482442D02*
X2036824D01*
X2024229Y1481992D02*
X2036824D01*
X2024679Y1481542D02*
X2036824D01*
X2027227Y1477492D02*
X2038120D01*
X2027454Y1477042D02*
X2038120D01*
X2029239Y1476592D02*
X2038120D01*
X2029314Y1476142D02*
X2038120D01*
X2029314Y1475692D02*
X2038120D01*
X2026779Y1477942D02*
X2036913D01*
X2025879Y1478842D02*
X2036824D01*
X2026329Y1478392D02*
X2036824D01*
X1968504Y1580764D02*
X1992357D01*
X1968504D02*
X1973504Y1581764D01*
Y1579764*
X1968504Y1580764*
X2039370D02*
X2015516D01*
X2039370D02*
X2034370Y1579764D01*
Y1581764*
X2039370Y1580764*
X1968504Y1576681D02*
Y1582764D01*
X2039370Y1576681D02*
Y1582764D01*
X2055243Y1474288D02*
Y1519610D01*
Y1474288D02*
X2054243Y1479288D01*
X2056243*
X2055243Y1474288*
Y1574681D02*
Y1529360D01*
Y1574681D02*
X2056243Y1569681D01*
X2054243*
X2055243Y1574681*
X2041370Y1474288D02*
X2057243D01*
X2041370Y1574681D02*
X2057243D01*
G54D115*
X2039370Y1545193D03*
X1968504Y1530193D03*
X1996476Y1474287D03*
X2039370Y1530193D03*
X1968504Y1525193D03*
X2001476Y1474287D03*
X2039370Y1525193D03*
X1968504Y1520193D03*
X2006476Y1474287D03*
X2039370Y1520193D03*
X1968504Y1515193D03*
X1981476Y1474287D03*
X2011476D03*
X2039370Y1515193D03*
X1968504Y1510193D03*
X2016476Y1474287D03*
X2039370Y1510193D03*
X1968504Y1505193D03*
X2021476Y1474287D03*
X2039370Y1505193D03*
X1968504Y1500193D03*
X2026476Y1474287D03*
X1968504Y1545193D03*
X2039370Y1500193D03*
X1968504Y1495193D03*
X2039370D03*
X1968504Y1490193D03*
X2039370D03*
X1968504Y1485193D03*
X2039370D03*
X1968504Y1480193D03*
X2039384D03*
X1968504Y1540193D03*
X1986476Y1474287D03*
X2039370Y1540193D03*
X1968504Y1535193D03*
X1991476Y1474287D03*
X2039370Y1535193D03*
G54D120*
X1970459Y1476146D03*
X1977004Y1481803D03*
X1977662Y1476208D03*
X1974880D03*
X1973754Y1482053D03*
Y1479303D03*
X1976254Y1479053D03*
X1978754D03*
X1983004Y1481303D03*
X1975254Y1484053D03*
X1984504Y1479303D03*
X1986004Y1481303D03*
X1988254Y1479303D03*
X1993004Y1479803D03*
X1990754Y1481053D03*
X1995004Y1483803D03*
Y1481303D03*
X2003504Y1479803D03*
X2009004Y1479303D03*
X2013004Y1480803D03*
X2006504Y1481803D03*
X2015754Y1480803D03*
X2017754Y1479303D03*
X2031754Y1476303D03*
X2026754Y1481803D03*
X2031754Y1482053D03*
X2033254Y1478303D03*
X2030254D03*
X2024504Y1483303D03*
X2029254D03*
X2037254Y1476303D03*
X2034004Y1483303D03*
X2034754Y1476303D03*
X1973717Y1492931D03*
X1975504Y1489803D03*
X1973754Y1487803D03*
X1980304Y1491503D03*
Y1486503D03*
X2006754Y1486553D03*
X2021504Y1491803D03*
X2021754Y1488303D03*
X2028004Y1486803D03*
X2023754D03*
X2030004Y1488303D03*
X2027504Y1491803D03*
X2024742Y1491786D03*
X2032004Y1486803D03*
X2030797Y1491849D03*
X2025754Y1488303D03*
X2034504Y1491803D03*
X2034104Y1488403D03*
X1973404Y1497603D03*
X1980304Y1496503D03*
X2018504Y1501553D03*
X2021004Y1500553D03*
X2020754Y1503053D03*
X2017754Y1504053D03*
X2023404Y1502903D03*
X2031004Y1502553D03*
X2029004Y1500803D03*
X2026504D03*
X2023754Y1500553D03*
X2033804Y1497203D03*
X1980254Y1511803D03*
X1977754Y1507553D03*
X1979504Y1509303D03*
X1992000Y1511777D03*
Y1508777D03*
X2001000Y1511777D03*
Y1508777D03*
X1995000Y1511777D03*
X1998000Y1508777D03*
X1995000D03*
X1998000Y1511777D03*
X2004000Y1508777D03*
Y1511777D03*
X2022254Y1505153D03*
X2018004Y1508303D03*
X2019504Y1510303D03*
X2017754Y1512053D03*
X2019304Y1506103D03*
X2024754Y1505153D03*
X1992004Y1517803D03*
Y1520803D03*
Y1514803D03*
X2001004D03*
X1998004D03*
X2001004Y1520803D03*
Y1517803D03*
X1998004D03*
X1995004Y1514803D03*
X1998004Y1520803D03*
X1995004D03*
Y1517803D03*
X2004004Y1514803D03*
Y1520803D03*
Y1517803D03*
X2030254Y1521053D03*
X2027004D03*
X2028754Y1519053D03*
X1973254Y1527303D03*
X1975754Y1533803D03*
X2003254D03*
Y1531303D03*
X2010254Y1529803D03*
X2013004Y1532053D03*
X2008004Y1532803D03*
X2010504Y1532303D03*
X2021004Y1530303D03*
X2022754Y1524803D03*
X2023004Y1532053D03*
X2016504Y1532553D03*
X2020004Y1532803D03*
X2018004Y1530303D03*
X2015004D03*
X2025254Y1534053D03*
X2031254Y1533803D03*
X2029004Y1531803D03*
X2026504Y1529303D03*
X2025504Y1525303D03*
X2031904Y1524403D03*
X2028204Y1524503D03*
X2031704Y1528103D03*
X2030104Y1526203D03*
X1973254Y1534553D03*
X1973504Y1543303D03*
X1978254Y1535053D03*
X1981004Y1534553D03*
X1983504Y1543803D03*
X1983754Y1535303D03*
X1988504Y1543803D03*
X1991004D03*
X1986004D03*
X2003004Y1538803D03*
Y1536303D03*
X2000504Y1543803D03*
X2003004D03*
X2012254Y1536053D03*
X2012504Y1538553D03*
X2010004Y1538053D03*
X2012254Y1541053D03*
X2009504Y1540803D03*
X2008004Y1536303D03*
X2010004Y1534803D03*
X2005504Y1543553D03*
X2003754Y1541303D03*
X2021004Y1537053D03*
X2021754Y1534553D03*
X2023504Y1539053D03*
X2023254Y1541553D03*
X2018254Y1538553D03*
X2019004Y1535303D03*
X2020754Y1539553D03*
X2016504Y1536053D03*
X2015254Y1538303D03*
X2014254Y1534303D03*
X2020504Y1542803D03*
X2018004Y1541553D03*
X2015004Y1541053D03*
X2027504Y1535803D03*
X2023754Y1536303D03*
X2026254Y1538303D03*
X2028504Y1540053D03*
X2026004Y1541303D03*
X2028504Y1542703D03*
X2033504Y1535303D03*
X2032254Y1541053D03*
X2031004Y1543303D03*
X2025504Y1544053D03*
X2030754Y1538803D03*
X2034504Y1537803D03*
X2034254Y1542553D03*
X1971504Y1548803D03*
X1973504Y1546303D03*
X1974254Y1548803D03*
X1977254D03*
X1980604D03*
X1980754Y1545303D03*
X1982504Y1547053D03*
X1977504Y1544553D03*
X1978754Y1546803D03*
X1976004Y1546553D03*
X1987504Y1546303D03*
X1984604Y1548803D03*
X1988204D03*
X1991604D03*
X1990004Y1546553D03*
X1985004Y1546303D03*
X1992504D03*
X1997254Y1548803D03*
X2000254D03*
X2003504D03*
X1998004Y1545053D03*
X1994504Y1548803D03*
X2003004Y1546303D03*
X2000254D03*
X1995254Y1546053D03*
X2008754Y1547303D03*
X2010754Y1548803D03*
X2013254Y1548053D03*
X2013004Y1545553D03*
X2010504D03*
X2007504Y1545053D03*
X2006754Y1548803D03*
X2005504Y1546553D03*
X2022504Y1544303D03*
X2015754Y1548803D03*
X2019504Y1549053D03*
X2017754Y1547303D03*
X2015754Y1545803D03*
X2030004Y1548803D03*
X2027004D03*
X2024254D03*
Y1546303D03*
X2030004Y1545803D03*
X2032754Y1548803D03*
X2033004Y1544803D03*
X2027004Y1546303D03*
X2036254Y1548803D03*
X2034504Y1547053D03*
G74*
X0Y0D02*
M02*
