*
*
G04 PADS 9.5 Build Number: 522968 generated Gerber (RS-274-X) file*
G04 PC Version=2.1*
*
%IN "ESP32_WROOM_32D_5X5_V2-"*%
*
%MOIN*%
*
%FSLAX35Y35*%
*
*
*
*
G04 PC Standard Apertures*
*
*
G04 Thermal Relief Aperture macro.*
%AMTER*
1,1,$1,0,0*
1,0,$1-$2,0,0*
21,0,$3,$4,0,0,45*
21,0,$3,$4,0,0,135*
%
*
*
G04 Annular Aperture macro.*
%AMANN*
1,1,$1,0,0*
1,0,$2,0,0*
%
*
*
G04 Odd Aperture macro.*
%AMODD*
1,1,$1,0,0*
1,0,$1-0.005,0,0*
%
*
*
G04 PC Custom Aperture Macros*
*
*
*
*
*
*
G04 PC Aperture Table*
*
%ADD010C,0.001*%
%ADD043C,0.008*%
%ADD044C,0.01*%
%ADD048C,0.006*%
%ADD109C,0.005*%
%ADD131C,0.00787*%
%ADD173C,0.00598*%
%ADD198C,0.002*%
*
*
*
*
G04 PC Circuitry*
G04 Layer Name ESP32_WROOM_32D_5X5_V2- - circuitry*
%LPD*%
*
G54D10*
G01X2064426Y1524213D02*
X2064383Y1524514D01*
X2064259Y1524762*
X2064057Y1524883*
X2063763Y1524925*
X2063549Y1524882*
X2063382Y1524840*
X2063219Y1524718*
X2063090Y1524503*
X2063003Y1524507*
X2062917Y1524678*
X2062796Y1524799*
X2062587Y1524883*
X2062379Y1524924*
X2062214Y1524883*
X2062004Y1524799*
X2061743Y1524538*
X2061743D02*
X2061658Y1524574D01*
Y1524881*
X2061356*
Y1522660*
X2061658*
Y1524083*
X2061660Y1524095*
X2061704Y1524273*
X2061714Y1524293*
X2061937Y1524561*
X2061962Y1524577*
X2062275Y1524667*
X2062300*
X2062479Y1524622*
X2062495Y1524615*
X2062629Y1524526*
X2062646Y1524507*
X2062735Y1524328*
X2062740Y1524306*
Y1522660*
X2063042*
Y1523949*
Y1523956*
X2063087Y1524268*
X2063097Y1524291*
X2063231Y1524470*
X2063241Y1524480*
X2063419Y1524614*
X2063439Y1524623*
X2063662Y1524668*
X2063682*
X2063905Y1524623*
X2063936Y1524604*
X2064069Y1524425*
X2064077Y1524411*
X2064122Y1524277*
X2064124Y1524261*
Y1522660*
X2064426*
Y1524213*
X2060676D02*
X2060633Y1524514D01*
X2060509Y1524762*
X2060307Y1524883*
X2060013Y1524925*
X2059799Y1524882*
X2059632Y1524840*
X2059469Y1524718*
X2059340Y1524503*
X2059253Y1524507*
X2059167Y1524678*
X2059046Y1524799*
X2058837Y1524883*
X2058629Y1524924*
X2058464Y1524883*
X2058254Y1524799*
X2057993Y1524538*
X2057993D02*
X2057908Y1524574D01*
Y1524881*
X2057606*
Y1522660*
X2057908*
Y1524083*
X2057910Y1524095*
X2057954Y1524273*
X2057964Y1524293*
X2058187Y1524561*
X2058212Y1524577*
X2058525Y1524667*
X2058550*
X2058729Y1524622*
X2058745Y1524615*
X2058879Y1524526*
X2058896Y1524507*
X2058985Y1524328*
X2058990Y1524306*
Y1522660*
X2059292*
Y1523949*
Y1523956*
X2059337Y1524268*
X2059347Y1524291*
X2059481Y1524470*
X2059491Y1524480*
X2059669Y1524614*
X2059689Y1524623*
X2059912Y1524668*
X2059932*
X2060155Y1524623*
X2060186Y1524604*
X2060319Y1524425*
X2060327Y1524411*
X2060372Y1524277*
X2060374Y1524261*
Y1522660*
X2060676*
Y1524213*
X2057015Y1524611D02*
X2056928Y1524916D01*
X2056753Y1525398*
X2056628Y1525565*
X2056464Y1525688*
X2056037Y1525773*
X2055741Y1525731*
X2055490Y1525605*
X2055323Y1525396*
X2055193Y1525094*
X2055106Y1524700*
X2055062Y1524170*
Y1523776*
X2055149Y1523426*
X2055236Y1523121*
X2055362Y1522912*
X2055657Y1522701*
X2056040Y1522616*
X2056336Y1522658*
X2056587Y1522783*
X2056754Y1522993*
X2056883Y1523295*
X2056971Y1523689*
X2057015Y1524174*
Y1524611*
X2056713Y1524529D02*
Y1523815D01*
Y1523807*
X2056668Y1523539*
Y1523537*
X2056623Y1523314*
X2056619Y1523301*
X2056530Y1523123*
X2056516Y1523106*
X2056293Y1522928*
X2056271Y1522918*
X2056048Y1522873*
X2056029*
X2055805Y1522918*
X2055784Y1522928*
X2055561Y1523106*
X2055547Y1523123*
X2055458Y1523301*
X2055454Y1523314*
X2055409Y1523537*
Y1523539*
X2055364Y1523807*
X2055363Y1523815*
Y1524529*
X2055364Y1524536*
X2055409Y1524849*
Y1524852*
X2055454Y1525075*
X2055458Y1525087*
X2055547Y1525266*
X2055561Y1525283*
X2055784Y1525461*
X2055805Y1525471*
X2056029Y1525516*
X2056047*
X2056314Y1525471*
X2056345Y1525453*
X2056524Y1525230*
X2056526Y1525227*
X2056616Y1525093*
X2056623Y1525075*
X2056668Y1524852*
Y1524849*
X2056713Y1524536*
Y1524529*
X2054515Y1523725D02*
X2054472Y1524109D01*
X2054261Y1524404*
X2053963Y1524617*
X2053625Y1524702*
X2053333Y1524660*
X2053075Y1524488*
X2052997Y1524529*
X2052998Y1524537*
X2053132Y1525385*
X2053181Y1525427*
X2054337*
Y1525729*
X2052910*
X2052615Y1524171*
X2052940Y1524135*
X2053146Y1524341*
X2053167Y1524354*
X2053480Y1524443*
X2053501Y1524445*
X2053813Y1524400*
X2053836Y1524391*
X2054015Y1524257*
X2054028Y1524242*
X2054162Y1524019*
X2054168Y1524001*
X2054213Y1523688*
Y1523674*
X2054168Y1523361*
X2054162Y1523343*
X2054028Y1523120*
X2054020Y1523110*
X2053842Y1522931*
X2053813Y1522917*
X2053501Y1522873*
X2053484*
X2053261Y1522918*
X2053248Y1522922*
X2053070Y1523011*
X2053047Y1523034*
X2052958Y1523212*
X2052955Y1523219*
X2052879Y1523448*
X2052574Y1523414*
X2052647Y1523122*
X2052858Y1522826*
X2053153Y1522658*
X2053493Y1522615*
X2053753Y1522659*
X2053964Y1522701*
X2054131Y1522826*
X2054302Y1522997*
X2054472Y1523295*
X2054515Y1523725*
X2051792Y1522961D02*
X2051490D01*
Y1522660*
X2051792*
Y1522961*
X2050765Y1523725D02*
X2050722Y1524109D01*
X2050511Y1524404*
X2050213Y1524617*
X2049875Y1524702*
X2049583Y1524660*
X2049325Y1524488*
X2049247Y1524529*
X2049248Y1524537*
X2049382Y1525385*
X2049431Y1525427*
X2050587*
Y1525729*
X2049160*
X2048865Y1524171*
X2049190Y1524135*
X2049396Y1524341*
X2049417Y1524354*
X2049730Y1524443*
X2049751Y1524445*
X2050063Y1524400*
X2050086Y1524391*
X2050265Y1524257*
X2050278Y1524242*
X2050412Y1524019*
X2050418Y1524001*
X2050463Y1523688*
Y1523674*
X2050418Y1523361*
X2050412Y1523343*
X2050278Y1523120*
X2050270Y1523110*
X2050092Y1522931*
X2050063Y1522917*
X2049751Y1522873*
X2049734*
X2049511Y1522918*
X2049498Y1522922*
X2049320Y1523011*
X2049297Y1523034*
X2049208Y1523212*
X2049205Y1523219*
X2049129Y1523448*
X2048824Y1523414*
X2048897Y1523122*
X2049108Y1522826*
X2049403Y1522658*
X2049743Y1522615*
X2050003Y1522659*
X2050214Y1522701*
X2050381Y1522826*
X2050552Y1522997*
X2050722Y1523295*
X2050765Y1523725*
X2048221Y1522961D02*
X2046708D01*
X2046669Y1523043*
X2046848Y1523266*
X2046857Y1523275*
X2047034Y1523408*
X2047300Y1523630*
X2047654Y1523939*
X2047874Y1524203*
X2048003Y1524375*
X2048089Y1524589*
X2048175Y1524934*
X2048133Y1525267*
X2047925Y1525517*
X2047627Y1525687*
X2047241Y1525773*
X2046858Y1525731*
X2046564Y1525563*
X2046352Y1525267*
X2046279Y1524974*
X2046579Y1524941*
X2046614Y1525119*
X2046623Y1525140*
X2046757Y1525318*
X2046767Y1525328*
X2046946Y1525462*
X2046968Y1525471*
X2047236Y1525516*
X2047254*
X2047477Y1525471*
X2047497Y1525462*
X2047676Y1525328*
X2047681Y1525323*
X2047815Y1525190*
X2047828Y1525164*
X2047873Y1524941*
Y1524921*
X2047828Y1524698*
X2047822Y1524682*
X2047688Y1524459*
X2047683Y1524452*
X2047416Y1524140*
X2047411Y1524135*
X2047008Y1523777*
X2046699Y1523512*
X2046350Y1523075*
X2046265Y1522864*
X2046231Y1522660*
X2048221*
Y1522961*
X2013745Y1580493D02*
X2013702Y1580794D01*
X2013578Y1581041*
X2013376Y1581163*
X2013082Y1581205*
X2012868Y1581162*
X2012701Y1581120*
X2012538Y1580998*
X2012409Y1580783*
X2012322Y1580786*
X2012236Y1580958*
X2012115Y1581079*
X2011906Y1581162*
X2011698Y1581204*
X2011534Y1581163*
X2011323Y1581079*
X2011062Y1580818*
X2010977Y1580853*
Y1581161*
X2010675*
Y1578939*
X2010977*
Y1580362*
X2010979Y1580375*
X2011023Y1580553*
X2011033Y1580573*
X2011256Y1580841*
X2011281Y1580857*
X2011594Y1580946*
X2011620Y1580947*
X2011798Y1580902*
X2011814Y1580895*
X2011948Y1580806*
X2011965Y1580787*
X2012054Y1580608*
X2012059Y1580586*
Y1578939*
X2012361*
Y1580228*
Y1580236*
X2012406Y1580548*
X2012416Y1580571*
X2012550Y1580750*
X2012560Y1580760*
X2012738Y1580893*
X2012758Y1580902*
X2012982Y1580947*
X2013001*
X2013224Y1580902*
X2013255Y1580883*
X2013388Y1580705*
X2013396Y1580691*
X2013441Y1580557*
X2013443Y1580541*
Y1578939*
X2013745*
Y1580493*
X2009995D02*
X2009952Y1580794D01*
X2009828Y1581041*
X2009626Y1581163*
X2009332Y1581205*
X2009118Y1581162*
X2008951Y1581120*
X2008788Y1580998*
X2008659Y1580783*
X2008572Y1580786*
X2008486Y1580958*
X2008365Y1581079*
X2008156Y1581162*
X2007948Y1581204*
X2007784Y1581163*
X2007573Y1581079*
X2007312Y1580818*
X2007227Y1580853*
Y1581161*
X2006925*
Y1578939*
X2007227*
Y1580362*
X2007229Y1580375*
X2007273Y1580553*
X2007283Y1580573*
X2007506Y1580841*
X2007531Y1580857*
X2007844Y1580946*
X2007870Y1580947*
X2008048Y1580902*
X2008064Y1580895*
X2008198Y1580806*
X2008215Y1580787*
X2008304Y1580608*
X2008309Y1580586*
Y1578939*
X2008611*
Y1580228*
Y1580236*
X2008656Y1580548*
X2008666Y1580571*
X2008800Y1580750*
X2008810Y1580760*
X2008988Y1580893*
X2009008Y1580902*
X2009232Y1580947*
X2009251*
X2009474Y1580902*
X2009505Y1580883*
X2009638Y1580705*
X2009646Y1580691*
X2009691Y1580557*
X2009693Y1580541*
Y1578939*
X2009995*
Y1580493*
X2006334Y1580891D02*
X2006247Y1581195D01*
X2006072Y1581678*
X2005947Y1581845*
X2005783Y1581967*
X2005356Y1582053*
X2005060Y1582010*
X2004809Y1581885*
X2004642Y1581676*
X2004512Y1581374*
X2004425Y1580980*
X2004381Y1580450*
Y1580056*
X2004468Y1579706*
X2004555Y1579400*
X2004681Y1579192*
X2004976Y1578980*
X2005359Y1578895*
X2005655Y1578938*
X2005906Y1579063*
X2006073Y1579272*
X2006202Y1579574*
X2006290Y1579968*
X2006334Y1580454*
Y1580891*
X2006032Y1580809D02*
Y1580095D01*
Y1580086*
X2005987Y1579818*
Y1579817*
X2005942Y1579594*
X2005938Y1579581*
X2005849Y1579403*
X2005835Y1579386*
X2005612Y1579207*
X2005590Y1579197*
X2005367Y1579153*
X2005348*
X2005124Y1579197*
X2005103Y1579207*
X2004880Y1579386*
X2004866Y1579403*
X2004777Y1579581*
X2004773Y1579594*
X2004728Y1579817*
Y1579818*
X2004683Y1580086*
X2004682Y1580095*
Y1580809*
X2004683Y1580816*
X2004728Y1581128*
Y1581131*
X2004773Y1581354*
X2004777Y1581367*
X2004866Y1581545*
X2004880Y1581562*
X2005103Y1581741*
X2005124Y1581751*
X2005348Y1581795*
X2005366Y1581796*
X2005633Y1581751*
X2005664Y1581733*
X2005843Y1581510*
X2005845Y1581506*
X2005935Y1581372*
X2005942Y1581354*
X2005987Y1581131*
Y1581128*
X2006032Y1580816*
Y1580809*
X2003834Y1580891D02*
X2003747Y1581195D01*
X2003572Y1581678*
X2003447Y1581845*
X2003283Y1581967*
X2002856Y1582053*
X2002560Y1582010*
X2002309Y1581885*
X2002142Y1581676*
X2002012Y1581374*
X2001925Y1580980*
X2001881Y1580450*
Y1580056*
X2001968Y1579706*
X2002055Y1579400*
X2002181Y1579192*
X2002476Y1578980*
X2002859Y1578895*
X2003155Y1578938*
X2003406Y1579063*
X2003573Y1579272*
X2003702Y1579574*
X2003790Y1579968*
X2003834Y1580454*
Y1580891*
X2003532Y1580809D02*
Y1580095D01*
Y1580086*
X2003487Y1579818*
Y1579817*
X2003442Y1579594*
X2003438Y1579581*
X2003349Y1579403*
X2003335Y1579386*
X2003112Y1579207*
X2003090Y1579197*
X2002867Y1579153*
X2002848*
X2002624Y1579197*
X2002603Y1579207*
X2002380Y1579386*
X2002366Y1579403*
X2002277Y1579581*
X2002273Y1579594*
X2002228Y1579817*
Y1579818*
X2002183Y1580086*
X2002182Y1580095*
Y1580809*
X2002183Y1580816*
X2002228Y1581128*
Y1581131*
X2002273Y1581354*
X2002277Y1581367*
X2002366Y1581545*
X2002380Y1581562*
X2002603Y1581741*
X2002624Y1581751*
X2002848Y1581795*
X2002866Y1581796*
X2003133Y1581751*
X2003164Y1581733*
X2003343Y1581510*
X2003345Y1581506*
X2003435Y1581372*
X2003442Y1581354*
X2003487Y1581131*
Y1581128*
X2003532Y1580816*
Y1580809*
X2001111Y1579241D02*
X2000809D01*
Y1578939*
X2001111*
Y1579241*
X2000083Y1579828D02*
X2000041Y1580081D01*
X1999958Y1580290*
X1999792Y1580455*
X1999531Y1580586*
X1999528Y1580673*
X1999746Y1580804*
X1999870Y1580928*
X1999953Y1581094*
X1999994Y1581258*
X1999952Y1581592*
X1999743Y1581843*
X1999492Y1582010*
X1999107Y1582053*
X1998723Y1582010*
X1998472Y1581843*
X1998262Y1581591*
X1998221Y1581301*
X1998262Y1581093*
X1998345Y1580928*
X1998469Y1580804*
X1998687Y1580673*
X1998677Y1580583*
X1998420Y1580497*
X1998258Y1580335*
X1998174Y1580082*
X1998132Y1579828*
X1998217Y1579443*
X1998386Y1579148*
X1998722Y1578938*
X1999107Y1578895*
X1999492Y1578938*
X1999829Y1579148*
X1999998Y1579443*
X2000083Y1579828*
X1999692Y1581243D02*
X1999647Y1581065D01*
X1999640Y1581049*
X1999551Y1580915*
X1999532Y1580898*
X1999353Y1580809*
X1999340Y1580804*
X1999117Y1580760*
X1999098*
X1998874Y1580804*
X1998862Y1580809*
X1998683Y1580898*
X1998664Y1580915*
X1998575Y1581049*
X1998567Y1581067*
X1998523Y1581290*
Y1581312*
X1998568Y1581491*
X1998575Y1581506*
X1998664Y1581640*
X1998683Y1581657*
X1998862Y1581746*
X1998874Y1581751*
X1999098Y1581795*
X1999117*
X1999340Y1581751*
X1999353Y1581746*
X1999532Y1581657*
X1999554Y1581635*
X1999643Y1581456*
X1999647Y1581446*
X1999692Y1581267*
Y1581243*
X1999782Y1579827D02*
Y1579818D01*
X1999737Y1579551*
X1999728Y1579529*
X1999594Y1579350*
X1999584Y1579340*
X1999405Y1579206*
X1999383Y1579197*
X1999116Y1579152*
X1999107*
X1998929*
X1998901Y1579160*
X1998770Y1579248*
X1998594Y1579336*
X1998575Y1579353*
X1998485Y1579486*
X1998478Y1579507*
X1998433Y1579820*
X1998432Y1579827*
X1998433Y1579836*
X1998478Y1580060*
X1998484Y1580076*
X1998618Y1580299*
X1998631Y1580313*
X1998810Y1580447*
X1998831Y1580456*
X1999099Y1580501*
X1999116*
X1999383Y1580456*
X1999405Y1580447*
X1999584Y1580313*
X1999597Y1580299*
X1999731Y1580076*
X1999737Y1580060*
X1999781Y1579836*
X1999782Y1579827*
X1997004Y1582053D02*
X1996814D01*
X1996695Y1581855*
X1996687Y1581845*
X1996464Y1581622*
X1996457Y1581615*
X1996189Y1581437*
X1996186Y1581435*
X1995898Y1581271*
Y1580979*
X1996268Y1581164*
X1996622Y1581429*
X1996702Y1581389*
Y1578939*
X1997004*
Y1582053*
X1995900Y1580980D02*
Y1581272D01*
X1996000Y1581030D02*
Y1581329D01*
X1996100Y1581080D02*
Y1581386D01*
X1996200Y1581130D02*
Y1581444D01*
X1996300Y1581188D02*
Y1581511D01*
X1996400Y1581263D02*
Y1581578D01*
X1996500Y1581338D02*
Y1581658D01*
X1996600Y1581413D02*
Y1581758D01*
X1996700Y1581403D02*
Y1581863D01*
X1996800Y1578939D02*
Y1582030D01*
X1996900Y1578939D02*
Y1582053D01*
X1997000Y1578939D02*
Y1582053D01*
X1998200Y1579520D02*
Y1580161D01*
X1998300Y1579298D02*
Y1580377D01*
Y1581018D02*
Y1581637D01*
X1998400Y1579139D02*
Y1580477D01*
Y1580873D02*
Y1581757D01*
X1998500Y1579077D02*
Y1579465D01*
Y1580102D02*
Y1580524D01*
Y1580785D02*
Y1581862D01*
X1998600Y1579014D02*
Y1579332D01*
Y1580269D02*
Y1580557D01*
Y1580725D02*
Y1581011D01*
Y1581544D02*
Y1581928D01*
X1998700Y1578952D02*
Y1579282D01*
Y1580365D02*
Y1580599D01*
Y1580661D02*
Y1580890D01*
Y1581665D02*
Y1581995D01*
X1998800Y1578929D02*
Y1579227D01*
Y1580440D02*
Y1580840D01*
Y1581715D02*
Y1582019D01*
X1998900Y1578918D02*
Y1579161D01*
Y1580468D02*
Y1580799D01*
Y1581756D02*
Y1582030D01*
X1999000Y1578907D02*
Y1579152D01*
Y1580484D02*
Y1580779D01*
Y1581776D02*
Y1582041D01*
X1999100Y1578896D02*
Y1579152D01*
Y1580501D02*
Y1580759D01*
Y1581796D02*
Y1582052D01*
X1999200Y1578905D02*
Y1579166D01*
Y1580487D02*
Y1580776D01*
Y1581779D02*
Y1582043D01*
X1999300Y1578916D02*
Y1579183D01*
Y1580470D02*
Y1580796D01*
Y1581759D02*
Y1582032D01*
X1999400Y1578927D02*
Y1579203D01*
Y1580450D02*
Y1580832D01*
Y1581723D02*
Y1582021D01*
X1999500Y1578942D02*
Y1579277D01*
Y1580376D02*
Y1580882D01*
Y1581673D02*
Y1582005D01*
X1999600Y1579005D02*
Y1579358D01*
Y1580293D02*
Y1580551D01*
Y1580716D02*
Y1580989D01*
Y1581543D02*
Y1581938D01*
X1999700Y1579067D02*
Y1579492D01*
Y1580127D02*
Y1580501D01*
Y1580776D02*
Y1581872D01*
X1999800Y1579130D02*
Y1580447D01*
Y1580858D02*
Y1581775D01*
X1999900Y1579272D02*
Y1580347D01*
Y1580988D02*
Y1581655D01*
X2000000Y1579453D02*
Y1580184D01*
X2000900Y1578939D02*
Y1579241D01*
X2001000Y1578939D02*
Y1579241D01*
X2001100Y1578939D02*
Y1579241D01*
X2001900Y1579978D02*
Y1580682D01*
X2002000Y1579594D02*
Y1581318D01*
X2002100Y1579326D02*
Y1581578D01*
X2002200Y1579178D02*
Y1579985D01*
Y1580936D02*
Y1581749D01*
X2002300Y1579106D02*
Y1579535D01*
Y1581413D02*
Y1581874D01*
X2002400Y1579035D02*
Y1579370D01*
Y1581578D02*
Y1581930D01*
X2002500Y1578975D02*
Y1579290D01*
Y1581658D02*
Y1581980D01*
X2002600Y1578953D02*
Y1579210D01*
Y1581738D02*
Y1582016D01*
X2002700Y1578931D02*
Y1579182D01*
Y1581766D02*
Y1582030D01*
X2002800Y1578909D02*
Y1579162D01*
Y1581786D02*
Y1582045D01*
X2002900Y1578901D02*
Y1579159D01*
Y1581790D02*
Y1582044D01*
X2003000Y1578915D02*
Y1579179D01*
Y1581773D02*
Y1582024D01*
X2003100Y1578930D02*
Y1579200D01*
Y1581757D02*
Y1582004D01*
X2003200Y1578960D02*
Y1579278D01*
Y1581688D02*
Y1581984D01*
X2003300Y1579010D02*
Y1579358D01*
Y1581563D02*
Y1581955D01*
X2003400Y1579060D02*
Y1579505D01*
Y1581424D02*
Y1581880D01*
X2003500Y1579181D02*
Y1579896D01*
Y1581039D02*
Y1581773D01*
X2003600Y1579335D02*
Y1581600D01*
X2003700Y1579569D02*
Y1581325D01*
X2003800Y1580078D02*
Y1581011D01*
X2004400Y1579978D02*
Y1580682D01*
X2004500Y1579594D02*
Y1581318D01*
X2004600Y1579326D02*
Y1581578D01*
X2004700Y1579178D02*
Y1579985D01*
Y1580936D02*
Y1581749D01*
X2004800Y1579106D02*
Y1579535D01*
Y1581413D02*
Y1581874D01*
X2004900Y1579035D02*
Y1579370D01*
Y1581578D02*
Y1581930D01*
X2005000Y1578975D02*
Y1579290D01*
Y1581658D02*
Y1581980D01*
X2005100Y1578953D02*
Y1579210D01*
Y1581738D02*
Y1582016D01*
X2005200Y1578931D02*
Y1579182D01*
Y1581766D02*
Y1582030D01*
X2005300Y1578909D02*
Y1579162D01*
Y1581786D02*
Y1582045D01*
X2005400Y1578901D02*
Y1579159D01*
Y1581790D02*
Y1582044D01*
X2005500Y1578915D02*
Y1579179D01*
Y1581773D02*
Y1582024D01*
X2005600Y1578930D02*
Y1579200D01*
Y1581757D02*
Y1582004D01*
X2005700Y1578960D02*
Y1579278D01*
Y1581688D02*
Y1581984D01*
X2005800Y1579010D02*
Y1579358D01*
Y1581563D02*
Y1581955D01*
X2005900Y1579060D02*
Y1579505D01*
Y1581424D02*
Y1581880D01*
X2006000Y1579181D02*
Y1579896D01*
Y1581039D02*
Y1581773D01*
X2006100Y1579335D02*
Y1581600D01*
X2006200Y1579569D02*
Y1581325D01*
X2006300Y1580078D02*
Y1581011D01*
X2007000Y1578939D02*
Y1581161D01*
X2007100Y1578939D02*
Y1581161D01*
X2007200Y1578939D02*
Y1581161D01*
X2007300Y1580593D02*
Y1580809D01*
X2007400Y1580713D02*
Y1580906D01*
X2007500Y1580833D02*
Y1581006D01*
X2007600Y1580877D02*
Y1581090D01*
X2007700Y1580905D02*
Y1581130D01*
X2007800Y1580934D02*
Y1581167D01*
X2007900Y1580939D02*
Y1581192D01*
X2008000Y1580914D02*
Y1581194D01*
X2008100Y1580871D02*
Y1581174D01*
X2008200Y1580804D02*
Y1581145D01*
X2008300Y1580616D02*
Y1581105D01*
X2008400Y1578939D02*
Y1581044D01*
X2008500Y1578939D02*
Y1580930D01*
X2008600Y1578939D02*
Y1580762D01*
X2008700Y1580617D02*
Y1580851D01*
X2008800Y1580750D02*
Y1581007D01*
X2008900Y1580827D02*
Y1581082D01*
X2009000Y1580900D02*
Y1581132D01*
X2009100Y1580921D02*
Y1581157D01*
X2009200Y1580941D02*
Y1581178D01*
X2009300Y1580937D02*
Y1581198D01*
X2009400Y1580917D02*
Y1581195D01*
X2009500Y1580889D02*
Y1581181D01*
X2009600Y1580756D02*
Y1581166D01*
X2009700Y1578939D02*
Y1581118D01*
X2009800Y1578939D02*
Y1581058D01*
X2009900Y1578939D02*
Y1580897D01*
X2010700Y1578939D02*
Y1581161D01*
X2010800Y1578939D02*
Y1581161D01*
X2010900Y1578939D02*
Y1581161D01*
X2011000Y1580460D02*
Y1580811D01*
X2011100Y1580653D02*
Y1580856D01*
X2011200Y1580773D02*
Y1580956D01*
X2011300Y1580862D02*
Y1581056D01*
X2011400Y1580891D02*
Y1581110D01*
X2011500Y1580919D02*
Y1581150D01*
X2011600Y1580948D02*
Y1581180D01*
X2011700Y1580926D02*
Y1581204D01*
X2011800Y1580901D02*
Y1581184D01*
X2011900Y1580838D02*
Y1581164D01*
X2012000Y1580716D02*
Y1581125D01*
X2012100Y1578939D02*
Y1581085D01*
X2012200Y1578939D02*
Y1580994D01*
X2012300Y1578939D02*
Y1580830D01*
X2012400Y1580505D02*
Y1580772D01*
X2012500Y1580683D02*
Y1580934D01*
X2012600Y1580790D02*
Y1581044D01*
X2012700Y1580865D02*
Y1581119D01*
X2012800Y1580911D02*
Y1581145D01*
X2012900Y1580931D02*
Y1581168D01*
X2013000Y1580947D02*
Y1581188D01*
X2013100Y1580927D02*
Y1581202D01*
X2013200Y1580907D02*
Y1581188D01*
X2013300Y1580823D02*
Y1581173D01*
X2013400Y1580678D02*
Y1581148D01*
X2013500Y1578939D02*
Y1581088D01*
X2013600Y1578939D02*
Y1580997D01*
X2013700Y1578939D02*
Y1580797D01*
X2046300Y1522660D02*
Y1522950D01*
Y1524972D02*
Y1525057D01*
X2046400Y1522660D02*
Y1523138D01*
Y1524961D02*
Y1525333D01*
X2046500Y1522660D02*
Y1523263D01*
Y1524950D02*
Y1525473D01*
X2046600Y1522660D02*
Y1523388D01*
Y1525048D02*
Y1525583D01*
X2046700Y1522660D02*
Y1522962D01*
Y1523081D02*
Y1523513D01*
Y1525242D02*
Y1525641D01*
X2046800Y1522660D02*
Y1522961D01*
Y1523206D02*
Y1523598D01*
Y1525353D02*
Y1525698D01*
X2046900Y1522660D02*
Y1522961D01*
Y1523307D02*
Y1523684D01*
Y1525428D02*
Y1525735D01*
X2047000Y1522660D02*
Y1522961D01*
Y1523382D02*
Y1523770D01*
Y1525477D02*
Y1525746D01*
X2047100Y1522660D02*
Y1522961D01*
Y1523463D02*
Y1523858D01*
Y1525493D02*
Y1525758D01*
X2047200Y1522660D02*
Y1522961D01*
Y1523546D02*
Y1523947D01*
Y1525510D02*
Y1525769D01*
X2047300Y1522660D02*
Y1522961D01*
Y1523629D02*
Y1524036D01*
Y1525506D02*
Y1525760D01*
X2047400Y1522660D02*
Y1522961D01*
Y1523717D02*
Y1524125D01*
Y1525486D02*
Y1525738D01*
X2047500Y1522660D02*
Y1522961D01*
Y1523804D02*
Y1524238D01*
Y1525460D02*
Y1525716D01*
X2047600Y1522660D02*
Y1522961D01*
Y1523892D02*
Y1524355D01*
Y1525385D02*
Y1525693D01*
X2047700Y1522660D02*
Y1522961D01*
Y1523994D02*
Y1524478D01*
Y1525304D02*
Y1525646D01*
X2047800Y1522660D02*
Y1522961D01*
Y1524114D02*
Y1524645D01*
Y1525204D02*
Y1525589D01*
X2047900Y1522660D02*
Y1522961D01*
Y1524238D02*
Y1525532D01*
X2048000Y1522660D02*
Y1522961D01*
Y1524371D02*
Y1525428D01*
X2048100Y1522660D02*
Y1522961D01*
Y1524634D02*
Y1525308D01*
X2048200Y1522660D02*
Y1522961D01*
X2048900Y1523118D02*
Y1523423D01*
Y1524167D02*
Y1524354D01*
X2049000Y1522978D02*
Y1523434D01*
Y1524156D02*
Y1524883D01*
X2049100Y1522838D02*
Y1523445D01*
Y1524145D02*
Y1525411D01*
X2049200Y1522774D02*
Y1523234D01*
Y1524145D02*
Y1525729D01*
X2049300Y1522717D02*
Y1523029D01*
Y1524245D02*
Y1524479D01*
Y1524867D02*
Y1525729D01*
X2049400Y1522659D02*
Y1522971D01*
Y1524345D02*
Y1524538D01*
Y1525416D02*
Y1525729D01*
X2049500Y1522646D02*
Y1522921D01*
Y1524378D02*
Y1524604D01*
Y1525427D02*
Y1525729D01*
X2049600Y1522633D02*
Y1522900D01*
Y1524406D02*
Y1524662D01*
Y1525427D02*
Y1525729D01*
X2049700Y1522621D02*
Y1522880D01*
Y1524435D02*
Y1524677D01*
Y1525427D02*
Y1525729D01*
X2049800Y1522625D02*
Y1522880D01*
Y1524438D02*
Y1524691D01*
Y1525427D02*
Y1525729D01*
X2049900Y1522642D02*
Y1522894D01*
Y1524423D02*
Y1524695D01*
Y1525427D02*
Y1525729D01*
X2050000Y1522658D02*
Y1522908D01*
Y1524409D02*
Y1524670D01*
Y1525427D02*
Y1525729D01*
X2050100Y1522678D02*
Y1522940D01*
Y1524380D02*
Y1524645D01*
Y1525427D02*
Y1525729D01*
X2050200Y1522698D02*
Y1523040D01*
Y1524305D02*
Y1524620D01*
Y1525427D02*
Y1525729D01*
X2050300Y1522766D02*
Y1523157D01*
Y1524205D02*
Y1524555D01*
Y1525427D02*
Y1525729D01*
X2050400Y1522845D02*
Y1523323D01*
Y1524039D02*
Y1524484D01*
Y1525427D02*
Y1525729D01*
X2050500Y1522945D02*
Y1524412D01*
Y1525427D02*
Y1525729D01*
X2050600Y1523082D02*
Y1524280D01*
X2050700Y1523257D02*
Y1524140D01*
X2051500Y1522660D02*
Y1522961D01*
X2051600Y1522660D02*
Y1522961D01*
X2051700Y1522660D02*
Y1522961D01*
X2052600Y1523310D02*
Y1523417D01*
X2052700Y1523048D02*
Y1523428D01*
Y1524162D02*
Y1524618D01*
X2052800Y1522908D02*
Y1523440D01*
Y1524151D02*
Y1525147D01*
X2052900Y1522802D02*
Y1523384D01*
Y1524140D02*
Y1525676D01*
X2053000Y1522745D02*
Y1523128D01*
Y1524195D02*
Y1524513D01*
Y1524550D02*
Y1525729D01*
X2053100Y1522688D02*
Y1522996D01*
Y1524295D02*
Y1524504D01*
Y1525184D02*
Y1525729D01*
X2053200Y1522652D02*
Y1522946D01*
Y1524363D02*
Y1524571D01*
Y1525427D02*
Y1525729D01*
X2053300Y1522640D02*
Y1522910D01*
Y1524392D02*
Y1524638D01*
Y1525427D02*
Y1525729D01*
X2053400Y1522627D02*
Y1522890D01*
Y1524421D02*
Y1524669D01*
Y1525427D02*
Y1525729D01*
X2053500Y1522617D02*
Y1522872D01*
Y1524445D02*
Y1524684D01*
Y1525427D02*
Y1525729D01*
X2053600Y1522633D02*
Y1522887D01*
Y1524431D02*
Y1524698D01*
Y1525427D02*
Y1525729D01*
X2053700Y1522650D02*
Y1522901D01*
Y1524416D02*
Y1524683D01*
Y1525427D02*
Y1525729D01*
X2053800Y1522668D02*
Y1522915D01*
Y1524402D02*
Y1524658D01*
Y1525427D02*
Y1525729D01*
X2053900Y1522688D02*
Y1522990D01*
Y1524343D02*
Y1524633D01*
Y1525427D02*
Y1525729D01*
X2054000Y1522728D02*
Y1523090D01*
Y1524268D02*
Y1524591D01*
Y1525427D02*
Y1525729D01*
X2054100Y1522803D02*
Y1523240D01*
Y1524122D02*
Y1524519D01*
Y1525427D02*
Y1525729D01*
X2054200Y1522895D02*
Y1523584D01*
Y1523778D02*
Y1524448D01*
Y1525427D02*
Y1525729D01*
X2054300Y1522995D02*
Y1524350D01*
Y1525427D02*
Y1525729D01*
X2054400Y1523169D02*
Y1524210D01*
X2054500Y1523577D02*
Y1523859D01*
X2055100Y1523623D02*
Y1524631D01*
X2055200Y1523248D02*
Y1525110D01*
X2055300Y1523015D02*
Y1525343D01*
X2055400Y1522885D02*
Y1523591D01*
Y1524789D02*
Y1525493D01*
X2055500Y1522813D02*
Y1523217D01*
Y1525171D02*
Y1525610D01*
X2055600Y1522742D02*
Y1523075D01*
Y1525314D02*
Y1525660D01*
X2055700Y1522691D02*
Y1522995D01*
Y1525394D02*
Y1525710D01*
X2055800Y1522669D02*
Y1522919D01*
Y1525470D02*
Y1525739D01*
X2055900Y1522647D02*
Y1522899D01*
Y1525490D02*
Y1525754D01*
X2056000Y1522625D02*
Y1522879D01*
Y1525510D02*
Y1525768D01*
X2056100Y1522624D02*
Y1522883D01*
Y1525507D02*
Y1525761D01*
X2056200Y1522639D02*
Y1522903D01*
Y1525490D02*
Y1525741D01*
X2056300Y1522653D02*
Y1522933D01*
Y1525474D02*
Y1525721D01*
X2056400Y1522690D02*
Y1523013D01*
Y1525385D02*
Y1525701D01*
X2056500Y1522740D02*
Y1523093D01*
Y1525260D02*
Y1525661D01*
X2056600Y1522800D02*
Y1523264D01*
Y1525116D02*
Y1525586D01*
X2056700Y1522925D02*
Y1523731D01*
Y1524626D02*
Y1525468D01*
X2056800Y1523100D02*
Y1525268D01*
X2056900Y1523369D02*
Y1524993D01*
X2057000Y1524008D02*
Y1524665D01*
X2057700Y1522660D02*
Y1524881D01*
X2057800Y1522660D02*
Y1524881D01*
X2057900Y1522660D02*
Y1524881D01*
X2058000Y1524336D02*
Y1524545D01*
X2058100Y1524456D02*
Y1524645D01*
X2058200Y1524572D02*
Y1524745D01*
X2058300Y1524602D02*
Y1524818D01*
X2058400Y1524631D02*
Y1524858D01*
X2058500Y1524660D02*
Y1524892D01*
X2058600Y1524655D02*
Y1524917D01*
X2058700Y1524630D02*
Y1524910D01*
X2058800Y1524579D02*
Y1524890D01*
X2058900Y1524498D02*
Y1524857D01*
X2059000Y1522660D02*
Y1524817D01*
X2059100Y1522660D02*
Y1524745D01*
X2059200Y1522660D02*
Y1524612D01*
X2059300Y1524009D02*
Y1524479D01*
X2059400Y1524363D02*
Y1524603D01*
X2059500Y1524487D02*
Y1524742D01*
X2059600Y1524562D02*
Y1524817D01*
X2059700Y1524625D02*
Y1524857D01*
X2059800Y1524645D02*
Y1524882D01*
X2059900Y1524665D02*
Y1524902D01*
X2060000Y1524654D02*
Y1524922D01*
X2060100Y1524634D02*
Y1524912D01*
X2060200Y1524585D02*
Y1524898D01*
X2060300Y1524451D02*
Y1524884D01*
X2060400Y1522660D02*
Y1524827D01*
X2060500Y1522660D02*
Y1524767D01*
X2060600Y1522660D02*
Y1524580D01*
X2061400Y1522660D02*
Y1524881D01*
X2061500Y1522660D02*
Y1524881D01*
X2061600Y1522660D02*
Y1524881D01*
X2061700Y1524257D02*
Y1524525D01*
X2061800Y1524396D02*
Y1524595D01*
X2061900Y1524516D02*
Y1524695D01*
X2062000Y1524588D02*
Y1524795D01*
X2062100Y1524617D02*
Y1524838D01*
X2062200Y1524645D02*
Y1524878D01*
X2062300Y1524667D02*
Y1524905D01*
X2062400Y1524642D02*
Y1524920D01*
X2062500Y1524612D02*
Y1524900D01*
X2062600Y1524545D02*
Y1524877D01*
X2062700Y1524398D02*
Y1524837D01*
X2062800Y1522660D02*
Y1524795D01*
X2062900Y1522660D02*
Y1524695D01*
X2063000Y1522660D02*
Y1524512D01*
X2063100Y1524296D02*
Y1524520D01*
X2063200Y1524429D02*
Y1524687D01*
X2063300Y1524525D02*
Y1524779D01*
X2063400Y1524600D02*
Y1524845D01*
X2063500Y1524635D02*
Y1524870D01*
X2063600Y1524655D02*
Y1524892D01*
X2063700Y1524664D02*
Y1524912D01*
X2063800Y1524644D02*
Y1524920D01*
X2063900Y1524624D02*
Y1524905D01*
X2064000Y1524518D02*
Y1524891D01*
X2064100Y1524342D02*
Y1524857D01*
X2064200Y1522660D02*
Y1524797D01*
X2064300Y1522660D02*
Y1524680D01*
X2064400Y1522660D02*
Y1524394D01*
*
G04 PC Custom Flashes*
G04 Layer Name ESP32_WROOM_32D_5X5_V2- - flashes*
%LPD*%
*
*
G04 PC Circuitry*
G04 Layer Name ESP32_WROOM_32D_5X5_V2- - circuitry*
%LPD*%
*
G54D10*
X1998012Y1517303D02*
Y1512303D01*
X2000512Y1514803D02*
X1995512D01*
X1968504Y1574681D02*
X1968507D01*
X2039370D02*
X2039373D01*
X2039370Y1474288D02*
X2039373D01*
X2039370Y1574681D02*
X2039373D01*
G54D43*
X1993004Y1540803D02*
X1994004D01*
X1980804D02*
X1981804D01*
G54D44*
X2010033Y1527894D02*
G75*
G03X2010033I-360J0D01*
G01X1968504Y1574681D02*
X2039370D01*
Y1474288*
X1968504*
Y1574681*
X2018504Y1520803D02*
X2021004D01*
X2019754Y1519553*
X2018504Y1520803*
G54D48*
X2006814Y1482035D02*
Y1501035D01*
X1992814*
Y1482035*
X1998314*
Y1482112*
X2001314D02*
G03X1998314I-1500J0D01*
G01X2001314D02*
Y1482035D01*
X2006814*
X2004614Y1484285D02*
G03X2004614I-800J0D01*
G54D109*
G01X1992039Y1537203D02*
Y1544403D01*
X1994983*
Y1537203*
X1992039*
X1979839D02*
Y1544403D01*
X1982783*
Y1537203*
X1979839*
X1995989Y1532214D02*
X1996122Y1532445D01*
X1996197Y1532745*
X1996176Y1532964*
X1995942Y1533243*
X1995730Y1533302*
X1995421Y1533280*
X1995171Y1533189*
X1994826Y1533018*
X1994347Y1532616*
X1994118Y1532305*
X1993985Y1532075*
X1993910Y1531775*
X1993931Y1531555*
X1994165Y1531277*
X1994378Y1531218*
X1994686Y1531239*
X1994936Y1531330*
X1996574Y1531518D02*
X1996670Y1531598D01*
X1996919Y1531689*
X1997074Y1531700*
X1997286Y1531641*
X1997520Y1531362*
X1997541Y1531143*
X1997504Y1530993*
X1997371Y1530762*
X1997179Y1530602*
X1996929Y1530511*
X1996525Y1530409*
X1994983Y1530302*
X1995801Y1529327*
X1997955Y1530066D02*
X1998168Y1530007D01*
X1998630Y1530039*
X1996619Y1528352*
X1985471Y1541745D02*
X1985252Y1541654D01*
X1985033Y1541472*
X1984924Y1541291*
Y1540927*
X1985033Y1540745*
X1985252Y1540563*
X1985471Y1540472*
X1985799Y1540381*
X1986346*
X1986674Y1540472*
X1986893Y1540563*
X1987111Y1540745*
X1987221Y1540927*
Y1541291*
X1987111Y1541472*
X1986893Y1541654*
X1986674Y1541745*
X1985361Y1542563D02*
X1985252Y1542745D01*
X1984924Y1543018*
X1987221*
X1985471Y1543927D02*
X1985361D01*
X1985143Y1544018*
X1985033Y1544109*
X1984924Y1544291*
Y1544654*
X1985033Y1544836*
X1985143Y1544927*
X1985361Y1545018*
X1985580*
X1985799Y1544927*
X1986127Y1544745*
X1987221Y1543836*
Y1545109*
X1980549Y1533307D02*
X1980330Y1533216D01*
X1980112Y1533034*
X1980002Y1532852*
Y1532489*
X1980112Y1532307*
X1980330Y1532125*
X1980549Y1532034*
X1980877Y1531943*
X1981424*
X1981752Y1532034*
X1981971Y1532125*
X1982190Y1532307*
X1982299Y1532489*
Y1532852*
X1982190Y1533034*
X1981971Y1533216*
X1981752Y1533307*
X1980440Y1534125D02*
X1980330Y1534307D01*
X1980002Y1534580*
X1982299*
X1980002Y1535580D02*
Y1536580D01*
X1980877Y1536034*
Y1536307*
X1980987Y1536489*
X1981096Y1536580*
X1981424Y1536671*
X1981643*
X1981971Y1536580*
X1982190Y1536398*
X1982299Y1536125*
Y1535852*
X1982190Y1535580*
X1982080Y1535489*
X1981862Y1535398*
X2030517Y1519633D02*
X2032157D01*
X2032485Y1519724*
X2032704Y1519906*
X2032814Y1520179*
Y1520361*
X2032704Y1520633*
X2032485Y1520815*
X2032157Y1520906*
X2030517*
X2030954Y1521724D02*
X2030845Y1521906D01*
X2030517Y1522179*
X2032814*
X1979754Y1527850D02*
Y1526209D01*
X1979845Y1525881*
X1980027Y1525663*
X1980299Y1525553*
X1980481*
X1980754Y1525663*
X1980936Y1525881*
X1981027Y1526209*
Y1527850*
X1981936Y1527303D02*
Y1527413D01*
X1982027Y1527631*
X1982118Y1527741*
X1982299Y1527850*
X1982663*
X1982845Y1527741*
X1982936Y1527631*
X1983027Y1527413*
Y1527194*
X1982936Y1526975*
X1982754Y1526647*
X1981845Y1525553*
X1983118*
X1975466Y1500537D02*
Y1498662D01*
X1975557Y1498287*
X1975739Y1498037*
X1976012Y1497912*
X1976194*
X1976466Y1498037*
X1976648Y1498287*
X1976739Y1498662*
Y1500537*
X1977739D02*
X1978739D01*
X1978194Y1499537*
X1978466*
X1978648Y1499412*
X1978739Y1499287*
X1978830Y1498912*
Y1498662*
X1978739Y1498287*
X1978557Y1498037*
X1978285Y1497912*
X1978012*
X1977739Y1498037*
X1977648Y1498162*
X1977557Y1498412*
X2027995Y1521477D02*
X2027904Y1521696D01*
X2027722Y1521915*
X2027540Y1522024*
X2027176*
X2026995Y1521915*
X2026813Y1521696*
X2026722Y1521477*
X2026631Y1521149*
Y1520602*
X2026722Y1520274*
X2026813Y1520055*
X2026995Y1519837*
X2027176Y1519727*
X2027540*
X2027722Y1519837*
X2027904Y1520055*
X2027995Y1520274*
X2028813Y1521587D02*
X2028995Y1521696D01*
X2029267Y1522024*
Y1519727*
X2003065Y1541668D02*
X2002846Y1541577D01*
X2002627Y1541395*
X2002518Y1541213*
Y1540850*
X2002627Y1540668*
X2002846Y1540486*
X2003065Y1540395*
X2003393Y1540304*
X2003940*
X2004268Y1540395*
X2004487Y1540486*
X2004705Y1540668*
X2004815Y1540850*
Y1541213*
X2004705Y1541395*
X2004487Y1541577*
X2004268Y1541668*
X2002955Y1542486D02*
X2002846Y1542668D01*
X2002518Y1542941*
X2004815*
X2002518Y1544304D02*
X2002627Y1544032D01*
X2002955Y1543850*
X2003502Y1543759*
X2003830*
X2004377Y1543850*
X2004705Y1544032*
X2004815Y1544304*
Y1544486*
X2004705Y1544759*
X2004377Y1544941*
X2003830Y1545032*
X2003502*
X2002955Y1544941*
X2002627Y1544759*
X2002518Y1544486*
Y1544304*
X1988658Y1541802D02*
X1988439Y1541711D01*
X1988221Y1541529*
X1988111Y1541347*
Y1540983*
X1988221Y1540802*
X1988439Y1540620*
X1988658Y1540529*
X1988986Y1540438*
X1989533*
X1989861Y1540529*
X1990080Y1540620*
X1990299Y1540802*
X1990408Y1540983*
Y1541347*
X1990299Y1541529*
X1990080Y1541711*
X1989861Y1541802*
X1988549Y1542620D02*
X1988439Y1542802D01*
X1988111Y1543074*
X1990408*
X1988549Y1543893D02*
X1988439Y1544074D01*
X1988111Y1544347*
X1990408*
X2010758Y1533303D02*
X2010667Y1533522D01*
X2010485Y1533741*
X2010303Y1533850*
X2009939*
X2009758Y1533741*
X2009576Y1533522*
X2009485Y1533303*
X2009394Y1532975*
Y1532428*
X2009485Y1532100*
X2009576Y1531881*
X2009758Y1531663*
X2009939Y1531553*
X2010303*
X2010485Y1531663*
X2010667Y1531881*
X2010758Y1532100*
X2011576Y1533413D02*
X2011758Y1533522D01*
X2012030Y1533850*
Y1531553*
X2013758Y1533850D02*
X2012848Y1532319D01*
X2014212*
X2013758Y1533850D02*
Y1531553D01*
X2010748Y1540803D02*
X2010657Y1541022D01*
X2010475Y1541241*
X2010293Y1541350*
X2009929*
X2009748Y1541241*
X2009566Y1541022*
X2009475Y1540803*
X2009384Y1540475*
Y1539928*
X2009475Y1539600*
X2009566Y1539381*
X2009748Y1539163*
X2009929Y1539053*
X2010293*
X2010475Y1539163*
X2010657Y1539381*
X2010748Y1539600*
X2011566Y1540913D02*
X2011748Y1541022D01*
X2012020Y1541350*
Y1539053*
X2014020Y1541350D02*
X2013111D01*
X2013020Y1540366*
X2013111Y1540475*
X2013384Y1540584*
X2013657*
X2013929Y1540475*
X2014111Y1540256*
X2014202Y1539928*
X2014111Y1539709*
X2014020Y1539381*
X2013838Y1539163*
X2013566Y1539053*
X2013293*
X2013020Y1539163*
X2012929Y1539272*
X2012838Y1539491*
X1989515Y1530847D02*
X1989296Y1530938D01*
X1989012Y1530964*
X1988807Y1530912*
X1988807D02*
X1988549Y1530655D01*
X1988498Y1530449*
X1988524Y1530166*
X1988615Y1529947*
X1988782Y1529651*
X1989169Y1529264*
X1989465Y1529097*
X1989684Y1529006*
X1989968Y1528980*
X1990174Y1529031*
X1990431Y1529288*
X1990482Y1529494*
X1990456Y1529778*
X1990365Y1529996*
X1990016Y1531503D02*
X1990067Y1531709D01*
X1990028Y1532134*
X1991652Y1530510*
X1991610Y1533252D02*
X1991391Y1533342D01*
X1991121Y1533227*
X1990992Y1533098*
X1990877Y1532828*
X1990980Y1532467*
X1991303Y1532016*
X1991689Y1531630*
X1992063Y1531385*
X1992346Y1531358*
X1992616Y1531474*
X1992681Y1531538*
X1992796Y1531808*
X1992770Y1532092*
X1992602Y1532388*
X1992525Y1532465*
X1992229Y1532633*
X1991945Y1532659*
X1991675Y1532544*
X1991611Y1532479*
X1991495Y1532209*
X1991521Y1531926*
X1991689Y1531630*
X1985959Y1536129D02*
X1985740Y1536219D01*
X1985457Y1536245*
X1985251Y1536194*
X1984994Y1535937*
X1984943Y1535731*
X1984969Y1535448*
X1985059Y1535229*
X1985227Y1534932*
X1985614Y1534546*
X1985910Y1534378*
X1986129Y1534288*
X1986412Y1534261*
X1986618Y1534313*
X1986875Y1534570*
X1986927Y1534776*
X1986900Y1535059*
X1986810Y1535278*
X1986461Y1536785D02*
X1986512Y1536990D01*
X1986473Y1537415*
X1988097Y1535791*
X1987951Y1538894D02*
X1988932Y1536627D01*
X1987051Y1537994D02*
X1987951Y1538894D01*
X1977004Y1489417D02*
X1976785Y1489326D01*
X1976566Y1489144*
X1976457Y1488962*
Y1488599*
X1976566Y1488417*
X1976785Y1488235*
X1977004Y1488144*
X1977332Y1488053*
X1977879*
X1978207Y1488144*
X1978426Y1488235*
X1978645Y1488417*
X1978754Y1488599*
Y1488962*
X1978645Y1489144*
X1978426Y1489326*
X1978207Y1489417*
X1976895Y1490235D02*
X1976785Y1490417D01*
X1976457Y1490690*
X1978754*
X1976457Y1491962D02*
X1976566Y1491690D01*
X1976785Y1491599*
X1977004*
X1977223Y1491690*
X1977332Y1491871*
X1977441Y1492235*
X1977551Y1492508*
X1977770Y1492690*
X1977988Y1492780*
X1978316*
X1978535Y1492690*
X1978645Y1492599*
X1978754Y1492326*
Y1491962*
X1978645Y1491690*
X1978535Y1491599*
X1978316Y1491508*
X1977988*
X1977770Y1491599*
X1977551Y1491780*
X1977441Y1492053*
X1977332Y1492417*
X1977223Y1492599*
X1977004Y1492690*
X1976785*
X1976566Y1492599*
X1976457Y1492326*
Y1491962*
X1981004Y1508417D02*
X1980785Y1508326D01*
X1980566Y1508144*
X1980457Y1507962*
Y1507599*
X1980566Y1507417*
X1980785Y1507235*
X1981004Y1507144*
X1981332Y1507053*
X1981879*
X1982207Y1507144*
X1982426Y1507235*
X1982645Y1507417*
X1982754Y1507599*
Y1507962*
X1982645Y1508144*
X1982426Y1508326*
X1982207Y1508417*
X1980895Y1509235D02*
X1980785Y1509417D01*
X1980457Y1509690*
X1982754*
X1981223Y1511690D02*
X1981551Y1511599D01*
X1981770Y1511417*
X1981879Y1511144*
Y1511053*
X1981770Y1510780*
X1981551Y1510599*
X1981223Y1510508*
X1981113*
X1980785Y1510599*
X1980566Y1510780*
X1980457Y1511053*
Y1511144*
X1980566Y1511417*
X1980785Y1511599*
X1981223Y1511690*
X1981770*
X1982316Y1511599*
X1982645Y1511417*
X1982754Y1511144*
Y1510962*
X1982645Y1510690*
X1982426Y1510599*
X2027589Y1500774D02*
X2027498Y1500992D01*
X2027316Y1501211*
X2027134Y1501320*
X2026771*
X2026589Y1501211*
X2026407Y1500992*
X2026316Y1500774*
X2026225Y1500445*
Y1499899*
X2026316Y1499570*
X2026407Y1499352*
X2026589Y1499133*
X2026771Y1499024*
X2027134*
X2027316Y1499133*
X2027498Y1499352*
X2027589Y1499570*
X2028498Y1500774D02*
Y1500883D01*
X2028589Y1501102*
X2028680Y1501211*
X2028862Y1501320*
X2029225*
X2029407Y1501211*
X2029498Y1501102*
X2029589Y1500883*
Y1500664*
X2029498Y1500445*
X2029316Y1500117*
X2028407Y1499024*
X2029680*
X2022299Y1496619D02*
X2022208Y1496838D01*
X2022026Y1497057*
X2021844Y1497166*
X2021481*
X2021299Y1497057*
X2021117Y1496838*
X2021026Y1496619*
X2020935Y1496291*
Y1495744*
X2021026Y1495416*
X2021117Y1495197*
X2021299Y1494978*
X2021481Y1494869*
X2021844*
X2022026Y1494978*
X2022208Y1495197*
X2022299Y1495416*
X2023208Y1496619D02*
Y1496728D01*
X2023299Y1496947*
X2023390Y1497057*
X2023572Y1497166*
X2023935*
X2024117Y1497057*
X2024208Y1496947*
X2024299Y1496728*
Y1496510*
X2024208Y1496291*
X2024026Y1495963*
X2023117Y1494869*
X2024390*
X2025754Y1497166D02*
X2025481Y1497057D01*
X2025299Y1496728*
X2025208Y1496182*
Y1495853*
X2025299Y1495307*
X2025481Y1494978*
X2025754Y1494869*
X2025935*
X2026208Y1494978*
X2026390Y1495307*
X2026481Y1495853*
Y1496182*
X2026390Y1496728*
X2026208Y1497057*
X2025935Y1497166*
X2025754*
X2022006Y1503063D02*
X2021915Y1503282D01*
X2021734Y1503500*
X2021552Y1503610*
X2021188*
X2021006Y1503500*
X2020825Y1503282*
X2020734Y1503063*
X2020643Y1502735*
Y1502188*
X2020734Y1501860*
X2020825Y1501641*
X2021006Y1501422*
X2021188Y1501313*
X2021552*
X2021734Y1501422*
X2021915Y1501641*
X2022006Y1501860*
X2023006Y1503610D02*
X2024006D01*
X2023461Y1502735*
X2023734*
X2023915Y1502625*
X2024006Y1502516*
X2024097Y1502188*
Y1501969*
X2024006Y1501641*
X2023825Y1501422*
X2023552Y1501313*
X2023279*
X2023006Y1501422*
X2022915Y1501532*
X2022825Y1501750*
X2022660Y1488711D02*
X2022569Y1488930D01*
X2022387Y1489149*
X2022205Y1489258*
X2021842*
X2021660Y1489149*
X2021478Y1488930*
X2021387Y1488711*
X2021296Y1488383*
Y1487836*
X2021387Y1487508*
X2021478Y1487289*
X2021660Y1487071*
X2021842Y1486961*
X2022205*
X2022387Y1487071*
X2022569Y1487289*
X2022660Y1487508*
X2024387Y1489258D02*
X2023478Y1487727D01*
X2024842*
X2024387Y1489258D02*
Y1486961D01*
X2022773Y1525488D02*
X2022554Y1525397D01*
X2022335Y1525215*
X2022226Y1525033*
Y1524670*
X2022335Y1524488*
X2022554Y1524306*
X2022773Y1524215*
X2023101Y1524124*
X2023648*
X2023976Y1524215*
X2024195Y1524306*
X2024413Y1524488*
X2024523Y1524670*
Y1525033*
X2024413Y1525215*
X2024195Y1525397*
X2023976Y1525488*
X2022226Y1527488D02*
Y1526579D01*
X2023210Y1526488*
X2023101Y1526579*
X2022991Y1526852*
Y1527124*
X2023101Y1527397*
X2023320Y1527579*
X2023648Y1527670*
X2023866Y1527579*
X2024195Y1527488*
X2024413Y1527306*
X2024523Y1527033*
Y1526761*
X2024413Y1526488*
X2024304Y1526397*
X2024085Y1526306*
X2028749Y1525408D02*
X2028530Y1525317D01*
X2028311Y1525136*
X2028202Y1524954*
Y1524590*
X2028311Y1524408*
X2028530Y1524227*
X2028749Y1524136*
X2029077Y1524045*
X2029624*
X2029952Y1524136*
X2030171Y1524227*
X2030390Y1524408*
X2030499Y1524590*
Y1524954*
X2030390Y1525136*
X2030171Y1525317*
X2029952Y1525408*
X2028530Y1527317D02*
X2028311Y1527227D01*
X2028202Y1526954*
Y1526772*
X2028311Y1526499*
X2028640Y1526317*
X2029186Y1526227*
X2029733*
X2030171Y1526317*
X2030390Y1526499*
X2030499Y1526772*
Y1526863*
X2030390Y1527136*
X2030171Y1527317*
X2029843Y1527408*
X2029733*
X2029405Y1527317*
X2029186Y1527136*
X2029077Y1526863*
Y1526772*
X2029186Y1526499*
X2029405Y1526317*
X2029733Y1526227*
X2014871Y1529603D02*
X2014652Y1529512D01*
X2014434Y1529331*
X2014324Y1529149*
Y1528785*
X2014434Y1528603*
X2014652Y1528421*
X2014871Y1528331*
X2015199Y1528240*
X2015746*
X2016074Y1528331*
X2016293Y1528421*
X2016512Y1528603*
X2016621Y1528785*
Y1529149*
X2016512Y1529331*
X2016293Y1529512*
X2016074Y1529603*
X2015090Y1531603D02*
X2015418Y1531512D01*
X2015637Y1531331*
X2015746Y1531058*
Y1530967*
X2015637Y1530694*
X2015418Y1530512*
X2015090Y1530421*
X2014980*
X2014652Y1530512*
X2014434Y1530694*
X2014324Y1530967*
Y1531058*
X2014434Y1531331*
X2014652Y1531512*
X2015090Y1531603*
X2015637*
X2016184Y1531512*
X2016512Y1531331*
X2016621Y1531058*
Y1530876*
X2016512Y1530603*
X2016293Y1530512*
X2009437Y1535053D02*
X2011734D01*
Y1536144*
X2009437Y1537871D02*
X2010968Y1536962D01*
Y1538326*
X2009437Y1537871D02*
X2011734D01*
X2001991Y1538787D02*
X2000129Y1536937D01*
X2000897Y1536163*
X2004169Y1536594D02*
X2003529Y1537239D01*
X2002666Y1536511*
X2002819Y1536534*
X2003100Y1536429*
X2003292Y1536235*
X2003396Y1535954*
X2003346Y1535649*
X2003144Y1535320*
X2002903Y1535208*
X2002573Y1535008*
X2002267Y1534961*
X2001986Y1535067*
X2001794Y1535260*
X2001691Y1535542*
X2001715Y1535694*
X2001829Y1535935*
X2025176Y1524464D02*
X2027473D01*
X2025176D02*
Y1525282D01*
X2025285Y1525555*
X2025394Y1525646*
X2025613Y1525736*
X2025832*
X2026051Y1525646*
X2026160Y1525555*
X2026269Y1525282*
Y1524464*
Y1525100D02*
X2027473Y1525736D01*
X2025613Y1526555D02*
X2025504Y1526736D01*
X2025176Y1527009*
X2027473*
X2021021Y1500434D02*
Y1497809D01*
Y1500434D02*
X2021839D01*
X2022112Y1500309*
X2022203Y1500184*
X2022294Y1499934*
Y1499684*
X2022203Y1499434*
X2022112Y1499309*
X2021839Y1499184*
X2021021*
X2021657D02*
X2022294Y1497809D01*
X2023203Y1499809D02*
Y1499934D01*
X2023294Y1500184*
X2023385Y1500309*
X2023567Y1500434*
X2023930*
X2024112Y1500309*
X2024203Y1500184*
X2024294Y1499934*
Y1499684*
X2024203Y1499434*
X2024021Y1499059*
X2023112Y1497809*
X2024385*
X2021225Y1490355D02*
X2023850D01*
X2021225D02*
Y1491173D01*
X2021350Y1491446*
X2021475Y1491536*
X2021725Y1491627*
X2021975*
X2022225Y1491536*
X2022350Y1491446*
X2022475Y1491173*
Y1490355*
Y1490991D02*
X2023850Y1491627D01*
X2021225Y1492627D02*
Y1493627D01*
X2022225Y1493082*
Y1493355*
X2022350Y1493536*
X2022475Y1493627*
X2022850Y1493718*
X2023100*
X2023475Y1493627*
X2023725Y1493446*
X2023850Y1493173*
Y1492900*
X2023725Y1492627*
X2023600Y1492536*
X2023350Y1492446*
X1975980Y1534754D02*
X1978277D01*
X1975980D02*
Y1535390D01*
X1976089Y1535663*
X1976308Y1535845*
X1976527Y1535936*
X1976855Y1536027*
X1977402*
X1977730Y1535936*
X1977949Y1535845*
X1978167Y1535663*
X1978277Y1535390*
Y1534754*
X1976417Y1536845D02*
X1976308Y1537027D01*
X1975980Y1537300*
X1978277*
X2018004Y1523103D02*
X2012004D01*
Y1501503*
X2019004*
X2018000Y1502503D02*
X2019000Y1501503D01*
X1968504Y1580764D02*
X1992357D01*
X1968504D02*
X1973504Y1581764D01*
Y1579764*
X1968504Y1580764*
X2039370D02*
X2015516D01*
X2039370D02*
X2034370Y1579764D01*
Y1581764*
X2039370Y1580764*
X1968504Y1576681D02*
Y1582764D01*
X2039370Y1576681D02*
Y1582764D01*
X2055243Y1474288D02*
Y1519610D01*
Y1474288D02*
X2054243Y1479288D01*
X2056243*
X2055243Y1474288*
Y1574681D02*
Y1529360D01*
Y1574681D02*
X2056243Y1569681D01*
X2054243*
X2055243Y1574681*
X2041370Y1474288D02*
X2057243D01*
X2041370Y1574681D02*
X2057243D01*
G54D131*
X2031630Y1518609D02*
Y1505495D01*
X2020138*
Y1518609*
X2031630*
G54D173*
X2007854Y1527402D02*
X2010610Y1524646D01*
Y1502205*
X1985414*
Y1527402*
X2007854*
G54D198*
X1998366Y1531382D02*
X1995583Y1534166D01*
X1997141Y1535725*
X1999925Y1532941*
X1998366Y1531382*
X2021935Y1521906D02*
X2025872D01*
Y1519701*
X2021935*
Y1521906*
X1999402Y1539085D02*
Y1543022D01*
X2001606*
Y1539085*
X1999402*
X1995902D02*
Y1543022D01*
X1998106*
Y1539085*
X1995902*
X2004685Y1531906D02*
X2008622D01*
Y1529701*
X2004685*
Y1531906*
X2008622Y1537701D02*
X2004685D01*
Y1539906*
X2008622*
Y1537701*
X1996225Y1535316D02*
X1993441Y1532532D01*
X1991883Y1534091*
X1994666Y1536875*
X1996225Y1535316*
X1991675Y1534766D02*
X1988891Y1531982D01*
X1987333Y1533541*
X1990116Y1536325*
X1991675Y1534766*
X1978606Y1486772D02*
Y1482835D01*
X1976402*
Y1486772*
X1978606*
X1982606Y1516472D02*
Y1512535D01*
X1980402*
Y1516472*
X1982606*
X2029572Y1502201D02*
X2025635D01*
Y1504406*
X2029572*
Y1502201*
X2013035Y1513706D02*
X2016972D01*
Y1511501*
X2013035*
Y1513706*
X2014035Y1522406D02*
X2017972D01*
Y1520201*
X2014035*
Y1522406*
X2012535Y1504206D02*
X2016472D01*
Y1502001*
X2012535*
Y1504206*
X2016356Y1527522D02*
Y1523585D01*
X2014152*
Y1527522*
X2016356*
X2019152Y1523584D02*
Y1527521D01*
X2021356*
Y1523584*
X2019152*
X2011202Y1526835D02*
Y1530772D01*
X2013406*
Y1526835*
X2011202*
X2004472Y1532835D02*
Y1536772D01*
X2006676*
Y1532835*
X2004472*
X2000116Y1533132D02*
X1997333Y1535916D01*
X1998891Y1537475*
X2001675Y1534691*
X2000116Y1533132*
X2016652Y1523585D02*
Y1527522D01*
X2018856*
Y1523585*
X2016652*
X2018172Y1516401D02*
X2014235D01*
Y1518606*
X2018172*
Y1516401*
X2016606Y1509772D02*
Y1505835D01*
X2014402*
Y1509772*
X2016606*
X1975285Y1538347D02*
Y1540709D01*
X1979222*
Y1538347*
X1975285*
Y1541497D02*
Y1543859D01*
X1979222*
Y1541497*
X1975285*
X1979222Y1540709D02*
X1975285Y1541497D01*
Y1540709D02*
X1979222Y1541497D01*
G74*
X0Y0D02*
M02*
