*
*
G04 PADS 9.5 Build Number: 522968 generated Gerber (RS-274-X) file*
G04 PC Version=2.1*
*
%IN "ESP32_WROOM_32D_5X5_V2-"*%
*
%MOIN*%
*
%FSLAX35Y35*%
*
*
*
*
G04 PC Standard Apertures*
*
*
G04 Thermal Relief Aperture macro.*
%AMTER*
1,1,$1,0,0*
1,0,$1-$2,0,0*
21,0,$3,$4,0,0,45*
21,0,$3,$4,0,0,135*
%
*
*
G04 Annular Aperture macro.*
%AMANN*
1,1,$1,0,0*
1,0,$2,0,0*
%
*
*
G04 Odd Aperture macro.*
%AMODD*
1,1,$1,0,0*
1,0,$1-0.005,0,0*
%
*
*
G04 PC Custom Aperture Macros*
*
*
*
*
*
*
G04 PC Aperture Table*
*
%ADD010C,0.001*%
%ADD044C,0.01*%
%ADD109C,0.005*%
*
*
*
*
G04 PC Circuitry*
G04 Layer Name ESP32_WROOM_32D_5X5_V2- - circuitry*
%LPD*%
*
G54D10*
G01X2064426Y1524213D02*
X2064383Y1524514D01*
X2064259Y1524762*
X2064057Y1524883*
X2063763Y1524925*
X2063549Y1524882*
X2063382Y1524840*
X2063219Y1524718*
X2063090Y1524503*
X2063003Y1524507*
X2062917Y1524678*
X2062796Y1524799*
X2062587Y1524883*
X2062379Y1524924*
X2062214Y1524883*
X2062004Y1524799*
X2061743Y1524538*
X2061743D02*
X2061658Y1524574D01*
Y1524881*
X2061356*
Y1522660*
X2061658*
Y1524083*
X2061660Y1524095*
X2061704Y1524273*
X2061714Y1524293*
X2061937Y1524561*
X2061962Y1524577*
X2062275Y1524667*
X2062300*
X2062479Y1524622*
X2062495Y1524615*
X2062629Y1524526*
X2062646Y1524507*
X2062735Y1524328*
X2062740Y1524306*
Y1522660*
X2063042*
Y1523949*
Y1523956*
X2063087Y1524268*
X2063097Y1524291*
X2063231Y1524470*
X2063241Y1524480*
X2063419Y1524614*
X2063439Y1524623*
X2063662Y1524668*
X2063682*
X2063905Y1524623*
X2063936Y1524604*
X2064069Y1524425*
X2064077Y1524411*
X2064122Y1524277*
X2064124Y1524261*
Y1522660*
X2064426*
Y1524213*
X2060676D02*
X2060633Y1524514D01*
X2060509Y1524762*
X2060307Y1524883*
X2060013Y1524925*
X2059799Y1524882*
X2059632Y1524840*
X2059469Y1524718*
X2059340Y1524503*
X2059253Y1524507*
X2059167Y1524678*
X2059046Y1524799*
X2058837Y1524883*
X2058629Y1524924*
X2058464Y1524883*
X2058254Y1524799*
X2057993Y1524538*
X2057993D02*
X2057908Y1524574D01*
Y1524881*
X2057606*
Y1522660*
X2057908*
Y1524083*
X2057910Y1524095*
X2057954Y1524273*
X2057964Y1524293*
X2058187Y1524561*
X2058212Y1524577*
X2058525Y1524667*
X2058550*
X2058729Y1524622*
X2058745Y1524615*
X2058879Y1524526*
X2058896Y1524507*
X2058985Y1524328*
X2058990Y1524306*
Y1522660*
X2059292*
Y1523949*
Y1523956*
X2059337Y1524268*
X2059347Y1524291*
X2059481Y1524470*
X2059491Y1524480*
X2059669Y1524614*
X2059689Y1524623*
X2059912Y1524668*
X2059932*
X2060155Y1524623*
X2060186Y1524604*
X2060319Y1524425*
X2060327Y1524411*
X2060372Y1524277*
X2060374Y1524261*
Y1522660*
X2060676*
Y1524213*
X2057015Y1524611D02*
X2056928Y1524916D01*
X2056753Y1525398*
X2056628Y1525565*
X2056464Y1525688*
X2056037Y1525773*
X2055741Y1525731*
X2055490Y1525605*
X2055323Y1525396*
X2055193Y1525094*
X2055106Y1524700*
X2055062Y1524170*
Y1523776*
X2055149Y1523426*
X2055236Y1523121*
X2055362Y1522912*
X2055657Y1522701*
X2056040Y1522616*
X2056336Y1522658*
X2056587Y1522783*
X2056754Y1522993*
X2056883Y1523295*
X2056971Y1523689*
X2057015Y1524174*
Y1524611*
X2056713Y1524529D02*
Y1523815D01*
Y1523807*
X2056668Y1523539*
Y1523537*
X2056623Y1523314*
X2056619Y1523301*
X2056530Y1523123*
X2056516Y1523106*
X2056293Y1522928*
X2056271Y1522918*
X2056048Y1522873*
X2056029*
X2055805Y1522918*
X2055784Y1522928*
X2055561Y1523106*
X2055547Y1523123*
X2055458Y1523301*
X2055454Y1523314*
X2055409Y1523537*
Y1523539*
X2055364Y1523807*
X2055363Y1523815*
Y1524529*
X2055364Y1524536*
X2055409Y1524849*
Y1524852*
X2055454Y1525075*
X2055458Y1525087*
X2055547Y1525266*
X2055561Y1525283*
X2055784Y1525461*
X2055805Y1525471*
X2056029Y1525516*
X2056047*
X2056314Y1525471*
X2056345Y1525453*
X2056524Y1525230*
X2056526Y1525227*
X2056616Y1525093*
X2056623Y1525075*
X2056668Y1524852*
Y1524849*
X2056713Y1524536*
Y1524529*
X2054515Y1523725D02*
X2054472Y1524109D01*
X2054261Y1524404*
X2053963Y1524617*
X2053625Y1524702*
X2053333Y1524660*
X2053075Y1524488*
X2052997Y1524529*
X2052998Y1524537*
X2053132Y1525385*
X2053181Y1525427*
X2054337*
Y1525729*
X2052910*
X2052615Y1524171*
X2052940Y1524135*
X2053146Y1524341*
X2053167Y1524354*
X2053480Y1524443*
X2053501Y1524445*
X2053813Y1524400*
X2053836Y1524391*
X2054015Y1524257*
X2054028Y1524242*
X2054162Y1524019*
X2054168Y1524001*
X2054213Y1523688*
Y1523674*
X2054168Y1523361*
X2054162Y1523343*
X2054028Y1523120*
X2054020Y1523110*
X2053842Y1522931*
X2053813Y1522917*
X2053501Y1522873*
X2053484*
X2053261Y1522918*
X2053248Y1522922*
X2053070Y1523011*
X2053047Y1523034*
X2052958Y1523212*
X2052955Y1523219*
X2052879Y1523448*
X2052574Y1523414*
X2052647Y1523122*
X2052858Y1522826*
X2053153Y1522658*
X2053493Y1522615*
X2053753Y1522659*
X2053964Y1522701*
X2054131Y1522826*
X2054302Y1522997*
X2054472Y1523295*
X2054515Y1523725*
X2051792Y1522961D02*
X2051490D01*
Y1522660*
X2051792*
Y1522961*
X2050765Y1523725D02*
X2050722Y1524109D01*
X2050511Y1524404*
X2050213Y1524617*
X2049875Y1524702*
X2049583Y1524660*
X2049325Y1524488*
X2049247Y1524529*
X2049248Y1524537*
X2049382Y1525385*
X2049431Y1525427*
X2050587*
Y1525729*
X2049160*
X2048865Y1524171*
X2049190Y1524135*
X2049396Y1524341*
X2049417Y1524354*
X2049730Y1524443*
X2049751Y1524445*
X2050063Y1524400*
X2050086Y1524391*
X2050265Y1524257*
X2050278Y1524242*
X2050412Y1524019*
X2050418Y1524001*
X2050463Y1523688*
Y1523674*
X2050418Y1523361*
X2050412Y1523343*
X2050278Y1523120*
X2050270Y1523110*
X2050092Y1522931*
X2050063Y1522917*
X2049751Y1522873*
X2049734*
X2049511Y1522918*
X2049498Y1522922*
X2049320Y1523011*
X2049297Y1523034*
X2049208Y1523212*
X2049205Y1523219*
X2049129Y1523448*
X2048824Y1523414*
X2048897Y1523122*
X2049108Y1522826*
X2049403Y1522658*
X2049743Y1522615*
X2050003Y1522659*
X2050214Y1522701*
X2050381Y1522826*
X2050552Y1522997*
X2050722Y1523295*
X2050765Y1523725*
X2048221Y1522961D02*
X2046708D01*
X2046669Y1523043*
X2046848Y1523266*
X2046857Y1523275*
X2047034Y1523408*
X2047300Y1523630*
X2047654Y1523939*
X2047874Y1524203*
X2048003Y1524375*
X2048089Y1524589*
X2048175Y1524934*
X2048133Y1525267*
X2047925Y1525517*
X2047627Y1525687*
X2047241Y1525773*
X2046858Y1525731*
X2046564Y1525563*
X2046352Y1525267*
X2046279Y1524974*
X2046579Y1524941*
X2046614Y1525119*
X2046623Y1525140*
X2046757Y1525318*
X2046767Y1525328*
X2046946Y1525462*
X2046968Y1525471*
X2047236Y1525516*
X2047254*
X2047477Y1525471*
X2047497Y1525462*
X2047676Y1525328*
X2047681Y1525323*
X2047815Y1525190*
X2047828Y1525164*
X2047873Y1524941*
Y1524921*
X2047828Y1524698*
X2047822Y1524682*
X2047688Y1524459*
X2047683Y1524452*
X2047416Y1524140*
X2047411Y1524135*
X2047008Y1523777*
X2046699Y1523512*
X2046350Y1523075*
X2046265Y1522864*
X2046231Y1522660*
X2048221*
Y1522961*
X2013745Y1580493D02*
X2013702Y1580794D01*
X2013578Y1581041*
X2013376Y1581163*
X2013082Y1581205*
X2012868Y1581162*
X2012701Y1581120*
X2012538Y1580998*
X2012409Y1580783*
X2012322Y1580786*
X2012236Y1580958*
X2012115Y1581079*
X2011906Y1581162*
X2011698Y1581204*
X2011534Y1581163*
X2011323Y1581079*
X2011062Y1580818*
X2010977Y1580853*
Y1581161*
X2010675*
Y1578939*
X2010977*
Y1580362*
X2010979Y1580375*
X2011023Y1580553*
X2011033Y1580573*
X2011256Y1580841*
X2011281Y1580857*
X2011594Y1580946*
X2011620Y1580947*
X2011798Y1580902*
X2011814Y1580895*
X2011948Y1580806*
X2011965Y1580787*
X2012054Y1580608*
X2012059Y1580586*
Y1578939*
X2012361*
Y1580228*
Y1580236*
X2012406Y1580548*
X2012416Y1580571*
X2012550Y1580750*
X2012560Y1580760*
X2012738Y1580893*
X2012758Y1580902*
X2012982Y1580947*
X2013001*
X2013224Y1580902*
X2013255Y1580883*
X2013388Y1580705*
X2013396Y1580691*
X2013441Y1580557*
X2013443Y1580541*
Y1578939*
X2013745*
Y1580493*
X2009995D02*
X2009952Y1580794D01*
X2009828Y1581041*
X2009626Y1581163*
X2009332Y1581205*
X2009118Y1581162*
X2008951Y1581120*
X2008788Y1580998*
X2008659Y1580783*
X2008572Y1580786*
X2008486Y1580958*
X2008365Y1581079*
X2008156Y1581162*
X2007948Y1581204*
X2007784Y1581163*
X2007573Y1581079*
X2007312Y1580818*
X2007227Y1580853*
Y1581161*
X2006925*
Y1578939*
X2007227*
Y1580362*
X2007229Y1580375*
X2007273Y1580553*
X2007283Y1580573*
X2007506Y1580841*
X2007531Y1580857*
X2007844Y1580946*
X2007870Y1580947*
X2008048Y1580902*
X2008064Y1580895*
X2008198Y1580806*
X2008215Y1580787*
X2008304Y1580608*
X2008309Y1580586*
Y1578939*
X2008611*
Y1580228*
Y1580236*
X2008656Y1580548*
X2008666Y1580571*
X2008800Y1580750*
X2008810Y1580760*
X2008988Y1580893*
X2009008Y1580902*
X2009232Y1580947*
X2009251*
X2009474Y1580902*
X2009505Y1580883*
X2009638Y1580705*
X2009646Y1580691*
X2009691Y1580557*
X2009693Y1580541*
Y1578939*
X2009995*
Y1580493*
X2006334Y1580891D02*
X2006247Y1581195D01*
X2006072Y1581678*
X2005947Y1581845*
X2005783Y1581967*
X2005356Y1582053*
X2005060Y1582010*
X2004809Y1581885*
X2004642Y1581676*
X2004512Y1581374*
X2004425Y1580980*
X2004381Y1580450*
Y1580056*
X2004468Y1579706*
X2004555Y1579400*
X2004681Y1579192*
X2004976Y1578980*
X2005359Y1578895*
X2005655Y1578938*
X2005906Y1579063*
X2006073Y1579272*
X2006202Y1579574*
X2006290Y1579968*
X2006334Y1580454*
Y1580891*
X2006032Y1580809D02*
Y1580095D01*
Y1580086*
X2005987Y1579818*
Y1579817*
X2005942Y1579594*
X2005938Y1579581*
X2005849Y1579403*
X2005835Y1579386*
X2005612Y1579207*
X2005590Y1579197*
X2005367Y1579153*
X2005348*
X2005124Y1579197*
X2005103Y1579207*
X2004880Y1579386*
X2004866Y1579403*
X2004777Y1579581*
X2004773Y1579594*
X2004728Y1579817*
Y1579818*
X2004683Y1580086*
X2004682Y1580095*
Y1580809*
X2004683Y1580816*
X2004728Y1581128*
Y1581131*
X2004773Y1581354*
X2004777Y1581367*
X2004866Y1581545*
X2004880Y1581562*
X2005103Y1581741*
X2005124Y1581751*
X2005348Y1581795*
X2005366Y1581796*
X2005633Y1581751*
X2005664Y1581733*
X2005843Y1581510*
X2005845Y1581506*
X2005935Y1581372*
X2005942Y1581354*
X2005987Y1581131*
Y1581128*
X2006032Y1580816*
Y1580809*
X2003834Y1580891D02*
X2003747Y1581195D01*
X2003572Y1581678*
X2003447Y1581845*
X2003283Y1581967*
X2002856Y1582053*
X2002560Y1582010*
X2002309Y1581885*
X2002142Y1581676*
X2002012Y1581374*
X2001925Y1580980*
X2001881Y1580450*
Y1580056*
X2001968Y1579706*
X2002055Y1579400*
X2002181Y1579192*
X2002476Y1578980*
X2002859Y1578895*
X2003155Y1578938*
X2003406Y1579063*
X2003573Y1579272*
X2003702Y1579574*
X2003790Y1579968*
X2003834Y1580454*
Y1580891*
X2003532Y1580809D02*
Y1580095D01*
Y1580086*
X2003487Y1579818*
Y1579817*
X2003442Y1579594*
X2003438Y1579581*
X2003349Y1579403*
X2003335Y1579386*
X2003112Y1579207*
X2003090Y1579197*
X2002867Y1579153*
X2002848*
X2002624Y1579197*
X2002603Y1579207*
X2002380Y1579386*
X2002366Y1579403*
X2002277Y1579581*
X2002273Y1579594*
X2002228Y1579817*
Y1579818*
X2002183Y1580086*
X2002182Y1580095*
Y1580809*
X2002183Y1580816*
X2002228Y1581128*
Y1581131*
X2002273Y1581354*
X2002277Y1581367*
X2002366Y1581545*
X2002380Y1581562*
X2002603Y1581741*
X2002624Y1581751*
X2002848Y1581795*
X2002866Y1581796*
X2003133Y1581751*
X2003164Y1581733*
X2003343Y1581510*
X2003345Y1581506*
X2003435Y1581372*
X2003442Y1581354*
X2003487Y1581131*
Y1581128*
X2003532Y1580816*
Y1580809*
X2001111Y1579241D02*
X2000809D01*
Y1578939*
X2001111*
Y1579241*
X2000083Y1579828D02*
X2000041Y1580081D01*
X1999958Y1580290*
X1999792Y1580455*
X1999531Y1580586*
X1999528Y1580673*
X1999746Y1580804*
X1999870Y1580928*
X1999953Y1581094*
X1999994Y1581258*
X1999952Y1581592*
X1999743Y1581843*
X1999492Y1582010*
X1999107Y1582053*
X1998723Y1582010*
X1998472Y1581843*
X1998262Y1581591*
X1998221Y1581301*
X1998262Y1581093*
X1998345Y1580928*
X1998469Y1580804*
X1998687Y1580673*
X1998677Y1580583*
X1998420Y1580497*
X1998258Y1580335*
X1998174Y1580082*
X1998132Y1579828*
X1998217Y1579443*
X1998386Y1579148*
X1998722Y1578938*
X1999107Y1578895*
X1999492Y1578938*
X1999829Y1579148*
X1999998Y1579443*
X2000083Y1579828*
X1999692Y1581243D02*
X1999647Y1581065D01*
X1999640Y1581049*
X1999551Y1580915*
X1999532Y1580898*
X1999353Y1580809*
X1999340Y1580804*
X1999117Y1580760*
X1999098*
X1998874Y1580804*
X1998862Y1580809*
X1998683Y1580898*
X1998664Y1580915*
X1998575Y1581049*
X1998567Y1581067*
X1998523Y1581290*
Y1581312*
X1998568Y1581491*
X1998575Y1581506*
X1998664Y1581640*
X1998683Y1581657*
X1998862Y1581746*
X1998874Y1581751*
X1999098Y1581795*
X1999117*
X1999340Y1581751*
X1999353Y1581746*
X1999532Y1581657*
X1999554Y1581635*
X1999643Y1581456*
X1999647Y1581446*
X1999692Y1581267*
Y1581243*
X1999782Y1579827D02*
Y1579818D01*
X1999737Y1579551*
X1999728Y1579529*
X1999594Y1579350*
X1999584Y1579340*
X1999405Y1579206*
X1999383Y1579197*
X1999116Y1579152*
X1999107*
X1998929*
X1998901Y1579160*
X1998770Y1579248*
X1998594Y1579336*
X1998575Y1579353*
X1998485Y1579486*
X1998478Y1579507*
X1998433Y1579820*
X1998432Y1579827*
X1998433Y1579836*
X1998478Y1580060*
X1998484Y1580076*
X1998618Y1580299*
X1998631Y1580313*
X1998810Y1580447*
X1998831Y1580456*
X1999099Y1580501*
X1999116*
X1999383Y1580456*
X1999405Y1580447*
X1999584Y1580313*
X1999597Y1580299*
X1999731Y1580076*
X1999737Y1580060*
X1999781Y1579836*
X1999782Y1579827*
X1997004Y1582053D02*
X1996814D01*
X1996695Y1581855*
X1996687Y1581845*
X1996464Y1581622*
X1996457Y1581615*
X1996189Y1581437*
X1996186Y1581435*
X1995898Y1581271*
Y1580979*
X1996268Y1581164*
X1996622Y1581429*
X1996702Y1581389*
Y1578939*
X1997004*
Y1582053*
X1995900Y1580980D02*
Y1581272D01*
X1996000Y1581030D02*
Y1581329D01*
X1996100Y1581080D02*
Y1581386D01*
X1996200Y1581130D02*
Y1581444D01*
X1996300Y1581188D02*
Y1581511D01*
X1996400Y1581263D02*
Y1581578D01*
X1996500Y1581338D02*
Y1581658D01*
X1996600Y1581413D02*
Y1581758D01*
X1996700Y1581403D02*
Y1581863D01*
X1996800Y1578939D02*
Y1582030D01*
X1996900Y1578939D02*
Y1582053D01*
X1997000Y1578939D02*
Y1582053D01*
X1998200Y1579520D02*
Y1580161D01*
X1998300Y1579298D02*
Y1580377D01*
Y1581018D02*
Y1581637D01*
X1998400Y1579139D02*
Y1580477D01*
Y1580873D02*
Y1581757D01*
X1998500Y1579077D02*
Y1579465D01*
Y1580102D02*
Y1580524D01*
Y1580785D02*
Y1581862D01*
X1998600Y1579014D02*
Y1579332D01*
Y1580269D02*
Y1580557D01*
Y1580725D02*
Y1581011D01*
Y1581544D02*
Y1581928D01*
X1998700Y1578952D02*
Y1579282D01*
Y1580365D02*
Y1580599D01*
Y1580661D02*
Y1580890D01*
Y1581665D02*
Y1581995D01*
X1998800Y1578929D02*
Y1579227D01*
Y1580440D02*
Y1580840D01*
Y1581715D02*
Y1582019D01*
X1998900Y1578918D02*
Y1579161D01*
Y1580468D02*
Y1580799D01*
Y1581756D02*
Y1582030D01*
X1999000Y1578907D02*
Y1579152D01*
Y1580484D02*
Y1580779D01*
Y1581776D02*
Y1582041D01*
X1999100Y1578896D02*
Y1579152D01*
Y1580501D02*
Y1580759D01*
Y1581796D02*
Y1582052D01*
X1999200Y1578905D02*
Y1579166D01*
Y1580487D02*
Y1580776D01*
Y1581779D02*
Y1582043D01*
X1999300Y1578916D02*
Y1579183D01*
Y1580470D02*
Y1580796D01*
Y1581759D02*
Y1582032D01*
X1999400Y1578927D02*
Y1579203D01*
Y1580450D02*
Y1580832D01*
Y1581723D02*
Y1582021D01*
X1999500Y1578942D02*
Y1579277D01*
Y1580376D02*
Y1580882D01*
Y1581673D02*
Y1582005D01*
X1999600Y1579005D02*
Y1579358D01*
Y1580293D02*
Y1580551D01*
Y1580716D02*
Y1580989D01*
Y1581543D02*
Y1581938D01*
X1999700Y1579067D02*
Y1579492D01*
Y1580127D02*
Y1580501D01*
Y1580776D02*
Y1581872D01*
X1999800Y1579130D02*
Y1580447D01*
Y1580858D02*
Y1581775D01*
X1999900Y1579272D02*
Y1580347D01*
Y1580988D02*
Y1581655D01*
X2000000Y1579453D02*
Y1580184D01*
X2000900Y1578939D02*
Y1579241D01*
X2001000Y1578939D02*
Y1579241D01*
X2001100Y1578939D02*
Y1579241D01*
X2001900Y1579978D02*
Y1580682D01*
X2002000Y1579594D02*
Y1581318D01*
X2002100Y1579326D02*
Y1581578D01*
X2002200Y1579178D02*
Y1579985D01*
Y1580936D02*
Y1581749D01*
X2002300Y1579106D02*
Y1579535D01*
Y1581413D02*
Y1581874D01*
X2002400Y1579035D02*
Y1579370D01*
Y1581578D02*
Y1581930D01*
X2002500Y1578975D02*
Y1579290D01*
Y1581658D02*
Y1581980D01*
X2002600Y1578953D02*
Y1579210D01*
Y1581738D02*
Y1582016D01*
X2002700Y1578931D02*
Y1579182D01*
Y1581766D02*
Y1582030D01*
X2002800Y1578909D02*
Y1579162D01*
Y1581786D02*
Y1582045D01*
X2002900Y1578901D02*
Y1579159D01*
Y1581790D02*
Y1582044D01*
X2003000Y1578915D02*
Y1579179D01*
Y1581773D02*
Y1582024D01*
X2003100Y1578930D02*
Y1579200D01*
Y1581757D02*
Y1582004D01*
X2003200Y1578960D02*
Y1579278D01*
Y1581688D02*
Y1581984D01*
X2003300Y1579010D02*
Y1579358D01*
Y1581563D02*
Y1581955D01*
X2003400Y1579060D02*
Y1579505D01*
Y1581424D02*
Y1581880D01*
X2003500Y1579181D02*
Y1579896D01*
Y1581039D02*
Y1581773D01*
X2003600Y1579335D02*
Y1581600D01*
X2003700Y1579569D02*
Y1581325D01*
X2003800Y1580078D02*
Y1581011D01*
X2004400Y1579978D02*
Y1580682D01*
X2004500Y1579594D02*
Y1581318D01*
X2004600Y1579326D02*
Y1581578D01*
X2004700Y1579178D02*
Y1579985D01*
Y1580936D02*
Y1581749D01*
X2004800Y1579106D02*
Y1579535D01*
Y1581413D02*
Y1581874D01*
X2004900Y1579035D02*
Y1579370D01*
Y1581578D02*
Y1581930D01*
X2005000Y1578975D02*
Y1579290D01*
Y1581658D02*
Y1581980D01*
X2005100Y1578953D02*
Y1579210D01*
Y1581738D02*
Y1582016D01*
X2005200Y1578931D02*
Y1579182D01*
Y1581766D02*
Y1582030D01*
X2005300Y1578909D02*
Y1579162D01*
Y1581786D02*
Y1582045D01*
X2005400Y1578901D02*
Y1579159D01*
Y1581790D02*
Y1582044D01*
X2005500Y1578915D02*
Y1579179D01*
Y1581773D02*
Y1582024D01*
X2005600Y1578930D02*
Y1579200D01*
Y1581757D02*
Y1582004D01*
X2005700Y1578960D02*
Y1579278D01*
Y1581688D02*
Y1581984D01*
X2005800Y1579010D02*
Y1579358D01*
Y1581563D02*
Y1581955D01*
X2005900Y1579060D02*
Y1579505D01*
Y1581424D02*
Y1581880D01*
X2006000Y1579181D02*
Y1579896D01*
Y1581039D02*
Y1581773D01*
X2006100Y1579335D02*
Y1581600D01*
X2006200Y1579569D02*
Y1581325D01*
X2006300Y1580078D02*
Y1581011D01*
X2007000Y1578939D02*
Y1581161D01*
X2007100Y1578939D02*
Y1581161D01*
X2007200Y1578939D02*
Y1581161D01*
X2007300Y1580593D02*
Y1580809D01*
X2007400Y1580713D02*
Y1580906D01*
X2007500Y1580833D02*
Y1581006D01*
X2007600Y1580877D02*
Y1581090D01*
X2007700Y1580905D02*
Y1581130D01*
X2007800Y1580934D02*
Y1581167D01*
X2007900Y1580939D02*
Y1581192D01*
X2008000Y1580914D02*
Y1581194D01*
X2008100Y1580871D02*
Y1581174D01*
X2008200Y1580804D02*
Y1581145D01*
X2008300Y1580616D02*
Y1581105D01*
X2008400Y1578939D02*
Y1581044D01*
X2008500Y1578939D02*
Y1580930D01*
X2008600Y1578939D02*
Y1580762D01*
X2008700Y1580617D02*
Y1580851D01*
X2008800Y1580750D02*
Y1581007D01*
X2008900Y1580827D02*
Y1581082D01*
X2009000Y1580900D02*
Y1581132D01*
X2009100Y1580921D02*
Y1581157D01*
X2009200Y1580941D02*
Y1581178D01*
X2009300Y1580937D02*
Y1581198D01*
X2009400Y1580917D02*
Y1581195D01*
X2009500Y1580889D02*
Y1581181D01*
X2009600Y1580756D02*
Y1581166D01*
X2009700Y1578939D02*
Y1581118D01*
X2009800Y1578939D02*
Y1581058D01*
X2009900Y1578939D02*
Y1580897D01*
X2010700Y1578939D02*
Y1581161D01*
X2010800Y1578939D02*
Y1581161D01*
X2010900Y1578939D02*
Y1581161D01*
X2011000Y1580460D02*
Y1580811D01*
X2011100Y1580653D02*
Y1580856D01*
X2011200Y1580773D02*
Y1580956D01*
X2011300Y1580862D02*
Y1581056D01*
X2011400Y1580891D02*
Y1581110D01*
X2011500Y1580919D02*
Y1581150D01*
X2011600Y1580948D02*
Y1581180D01*
X2011700Y1580926D02*
Y1581204D01*
X2011800Y1580901D02*
Y1581184D01*
X2011900Y1580838D02*
Y1581164D01*
X2012000Y1580716D02*
Y1581125D01*
X2012100Y1578939D02*
Y1581085D01*
X2012200Y1578939D02*
Y1580994D01*
X2012300Y1578939D02*
Y1580830D01*
X2012400Y1580505D02*
Y1580772D01*
X2012500Y1580683D02*
Y1580934D01*
X2012600Y1580790D02*
Y1581044D01*
X2012700Y1580865D02*
Y1581119D01*
X2012800Y1580911D02*
Y1581145D01*
X2012900Y1580931D02*
Y1581168D01*
X2013000Y1580947D02*
Y1581188D01*
X2013100Y1580927D02*
Y1581202D01*
X2013200Y1580907D02*
Y1581188D01*
X2013300Y1580823D02*
Y1581173D01*
X2013400Y1580678D02*
Y1581148D01*
X2013500Y1578939D02*
Y1581088D01*
X2013600Y1578939D02*
Y1580997D01*
X2013700Y1578939D02*
Y1580797D01*
X2046300Y1522660D02*
Y1522950D01*
Y1524972D02*
Y1525057D01*
X2046400Y1522660D02*
Y1523138D01*
Y1524961D02*
Y1525333D01*
X2046500Y1522660D02*
Y1523263D01*
Y1524950D02*
Y1525473D01*
X2046600Y1522660D02*
Y1523388D01*
Y1525048D02*
Y1525583D01*
X2046700Y1522660D02*
Y1522962D01*
Y1523081D02*
Y1523513D01*
Y1525242D02*
Y1525641D01*
X2046800Y1522660D02*
Y1522961D01*
Y1523206D02*
Y1523598D01*
Y1525353D02*
Y1525698D01*
X2046900Y1522660D02*
Y1522961D01*
Y1523307D02*
Y1523684D01*
Y1525428D02*
Y1525735D01*
X2047000Y1522660D02*
Y1522961D01*
Y1523382D02*
Y1523770D01*
Y1525477D02*
Y1525746D01*
X2047100Y1522660D02*
Y1522961D01*
Y1523463D02*
Y1523858D01*
Y1525493D02*
Y1525758D01*
X2047200Y1522660D02*
Y1522961D01*
Y1523546D02*
Y1523947D01*
Y1525510D02*
Y1525769D01*
X2047300Y1522660D02*
Y1522961D01*
Y1523629D02*
Y1524036D01*
Y1525506D02*
Y1525760D01*
X2047400Y1522660D02*
Y1522961D01*
Y1523717D02*
Y1524125D01*
Y1525486D02*
Y1525738D01*
X2047500Y1522660D02*
Y1522961D01*
Y1523804D02*
Y1524238D01*
Y1525460D02*
Y1525716D01*
X2047600Y1522660D02*
Y1522961D01*
Y1523892D02*
Y1524355D01*
Y1525385D02*
Y1525693D01*
X2047700Y1522660D02*
Y1522961D01*
Y1523994D02*
Y1524478D01*
Y1525304D02*
Y1525646D01*
X2047800Y1522660D02*
Y1522961D01*
Y1524114D02*
Y1524645D01*
Y1525204D02*
Y1525589D01*
X2047900Y1522660D02*
Y1522961D01*
Y1524238D02*
Y1525532D01*
X2048000Y1522660D02*
Y1522961D01*
Y1524371D02*
Y1525428D01*
X2048100Y1522660D02*
Y1522961D01*
Y1524634D02*
Y1525308D01*
X2048200Y1522660D02*
Y1522961D01*
X2048900Y1523118D02*
Y1523423D01*
Y1524167D02*
Y1524354D01*
X2049000Y1522978D02*
Y1523434D01*
Y1524156D02*
Y1524883D01*
X2049100Y1522838D02*
Y1523445D01*
Y1524145D02*
Y1525411D01*
X2049200Y1522774D02*
Y1523234D01*
Y1524145D02*
Y1525729D01*
X2049300Y1522717D02*
Y1523029D01*
Y1524245D02*
Y1524479D01*
Y1524867D02*
Y1525729D01*
X2049400Y1522659D02*
Y1522971D01*
Y1524345D02*
Y1524538D01*
Y1525416D02*
Y1525729D01*
X2049500Y1522646D02*
Y1522921D01*
Y1524378D02*
Y1524604D01*
Y1525427D02*
Y1525729D01*
X2049600Y1522633D02*
Y1522900D01*
Y1524406D02*
Y1524662D01*
Y1525427D02*
Y1525729D01*
X2049700Y1522621D02*
Y1522880D01*
Y1524435D02*
Y1524677D01*
Y1525427D02*
Y1525729D01*
X2049800Y1522625D02*
Y1522880D01*
Y1524438D02*
Y1524691D01*
Y1525427D02*
Y1525729D01*
X2049900Y1522642D02*
Y1522894D01*
Y1524423D02*
Y1524695D01*
Y1525427D02*
Y1525729D01*
X2050000Y1522658D02*
Y1522908D01*
Y1524409D02*
Y1524670D01*
Y1525427D02*
Y1525729D01*
X2050100Y1522678D02*
Y1522940D01*
Y1524380D02*
Y1524645D01*
Y1525427D02*
Y1525729D01*
X2050200Y1522698D02*
Y1523040D01*
Y1524305D02*
Y1524620D01*
Y1525427D02*
Y1525729D01*
X2050300Y1522766D02*
Y1523157D01*
Y1524205D02*
Y1524555D01*
Y1525427D02*
Y1525729D01*
X2050400Y1522845D02*
Y1523323D01*
Y1524039D02*
Y1524484D01*
Y1525427D02*
Y1525729D01*
X2050500Y1522945D02*
Y1524412D01*
Y1525427D02*
Y1525729D01*
X2050600Y1523082D02*
Y1524280D01*
X2050700Y1523257D02*
Y1524140D01*
X2051500Y1522660D02*
Y1522961D01*
X2051600Y1522660D02*
Y1522961D01*
X2051700Y1522660D02*
Y1522961D01*
X2052600Y1523310D02*
Y1523417D01*
X2052700Y1523048D02*
Y1523428D01*
Y1524162D02*
Y1524618D01*
X2052800Y1522908D02*
Y1523440D01*
Y1524151D02*
Y1525147D01*
X2052900Y1522802D02*
Y1523384D01*
Y1524140D02*
Y1525676D01*
X2053000Y1522745D02*
Y1523128D01*
Y1524195D02*
Y1524513D01*
Y1524550D02*
Y1525729D01*
X2053100Y1522688D02*
Y1522996D01*
Y1524295D02*
Y1524504D01*
Y1525184D02*
Y1525729D01*
X2053200Y1522652D02*
Y1522946D01*
Y1524363D02*
Y1524571D01*
Y1525427D02*
Y1525729D01*
X2053300Y1522640D02*
Y1522910D01*
Y1524392D02*
Y1524638D01*
Y1525427D02*
Y1525729D01*
X2053400Y1522627D02*
Y1522890D01*
Y1524421D02*
Y1524669D01*
Y1525427D02*
Y1525729D01*
X2053500Y1522617D02*
Y1522872D01*
Y1524445D02*
Y1524684D01*
Y1525427D02*
Y1525729D01*
X2053600Y1522633D02*
Y1522887D01*
Y1524431D02*
Y1524698D01*
Y1525427D02*
Y1525729D01*
X2053700Y1522650D02*
Y1522901D01*
Y1524416D02*
Y1524683D01*
Y1525427D02*
Y1525729D01*
X2053800Y1522668D02*
Y1522915D01*
Y1524402D02*
Y1524658D01*
Y1525427D02*
Y1525729D01*
X2053900Y1522688D02*
Y1522990D01*
Y1524343D02*
Y1524633D01*
Y1525427D02*
Y1525729D01*
X2054000Y1522728D02*
Y1523090D01*
Y1524268D02*
Y1524591D01*
Y1525427D02*
Y1525729D01*
X2054100Y1522803D02*
Y1523240D01*
Y1524122D02*
Y1524519D01*
Y1525427D02*
Y1525729D01*
X2054200Y1522895D02*
Y1523584D01*
Y1523778D02*
Y1524448D01*
Y1525427D02*
Y1525729D01*
X2054300Y1522995D02*
Y1524350D01*
Y1525427D02*
Y1525729D01*
X2054400Y1523169D02*
Y1524210D01*
X2054500Y1523577D02*
Y1523859D01*
X2055100Y1523623D02*
Y1524631D01*
X2055200Y1523248D02*
Y1525110D01*
X2055300Y1523015D02*
Y1525343D01*
X2055400Y1522885D02*
Y1523591D01*
Y1524789D02*
Y1525493D01*
X2055500Y1522813D02*
Y1523217D01*
Y1525171D02*
Y1525610D01*
X2055600Y1522742D02*
Y1523075D01*
Y1525314D02*
Y1525660D01*
X2055700Y1522691D02*
Y1522995D01*
Y1525394D02*
Y1525710D01*
X2055800Y1522669D02*
Y1522919D01*
Y1525470D02*
Y1525739D01*
X2055900Y1522647D02*
Y1522899D01*
Y1525490D02*
Y1525754D01*
X2056000Y1522625D02*
Y1522879D01*
Y1525510D02*
Y1525768D01*
X2056100Y1522624D02*
Y1522883D01*
Y1525507D02*
Y1525761D01*
X2056200Y1522639D02*
Y1522903D01*
Y1525490D02*
Y1525741D01*
X2056300Y1522653D02*
Y1522933D01*
Y1525474D02*
Y1525721D01*
X2056400Y1522690D02*
Y1523013D01*
Y1525385D02*
Y1525701D01*
X2056500Y1522740D02*
Y1523093D01*
Y1525260D02*
Y1525661D01*
X2056600Y1522800D02*
Y1523264D01*
Y1525116D02*
Y1525586D01*
X2056700Y1522925D02*
Y1523731D01*
Y1524626D02*
Y1525468D01*
X2056800Y1523100D02*
Y1525268D01*
X2056900Y1523369D02*
Y1524993D01*
X2057000Y1524008D02*
Y1524665D01*
X2057700Y1522660D02*
Y1524881D01*
X2057800Y1522660D02*
Y1524881D01*
X2057900Y1522660D02*
Y1524881D01*
X2058000Y1524336D02*
Y1524545D01*
X2058100Y1524456D02*
Y1524645D01*
X2058200Y1524572D02*
Y1524745D01*
X2058300Y1524602D02*
Y1524818D01*
X2058400Y1524631D02*
Y1524858D01*
X2058500Y1524660D02*
Y1524892D01*
X2058600Y1524655D02*
Y1524917D01*
X2058700Y1524630D02*
Y1524910D01*
X2058800Y1524579D02*
Y1524890D01*
X2058900Y1524498D02*
Y1524857D01*
X2059000Y1522660D02*
Y1524817D01*
X2059100Y1522660D02*
Y1524745D01*
X2059200Y1522660D02*
Y1524612D01*
X2059300Y1524009D02*
Y1524479D01*
X2059400Y1524363D02*
Y1524603D01*
X2059500Y1524487D02*
Y1524742D01*
X2059600Y1524562D02*
Y1524817D01*
X2059700Y1524625D02*
Y1524857D01*
X2059800Y1524645D02*
Y1524882D01*
X2059900Y1524665D02*
Y1524902D01*
X2060000Y1524654D02*
Y1524922D01*
X2060100Y1524634D02*
Y1524912D01*
X2060200Y1524585D02*
Y1524898D01*
X2060300Y1524451D02*
Y1524884D01*
X2060400Y1522660D02*
Y1524827D01*
X2060500Y1522660D02*
Y1524767D01*
X2060600Y1522660D02*
Y1524580D01*
X2061400Y1522660D02*
Y1524881D01*
X2061500Y1522660D02*
Y1524881D01*
X2061600Y1522660D02*
Y1524881D01*
X2061700Y1524257D02*
Y1524525D01*
X2061800Y1524396D02*
Y1524595D01*
X2061900Y1524516D02*
Y1524695D01*
X2062000Y1524588D02*
Y1524795D01*
X2062100Y1524617D02*
Y1524838D01*
X2062200Y1524645D02*
Y1524878D01*
X2062300Y1524667D02*
Y1524905D01*
X2062400Y1524642D02*
Y1524920D01*
X2062500Y1524612D02*
Y1524900D01*
X2062600Y1524545D02*
Y1524877D01*
X2062700Y1524398D02*
Y1524837D01*
X2062800Y1522660D02*
Y1524795D01*
X2062900Y1522660D02*
Y1524695D01*
X2063000Y1522660D02*
Y1524512D01*
X2063100Y1524296D02*
Y1524520D01*
X2063200Y1524429D02*
Y1524687D01*
X2063300Y1524525D02*
Y1524779D01*
X2063400Y1524600D02*
Y1524845D01*
X2063500Y1524635D02*
Y1524870D01*
X2063600Y1524655D02*
Y1524892D01*
X2063700Y1524664D02*
Y1524912D01*
X2063800Y1524644D02*
Y1524920D01*
X2063900Y1524624D02*
Y1524905D01*
X2064000Y1524518D02*
Y1524891D01*
X2064100Y1524342D02*
Y1524857D01*
X2064200Y1522660D02*
Y1524797D01*
X2064300Y1522660D02*
Y1524680D01*
X2064400Y1522660D02*
Y1524394D01*
*
G04 PC Custom Flashes*
G04 Layer Name ESP32_WROOM_32D_5X5_V2- - flashes*
%LPD*%
*
*
G04 PC Circuitry*
G04 Layer Name ESP32_WROOM_32D_5X5_V2- - circuitry*
%LPD*%
*
G54D10*
X1968504Y1574681D02*
X1968507D01*
X2039370D02*
X2039373D01*
X2039370Y1474288D02*
X2039373D01*
X2039370Y1574681D02*
X2039373D01*
G54D44*
X1968504D02*
X2039370D01*
Y1474288*
X1968504*
Y1574681*
G54D109*
X1977084Y1545758D02*
X1977175Y1545977D01*
X1977357Y1546196*
X1977539Y1546305*
X1977902*
X1978084Y1546196*
X1978266Y1545977*
X1978357Y1545758*
X1978448Y1545430*
Y1544883*
X1978357Y1544555*
X1978266Y1544336*
X1978084Y1544118*
X1977902Y1544008*
X1977539*
X1977357Y1544118*
X1977175Y1544336*
X1977084Y1544555*
Y1544883*
X1977539D02*
X1977084D01*
X1976266Y1546305D02*
Y1544008D01*
Y1546305D02*
X1974993Y1544008D01*
Y1546305D02*
Y1544008D01*
X1974175Y1546305D02*
Y1544008D01*
Y1546305D02*
X1973539D01*
X1973266Y1546196*
X1973084Y1545977*
X1972993Y1545758*
X1972902Y1545430*
Y1544883*
X1972993Y1544555*
X1973084Y1544336*
X1973266Y1544118*
X1973539Y1544008*
X1974175*
X1978266Y1541305D02*
X1977266D01*
X1977812Y1540430*
X1977539*
X1977357Y1540321*
X1977266Y1540211*
X1977175Y1539883*
Y1539664*
X1977266Y1539336*
X1977448Y1539118*
X1977721Y1539008*
X1977993*
X1978266Y1539118*
X1978357Y1539227*
X1978448Y1539446*
X1976357Y1541305D02*
X1975630Y1539008D01*
X1974902Y1541305D02*
X1975630Y1539008D01*
X1973902Y1541305D02*
X1972902D01*
X1973448Y1540430*
X1973175*
X1972993Y1540321*
X1972902Y1540211*
X1972812Y1539883*
Y1539664*
X1972902Y1539336*
X1973084Y1539118*
X1973357Y1539008*
X1973630*
X1973902Y1539118*
X1973993Y1539227*
X1974084Y1539446*
X1976254Y1536240D02*
Y1533943D01*
Y1536240D02*
X1975072D01*
X1976254Y1535146D02*
X1975527D01*
X1976254Y1533943D02*
X1975072D01*
X1974254Y1536240D02*
Y1533943D01*
Y1536240D02*
X1972981Y1533943D01*
Y1536240D02*
Y1533943D01*
X1989781Y1530912D02*
X1989963Y1531131D01*
X1990236Y1531240*
X1990599*
X1990872Y1531131*
X1991054Y1530912*
Y1530693*
X1990963Y1530474*
X1990872Y1530365*
X1990690Y1530256*
X1990145Y1530037*
X1989963Y1529928*
X1989872Y1529818*
X1989781Y1529599*
Y1529271*
X1989963Y1529053*
X1990236Y1528943*
X1990599*
X1990872Y1529053*
X1991054Y1529271*
X1988963Y1531240D02*
Y1528943D01*
Y1531240D02*
X1987781D01*
X1988963Y1530146D02*
X1988236D01*
X1988963Y1528943D02*
X1987781D01*
X1986963Y1531240D02*
Y1528943D01*
Y1531240D02*
X1985690Y1528943D01*
Y1531240D02*
Y1528943D01*
X1983599Y1530912D02*
X1983781Y1531131D01*
X1984054Y1531240*
X1984418*
X1984690Y1531131*
X1984872Y1530912*
Y1530693*
X1984781Y1530474*
X1984690Y1530365*
X1984508Y1530256*
X1983963Y1530037*
X1983781Y1529928*
X1983690Y1529818*
X1983599Y1529599*
Y1529271*
X1983781Y1529053*
X1984054Y1528943*
X1984418*
X1984690Y1529053*
X1984872Y1529271*
X1982236Y1531240D02*
X1982418Y1531131D01*
X1982599Y1530912*
X1982690Y1530693*
X1982781Y1530365*
Y1529818*
X1982690Y1529490*
X1982599Y1529271*
X1982418Y1529053*
X1982236Y1528943*
X1981872*
X1981690Y1529053*
X1981508Y1529271*
X1981418Y1529490*
X1981327Y1529818*
Y1530365*
X1981418Y1530693*
X1981508Y1530912*
X1981690Y1531131*
X1981872Y1531240*
X1982236*
X1980508D02*
Y1528943D01*
Y1531240D02*
X1979690D01*
X1979418Y1531131*
X1979327Y1531021*
X1979236Y1530803*
Y1530584*
X1979327Y1530365*
X1979418Y1530256*
X1979690Y1530146*
X1980508*
X1979872D02*
X1979236Y1528943D01*
X1978418Y1528506D02*
X1976508D01*
X1975963Y1531240D02*
X1975236Y1528943D01*
X1974508Y1531240D02*
X1975236Y1528943D01*
X1973690Y1531240D02*
Y1528943D01*
Y1531240D02*
X1972872D01*
X1972599Y1531131*
X1972508Y1531021*
X1972418Y1530803*
Y1530474*
X1972508Y1530256*
X1972599Y1530146*
X1972872Y1530037*
X1973690*
X1979054Y1521240D02*
Y1518943D01*
X1977690Y1521240D02*
X1977872Y1521131D01*
X1978054Y1520912*
X1978145Y1520693*
X1978236Y1520365*
Y1519818*
X1978145Y1519490*
X1978054Y1519271*
X1977872Y1519053*
X1977690Y1518943*
X1977327*
X1977145Y1519053*
X1976963Y1519271*
X1976872Y1519490*
X1976781Y1519818*
Y1520365*
X1976872Y1520693*
X1976963Y1520912*
X1977145Y1521131*
X1977327Y1521240*
X1977690*
X1975781D02*
X1974781D01*
X1975327Y1520365*
X1975054*
X1974872Y1520256*
X1974781Y1520146*
X1974690Y1519818*
Y1519599*
X1974781Y1519271*
X1974963Y1519053*
X1975236Y1518943*
X1975508*
X1975781Y1519053*
X1975872Y1519162*
X1975963Y1519381*
X1972963Y1521240D02*
X1973872Y1519709D01*
X1972508*
X1972963Y1521240D02*
Y1518943D01*
X1979054Y1516240D02*
Y1513943D01*
X1977690Y1516240D02*
X1977872Y1516131D01*
X1978054Y1515912*
X1978145Y1515693*
X1978236Y1515365*
Y1514818*
X1978145Y1514490*
X1978054Y1514271*
X1977872Y1514053*
X1977690Y1513943*
X1977327*
X1977145Y1514053*
X1976963Y1514271*
X1976872Y1514490*
X1976781Y1514818*
Y1515365*
X1976872Y1515693*
X1976963Y1515912*
X1977145Y1516131*
X1977327Y1516240*
X1977690*
X1975781D02*
X1974781D01*
X1975327Y1515365*
X1975054*
X1974872Y1515256*
X1974781Y1515146*
X1974690Y1514818*
Y1514599*
X1974781Y1514271*
X1974963Y1514053*
X1975236Y1513943*
X1975508*
X1975781Y1514053*
X1975872Y1514162*
X1975963Y1514381*
X1972690Y1516240D02*
X1973599D01*
X1973690Y1515256*
X1973599Y1515365*
X1973327Y1515474*
X1973054*
X1972781Y1515365*
X1972599Y1515146*
X1972508Y1514818*
X1972599Y1514599*
X1972690Y1514271*
X1972872Y1514053*
X1973145Y1513943*
X1973418*
X1973690Y1514053*
X1973781Y1514162*
X1973872Y1514381*
X1979054Y1511240D02*
Y1508943D01*
X1977690Y1511240D02*
X1977872Y1511131D01*
X1978054Y1510912*
X1978145Y1510693*
X1978236Y1510365*
Y1509818*
X1978145Y1509490*
X1978054Y1509271*
X1977872Y1509053*
X1977690Y1508943*
X1977327*
X1977145Y1509053*
X1976963Y1509271*
X1976872Y1509490*
X1976781Y1509818*
Y1510365*
X1976872Y1510693*
X1976963Y1510912*
X1977145Y1511131*
X1977327Y1511240*
X1977690*
X1975781D02*
X1974781D01*
X1975327Y1510365*
X1975054*
X1974872Y1510256*
X1974781Y1510146*
X1974690Y1509818*
Y1509599*
X1974781Y1509271*
X1974963Y1509053*
X1975236Y1508943*
X1975508*
X1975781Y1509053*
X1975872Y1509162*
X1975963Y1509381*
X1973781Y1510693D02*
Y1510803D01*
X1973690Y1511021*
X1973599Y1511131*
X1973418Y1511240*
X1973054*
X1972872Y1511131*
X1972781Y1511021*
X1972690Y1510803*
Y1510584*
X1972781Y1510365*
X1972963Y1510037*
X1973872Y1508943*
X1972599*
X1979054Y1506240D02*
Y1503943D01*
X1977690Y1506240D02*
X1977872Y1506131D01*
X1978054Y1505912*
X1978145Y1505693*
X1978236Y1505365*
Y1504818*
X1978145Y1504490*
X1978054Y1504271*
X1977872Y1504053*
X1977690Y1503943*
X1977327*
X1977145Y1504053*
X1976963Y1504271*
X1976872Y1504490*
X1976781Y1504818*
Y1505365*
X1976872Y1505693*
X1976963Y1505912*
X1977145Y1506131*
X1977327Y1506240*
X1977690*
X1975781D02*
X1974781D01*
X1975327Y1505365*
X1975054*
X1974872Y1505256*
X1974781Y1505146*
X1974690Y1504818*
Y1504599*
X1974781Y1504271*
X1974963Y1504053*
X1975236Y1503943*
X1975508*
X1975781Y1504053*
X1975872Y1504162*
X1975963Y1504381*
X1973690Y1506240D02*
X1972690D01*
X1973236Y1505365*
X1972963*
X1972781Y1505256*
X1972690Y1505146*
X1972599Y1504818*
Y1504599*
X1972690Y1504271*
X1972872Y1504053*
X1973145Y1503943*
X1973418*
X1973690Y1504053*
X1973781Y1504162*
X1973872Y1504381*
X1979054Y1501240D02*
Y1498943D01*
X1977690Y1501240D02*
X1977872Y1501131D01*
X1978054Y1500912*
X1978145Y1500693*
X1978236Y1500365*
Y1499818*
X1978145Y1499490*
X1978054Y1499271*
X1977872Y1499053*
X1977690Y1498943*
X1977327*
X1977145Y1499053*
X1976963Y1499271*
X1976872Y1499490*
X1976781Y1499818*
Y1500365*
X1976872Y1500693*
X1976963Y1500912*
X1977145Y1501131*
X1977327Y1501240*
X1977690*
X1975872Y1500693D02*
Y1500803D01*
X1975781Y1501021*
X1975690Y1501131*
X1975508Y1501240*
X1975145*
X1974963Y1501131*
X1974872Y1501021*
X1974781Y1500803*
Y1500584*
X1974872Y1500365*
X1975054Y1500037*
X1975963Y1498943*
X1974690*
X1972690Y1501240D02*
X1973599D01*
X1973690Y1500256*
X1973599Y1500365*
X1973327Y1500474*
X1973054*
X1972781Y1500365*
X1972599Y1500146*
X1972508Y1499818*
X1972599Y1499599*
X1972690Y1499271*
X1972872Y1499053*
X1973145Y1498943*
X1973418*
X1973690Y1499053*
X1973781Y1499162*
X1973872Y1499381*
X1979054Y1496240D02*
Y1493943D01*
X1977690Y1496240D02*
X1977872Y1496131D01*
X1978054Y1495912*
X1978145Y1495693*
X1978236Y1495365*
Y1494818*
X1978145Y1494490*
X1978054Y1494271*
X1977872Y1494053*
X1977690Y1493943*
X1977327*
X1977145Y1494053*
X1976963Y1494271*
X1976872Y1494490*
X1976781Y1494818*
Y1495365*
X1976872Y1495693*
X1976963Y1495912*
X1977145Y1496131*
X1977327Y1496240*
X1977690*
X1975872Y1495693D02*
Y1495803D01*
X1975781Y1496021*
X1975690Y1496131*
X1975508Y1496240*
X1975145*
X1974963Y1496131*
X1974872Y1496021*
X1974781Y1495803*
Y1495584*
X1974872Y1495365*
X1975054Y1495037*
X1975963Y1493943*
X1974690*
X1972781Y1495912D02*
X1972872Y1496131D01*
X1973145Y1496240*
X1973327*
X1973599Y1496131*
X1973781Y1495803*
X1973872Y1495256*
Y1494709*
X1973781Y1494271*
X1973599Y1494053*
X1973327Y1493943*
X1973236*
X1972963Y1494053*
X1972781Y1494271*
X1972690Y1494599*
Y1494709*
X1972781Y1495037*
X1972963Y1495256*
X1973236Y1495365*
X1973327*
X1973599Y1495256*
X1973781Y1495037*
X1973872Y1494709*
X1979054Y1491240D02*
Y1488943D01*
X1977690Y1491240D02*
X1977872Y1491131D01*
X1978054Y1490912*
X1978145Y1490693*
X1978236Y1490365*
Y1489818*
X1978145Y1489490*
X1978054Y1489271*
X1977872Y1489053*
X1977690Y1488943*
X1977327*
X1977145Y1489053*
X1976963Y1489271*
X1976872Y1489490*
X1976781Y1489818*
Y1490365*
X1976872Y1490693*
X1976963Y1490912*
X1977145Y1491131*
X1977327Y1491240*
X1977690*
X1975872Y1490693D02*
Y1490803D01*
X1975781Y1491021*
X1975690Y1491131*
X1975508Y1491240*
X1975145*
X1974963Y1491131*
X1974872Y1491021*
X1974781Y1490803*
Y1490584*
X1974872Y1490365*
X1975054Y1490037*
X1975963Y1488943*
X1974690*
X1972599Y1491240D02*
X1973508Y1488943D01*
X1973872Y1491240D02*
X1972599D01*
X1978254Y1486240D02*
Y1483943D01*
X1976890Y1486240D02*
X1977072Y1486131D01*
X1977254Y1485912*
X1977345Y1485693*
X1977436Y1485365*
Y1484818*
X1977345Y1484490*
X1977254Y1484271*
X1977072Y1484053*
X1976890Y1483943*
X1976527*
X1976345Y1484053*
X1976163Y1484271*
X1976072Y1484490*
X1975981Y1484818*
Y1485365*
X1976072Y1485693*
X1976163Y1485912*
X1976345Y1486131*
X1976527Y1486240*
X1976890*
X1975163Y1485803D02*
X1974981Y1485912D01*
X1974708Y1486240*
Y1483943*
X1972981Y1486240D02*
X1973890Y1484709D01*
X1972527*
X1972981Y1486240D02*
Y1483943D01*
X1978254Y1481240D02*
Y1478943D01*
X1976890Y1481240D02*
X1977072Y1481131D01*
X1977254Y1480912*
X1977345Y1480693*
X1977436Y1480365*
Y1479818*
X1977345Y1479490*
X1977254Y1479271*
X1977072Y1479053*
X1976890Y1478943*
X1976527*
X1976345Y1479053*
X1976163Y1479271*
X1976072Y1479490*
X1975981Y1479818*
Y1480365*
X1976072Y1480693*
X1976163Y1480912*
X1976345Y1481131*
X1976527Y1481240*
X1976890*
X1975163Y1480803D02*
X1974981Y1480912D01*
X1974708Y1481240*
Y1478943*
X1973799Y1480693D02*
Y1480803D01*
X1973708Y1481021*
X1973618Y1481131*
X1973436Y1481240*
X1973072*
X1972890Y1481131*
X1972799Y1481021*
X1972708Y1480803*
Y1480584*
X1972799Y1480365*
X1972981Y1480037*
X1973890Y1478943*
X1972618*
X1985457Y1484053D02*
X1987754D01*
X1985457Y1482690D02*
X1985566Y1482871D01*
X1985785Y1483053*
X1986004Y1483144*
X1986332Y1483235*
X1986879*
X1987207Y1483144*
X1987426Y1483053*
X1987645Y1482871*
X1987754Y1482690*
Y1482326*
X1987645Y1482144*
X1987426Y1481962*
X1987207Y1481871*
X1986879Y1481780*
X1986332*
X1986004Y1481871*
X1985785Y1481962*
X1985566Y1482144*
X1985457Y1482326*
Y1482690*
X1985895Y1480962D02*
X1985785Y1480780D01*
X1985457Y1480508*
X1987754*
X1985457Y1479508D02*
Y1478508D01*
X1986332Y1479053*
Y1478780*
X1986441Y1478599*
X1986551Y1478508*
X1986879Y1478417*
X1987098*
X1987426Y1478508*
X1987645Y1478690*
X1987754Y1478962*
Y1479235*
X1987645Y1479508*
X1987535Y1479599*
X1987316Y1479690*
X1990785Y1482780D02*
X1990566Y1482962D01*
X1990457Y1483235*
Y1483599*
X1990566Y1483871*
X1990785Y1484053*
X1991004*
X1991223Y1483962*
X1991332Y1483871*
X1991441Y1483690*
X1991660Y1483144*
X1991770Y1482962*
X1991879Y1482871*
X1992098Y1482780*
X1992426*
X1992645Y1482962*
X1992754Y1483235*
Y1483599*
X1992645Y1483871*
X1992426Y1484053*
X1990457Y1481962D02*
X1992754D01*
X1990457D02*
Y1481326D01*
X1990566Y1481053*
X1990785Y1480871*
X1991004Y1480780*
X1991332Y1480690*
X1991879*
X1992207Y1480780*
X1992426Y1480871*
X1992645Y1481053*
X1992754Y1481326*
Y1481962*
X1991004Y1479780D02*
X1990895D01*
X1990676Y1479690*
X1990566Y1479599*
X1990457Y1479417*
Y1479053*
X1990566Y1478871*
X1990676Y1478780*
X1990895Y1478690*
X1991113*
X1991332Y1478780*
X1991660Y1478962*
X1992754Y1479871*
Y1478599*
X1995785Y1482780D02*
X1995566Y1482962D01*
X1995457Y1483235*
Y1483599*
X1995566Y1483871*
X1995785Y1484053*
X1996004*
X1996223Y1483962*
X1996332Y1483871*
X1996441Y1483690*
X1996660Y1483144*
X1996770Y1482962*
X1996879Y1482871*
X1997098Y1482780*
X1997426*
X1997645Y1482962*
X1997754Y1483235*
Y1483599*
X1997645Y1483871*
X1997426Y1484053*
X1995457Y1481962D02*
X1997754D01*
X1995457D02*
Y1481326D01*
X1995566Y1481053*
X1995785Y1480871*
X1996004Y1480780*
X1996332Y1480690*
X1996879*
X1997207Y1480780*
X1997426Y1480871*
X1997645Y1481053*
X1997754Y1481326*
Y1481962*
X1995457Y1479690D02*
Y1478690D01*
X1996332Y1479235*
Y1478962*
X1996441Y1478780*
X1996551Y1478690*
X1996879Y1478599*
X1997098*
X1997426Y1478690*
X1997645Y1478871*
X1997754Y1479144*
Y1479417*
X1997645Y1479690*
X1997535Y1479780*
X1997316Y1479871*
X2001004Y1482690D02*
X2000785Y1482780D01*
X2000566Y1482962*
X2000457Y1483144*
Y1483508*
X2000566Y1483690*
X2000785Y1483871*
X2001004Y1483962*
X2001332Y1484053*
X2001879*
X2002207Y1483962*
X2002426Y1483871*
X2002645Y1483690*
X2002754Y1483508*
Y1483144*
X2002645Y1482962*
X2002426Y1482780*
X2002207Y1482690*
X2000457Y1481871D02*
X2002754D01*
X2000457D02*
X2002754Y1481144D01*
X2000457Y1480417D02*
X2002754Y1481144D01*
X2000457Y1480417D02*
X2002754D01*
X2000457Y1479599D02*
X2002754D01*
X2000457D02*
Y1478962D01*
X2000566Y1478690*
X2000785Y1478508*
X2001004Y1478417*
X2001332Y1478326*
X2001879*
X2002207Y1478417*
X2002426Y1478508*
X2002645Y1478690*
X2002754Y1478962*
Y1479599*
X2006004Y1482690D02*
X2005785Y1482780D01*
X2005566Y1482962*
X2005457Y1483144*
Y1483508*
X2005566Y1483690*
X2005785Y1483871*
X2006004Y1483962*
X2006332Y1484053*
X2006879*
X2007207Y1483962*
X2007426Y1483871*
X2007645Y1483690*
X2007754Y1483508*
Y1483144*
X2007645Y1482962*
X2007426Y1482780*
X2007207Y1482690*
X2005457Y1481871D02*
X2007754D01*
Y1480780*
X2005457Y1479962D02*
X2007754D01*
X2005457Y1478690D02*
X2006988Y1479962D01*
X2006441Y1479508D02*
X2007754Y1478690D01*
X2010785Y1482780D02*
X2010566Y1482962D01*
X2010457Y1483235*
Y1483599*
X2010566Y1483871*
X2010785Y1484053*
X2011004*
X2011223Y1483962*
X2011332Y1483871*
X2011441Y1483690*
X2011660Y1483144*
X2011770Y1482962*
X2011879Y1482871*
X2012098Y1482780*
X2012426*
X2012645Y1482962*
X2012754Y1483235*
Y1483599*
X2012645Y1483871*
X2012426Y1484053*
X2010457Y1481962D02*
X2012754D01*
X2010457D02*
Y1481326D01*
X2010566Y1481053*
X2010785Y1480871*
X2011004Y1480780*
X2011332Y1480690*
X2011879*
X2012207Y1480780*
X2012426Y1480871*
X2012645Y1481053*
X2012754Y1481326*
Y1481962*
X2010457Y1479326D02*
X2010566Y1479599D01*
X2010895Y1479780*
X2011441Y1479871*
X2011770*
X2012316Y1479780*
X2012645Y1479599*
X2012754Y1479326*
Y1479144*
X2012645Y1478871*
X2012316Y1478690*
X2011770Y1478599*
X2011441*
X2010895Y1478690*
X2010566Y1478871*
X2010457Y1479144*
Y1479326*
X2015785Y1482280D02*
X2015566Y1482462D01*
X2015457Y1482735*
Y1483099*
X2015566Y1483371*
X2015785Y1483553*
X2016004*
X2016223Y1483462*
X2016332Y1483371*
X2016441Y1483190*
X2016660Y1482644*
X2016770Y1482462*
X2016879Y1482371*
X2017098Y1482280*
X2017426*
X2017645Y1482462*
X2017754Y1482735*
Y1483099*
X2017645Y1483371*
X2017426Y1483553*
X2015457Y1481462D02*
X2017754D01*
X2015457D02*
Y1480826D01*
X2015566Y1480553*
X2015785Y1480371*
X2016004Y1480280*
X2016332Y1480190*
X2016879*
X2017207Y1480280*
X2017426Y1480371*
X2017645Y1480553*
X2017754Y1480826*
Y1481462*
X2015895Y1479371D02*
X2015785Y1479190D01*
X2015457Y1478917*
X2017754*
X2020457Y1484053D02*
X2022754D01*
X2020457Y1482690D02*
X2020566Y1482871D01*
X2020785Y1483053*
X2021004Y1483144*
X2021332Y1483235*
X2021879*
X2022207Y1483144*
X2022426Y1483053*
X2022645Y1482871*
X2022754Y1482690*
Y1482326*
X2022645Y1482144*
X2022426Y1481962*
X2022207Y1481871*
X2021879Y1481780*
X2021332*
X2021004Y1481871*
X2020785Y1481962*
X2020566Y1482144*
X2020457Y1482326*
Y1482690*
X2020895Y1480962D02*
X2020785Y1480780D01*
X2020457Y1480508*
X2022754*
X2020457Y1478508D02*
Y1479417D01*
X2021441Y1479508*
X2021332Y1479417*
X2021223Y1479144*
Y1478871*
X2021332Y1478599*
X2021551Y1478417*
X2021879Y1478326*
X2022098Y1478417*
X2022426Y1478508*
X2022645Y1478690*
X2022754Y1478962*
Y1479235*
X2022645Y1479508*
X2022535Y1479599*
X2022316Y1479690*
X2025457Y1483053D02*
X2027754D01*
X2025457Y1481690D02*
X2025566Y1481871D01*
X2025785Y1482053*
X2026004Y1482144*
X2026332Y1482235*
X2026879*
X2027207Y1482144*
X2027426Y1482053*
X2027645Y1481871*
X2027754Y1481690*
Y1481326*
X2027645Y1481144*
X2027426Y1480962*
X2027207Y1480871*
X2026879Y1480780*
X2026332*
X2026004Y1480871*
X2025785Y1480962*
X2025566Y1481144*
X2025457Y1481326*
Y1481690*
X2026004Y1479871D02*
X2025895D01*
X2025676Y1479780*
X2025566Y1479690*
X2025457Y1479508*
Y1479144*
X2025566Y1478962*
X2025676Y1478871*
X2025895Y1478780*
X2026113*
X2026332Y1478871*
X2026660Y1479053*
X2027754Y1479962*
Y1478690*
X2035254Y1481240D02*
Y1478943D01*
X2033890Y1481240D02*
X2034072Y1481131D01*
X2034254Y1480912*
X2034345Y1480693*
X2034436Y1480365*
Y1479818*
X2034345Y1479490*
X2034254Y1479271*
X2034072Y1479053*
X2033890Y1478943*
X2033527*
X2033345Y1479053*
X2033163Y1479271*
X2033072Y1479490*
X2032981Y1479818*
Y1480365*
X2033072Y1480693*
X2033163Y1480912*
X2033345Y1481131*
X2033527Y1481240*
X2033890*
X2031618D02*
X2031890Y1481131D01*
X2032072Y1480803*
X2032163Y1480256*
Y1479928*
X2032072Y1479381*
X2031890Y1479053*
X2031618Y1478943*
X2031436*
X2031163Y1479053*
X2030981Y1479381*
X2030890Y1479928*
Y1480256*
X2030981Y1480803*
X2031163Y1481131*
X2031436Y1481240*
X2031618*
X2035254Y1486240D02*
Y1483943D01*
X2033890Y1486240D02*
X2034072Y1486131D01*
X2034254Y1485912*
X2034345Y1485693*
X2034436Y1485365*
Y1484818*
X2034345Y1484490*
X2034254Y1484271*
X2034072Y1484053*
X2033890Y1483943*
X2033527*
X2033345Y1484053*
X2033163Y1484271*
X2033072Y1484490*
X2032981Y1484818*
Y1485365*
X2033072Y1485693*
X2033163Y1485912*
X2033345Y1486131*
X2033527Y1486240*
X2033890*
X2031254D02*
X2032163Y1484709D01*
X2030799*
X2031254Y1486240D02*
Y1483943D01*
X2034413Y1501123D02*
Y1498826D01*
X2033049Y1501123D02*
X2033231Y1501013D01*
X2033413Y1500795*
X2033504Y1500576*
X2033595Y1500248*
Y1499701*
X2033504Y1499373*
X2033413Y1499154*
X2033231Y1498935*
X2033049Y1498826*
X2032686*
X2032504Y1498935*
X2032322Y1499154*
X2032231Y1499373*
X2032140Y1499701*
Y1500248*
X2032231Y1500576*
X2032322Y1500795*
X2032504Y1501013*
X2032686Y1501123*
X2033049*
X2030140D02*
X2031049D01*
X2031140Y1500138*
X2031049Y1500248*
X2030777Y1500357*
X2030504*
X2030231Y1500248*
X2030049Y1500029*
X2029958Y1499701*
X2030049Y1499482*
X2030140Y1499154*
X2030322Y1498935*
X2030595Y1498826*
X2030868*
X2031140Y1498935*
X2031231Y1499045*
X2031322Y1499263*
X2035254Y1491240D02*
Y1488943D01*
X2033890Y1491240D02*
X2034072Y1491131D01*
X2034254Y1490912*
X2034345Y1490693*
X2034436Y1490365*
Y1489818*
X2034345Y1489490*
X2034254Y1489271*
X2034072Y1489053*
X2033890Y1488943*
X2033527*
X2033345Y1489053*
X2033163Y1489271*
X2033072Y1489490*
X2032981Y1489818*
Y1490365*
X2033072Y1490693*
X2033163Y1490912*
X2033345Y1491131*
X2033527Y1491240*
X2033890*
X2032163Y1490803D02*
X2031981Y1490912D01*
X2031708Y1491240*
Y1488943*
X2029799Y1490912D02*
X2029890Y1491131D01*
X2030163Y1491240*
X2030345*
X2030618Y1491131*
X2030799Y1490803*
X2030890Y1490256*
Y1489709*
X2030799Y1489271*
X2030618Y1489053*
X2030345Y1488943*
X2030254*
X2029981Y1489053*
X2029799Y1489271*
X2029708Y1489599*
Y1489709*
X2029799Y1490037*
X2029981Y1490256*
X2030254Y1490365*
X2030345*
X2030618Y1490256*
X2030799Y1490037*
X2030890Y1489709*
X2035504Y1496123D02*
Y1493826D01*
X2034140Y1496123D02*
X2034322Y1496013D01*
X2034504Y1495795*
X2034595Y1495576*
X2034686Y1495248*
Y1494701*
X2034595Y1494373*
X2034504Y1494154*
X2034322Y1493935*
X2034140Y1493826*
X2033777*
X2033595Y1493935*
X2033413Y1494154*
X2033322Y1494373*
X2033231Y1494701*
Y1495248*
X2033322Y1495576*
X2033413Y1495795*
X2033595Y1496013*
X2033777Y1496123*
X2034140*
X2032413Y1495685D02*
X2032231Y1495795D01*
X2031958Y1496123*
Y1493826*
X2029868Y1496123D02*
X2030777Y1493826D01*
X2031140Y1496123D02*
X2029868D01*
X2035004Y1506123D02*
Y1503826D01*
X2033640Y1506123D02*
X2033822Y1506013D01*
X2034004Y1505795*
X2034095Y1505576*
X2034186Y1505248*
Y1504701*
X2034095Y1504373*
X2034004Y1504154*
X2033822Y1503935*
X2033640Y1503826*
X2033277*
X2033095Y1503935*
X2032913Y1504154*
X2032822Y1504373*
X2032731Y1504701*
Y1505248*
X2032822Y1505576*
X2032913Y1505795*
X2033095Y1506013*
X2033277Y1506123*
X2033640*
X2031913Y1505685D02*
X2031731Y1505795D01*
X2031458Y1506123*
Y1503826*
X2030186Y1506123D02*
X2030458Y1506013D01*
X2030549Y1505795*
Y1505576*
X2030458Y1505357*
X2030277Y1505248*
X2029913Y1505138*
X2029640Y1505029*
X2029458Y1504810*
X2029368Y1504592*
Y1504263*
X2029458Y1504045*
X2029549Y1503935*
X2029822Y1503826*
X2030186*
X2030458Y1503935*
X2030549Y1504045*
X2030640Y1504263*
Y1504592*
X2030549Y1504810*
X2030368Y1505029*
X2030095Y1505138*
X2029731Y1505248*
X2029549Y1505357*
X2029458Y1505576*
Y1505795*
X2029549Y1506013*
X2029822Y1506123*
X2030186*
X2034822Y1531123D02*
Y1528826D01*
X2035458Y1531123D02*
X2034186D01*
X2033368D02*
X2032095Y1528826D01*
Y1531123D02*
X2033368Y1528826D01*
X2031277Y1531123D02*
Y1528826D01*
Y1531123D02*
X2030640D01*
X2030368Y1531013*
X2030186Y1530795*
X2030095Y1530576*
X2030004Y1530248*
Y1529701*
X2030095Y1529373*
X2030186Y1529154*
X2030368Y1528935*
X2030640Y1528826*
X2031277*
X2028640Y1531123D02*
X2028913Y1531013D01*
X2029095Y1530685*
X2029186Y1530138*
Y1529810*
X2029095Y1529263*
X2028913Y1528935*
X2028640Y1528826*
X2028458*
X2028186Y1528935*
X2028004Y1529263*
X2027913Y1529810*
Y1530138*
X2028004Y1530685*
X2028186Y1531013*
X2028458Y1531123*
X2028640*
X2035258Y1526123D02*
Y1523826D01*
Y1526123D02*
X2034440D01*
X2034168Y1526013*
X2034077Y1525904*
X2033986Y1525685*
Y1525467*
X2034077Y1525248*
X2034168Y1525138*
X2034440Y1525029*
X2035258*
X2034622D02*
X2033986Y1523826D01*
X2033168Y1526123D02*
X2031895Y1523826D01*
Y1526123D02*
X2033168Y1523826D01*
X2031077Y1526123D02*
Y1523826D01*
Y1526123D02*
X2030440D01*
X2030168Y1526013*
X2029986Y1525795*
X2029895Y1525576*
X2029804Y1525248*
Y1524701*
X2029895Y1524373*
X2029986Y1524154*
X2030168Y1523935*
X2030440Y1523826*
X2031077*
X2028440Y1526123D02*
X2028713Y1526013D01*
X2028895Y1525685*
X2028986Y1525138*
Y1524810*
X2028895Y1524263*
X2028713Y1523935*
X2028440Y1523826*
X2028258*
X2027986Y1523935*
X2027804Y1524263*
X2027713Y1524810*
Y1525138*
X2027804Y1525685*
X2027986Y1526013*
X2028258Y1526123*
X2028440*
X2034913Y1536123D02*
Y1533826D01*
X2033549Y1536123D02*
X2033731Y1536013D01*
X2033913Y1535795*
X2034004Y1535576*
X2034095Y1535248*
Y1534701*
X2034004Y1534373*
X2033913Y1534154*
X2033731Y1533935*
X2033549Y1533826*
X2033186*
X2033004Y1533935*
X2032822Y1534154*
X2032731Y1534373*
X2032640Y1534701*
Y1535248*
X2032731Y1535576*
X2032822Y1535795*
X2033004Y1536013*
X2033186Y1536123*
X2033549*
X2031731Y1535576D02*
Y1535685D01*
X2031640Y1535904*
X2031549Y1536013*
X2031368Y1536123*
X2031004*
X2030822Y1536013*
X2030731Y1535904*
X2030640Y1535685*
Y1535467*
X2030731Y1535248*
X2030913Y1534920*
X2031822Y1533826*
X2030549*
X2029640Y1535576D02*
Y1535685D01*
X2029549Y1535904*
X2029458Y1536013*
X2029277Y1536123*
X2028913*
X2028731Y1536013*
X2028640Y1535904*
X2028549Y1535685*
Y1535467*
X2028640Y1535248*
X2028822Y1534920*
X2029731Y1533826*
X2028458*
X2035304Y1521123D02*
Y1518826D01*
X2033940Y1521123D02*
X2034122Y1521013D01*
X2034304Y1520795*
X2034395Y1520576*
X2034486Y1520248*
Y1519701*
X2034395Y1519373*
X2034304Y1519154*
X2034122Y1518935*
X2033940Y1518826*
X2033577*
X2033395Y1518935*
X2033213Y1519154*
X2033122Y1519373*
X2033031Y1519701*
Y1520248*
X2033122Y1520576*
X2033213Y1520795*
X2033395Y1521013*
X2033577Y1521123*
X2033940*
X2032122Y1520576D02*
Y1520685D01*
X2032031Y1520904*
X2031940Y1521013*
X2031758Y1521123*
X2031395*
X2031213Y1521013*
X2031122Y1520904*
X2031031Y1520685*
Y1520467*
X2031122Y1520248*
X2031304Y1519920*
X2032213Y1518826*
X2030940*
X2030122Y1520685D02*
X2029940Y1520795D01*
X2029668Y1521123*
Y1518826*
X2035375Y1516314D02*
Y1514017D01*
Y1516314D02*
X2034102Y1514017D01*
Y1516314D02*
Y1514017D01*
X2031920Y1515767D02*
X2032011Y1515986D01*
X2032193Y1516204*
X2032375Y1516314*
X2032739*
X2032920Y1516204*
X2033102Y1515986*
X2033193Y1515767*
X2033284Y1515439*
Y1514892*
X2033193Y1514564*
X2033102Y1514345*
X2032920Y1514126*
X2032739Y1514017*
X2032375*
X2032193Y1514126*
X2032011Y1514345*
X2031920Y1514564*
X2034958Y1511123D02*
Y1508826D01*
X2033595Y1511123D02*
X2033777Y1511013D01*
X2033958Y1510795*
X2034049Y1510576*
X2034140Y1510248*
Y1509701*
X2034049Y1509373*
X2033958Y1509154*
X2033777Y1508935*
X2033595Y1508826*
X2033231*
X2033049Y1508935*
X2032868Y1509154*
X2032777Y1509373*
X2032686Y1509701*
Y1510248*
X2032777Y1510576*
X2032868Y1510795*
X2033049Y1511013*
X2033231Y1511123*
X2033595*
X2031868Y1510685D02*
X2031686Y1510795D01*
X2031413Y1511123*
Y1508826*
X2029413Y1510357D02*
X2029504Y1510029D01*
X2029686Y1509810*
X2029958Y1509701*
X2030049*
X2030322Y1509810*
X2030504Y1510029*
X2030595Y1510357*
Y1510467*
X2030504Y1510795*
X2030322Y1511013*
X2030049Y1511123*
X2029958*
X2029686Y1511013*
X2029504Y1510795*
X2029413Y1510357*
Y1509810*
X2029504Y1509263*
X2029686Y1508935*
X2029958Y1508826*
X2030140*
X2030413Y1508935*
X2030504Y1509154*
X2033992Y1545860D02*
X2034083Y1546079D01*
X2034265Y1546297*
X2034446Y1546407*
X2034810*
X2034992Y1546297*
X2035174Y1546079*
X2035265Y1545860*
X2035355Y1545532*
Y1544985*
X2035265Y1544657*
X2035174Y1544438*
X2034992Y1544219*
X2034810Y1544110*
X2034446*
X2034265Y1544219*
X2034083Y1544438*
X2033992Y1544657*
Y1544985*
X2034446D02*
X2033992D01*
X2033174Y1546407D02*
Y1544110D01*
Y1546407D02*
X2031901Y1544110D01*
Y1546407D02*
Y1544110D01*
X2031083Y1546407D02*
Y1544110D01*
Y1546407D02*
X2030446D01*
X2030174Y1546297*
X2029992Y1546079*
X2029901Y1545860*
X2029810Y1545532*
Y1544985*
X2029901Y1544657*
X2029992Y1544438*
X2030174Y1544219*
X2030446Y1544110*
X2031083*
X1989781Y1525912D02*
X1989963Y1526131D01*
X1990236Y1526240*
X1990599*
X1990872Y1526131*
X1991054Y1525912*
Y1525693*
X1990963Y1525474*
X1990872Y1525365*
X1990690Y1525256*
X1990145Y1525037*
X1989963Y1524928*
X1989872Y1524818*
X1989781Y1524599*
Y1524271*
X1989963Y1524053*
X1990236Y1523943*
X1990599*
X1990872Y1524053*
X1991054Y1524271*
X1988963Y1526240D02*
Y1523943D01*
Y1526240D02*
X1987781D01*
X1988963Y1525146D02*
X1988236D01*
X1988963Y1523943D02*
X1987781D01*
X1986963Y1526240D02*
Y1523943D01*
Y1526240D02*
X1985690Y1523943D01*
Y1526240D02*
Y1523943D01*
X1983599Y1525912D02*
X1983781Y1526131D01*
X1984054Y1526240*
X1984418*
X1984690Y1526131*
X1984872Y1525912*
Y1525693*
X1984781Y1525474*
X1984690Y1525365*
X1984508Y1525256*
X1983963Y1525037*
X1983781Y1524928*
X1983690Y1524818*
X1983599Y1524599*
Y1524271*
X1983781Y1524053*
X1984054Y1523943*
X1984418*
X1984690Y1524053*
X1984872Y1524271*
X1982236Y1526240D02*
X1982418Y1526131D01*
X1982599Y1525912*
X1982690Y1525693*
X1982781Y1525365*
Y1524818*
X1982690Y1524490*
X1982599Y1524271*
X1982418Y1524053*
X1982236Y1523943*
X1981872*
X1981690Y1524053*
X1981508Y1524271*
X1981418Y1524490*
X1981327Y1524818*
Y1525365*
X1981418Y1525693*
X1981508Y1525912*
X1981690Y1526131*
X1981872Y1526240*
X1982236*
X1980508D02*
Y1523943D01*
Y1526240D02*
X1979690D01*
X1979418Y1526131*
X1979327Y1526021*
X1979236Y1525803*
Y1525584*
X1979327Y1525365*
X1979418Y1525256*
X1979690Y1525146*
X1980508*
X1979872D02*
X1979236Y1523943D01*
X1978418Y1523506D02*
X1976508D01*
X1975963Y1526240D02*
X1975236Y1523943D01*
X1974508Y1526240D02*
X1975236Y1523943D01*
X1973690Y1526240D02*
Y1523943D01*
Y1526240D02*
X1972418Y1523943D01*
Y1526240D02*
Y1523943D01*
X2034913Y1541123D02*
Y1538826D01*
X2033549Y1541123D02*
X2033731Y1541013D01*
X2033913Y1540795*
X2034004Y1540576*
X2034095Y1540248*
Y1539701*
X2034004Y1539373*
X2033913Y1539154*
X2033731Y1538935*
X2033549Y1538826*
X2033186*
X2033004Y1538935*
X2032822Y1539154*
X2032731Y1539373*
X2032640Y1539701*
Y1540248*
X2032731Y1540576*
X2032822Y1540795*
X2033004Y1541013*
X2033186Y1541123*
X2033549*
X2031731Y1540576D02*
Y1540685D01*
X2031640Y1540904*
X2031549Y1541013*
X2031368Y1541123*
X2031004*
X2030822Y1541013*
X2030731Y1540904*
X2030640Y1540685*
Y1540467*
X2030731Y1540248*
X2030913Y1539920*
X2031822Y1538826*
X2030549*
X2029549Y1541123D02*
X2028549D01*
X2029095Y1540248*
X2028822*
X2028640Y1540138*
X2028549Y1540029*
X2028458Y1539701*
Y1539482*
X2028549Y1539154*
X2028731Y1538935*
X2029004Y1538826*
X2029277*
X2029549Y1538935*
X2029640Y1539045*
X2029731Y1539263*
X1980656Y1482686D02*
X1980437Y1482776D01*
X1980218Y1482958*
X1980109Y1483140*
Y1483504*
X1980218Y1483686*
X1980437Y1483867*
X1980656Y1483958*
X1980984Y1484049*
X1981531*
X1981859Y1483958*
X1982078Y1483867*
X1982297Y1483686*
X1982406Y1483504*
Y1483140*
X1982297Y1482958*
X1982078Y1482776*
X1981859Y1482686*
X1981531*
Y1483140D02*
Y1482686D01*
X1980109Y1481867D02*
X1982406D01*
X1980109D02*
X1982406Y1480595D01*
X1980109D02*
X1982406D01*
X1980109Y1479776D02*
X1982406D01*
X1980109D02*
Y1479140D01*
X1980218Y1478867*
X1980437Y1478686*
X1980656Y1478595*
X1980984Y1478504*
X1981531*
X1981859Y1478595*
X1982078Y1478686*
X1982297Y1478867*
X1982406Y1479140*
Y1479776*
X2019822Y1546407D02*
Y1544110D01*
Y1546407D02*
X2018640D01*
X2019822Y1545313D02*
X2019095D01*
X2019822Y1544110D02*
X2018640D01*
X2016549Y1546079D02*
X2016731Y1546297D01*
X2017004Y1546407*
X2017368*
X2017640Y1546297*
X2017822Y1546079*
Y1545860*
X2017731Y1545641*
X2017640Y1545532*
X2017458Y1545422*
X2016913Y1545204*
X2016731Y1545094*
X2016640Y1544985*
X2016549Y1544766*
Y1544438*
X2016731Y1544219*
X2017004Y1544110*
X2017368*
X2017640Y1544219*
X2017822Y1544438*
X2015731Y1546407D02*
Y1544110D01*
Y1546407D02*
X2014913D01*
X2014640Y1546297*
X2014549Y1546188*
X2014458Y1545969*
Y1545641*
X2014549Y1545422*
X2014640Y1545313*
X2014913Y1545204*
X2015731*
X2013458Y1546407D02*
X2012458D01*
X2013004Y1545532*
X2012731*
X2012549Y1545422*
X2012458Y1545313*
X2012368Y1544985*
Y1544766*
X2012458Y1544438*
X2012640Y1544219*
X2012913Y1544110*
X2013186*
X2013458Y1544219*
X2013549Y1544329*
X2013640Y1544547*
X2011458Y1545860D02*
Y1545969D01*
X2011368Y1546188*
X2011277Y1546297*
X2011095Y1546407*
X2010731*
X2010549Y1546297*
X2010458Y1546188*
X2010368Y1545969*
Y1545751*
X2010458Y1545532*
X2010640Y1545204*
X2011549Y1544110*
X2010277*
X2009458Y1545094D02*
X2007822D01*
X2005731Y1546079D02*
X2005913Y1546297D01*
X2006186Y1546407*
X2006549*
X2006822Y1546297*
X2007004Y1546079*
Y1545860*
X2006913Y1545641*
X2006822Y1545532*
X2006640Y1545422*
X2006095Y1545204*
X2005913Y1545094*
X2005822Y1544985*
X2005731Y1544766*
Y1544438*
X2005913Y1544219*
X2006186Y1544110*
X2006549*
X2006822Y1544219*
X2007004Y1544438*
X2004368Y1546407D02*
X2004549Y1546297D01*
X2004731Y1546079*
X2004822Y1545860*
X2004913Y1545532*
Y1544985*
X2004822Y1544657*
X2004731Y1544438*
X2004549Y1544219*
X2004368Y1544110*
X2004004*
X2003822Y1544219*
X2003640Y1544438*
X2003549Y1544657*
X2003458Y1544985*
Y1545532*
X2003549Y1545860*
X2003640Y1546079*
X2003822Y1546297*
X2004004Y1546407*
X2004368*
X2002640D02*
Y1544110D01*
X2001549*
X2000186Y1546407D02*
X2000368Y1546297D01*
X2000549Y1546079*
X2000640Y1545860*
X2000731Y1545532*
Y1544985*
X2000640Y1544657*
X2000549Y1544438*
X2000368Y1544219*
X2000186Y1544110*
X1999822*
X1999640Y1544219*
X1999458Y1544438*
X1999368Y1544657*
X1999277Y1544985*
Y1545532*
X1999368Y1545860*
X1999458Y1546079*
X1999640Y1546297*
X1999822Y1546407*
X2000186*
X1998458Y1545094D02*
X1996822D01*
X1996004Y1545969D02*
X1995822Y1546079D01*
X1995549Y1546407*
Y1544110*
X1994731Y1543672D02*
X1992822D01*
X1992277Y1546407D02*
X1991549Y1544110D01*
X1990822Y1546407D02*
X1991549Y1544110D01*
X1990004Y1545969D02*
X1989822Y1546079D01*
X1989549Y1546407*
Y1544110*
X1968504Y1580764D02*
X1992357D01*
X1968504D02*
X1973504Y1581764D01*
Y1579764*
X1968504Y1580764*
X2039370D02*
X2015516D01*
X2039370D02*
X2034370Y1579764D01*
Y1581764*
X2039370Y1580764*
X1968504Y1576681D02*
Y1582764D01*
X2039370Y1576681D02*
Y1582764D01*
X2055243Y1474288D02*
Y1519610D01*
Y1474288D02*
X2054243Y1479288D01*
X2056243*
X2055243Y1474288*
Y1574681D02*
Y1529360D01*
Y1574681D02*
X2056243Y1569681D01*
X2054243*
X2055243Y1574681*
X2041370Y1474288D02*
X2057243D01*
X2041370Y1574681D02*
X2057243D01*
X0Y0D02*
M02*
